<svg id="svg" xmlns="http://www.w3.org/2000/svg" xmlns:xlink="http://www.w3.org/1999/xlink" width="400" height="300" viewBox="0, 0, 400,300" version="1.1"><g id="svgg"><path id="path0" d="M398.504 190.234 C 398.521 190.288,398.491 190.339,398.438 190.348 C 398.073 190.407,397.470 190.872,397.563 191.023 C 397.625 191.124,397.499 191.396,397.282 191.629 C 397.066 191.861,396.943 192.140,397.010 192.247 C 397.080 192.361,397.032 192.382,396.894 192.297 C 396.331 191.949,395.652 192.369,395.775 192.988 C 395.848 193.351,395.819 193.529,395.700 193.455 C 395.594 193.390,395.508 193.435,395.508 193.555 C 395.508 193.675,395.426 193.723,395.327 193.661 C 394.991 193.453,394.882 194.324,395.203 194.645 C 395.797 195.239,394.690 195.481,394.053 194.897 C 393.782 194.649,393.508 194.689,393.671 194.952 C 393.755 195.089,393.725 195.125,393.593 195.043 C 393.279 194.849,391.992 195.437,391.992 195.775 C 391.992 195.933,391.933 196.215,391.861 196.403 C 391.763 196.660,391.798 196.704,392.008 196.583 C 392.172 196.487,392.219 196.494,392.122 196.600 C 392.033 196.697,391.901 196.779,391.829 196.780 C 391.511 196.787,390.665 197.728,390.758 197.971 C 390.815 198.119,390.962 198.184,391.085 198.115 C 391.208 198.046,391.105 198.187,390.856 198.428 C 390.443 198.830,390.430 198.896,390.710 199.205 C 391.058 199.589,390.935 199.805,390.369 199.805 C 389.882 199.805,388.867 200.850,388.867 201.352 C 388.867 201.596,388.711 201.753,388.428 201.793 C 388.066 201.844,387.995 201.967,388.025 202.490 C 388.050 202.911,387.973 203.125,387.798 203.125 C 387.653 203.125,387.557 203.279,387.585 203.467 C 387.612 203.655,387.751 203.809,387.893 203.809 C 388.281 203.809,388.360 204.279,387.996 204.419 C 387.751 204.513,387.688 204.769,387.723 205.542 C 387.765 206.482,388.084 207.163,388.356 206.892 C 388.422 206.825,388.477 206.867,388.477 206.985 C 388.477 207.102,388.345 207.330,388.184 207.492 C 388.022 207.653,387.890 207.945,387.890 208.140 C 387.889 208.377,387.600 208.615,387.025 208.852 C 386.352 209.128,386.177 209.292,386.235 209.592 C 386.287 209.866,386.158 210.035,385.788 210.176 C 385.470 210.297,385.353 210.427,385.487 210.510 C 385.692 210.637,385.159 211.540,384.878 211.541 C 384.820 211.541,384.268 211.765,383.649 212.039 C 382.775 212.425,382.448 212.489,382.183 212.323 C 381.133 211.667,379.297 213.120,379.297 214.607 C 379.297 215.104,379.387 215.430,379.525 215.430 C 379.650 215.430,379.695 215.488,379.624 215.558 C 379.419 215.764,379.894 216.211,380.318 216.211 C 380.608 216.211,380.672 216.298,380.574 216.553 C 380.501 216.741,380.393 217.158,380.333 217.480 C 380.274 217.803,380.087 218.176,379.919 218.311 C 379.751 218.445,379.690 218.555,379.785 218.555 C 379.880 218.555,379.787 218.693,379.578 218.862 C 379.370 219.031,379.331 219.102,379.492 219.020 C 379.738 218.894,379.745 218.920,379.534 219.180 C 379.396 219.351,379.304 219.565,379.329 219.657 C 379.423 220.004,379.064 220.703,378.791 220.703 C 378.635 220.703,378.417 220.902,378.306 221.145 C 378.099 221.600,377.122 222.266,376.661 222.266 C 376.513 222.266,376.348 222.582,376.277 223.004 C 376.167 223.654,376.089 223.740,375.625 223.718 C 375.335 223.705,374.966 223.759,374.805 223.838 C 374.644 223.917,374.279 224.073,373.994 224.185 C 373.681 224.307,373.488 224.525,373.506 224.734 C 373.534 225.070,372.849 225.534,372.117 225.675 C 371.851 225.726,371.773 225.599,371.760 225.095 C 371.751 224.740,371.590 224.296,371.402 224.109 C 371.215 223.921,370.982 223.561,370.886 223.308 C 370.790 223.055,370.644 222.867,370.561 222.889 C 370.478 222.911,370.206 222.860,369.957 222.775 C 369.647 222.670,369.399 222.715,369.175 222.918 C 368.995 223.081,368.760 223.243,368.652 223.277 C 368.545 223.312,368.486 223.428,368.522 223.535 C 368.663 223.959,368.644 224.104,368.443 224.112 C 368.114 224.126,367.636 224.685,367.725 224.953 C 367.770 225.086,367.706 225.195,367.583 225.195 C 367.460 225.195,367.414 225.283,367.480 225.391 C 367.547 225.498,367.491 225.586,367.357 225.586 C 367.216 225.586,367.262 225.695,367.465 225.843 C 367.794 226.084,367.796 226.122,367.490 226.428 C 367.310 226.608,367.217 226.843,367.284 226.952 C 367.490 227.285,367.285 227.173,366.648 226.604 C 366.083 226.100,365.377 225.940,364.930 226.216 C 364.827 226.280,364.414 226.393,364.012 226.469 C 363.610 226.544,363.281 226.684,363.281 226.780 C 363.281 226.875,363.149 226.953,362.988 226.953 C 362.713 226.953,362.603 227.298,362.685 227.900 C 362.708 228.066,362.626 228.110,362.464 228.018 C 362.266 227.906,362.259 227.929,362.435 228.119 C 362.609 228.308,362.578 228.504,362.298 228.964 C 362.098 229.293,361.971 229.622,362.016 229.694 C 362.061 229.767,361.880 230.030,361.615 230.279 C 361.164 230.702,361.015 230.629,361.110 230.029 C 361.122 229.949,361.023 229.905,360.889 229.932 C 360.754 229.958,360.669 229.864,360.698 229.722 C 360.728 229.580,360.667 229.516,360.563 229.580 C 360.459 229.644,360.231 229.395,360.056 229.026 C 359.727 228.332,359.064 228.011,358.398 228.223 C 358.202 228.285,357.984 228.245,357.915 228.133 C 357.716 227.811,356.702 227.897,356.332 228.266 C 356.147 228.451,355.767 228.616,355.488 228.633 C 355.193 228.650,355.004 228.764,355.037 228.906 C 355.072 229.056,354.976 229.104,354.785 229.031 C 354.241 228.822,353.270 229.524,353.451 229.996 C 353.563 230.287,352.796 231.116,352.554 230.966 C 352.295 230.806,352.167 231.581,352.412 231.826 C 352.573 231.987,352.520 232.073,352.212 232.153 C 351.650 232.300,351.486 232.957,351.973 233.112 C 352.472 233.270,352.440 233.479,351.827 234.093 C 351.418 234.501,351.366 234.644,351.577 234.775 C 351.794 234.908,351.781 234.964,351.512 235.068 C 351.251 235.168,351.222 235.276,351.380 235.570 C 351.649 236.073,351.457 236.328,350.809 236.328 C 350.514 236.328,350.164 236.438,350.029 236.572 C 349.895 236.707,349.702 236.827,349.600 236.841 C 349.498 236.854,349.329 236.876,349.225 236.890 C 349.121 236.903,349.092 237.060,349.160 237.239 C 349.242 237.451,349.209 237.517,349.066 237.429 C 348.945 237.354,348.752 237.473,348.633 237.695 C 348.515 237.916,348.334 238.045,348.232 237.982 C 348.130 237.919,348.047 237.970,348.047 238.095 C 348.047 238.221,347.922 238.275,347.770 238.217 C 347.489 238.109,347.299 238.412,347.147 239.209 C 347.100 239.451,347.156 239.648,347.270 239.648 C 347.393 239.648,347.375 239.757,347.224 239.920 C 347.073 240.083,346.925 240.115,346.853 240.001 C 346.788 239.896,346.684 240.003,346.622 240.238 C 346.561 240.472,346.421 240.609,346.312 240.542 C 346.100 240.410,345.644 241.087,345.824 241.266 C 345.883 241.325,345.572 241.325,345.133 241.266 C 344.572 241.191,344.336 241.231,344.336 241.401 C 344.336 241.544,344.206 241.594,344.021 241.523 C 343.797 241.436,343.739 241.486,343.819 241.695 C 343.881 241.856,343.868 241.978,343.792 241.967 C 343.404 241.909,343.207 242.035,343.010 242.468 C 342.891 242.729,342.871 242.971,342.965 243.005 C 343.233 243.101,342.653 243.774,342.253 243.832 C 342.024 243.866,341.888 244.057,341.875 244.361 C 341.865 244.622,341.755 245.025,341.632 245.256 C 341.401 245.687,341.509 246.289,341.818 246.289 C 341.914 246.289,341.992 246.421,341.992 246.582 C 341.992 246.743,341.899 246.875,341.785 246.875 C 341.672 246.875,341.637 246.969,341.708 247.085 C 341.779 247.200,341.653 247.179,341.427 247.038 C 341.167 246.875,341.016 246.579,341.016 246.231 C 341.016 245.913,340.933 245.731,340.820 245.801 C 340.713 245.867,340.625 245.828,340.625 245.715 C 340.625 245.601,340.405 245.508,340.137 245.508 C 339.868 245.508,339.648 245.420,339.648 245.313 C 339.648 245.010,338.735 245.082,338.407 245.410 C 338.246 245.571,337.976 245.703,337.807 245.703 C 337.638 245.703,337.522 245.813,337.549 245.947 C 337.576 246.082,337.450 246.167,337.271 246.137 C 337.091 246.108,336.879 246.187,336.801 246.314 C 336.595 246.648,336.486 247.859,336.665 247.830 C 337.059 247.766,337.316 247.871,337.205 248.050 C 337.138 248.159,337.008 248.203,336.918 248.147 C 336.652 247.982,336.133 248.260,336.133 248.568 C 336.133 248.724,336.055 248.803,335.960 248.745 C 335.740 248.609,334.765 249.368,334.769 249.672 C 334.770 249.807,334.850 249.781,334.961 249.609 C 335.129 249.349,335.152 249.349,335.168 249.609 C 335.178 249.771,335.215 250.050,335.250 250.231 C 335.354 250.771,334.876 250.774,334.365 250.235 C 334.102 249.958,333.996 249.796,334.129 249.876 C 334.295 249.975,334.333 249.922,334.250 249.706 C 334.184 249.533,334.023 249.433,333.892 249.483 C 333.735 249.543,333.684 249.422,333.740 249.126 C 333.787 248.880,333.719 248.613,333.589 248.532 C 333.262 248.330,331.816 248.247,331.933 248.437 C 331.986 248.522,331.811 248.646,331.545 248.712 C 331.279 248.779,330.926 249.096,330.760 249.417 C 330.594 249.738,330.329 250.000,330.171 250.000 C 329.819 250.000,329.795 250.414,330.127 250.771 C 330.322 250.981,330.322 251.006,330.127 250.896 C 329.981 250.814,329.883 250.871,329.883 251.039 C 329.883 251.193,329.734 251.440,329.552 251.587 C 329.364 251.740,329.281 251.756,329.360 251.625 C 329.436 251.498,329.403 251.335,329.287 251.263 C 329.170 251.191,329.116 251.025,329.166 250.894 C 329.217 250.763,329.087 250.549,328.879 250.419 C 328.671 250.289,328.553 250.098,328.617 249.994 C 328.681 249.890,328.640 249.805,328.525 249.805 C 328.185 249.805,327.199 248.751,327.291 248.486 C 327.338 248.352,327.215 248.228,327.018 248.210 C 325.733 248.097,325.208 248.105,325.291 248.240 C 325.384 248.390,324.670 248.701,324.351 248.649 C 324.262 248.635,324.245 248.713,324.313 248.823 C 324.381 248.933,324.354 249.023,324.253 249.023 C 324.001 249.023,323.822 249.778,324.042 249.914 C 324.139 249.974,324.219 250.111,324.219 250.218 C 324.219 250.326,324.137 250.363,324.037 250.302 C 323.938 250.240,323.800 250.368,323.730 250.586 C 323.661 250.804,323.541 250.943,323.463 250.895 C 323.156 250.705,322.812 251.132,322.942 251.541 C 323.022 251.793,323.167 251.904,323.305 251.821 C 323.437 251.742,323.421 251.823,323.269 252.011 C 323.012 252.328,322.549 252.285,322.748 251.962 C 322.802 251.875,322.584 251.694,322.263 251.561 C 321.574 251.276,320.416 251.626,320.585 252.069 C 320.650 252.238,320.578 252.283,320.371 252.204 C 320.124 252.109,320.079 252.186,320.154 252.578 C 320.252 253.092,319.705 253.646,319.328 253.413 C 319.225 253.349,319.141 253.488,319.141 253.720 C 319.141 254.028,319.226 254.111,319.454 254.023 C 319.708 253.926,319.692 254.022,319.366 254.539 C 318.778 255.472,317.632 255.580,317.693 254.697 C 317.716 254.370,317.650 254.102,317.547 254.102 C 317.444 254.102,317.408 254.024,317.467 253.929 C 317.561 253.777,317.387 253.051,317.041 252.148 C 316.979 251.987,316.918 251.812,316.904 251.758 C 316.848 251.524,316.324 250.671,316.100 250.447 C 315.965 250.312,315.825 250.113,315.789 250.004 C 315.694 249.720,314.453 249.386,314.453 249.644 C 314.453 249.755,314.321 249.796,314.160 249.734 C 313.988 249.668,313.867 249.731,313.867 249.888 C 313.867 250.034,313.731 250.206,313.564 250.270 C 313.390 250.337,313.312 250.304,313.380 250.193 C 313.446 250.087,313.369 250.000,313.208 250.000 C 313.048 250.000,312.861 249.824,312.793 249.609 C 312.725 249.395,312.557 249.219,312.420 249.219 C 312.283 249.219,312.065 248.865,311.935 248.432 C 311.806 247.999,311.626 247.690,311.536 247.746 C 311.446 247.802,311.264 247.716,311.131 247.556 C 310.841 247.207,309.866 247.149,310.079 247.494 C 310.174 247.648,310.114 247.682,309.895 247.598 C 309.708 247.526,309.570 247.569,309.570 247.699 C 309.570 247.824,309.391 247.733,309.172 247.498 C 308.953 247.263,308.645 247.070,308.488 247.070 C 308.332 247.070,308.203 246.977,308.203 246.862 C 308.203 246.569,307.134 246.724,307.104 247.021 C 307.054 247.523,307.020 247.552,306.818 247.266 C 306.662 247.045,306.586 247.033,306.512 247.217 C 306.457 247.351,306.244 247.461,306.038 247.461 C 305.681 247.461,305.579 247.268,305.650 246.725 C 305.668 246.589,305.569 246.502,305.429 246.530 C 305.290 246.559,305.197 246.475,305.223 246.344 C 305.248 246.213,305.094 246.012,304.881 245.897 C 304.667 245.783,304.367 245.391,304.215 245.027 C 303.898 244.269,302.491 243.785,302.001 244.265 C 301.866 244.398,301.585 244.560,301.376 244.626 C 300.895 244.779,300.677 245.439,300.984 245.810 C 301.174 246.038,301.158 246.094,300.903 246.094 C 300.729 246.094,300.586 246.182,300.586 246.289 C 300.586 246.396,300.493 246.484,300.379 246.484 C 300.265 246.484,300.224 246.400,300.288 246.297 C 300.455 246.026,299.307 245.487,298.889 245.641 C 298.695 245.713,298.465 245.888,298.379 246.030 C 298.293 246.173,298.057 246.289,297.855 246.289 C 297.517 246.289,297.127 246.940,297.232 247.329 C 297.256 247.418,297.185 247.434,297.075 247.366 C 296.965 247.298,296.875 247.028,296.875 246.766 C 296.875 246.504,296.809 246.288,296.729 246.288 C 296.648 246.287,296.480 246.067,296.356 245.799 C 296.232 245.531,296.210 245.361,296.307 245.421 C 296.405 245.482,296.484 245.384,296.484 245.205 C 296.484 244.986,296.381 244.920,296.170 245.001 C 295.945 245.087,295.887 245.038,295.967 244.828 C 296.043 244.631,295.924 244.496,295.606 244.416 C 295.345 244.351,295.072 244.108,294.999 243.877 C 294.926 243.646,294.704 243.316,294.507 243.144 C 294.309 242.972,294.196 242.783,294.255 242.724 C 294.314 242.666,293.988 242.637,293.531 242.660 C 293.073 242.683,292.665 242.807,292.622 242.934 C 292.580 243.062,292.466 243.118,292.369 243.058 C 291.949 242.798,291.082 244.129,291.439 244.485 C 291.571 244.618,291.562 244.728,291.410 244.822 C 291.116 245.004,290.957 244.830,290.921 244.287 C 290.903 244.015,290.616 243.667,290.169 243.373 C 289.696 243.063,289.526 242.849,289.676 242.756 C 289.963 242.579,289.437 241.992,288.993 241.992 C 288.709 241.992,288.094 240.321,288.029 239.373 C 288.013 239.149,287.844 238.794,287.653 238.586 C 287.461 238.378,287.305 238.092,287.305 237.951 C 287.305 237.811,287.163 237.695,286.991 237.695 C 286.792 237.695,286.718 237.588,286.789 237.402 C 286.851 237.241,286.811 237.109,286.701 237.109 C 286.591 237.109,286.555 237.021,286.621 236.914 C 286.687 236.807,286.639 236.719,286.514 236.719 C 286.389 236.719,286.336 236.590,286.396 236.432 C 286.466 236.251,286.294 236.019,285.929 235.804 C 285.611 235.616,285.352 235.388,285.352 235.297 C 285.352 235.206,285.066 235.159,284.717 235.193 C 284.367 235.226,284.101 235.356,284.125 235.480 C 284.150 235.612,283.969 235.685,283.691 235.654 C 283.429 235.625,283.261 235.677,283.318 235.770 C 283.375 235.862,283.191 235.938,282.910 235.938 C 282.619 235.938,282.451 236.022,282.520 236.133 C 282.586 236.240,282.542 236.328,282.422 236.328 C 282.302 236.328,282.244 236.394,282.293 236.475 C 282.410 236.667,281.782 237.954,281.590 237.914 C 280.986 237.788,280.256 238.518,280.545 238.959 C 280.843 239.415,280.561 239.796,280.015 239.675 C 279.926 239.655,279.906 239.723,279.969 239.825 C 280.033 239.928,279.994 240.068,279.883 240.137 C 279.772 240.205,279.733 240.345,279.795 240.446 C 280.020 240.809,280.082 241.602,279.887 241.602 C 279.777 241.602,279.688 241.504,279.688 241.385 C 279.688 241.266,279.560 241.218,279.404 241.278 C 279.214 241.351,279.157 241.293,279.232 241.099 C 279.294 240.937,279.120 240.591,278.834 240.304 C 278.555 240.025,278.374 239.719,278.433 239.624 C 278.600 239.354,277.503 239.022,276.865 239.149 C 275.865 239.348,274.999 240.434,275.635 240.691 C 275.781 240.750,275.741 240.796,275.537 240.805 C 275.349 240.813,275.217 240.926,275.244 241.056 C 275.271 241.185,275.205 241.296,275.098 241.303 C 274.680 241.328,274.403 241.651,274.510 241.988 C 274.573 242.184,274.486 242.478,274.316 242.648 C 273.896 243.068,273.925 243.244,274.433 243.364 C 274.830 243.458,274.840 243.491,274.551 243.780 C 274.379 243.953,274.292 244.149,274.358 244.215 C 274.425 244.282,274.387 244.336,274.274 244.336 C 274.161 244.336,274.027 244.498,273.975 244.697 C 273.870 245.095,273.123 245.388,273.094 245.042 C 273.084 244.922,273.014 244.561,272.938 244.238 C 272.863 243.916,272.807 243.499,272.814 243.311 C 272.821 243.123,272.660 242.880,272.456 242.771 C 272.215 242.642,272.127 242.453,272.206 242.233 C 272.273 242.047,272.262 241.953,272.182 242.025 C 271.949 242.235,271.094 241.375,271.094 240.930 C 271.094 240.440,270.614 240.113,269.625 239.928 C 269.096 239.829,268.927 239.852,269.026 240.012 C 269.105 240.140,269.034 240.245,268.859 240.259 C 268.171 240.314,268.069 240.361,268.120 240.600 C 268.150 240.737,268.089 240.797,267.985 240.733 C 267.761 240.594,266.992 241.370,266.992 241.736 C 266.992 241.877,267.139 241.992,267.318 241.992 C 267.497 241.992,267.577 242.058,267.497 242.139 C 267.416 242.219,267.248 242.285,267.122 242.285 C 266.997 242.285,266.895 242.388,266.895 242.513 C 266.895 242.638,266.815 242.814,266.717 242.904 C 266.613 242.998,266.598 242.964,266.679 242.822 C 266.767 242.670,266.703 242.578,266.509 242.578 C 266.199 242.578,266.046 242.815,265.918 243.491 C 265.881 243.687,265.833 243.892,265.812 243.945 C 265.791 243.999,265.784 244.109,265.797 244.189 C 265.810 244.270,265.732 244.336,265.625 244.336 C 265.355 244.336,265.380 244.989,265.661 245.270 C 266.156 245.765,264.478 245.877,261.855 245.524 C 261.017 245.412,260.269 245.328,260.195 245.339 C 260.120 245.350,260.015 245.342,259.961 245.321 C 259.843 245.275,259.257 245.145,258.594 245.019 C 258.325 244.967,257.754 244.841,257.324 244.738 C 256.895 244.635,256.119 244.460,255.600 244.349 C 255.082 244.238,254.232 244.021,253.713 243.866 C 253.193 243.712,252.739 243.611,252.703 243.643 C 252.666 243.674,252.468 243.535,252.261 243.334 C 252.054 243.133,251.968 242.969,252.069 242.969 C 252.273 242.969,252.265 241.753,252.058 241.418 C 251.985 241.301,251.822 241.267,251.695 241.343 C 251.520 241.448,251.519 241.414,251.691 241.200 C 251.865 240.984,251.851 240.735,251.630 240.137 C 251.472 239.707,251.326 239.224,251.306 239.063 C 251.286 238.901,251.198 238.717,251.111 238.653 C 251.024 238.589,250.944 238.262,250.935 237.927 C 250.925 237.592,250.843 237.364,250.752 237.421 C 250.604 237.512,250.552 237.359,250.603 236.980 C 250.632 236.771,250.013 236.492,249.805 236.621 C 249.692 236.691,249.667 236.601,249.743 236.402 C 249.839 236.152,249.795 236.095,249.571 236.181 C 249.340 236.269,249.279 236.174,249.312 235.775 C 249.335 235.485,249.194 235.087,248.993 234.878 C 248.752 234.626,248.633 234.588,248.633 234.762 C 248.633 234.955,248.541 234.938,248.276 234.698 C 248.079 234.520,247.833 234.375,247.729 234.375 C 247.426 234.375,246.488 234.850,246.486 235.004 C 246.485 235.081,246.338 235.088,246.159 235.019 C 245.941 234.935,245.881 234.969,245.976 235.123 C 246.053 235.249,246.034 235.352,245.933 235.352 C 245.572 235.352,245.501 236.221,245.841 236.475 C 246.146 236.702,246.145 236.719,245.832 236.719 C 245.647 236.719,245.447 236.845,245.388 236.999 C 245.328 237.155,245.148 237.229,244.984 237.166 C 244.630 237.031,244.343 237.424,244.339 238.049 C 244.337 238.358,244.413 238.454,244.580 238.353 C 244.746 238.253,244.738 238.312,244.556 238.537 C 244.266 238.894,244.042 238.990,244.238 238.672 C 244.305 238.564,244.257 238.477,244.131 238.477 C 244.006 238.477,243.956 238.341,244.020 238.173 C 244.084 238.007,244.071 237.910,243.992 237.958 C 243.913 238.006,243.740 237.929,243.609 237.787 C 243.442 237.605,243.435 237.507,243.587 237.457 C 243.731 237.409,243.713 237.291,243.532 237.101 C 243.232 236.786,243.107 236.075,243.381 236.244 C 243.477 236.303,243.555 236.264,243.555 236.158 C 243.555 236.051,243.379 235.908,243.164 235.840 C 242.873 235.748,242.773 235.544,242.773 235.045 C 242.773 234.677,242.676 234.375,242.557 234.375 C 242.438 234.375,242.395 234.233,242.462 234.060 C 242.553 233.823,242.498 233.775,242.239 233.865 C 241.948 233.967,241.954 233.939,242.274 233.692 C 242.482 233.530,242.553 233.398,242.431 233.398 C 242.310 233.398,242.244 233.223,242.285 233.008 C 242.340 232.725,242.255 232.617,241.981 232.617 C 241.625 232.617,241.519 232.430,241.582 231.907 C 241.597 231.785,241.387 231.629,241.117 231.561 C 240.689 231.454,240.572 231.250,240.642 230.730 C 240.652 230.660,240.520 230.523,240.350 230.428 C 240.179 230.332,240.039 230.093,240.039 229.897 C 240.039 229.226,238.031 228.363,237.704 228.893 C 237.577 229.098,237.524 229.095,237.424 228.880 C 237.356 228.733,237.334 228.798,237.374 229.023 C 237.434 229.355,237.360 229.423,236.986 229.382 C 236.685 229.349,236.523 229.432,236.523 229.620 C 236.523 229.807,236.402 229.871,236.179 229.800 C 235.738 229.660,235.411 230.187,235.460 230.957 C 235.484 231.324,235.593 231.521,235.751 231.483 C 235.947 231.437,235.943 231.496,235.734 231.749 C 235.553 231.966,235.438 231.998,235.387 231.845 C 235.335 231.688,235.199 231.718,234.954 231.940 C 234.757 232.118,234.648 232.397,234.711 232.561 C 234.805 232.807,234.755 232.821,234.420 232.641 C 234.115 232.478,233.988 232.484,233.900 232.668 C 233.837 232.801,233.821 232.712,233.866 232.470 C 233.911 232.229,233.868 232.080,233.771 232.140 C 233.673 232.200,233.594 232.159,233.594 232.049 C 233.594 231.939,233.463 231.899,233.302 231.960 C 233.127 232.027,232.958 231.928,232.877 231.710 C 232.804 231.511,232.667 231.296,232.573 231.232 C 232.479 231.169,232.388 230.905,232.370 230.646 C 232.325 229.974,231.916 229.625,231.342 229.769 C 230.987 229.858,230.859 229.812,230.859 229.594 C 230.859 229.415,230.684 229.298,230.420 229.300 C 229.807 229.303,229.091 229.512,229.181 229.661 C 229.222 229.729,229.138 229.894,228.995 230.026 C 228.729 230.272,227.930 229.446,227.930 228.925 C 227.930 228.807,227.847 228.711,227.746 228.711 C 227.644 228.711,227.593 228.548,227.631 228.349 C 227.670 228.149,227.533 227.732,227.328 227.421 C 227.123 227.110,226.955 226.715,226.954 226.544 C 226.953 226.163,226.395 225.508,225.924 225.333 C 225.734 225.262,225.524 224.934,225.458 224.603 C 225.379 224.212,225.247 224.037,225.077 224.102 C 224.934 224.157,224.765 224.118,224.702 224.015 C 224.519 223.719,223.865 223.798,223.674 224.139 C 223.578 224.309,223.442 224.441,223.371 224.432 C 222.905 224.368,222.650 224.442,222.754 224.609 C 222.820 224.717,222.793 224.805,222.693 224.805 C 222.593 224.805,222.453 225.168,222.382 225.612 C 222.311 226.056,222.200 226.367,222.136 226.302 C 221.843 226.009,221.284 226.578,221.489 226.961 C 221.647 227.257,221.631 227.344,221.418 227.344 C 221.115 227.344,220.560 226.768,220.681 226.581 C 220.723 226.517,220.517 226.346,220.223 226.201 C 219.546 225.866,217.929 226.233,218.102 226.682 C 218.159 226.831,218.099 226.953,217.969 226.953 C 217.838 226.953,217.781 227.080,217.840 227.236 C 217.946 227.511,217.308 227.872,216.910 227.762 C 216.812 227.735,216.855 227.866,217.008 228.053 C 217.253 228.354,217.247 228.379,216.953 228.269 C 216.727 228.184,216.653 228.227,216.720 228.403 C 216.775 228.545,216.682 228.798,216.514 228.966 C 216.327 229.153,216.284 229.319,216.404 229.393 C 216.511 229.459,216.697 229.695,216.815 229.917 C 216.934 230.139,216.946 230.268,216.842 230.204 C 216.561 230.030,216.102 230.692,216.118 231.250 C 216.125 231.520,215.917 231.957,215.652 232.227 C 215.388 232.495,215.236 232.605,215.313 232.471 C 215.390 232.336,215.397 232.227,215.330 232.227 C 215.129 232.227,214.648 232.768,214.648 232.994 C 214.648 233.109,214.579 233.203,214.495 233.203 C 214.410 233.203,214.328 233.381,214.311 233.598 C 214.295 233.815,214.363 233.942,214.463 233.881 C 214.562 233.819,214.590 233.910,214.523 234.083 C 214.457 234.256,214.282 234.351,214.135 234.295 C 213.961 234.228,213.867 234.335,213.867 234.600 C 213.867 234.926,213.813 234.963,213.596 234.784 C 213.422 234.640,213.358 234.317,213.417 233.881 C 213.485 233.375,213.427 233.172,213.188 233.080 C 213.012 233.013,212.913 232.841,212.967 232.700 C 213.021 232.558,212.899 232.389,212.695 232.324 C 212.385 232.226,212.020 231.605,212.064 231.250 C 212.071 231.196,211.974 231.026,211.849 230.871 C 211.672 230.652,211.676 230.622,211.865 230.736 C 212.000 230.816,212.109 230.842,212.109 230.793 C 212.109 230.202,210.231 229.759,209.699 230.225 C 209.484 230.413,209.363 230.471,209.430 230.355 C 209.498 230.238,209.421 230.143,209.260 230.143 C 209.097 230.143,209.012 230.258,209.067 230.404 C 209.122 230.547,209.090 230.664,208.995 230.664 C 208.899 230.664,208.786 230.557,208.743 230.427 C 208.699 230.296,208.538 230.472,208.386 230.818 C 208.233 231.163,208.034 231.445,207.944 231.445 C 207.854 231.445,207.816 231.554,207.861 231.688 C 207.958 231.979,207.553 232.422,207.190 232.422 C 206.727 232.422,206.382 233.183,206.678 233.549 C 206.819 233.722,206.839 233.808,206.724 233.739 C 206.241 233.450,205.821 234.347,206.197 234.864 C 206.387 235.125,206.609 235.342,206.689 235.345 C 206.971 235.357,206.832 235.650,206.425 235.905 C 206.116 236.098,206.051 236.101,206.164 235.919 C 206.247 235.785,206.090 235.844,205.815 236.051 C 205.482 236.301,205.390 236.474,205.539 236.569 C 205.700 236.673,205.694 236.714,205.518 236.716 C 205.135 236.720,204.450 235.938,204.568 235.631 C 204.820 234.973,202.727 234.477,202.359 235.107 C 202.234 235.323,202.158 235.354,202.154 235.191 C 202.150 234.997,202.072 235.009,201.842 235.240 C 201.673 235.409,201.456 235.547,201.359 235.547 C 201.263 235.547,201.195 235.846,201.209 236.212 C 201.228 236.726,201.305 236.856,201.545 236.780 C 201.800 236.699,201.806 236.717,201.580 236.878 C 201.429 236.985,201.172 237.022,201.009 236.960 C 200.800 236.879,200.748 236.936,200.831 237.153 C 200.914 237.369,200.809 237.487,200.474 237.550 C 200.017 237.638,199.913 237.509,199.989 236.948 C 200.008 236.805,199.843 236.641,199.621 236.583 C 199.255 236.487,199.133 236.288,199.196 235.889 C 199.208 235.808,199.131 235.742,199.023 235.742 C 198.916 235.742,198.826 235.588,198.824 235.400 C 198.820 235.066,198.060 233.927,198.051 234.242 C 198.049 234.331,197.909 234.265,197.740 234.096 C 197.295 233.651,196.589 233.718,195.681 234.291 C 195.243 234.568,194.835 234.744,194.775 234.684 C 194.607 234.516,194.129 234.980,194.257 235.187 C 194.319 235.287,194.258 235.503,194.121 235.668 C 193.823 236.027,194.203 236.367,194.692 236.179 C 194.883 236.106,194.937 236.146,194.845 236.295 C 194.767 236.421,194.550 236.523,194.363 236.523 C 194.176 236.523,193.914 236.633,193.779 236.768 C 193.645 236.902,193.298 237.012,193.008 237.012 C 192.556 237.012,192.472 237.102,192.419 237.646 C 192.386 237.996,192.449 238.281,192.560 238.281 C 192.670 238.281,192.716 238.398,192.661 238.542 C 192.515 238.922,191.992 238.860,191.992 238.463 C 191.992 238.261,191.735 238.024,191.357 237.878 C 190.326 237.477,189.968 237.508,189.502 238.038 C 189.260 238.313,189.063 238.469,189.063 238.385 C 189.063 238.302,188.929 238.345,188.765 238.480 C 188.513 238.689,188.489 238.672,188.604 238.373 C 188.712 238.090,188.669 238.045,188.391 238.152 C 188.148 238.245,188.072 238.208,188.141 238.029 C 188.195 237.888,188.029 237.570,187.772 237.323 C 187.515 237.075,187.305 236.717,187.305 236.527 C 187.305 235.819,186.568 235.567,185.166 235.793 C 184.501 235.901,183.842 236.800,184.153 237.175 C 184.336 237.396,184.320 237.479,184.077 237.573 C 183.901 237.640,183.819 237.609,183.887 237.500 C 183.954 237.392,183.874 237.359,183.703 237.425 C 183.537 237.489,183.446 237.614,183.500 237.702 C 183.555 237.791,183.511 237.919,183.402 237.986 C 183.292 238.054,183.200 237.994,183.197 237.853 C 183.193 237.693,183.087 237.734,182.912 237.966 C 182.699 238.247,182.683 238.434,182.844 238.748 C 183.007 239.066,183.002 239.110,182.823 238.942 C 182.695 238.821,182.572 238.602,182.549 238.453 C 182.484 238.024,182.214 237.680,182.031 237.793 C 181.939 237.850,181.808 237.808,181.740 237.698 C 181.582 237.442,180.664 237.439,180.664 237.695 C 180.664 237.803,180.543 237.891,180.395 237.891 C 180.247 237.891,180.017 238.021,179.885 238.181 C 179.752 238.341,179.577 238.432,179.497 238.382 C 179.417 238.332,179.364 238.487,179.381 238.726 C 179.422 239.314,178.915 240.084,178.574 239.953 C 178.423 239.895,178.354 239.935,178.419 240.041 C 178.485 240.147,178.435 240.234,178.309 240.234 C 178.176 240.234,178.122 240.398,178.182 240.625 C 178.238 240.840,178.204 240.967,178.107 240.907 C 178.009 240.847,177.930 240.890,177.930 241.004 C 177.930 241.118,177.765 241.211,177.563 241.211 C 177.089 241.211,176.769 241.606,176.715 242.256 C 176.692 242.541,176.571 242.773,176.446 242.773 C 176.322 242.773,176.111 242.904,175.978 243.064 C 175.846 243.224,175.659 243.307,175.564 243.248 C 175.469 243.189,175.391 243.239,175.391 243.359 C 175.391 243.479,175.301 243.523,175.192 243.455 C 175.083 243.388,175.044 243.251,175.106 243.151 C 175.168 243.051,175.120 242.969,175.000 242.969 C 174.880 242.969,174.837 242.879,174.905 242.770 C 175.049 242.536,174.647 241.211,174.433 241.211 C 174.352 241.211,174.324 240.958,174.369 240.648 C 174.416 240.326,174.347 240.021,174.207 239.934 C 174.064 239.846,174.012 239.863,174.082 239.976 C 174.148 240.082,174.086 240.169,173.944 240.169 C 173.787 240.169,173.724 240.024,173.783 239.800 C 173.851 239.541,173.755 239.398,173.465 239.322 C 173.238 239.262,173.096 239.142,173.150 239.054 C 173.204 238.966,173.163 238.841,173.059 238.777 C 172.954 238.712,172.924 238.516,172.991 238.341 C 173.073 238.128,173.037 238.069,172.885 238.163 C 172.753 238.245,172.656 238.192,172.656 238.038 C 172.656 237.641,171.123 237.587,170.973 237.979 C 170.909 238.144,170.779 238.230,170.683 238.171 C 170.586 238.112,170.506 238.178,170.505 238.319 C 170.502 238.519,170.465 238.516,170.331 238.304 C 170.197 238.094,170.130 238.130,170.022 238.469 C 169.872 238.941,169.336 238.238,169.336 237.569 C 169.336 237.417,169.138 237.213,168.896 237.115 C 168.655 237.018,168.526 236.933,168.610 236.926 C 168.695 236.920,168.666 236.731,168.546 236.507 C 168.426 236.283,168.280 236.147,168.223 236.204 C 168.040 236.387,167.524 235.733,167.502 235.289 C 167.488 235.005,167.335 234.843,167.041 234.801 C 166.799 234.767,166.602 234.657,166.602 234.557 C 166.602 234.457,166.245 234.375,165.809 234.375 C 165.330 234.375,165.064 234.452,165.137 234.570 C 165.203 234.678,165.125 234.766,164.963 234.766 C 164.801 234.766,164.578 234.919,164.469 235.107 C 164.312 235.376,164.268 235.387,164.263 235.156 C 164.259 234.995,164.130 235.105,163.976 235.399 C 163.663 235.998,163.650 236.719,163.952 236.719 C 164.061 236.719,163.932 236.872,163.667 237.059 C 163.401 237.246,163.115 237.377,163.032 237.350 C 162.948 237.323,162.829 237.434,162.767 237.596 C 162.704 237.758,162.590 237.891,162.512 237.891 C 162.369 237.891,162.344 237.804,162.239 236.911 C 162.207 236.641,161.880 236.092,161.512 235.691 C 161.145 235.290,160.843 234.818,160.842 234.642 C 160.840 234.322,160.689 234.208,159.766 233.829 C 158.781 233.426,158.559 233.405,158.272 233.692 C 158.111 233.853,157.825 233.984,157.635 233.984 C 157.445 233.984,157.187 234.208,157.063 234.482 C 156.763 235.139,156.777 235.352,157.117 235.352 C 157.272 235.352,157.453 235.439,157.519 235.546 C 157.597 235.672,157.450 235.669,157.107 235.539 C 156.707 235.386,156.537 235.399,156.420 235.588 C 156.334 235.727,156.195 235.847,156.111 235.857 C 155.593 235.914,155.339 236.192,155.420 236.614 C 155.482 236.939,155.388 237.139,155.102 237.292 C 154.772 237.468,154.716 237.457,154.804 237.229 C 154.863 237.075,154.773 236.682,154.604 236.355 C 154.435 236.029,154.297 235.510,154.297 235.202 C 154.297 234.806,154.093 234.462,153.602 234.027 C 153.219 233.688,152.893 233.236,152.877 233.023 C 152.861 232.809,152.810 232.672,152.764 232.717 C 152.718 232.763,152.429 232.621,152.121 232.402 C 151.510 231.967,150.842 231.985,150.942 232.433 C 150.991 232.655,150.953 232.664,150.763 232.478 C 150.630 232.347,150.506 232.040,150.488 231.794 C 150.464 231.479,150.338 231.354,150.057 231.369 C 149.752 231.385,149.684 231.300,149.763 230.997 C 149.830 230.743,149.790 230.650,149.654 230.734 C 149.423 230.877,148.786 230.108,148.936 229.867 C 149.097 229.605,147.853 229.443,147.559 229.687 C 147.134 230.040,146.871 229.738,146.965 229.004 C 147.035 228.454,146.996 228.361,146.733 228.462 C 146.496 228.553,146.448 228.501,146.542 228.257 C 146.653 227.967,146.498 227.848,146.073 227.897 C 146.008 227.905,145.840 227.564,145.700 227.139 C 145.560 226.715,145.357 226.367,145.249 226.367 C 145.141 226.367,145.109 226.310,145.179 226.240 C 145.346 226.074,144.400 225.586,143.911 225.586 C 143.703 225.586,143.586 225.674,143.652 225.781 C 143.772 225.974,143.509 226.057,142.998 225.987 C 142.847 225.966,142.793 226.045,142.871 226.172 C 142.958 226.312,142.876 226.371,142.647 226.331 C 142.396 226.289,142.266 226.405,142.222 226.712 C 142.186 226.970,142.072 227.100,141.948 227.024 C 141.828 226.949,141.792 226.983,141.866 227.103 C 141.937 227.218,141.858 227.451,141.689 227.619 C 141.520 227.788,141.436 228.015,141.503 228.124 C 141.570 228.232,141.537 228.320,141.429 228.320 C 141.322 228.320,141.174 228.223,141.100 228.104 C 140.883 227.752,140.625 228.347,140.732 228.955 C 140.800 229.346,140.745 229.492,140.530 229.492 C 140.147 229.492,140.156 229.776,140.557 230.390 C 140.846 230.830,140.849 230.915,140.585 231.178 C 140.245 231.518,139.209 231.689,139.309 231.389 C 139.346 231.279,139.129 230.920,138.828 230.590 C 138.509 230.241,138.281 229.769,138.281 229.458 C 138.281 229.157,138.133 228.839,137.939 228.727 C 137.750 228.616,137.706 228.525,137.842 228.522 C 138.152 228.514,138.161 227.692,137.854 227.385 C 137.569 227.100,137.475 226.707,137.442 225.654 C 137.422 225.020,137.347 224.856,137.100 224.904 C 136.926 224.938,136.769 224.841,136.751 224.690 C 136.733 224.538,136.704 224.294,136.686 224.148 C 136.666 223.981,136.501 223.919,136.247 223.981 C 136.023 224.036,135.905 224.010,135.985 223.924 C 136.064 223.837,136.024 223.640,135.896 223.485 C 135.768 223.331,135.634 223.017,135.599 222.788 C 135.535 222.367,135.252 221.978,135.000 221.966 C 134.925 221.962,134.671 221.852,134.435 221.721 C 133.998 221.478,132.913 221.759,133.103 222.066 C 133.149 222.140,133.062 222.201,132.910 222.201 C 132.758 222.201,132.691 222.105,132.761 221.989 C 132.922 221.720,132.238 222.243,131.787 222.735 C 131.435 223.118,131.304 223.939,131.627 223.739 C 131.727 223.677,131.858 223.706,131.918 223.803 C 131.978 223.900,131.856 224.024,131.648 224.078 C 131.439 224.133,131.220 224.077,131.160 223.954 C 131.099 223.831,131.087 223.928,131.132 224.170 C 131.177 224.411,131.134 224.658,131.036 224.718 C 130.939 224.779,130.859 224.710,130.859 224.567 C 130.859 224.423,130.683 224.154,130.467 223.969 C 129.578 223.209,127.657 224.103,128.360 224.950 C 128.561 225.192,128.537 225.228,128.216 225.164 C 127.940 225.110,127.850 224.959,127.897 224.632 C 127.934 224.371,127.880 224.227,127.771 224.294 C 127.666 224.359,127.534 224.291,127.477 224.144 C 127.294 223.667,125.195 223.936,125.195 224.438 C 125.195 224.532,125.058 224.609,124.891 224.609 C 124.723 224.609,124.634 224.687,124.693 224.782 C 124.881 225.087,124.403 226.155,124.126 226.049 C 123.808 225.927,123.504 226.362,123.785 226.536 C 123.914 226.616,123.863 226.816,123.644 227.086 L 123.301 227.510 121.855 226.818 C 121.061 226.437,120.322 226.108,120.215 226.085 C 119.142 225.861,118.370 225.472,118.183 225.062 C 118.064 224.801,117.884 224.639,117.782 224.702 C 117.680 224.765,117.504 224.472,117.391 224.052 C 117.131 223.087,116.758 222.771,116.066 222.928 C 115.578 223.038,114.274 223.156,112.837 223.218 C 112.396 223.238,112.273 223.354,112.175 223.843 C 112.072 224.356,112.015 224.404,111.783 224.171 C 111.550 223.938,111.338 223.941,110.324 224.189 C 108.823 224.555,108.199 224.274,107.936 223.111 C 107.658 221.886,107.539 221.733,107.467 222.507 L 107.399 223.237 106.928 222.702 C 106.415 222.119,106.349 222.226,106.627 223.194 C 106.789 223.760,106.763 223.837,106.383 223.914 C 105.309 224.131,104.866 224.154,104.769 223.997 C 104.555 223.650,104.311 223.848,104.194 224.463 C 103.951 225.743,102.364 226.610,101.621 225.868 C 101.369 225.616,101.279 225.606,101.146 225.816 C 101.011 226.029,100.982 226.029,100.980 225.817 C 100.978 225.649,100.841 225.603,100.586 225.684 C 100.371 225.752,100.195 225.725,100.195 225.623 C 100.195 225.271,98.997 225.537,98.705 225.954 C 98.546 226.181,98.288 226.367,98.133 226.367 C 97.978 226.367,97.852 226.455,97.852 226.563 C 97.852 226.670,97.758 226.758,97.645 226.758 C 97.531 226.758,97.494 226.648,97.562 226.514 C 97.630 226.379,97.564 226.416,97.417 226.595 C 97.175 226.889,95.836 227.291,95.451 227.185 C 95.366 227.162,95.124 227.235,94.914 227.348 C 94.652 227.488,94.531 227.489,94.531 227.351 C 94.531 227.239,94.303 227.148,94.025 227.148 C 93.676 227.148,93.485 227.022,93.412 226.743 C 93.298 226.306,92.163 226.324,90.674 226.786 C 89.948 227.012,89.919 227.083,90.356 227.566 C 90.653 227.893,90.637 227.931,90.112 228.147 C 88.841 228.670,86.197 229.962,85.730 230.288 C 85.455 230.481,84.994 230.697,84.705 230.770 C 84.416 230.842,84.180 230.980,84.180 231.076 C 84.180 231.172,84.114 231.233,84.033 231.213 C 83.953 231.192,83.247 231.325,82.465 231.509 C 80.974 231.859,80.273 231.743,80.273 231.145 C 80.273 230.988,80.166 230.881,80.034 230.908 C 79.902 230.935,79.765 230.766,79.729 230.532 C 79.602 229.702,77.344 229.074,77.344 229.869 C 77.344 229.959,77.146 230.087,76.904 230.153 C 76.538 230.253,76.513 230.305,76.758 230.466 C 76.971 230.606,76.981 230.659,76.795 230.661 C 76.654 230.663,76.590 230.746,76.652 230.846 C 76.714 230.947,76.498 231.186,76.171 231.379 C 75.845 231.572,75.618 231.834,75.667 231.962 C 75.716 232.090,75.641 232.238,75.501 232.292 C 75.196 232.410,74.854 231.801,74.700 230.868 C 74.629 230.434,74.315 229.924,73.818 229.437 C 73.029 228.664,72.858 228.396,73.291 228.617 C 73.425 228.685,73.328 228.558,73.074 228.335 C 72.530 227.857,72.059 227.825,71.304 228.215 C 71.001 228.372,70.684 228.438,70.599 228.361 C 70.515 228.285,70.500 228.374,70.566 228.558 C 70.632 228.743,70.606 228.943,70.508 229.004 C 70.410 229.064,70.375 229.232,70.430 229.376 C 70.493 229.541,70.348 229.673,70.037 229.732 C 69.765 229.784,69.578 229.770,69.621 229.700 C 69.774 229.452,69.102 228.347,68.855 228.442 C 68.612 228.535,68.289 227.877,68.344 227.403 C 68.360 227.267,68.204 227.201,67.975 227.245 C 67.757 227.287,67.578 227.239,67.578 227.139 C 67.578 227.039,67.365 226.975,67.104 226.997 C 66.843 227.018,66.668 227.098,66.715 227.174 C 66.762 227.250,66.536 227.370,66.213 227.441 C 65.652 227.564,65.549 227.756,65.568 228.637 C 65.571 228.758,65.410 228.814,65.211 228.762 C 65.012 228.709,64.694 228.735,64.505 228.818 C 64.315 228.900,64.094 228.954,64.014 228.937 C 63.933 228.920,63.867 228.999,63.867 229.113 C 63.867 229.227,63.779 229.266,63.672 229.199 C 63.564 229.133,63.477 229.177,63.477 229.297 C 63.477 229.417,63.411 229.475,63.330 229.425 C 63.250 229.375,63.184 229.546,63.184 229.804 C 63.184 230.084,63.302 230.280,63.477 230.289 C 63.670 230.299,63.688 230.337,63.530 230.401 C 63.399 230.454,63.238 230.486,63.174 230.471 C 62.949 230.418,62.292 231.327,62.383 231.564 C 62.434 231.696,62.351 231.852,62.198 231.910 C 62.029 231.975,61.971 232.147,62.048 232.349 C 62.134 232.572,62.102 232.635,61.949 232.541 C 61.802 232.450,61.763 232.507,61.839 232.704 C 61.903 232.870,62.028 232.961,62.116 232.906 C 62.390 232.737,62.473 233.092,62.216 233.330 C 62.065 233.469,61.868 233.489,61.699 233.382 C 61.250 233.098,60.580 233.180,60.367 233.545 C 60.249 233.748,60.166 233.784,60.162 233.636 C 60.159 233.484,59.975 233.562,59.701 233.831 C 59.445 234.081,59.284 234.428,59.333 234.619 C 59.381 234.807,59.313 234.961,59.182 234.961 C 59.049 234.961,58.993 235.092,59.055 235.254 C 59.199 235.630,58.901 235.631,58.526 235.256 C 58.305 235.035,58.211 235.023,58.137 235.207 C 58.083 235.340,58.032 235.251,58.023 235.010 C 58.015 234.768,57.923 234.570,57.819 234.570 C 57.715 234.570,57.680 234.438,57.742 234.277 C 57.851 233.994,57.630 233.896,57.060 233.974 C 56.915 233.994,56.855 233.917,56.926 233.802 C 57.156 233.429,55.940 233.575,55.477 233.977 C 54.862 234.511,54.441 234.071,54.394 232.844 C 54.339 231.444,54.090 230.469,53.787 230.469 C 53.638 230.469,53.505 230.359,53.493 230.225 C 53.481 230.090,53.459 229.879,53.444 229.755 C 53.430 229.631,53.168 229.332,52.863 229.092 C 52.474 228.785,52.334 228.526,52.392 228.221 C 52.482 227.750,52.304 227.457,51.563 226.855 L 51.081 226.465 51.365 226.855 C 51.603 227.184,51.569 227.176,51.153 226.807 C 50.620 226.333,49.871 226.191,50.124 226.611 C 50.239 226.803,50.208 226.805,49.981 226.621 C 49.747 226.432,49.643 226.464,49.444 226.783 C 49.233 227.120,49.150 227.140,48.877 226.919 C 48.702 226.777,48.618 226.760,48.691 226.882 C 48.764 227.004,48.693 227.213,48.533 227.346 C 48.312 227.529,48.242 227.531,48.242 227.354 C 48.242 227.200,48.143 227.220,47.949 227.414 C 47.788 227.575,47.656 227.889,47.656 228.111 C 47.656 228.334,47.546 228.518,47.412 228.520 C 47.278 228.522,47.388 228.695,47.656 228.903 L 48.145 229.281 47.676 229.161 C 47.357 229.079,47.130 229.146,46.968 229.368 C 46.721 229.705,46.289 228.560,46.289 227.571 C 46.289 227.362,46.152 227.138,45.984 227.073 C 45.816 227.009,45.733 226.867,45.801 226.758 C 45.868 226.649,45.786 226.507,45.618 226.443 C 45.450 226.378,45.313 226.198,45.313 226.042 C 45.313 225.870,45.216 225.814,45.068 225.899 C 44.934 225.976,44.889 225.967,44.969 225.879 C 45.049 225.791,45.005 225.585,44.871 225.420 C 44.678 225.181,44.678 225.150,44.873 225.267 C 45.007 225.348,45.117 225.321,45.117 225.207 C 45.117 225.093,45.014 225.000,44.888 225.000 C 44.763 225.000,44.502 224.858,44.310 224.684 C 43.914 224.326,42.854 224.462,43.089 224.841 C 43.175 224.981,43.136 225.006,42.980 224.909 C 42.678 224.722,41.754 225.192,41.863 225.477 C 41.907 225.592,41.830 225.791,41.692 225.921 C 41.397 226.196,41.155 225.979,40.844 225.161 C 40.571 224.442,38.867 223.638,38.867 224.227 C 38.867 224.339,38.757 224.409,38.623 224.382 C 38.489 224.354,38.171 224.447,37.916 224.588 C 37.661 224.729,37.507 224.756,37.573 224.649 C 37.639 224.542,37.542 224.397,37.358 224.326 C 37.070 224.216,37.063 224.171,37.310 224.009 C 37.557 223.848,37.548 223.792,37.247 223.615 C 37.010 223.475,36.937 223.281,37.022 223.015 C 37.250 222.295,36.945 221.321,36.468 221.252 C 36.146 221.206,36.048 221.075,36.084 220.740 C 36.110 220.492,36.054 220.338,35.959 220.397 C 35.864 220.455,35.679 220.374,35.547 220.215 C 35.415 220.056,35.227 219.976,35.129 220.036 C 35.031 220.097,34.975 220.030,35.005 219.888 C 35.034 219.745,34.950 219.651,34.817 219.677 C 34.681 219.704,34.577 219.533,34.580 219.286 C 34.584 218.919,34.511 218.293,34.400 217.748 C 34.355 217.526,33.231 217.147,33.015 217.281 C 32.898 217.353,32.827 217.303,32.856 217.170 C 32.922 216.872,31.770 216.594,31.412 216.822 C 31.269 216.912,31.238 216.988,31.342 216.989 C 31.447 216.991,31.337 217.129,31.098 217.296 C 30.859 217.464,30.570 217.543,30.455 217.472 C 30.341 217.402,30.129 217.506,29.983 217.705 C 29.838 217.903,29.657 218.004,29.582 217.928 C 29.506 217.852,29.281 217.984,29.081 218.221 C 28.729 218.640,28.163 218.382,28.442 217.929 C 28.495 217.844,28.436 217.773,28.311 217.773 C 28.186 217.773,28.126 217.663,28.177 217.528 C 28.281 217.259,27.976 216.930,27.531 216.831 C 27.374 216.796,27.217 216.686,27.181 216.587 C 27.079 216.304,26.370 216.375,26.045 216.701 C 25.882 216.863,25.678 216.951,25.591 216.897 C 25.412 216.787,24.385 217.272,24.403 217.458 C 24.449 217.942,24.369 217.988,24.024 217.676 C 23.727 217.407,23.686 217.261,23.853 217.060 C 24.023 216.855,23.990 216.796,23.706 216.794 C 23.494 216.792,23.426 216.730,23.545 216.647 C 23.798 216.470,23.874 215.573,23.623 215.729 C 23.524 215.790,23.495 215.703,23.559 215.535 C 23.624 215.367,23.568 215.099,23.435 214.939 C 23.303 214.779,23.260 214.648,23.340 214.648 C 23.420 214.648,23.391 214.535,23.276 214.396 C 23.161 214.257,23.101 213.796,23.143 213.371 C 23.185 212.945,23.175 212.703,23.121 212.831 C 23.066 212.959,22.893 213.015,22.736 212.954 C 22.517 212.870,22.503 212.783,22.675 212.575 C 22.831 212.387,22.835 212.305,22.686 212.305 C 22.569 212.305,22.524 212.173,22.586 212.012 C 22.647 211.851,22.601 211.719,22.482 211.719 C 22.162 211.719,21.546 211.045,21.631 210.790 C 21.742 210.458,21.299 209.737,21.071 209.877 C 20.962 209.945,20.824 209.816,20.765 209.590 C 20.706 209.364,20.536 209.180,20.387 209.180 C 20.239 209.180,20.117 209.092,20.117 208.984 C 20.117 208.877,19.946 208.789,19.736 208.789 C 19.527 208.789,19.285 208.673,19.199 208.530 C 19.113 208.388,18.889 208.215,18.701 208.146 C 18.513 208.077,18.359 207.840,18.359 207.620 C 18.359 207.383,18.114 207.072,17.757 206.855 C 17.426 206.653,17.251 206.457,17.369 206.417 C 17.653 206.323,17.809 205.469,17.541 205.469 C 17.411 205.469,17.373 205.211,17.442 204.789 C 17.503 204.415,17.469 204.057,17.367 203.994 C 17.265 203.931,17.227 203.805,17.283 203.714 C 17.339 203.623,17.169 203.291,16.904 202.977 C 16.579 202.590,16.487 202.341,16.621 202.207 C 16.955 201.873,15.452 201.260,14.997 201.544 C 14.796 201.669,14.548 201.719,14.445 201.655 C 14.342 201.592,14.258 201.638,14.258 201.758 C 14.258 201.878,14.185 201.931,14.096 201.876 C 13.890 201.749,13.930 202.361,14.151 202.719 C 14.261 202.898,14.245 202.945,14.105 202.858 C 13.988 202.786,13.524 202.809,13.074 202.911 C 12.132 203.122,11.697 203.018,11.851 202.617 C 12.000 202.229,11.534 201.172,11.214 201.172 C 10.886 201.172,10.512 200.499,10.588 200.047 C 10.624 199.827,10.526 199.716,10.310 199.733 C 10.127 199.747,9.995 199.659,10.017 199.538 C 10.040 199.416,9.817 199.289,9.521 199.255 C 9.226 199.221,8.984 199.278,8.984 199.383 C 8.984 199.487,8.795 199.523,8.563 199.463 C 8.238 199.378,8.180 199.415,8.308 199.627 C 8.447 199.858,8.422 199.861,8.156 199.645 C 7.882 199.423,7.798 199.464,7.540 199.938 C 7.376 200.241,7.232 200.444,7.219 200.391 C 6.974 199.336,6.949 198.800,7.126 198.381 C 7.208 198.188,7.198 198.045,7.104 198.062 C 6.713 198.133,6.430 198.035,6.536 197.864 C 6.598 197.763,6.493 197.590,6.303 197.479 C 6.071 197.344,6.045 197.276,6.225 197.272 C 6.427 197.267,6.440 197.201,6.276 197.004 C 6.156 196.859,6.116 196.684,6.187 196.613 C 6.257 196.542,6.119 196.484,5.880 196.484 C 5.640 196.484,5.500 196.397,5.566 196.289 C 5.670 196.121,4.947 195.986,4.429 196.075 C 4.340 196.091,4.312 196.032,4.366 195.945 C 4.420 195.857,4.190 195.665,3.854 195.516 C 3.403 195.316,3.225 195.306,3.169 195.475 C 3.067 195.781,2.352 195.768,2.314 195.459 C 2.298 195.325,2.276 194.907,2.265 194.531 C 2.253 194.096,2.157 193.865,2.002 193.896 C 1.868 193.923,1.758 193.857,1.758 193.750 C 1.758 193.643,1.860 193.555,1.984 193.555 C 2.109 193.555,1.999 193.351,1.740 193.102 C 1.481 192.853,1.226 192.669,1.172 192.693 C 1.118 192.717,1.087 192.393,1.103 191.974 C 1.130 191.271,1.009 191.108,0.523 191.193 C 0.434 191.208,0.411 191.141,0.472 191.043 C 0.532 190.945,0.451 190.756,0.291 190.623 C 0.033 190.410,-0.000 196.674,-0.000 245.191 L 0.000 300.000 200.000 300.000 L 400.000 300.000 400.000 245.024 L 400.000 190.048 399.236 190.092 C 398.816 190.117,398.486 190.181,398.504 190.234 M4.810 204.206 C 4.749 204.363,4.617 204.492,4.517 204.492 C 4.414 204.492,4.433 204.280,4.559 204.010 C 4.790 203.517,5.009 203.688,4.810 204.206 M244.531 240.230 C 244.531 240.327,244.443 240.461,244.336 240.527 C 244.229 240.594,244.139 240.489,244.138 240.295 C 244.135 240.027,244.095 240.004,243.970 240.202 C 243.835 240.414,243.784 240.409,243.693 240.172 C 243.632 240.013,243.631 239.832,243.691 239.772 C 243.837 239.626,244.531 240.004,244.531 240.230 M330.033 252.307 C 330.151 252.659,329.747 252.585,329.611 252.230 C 329.538 252.040,329.581 251.950,329.724 251.998 C 329.852 252.040,329.991 252.180,330.033 252.307 " stroke="none" fill="#f42c24" fill-rule="evenodd"></path><path id="path1" d="M398.145 190.328 C 397.669 190.548,397.642 190.590,398.001 190.551 C 398.244 190.524,398.547 190.398,398.675 190.271 C 398.966 189.979,398.877 189.989,398.145 190.328 M0.456 190.889 C 0.456 191.023,0.617 191.145,0.814 191.160 C 1.011 191.175,1.172 191.151,1.172 191.108 C 1.172 191.065,1.011 190.943,0.814 190.838 C 0.556 190.700,0.456 190.714,0.456 190.889 M1.126 192.343 C 1.064 192.580,1.093 192.725,1.190 192.665 C 1.287 192.604,1.367 192.645,1.367 192.755 C 1.367 192.865,1.565 193.051,1.807 193.168 C 2.176 193.347,2.199 193.340,1.949 193.126 C 1.786 192.986,1.559 192.655,1.445 192.392 C 1.239 191.914,1.238 191.914,1.126 192.343 M394.801 194.034 C 394.669 194.378,394.860 194.728,395.178 194.724 C 395.328 194.722,395.314 194.660,395.138 194.548 C 394.988 194.453,394.919 194.235,394.985 194.063 C 395.051 193.891,395.061 193.750,395.007 193.750 C 394.954 193.750,394.861 193.878,394.801 194.034 M390.359 199.316 C 390.421 199.478,390.605 199.609,390.767 199.609 C 391.008 199.609,391.018 199.555,390.820 199.316 C 390.687 199.155,390.503 199.023,390.412 199.023 C 390.321 199.023,390.297 199.155,390.359 199.316 M7.116 199.854 C 7.161 200.095,7.205 200.337,7.215 200.391 C 7.225 200.444,7.311 200.364,7.407 200.213 C 7.600 199.908,7.477 199.414,7.207 199.414 C 7.112 199.414,7.071 199.612,7.116 199.854 M389.202 200.234 C 388.688 200.704,388.319 201.758,388.668 201.758 C 388.778 201.758,388.867 201.578,388.867 201.358 C 388.867 201.139,389.092 200.734,389.367 200.459 C 390.001 199.825,389.860 199.632,389.202 200.234 M10.547 200.208 C 10.547 200.552,10.937 201.172,11.154 201.172 C 11.265 201.172,11.213 201.029,11.038 200.854 C 10.863 200.679,10.766 200.415,10.822 200.268 C 10.879 200.121,10.840 200.000,10.736 200.000 C 10.632 200.000,10.547 200.094,10.547 200.208 M13.946 201.728 C 14.023 201.852,13.992 201.953,13.879 201.953 C 13.765 201.953,13.672 202.085,13.672 202.246 C 13.672 202.407,13.584 202.539,13.477 202.539 C 13.369 202.539,13.281 202.605,13.281 202.686 C 13.281 202.766,13.497 202.832,13.760 202.832 C 14.045 202.832,14.167 202.761,14.062 202.656 C 13.957 202.551,13.961 202.338,14.072 202.130 C 14.199 201.894,14.186 201.737,14.033 201.642 C 13.893 201.555,13.860 201.588,13.946 201.728 M16.520 202.317 C 16.454 202.424,16.491 202.568,16.602 202.637 C 16.712 202.705,16.764 202.825,16.715 202.904 C 16.667 202.982,16.711 203.174,16.813 203.330 C 16.941 203.524,16.964 203.401,16.888 202.936 C 16.760 202.161,16.690 202.043,16.520 202.317 M11.858 202.599 C 11.708 202.991,12.188 203.164,12.744 202.918 L 13.184 202.723 12.744 202.808 C 12.481 202.859,12.237 202.774,12.138 202.597 C 11.990 202.333,11.960 202.333,11.858 202.599 M4.559 204.010 C 4.433 204.280,4.414 204.492,4.517 204.492 C 4.734 204.492,4.948 204.002,4.852 203.724 C 4.815 203.616,4.684 203.745,4.559 204.010 M17.318 203.918 C 17.443 204.044,17.511 204.467,17.467 204.857 C 17.400 205.457,17.415 205.491,17.561 205.078 C 17.835 204.305,17.800 203.958,17.432 203.818 C 17.170 203.718,17.143 203.742,17.318 203.918 M387.947 203.939 C 388.013 204.128,387.943 204.310,387.781 204.372 C 387.626 204.431,387.500 204.574,387.500 204.689 C 387.500 204.804,387.693 204.718,387.929 204.499 C 388.284 204.168,388.312 204.058,388.095 203.856 C 387.882 203.659,387.855 203.674,387.947 203.939 M387.305 205.453 C 387.305 205.768,387.537 206.250,387.689 206.250 C 387.770 206.250,387.794 206.030,387.743 205.762 C 387.656 205.305,387.305 205.058,387.305 205.453 M387.695 206.820 C 387.695 206.918,387.805 207.039,387.939 207.088 C 388.135 207.160,388.135 207.229,387.939 207.437 C 387.805 207.579,387.707 207.919,387.722 208.193 L 387.749 208.691 387.837 208.220 C 387.886 207.961,388.050 207.625,388.201 207.474 C 388.516 207.160,388.576 206.751,388.281 206.934 C 388.174 207.000,388.086 206.961,388.086 206.847 C 388.086 206.734,387.998 206.641,387.891 206.641 C 387.783 206.641,387.695 206.721,387.695 206.820 M19.194 208.463 C 19.235 208.588,19.460 208.719,19.693 208.754 C 19.926 208.788,20.117 208.898,20.117 208.998 C 20.117 209.098,20.219 209.180,20.343 209.180 C 20.475 209.180,20.429 209.026,20.232 208.809 C 19.837 208.371,19.081 208.120,19.194 208.463 M386.523 208.887 C 386.255 209.040,386.123 209.166,386.230 209.166 C 386.338 209.166,386.646 209.040,386.914 208.887 C 387.183 208.733,387.314 208.608,387.207 208.608 C 387.100 208.608,386.792 208.733,386.523 208.887 M22.578 212.664 C 22.515 212.766,22.595 212.900,22.755 212.962 C 22.916 213.023,23.048 212.967,23.050 212.836 C 23.052 212.682,23.126 212.702,23.260 212.891 C 23.444 213.151,23.458 213.151,23.387 212.891 C 23.294 212.548,22.745 212.394,22.578 212.664 M23.096 213.765 C 23.096 214.040,23.160 214.305,23.239 214.354 C 23.318 214.402,23.358 214.217,23.328 213.942 C 23.253 213.265,23.096 213.145,23.096 213.765 M27.290 216.719 C 27.422 216.778,27.588 216.812,27.659 216.795 C 27.730 216.778,27.871 216.881,27.972 217.024 C 28.117 217.232,28.139 217.226,28.076 216.992 C 28.032 216.831,27.784 216.680,27.524 216.656 C 27.264 216.631,27.158 216.660,27.290 216.719 M31.055 216.895 C 31.055 217.056,30.889 217.188,30.686 217.188 C 30.105 217.188,29.224 217.705,29.507 217.880 C 29.647 217.967,29.851 217.886,29.997 217.686 C 30.135 217.498,30.341 217.402,30.455 217.472 C 30.570 217.543,30.859 217.464,31.098 217.296 C 31.337 217.129,31.447 216.991,31.342 216.989 C 31.238 216.988,31.284 216.901,31.445 216.797 C 31.696 216.635,31.689 216.607,31.396 216.605 C 31.208 216.603,31.055 216.733,31.055 216.895 M23.762 217.136 C 23.696 217.243,23.805 217.478,24.004 217.658 C 24.332 217.955,24.377 217.957,24.485 217.674 C 24.551 217.503,24.523 217.413,24.424 217.474 C 24.324 217.536,24.162 217.441,24.062 217.264 C 23.958 217.078,23.831 217.024,23.762 217.136 M32.940 217.139 C 32.891 217.219,33.061 217.285,33.319 217.285 C 33.578 217.285,33.789 217.219,33.789 217.139 C 33.789 217.058,33.618 216.992,33.410 216.992 C 33.201 216.992,32.990 217.058,32.940 217.139 M379.811 218.054 C 379.417 218.656,379.222 219.405,379.506 219.230 C 379.609 219.166,379.643 219.032,379.582 218.932 C 379.520 218.832,379.577 218.750,379.709 218.750 C 379.840 218.750,379.891 218.693,379.821 218.623 C 379.751 218.553,379.836 218.391,380.010 218.264 C 380.185 218.137,380.289 217.918,380.243 217.779 C 380.188 217.616,380.033 217.715,379.811 218.054 M34.614 219.252 C 34.590 219.539,34.670 219.706,34.817 219.677 C 34.950 219.651,35.034 219.745,35.005 219.888 C 34.975 220.030,35.031 220.097,35.129 220.036 C 35.227 219.976,35.415 220.056,35.547 220.215 C 35.679 220.374,35.864 220.455,35.959 220.397 C 36.054 220.338,36.110 220.492,36.084 220.740 C 36.048 221.073,36.146 221.206,36.463 221.252 C 36.698 221.285,36.929 221.461,36.977 221.643 C 37.039 221.877,37.071 221.845,37.087 221.533 C 37.104 221.197,37.003 221.094,36.654 221.094 C 36.316 221.094,36.203 220.987,36.215 220.680 C 36.223 220.452,36.058 220.167,35.848 220.045 C 35.298 219.727,34.961 219.394,34.961 219.166 C 34.961 218.733,34.651 218.809,34.614 219.252 M134.652 221.826 C 134.732 221.907,134.898 221.973,135.020 221.973 C 135.142 221.973,135.354 222.192,135.489 222.461 C 135.644 222.766,135.738 222.832,135.739 222.638 C 135.743 222.272,135.142 221.680,134.767 221.680 C 134.623 221.680,134.571 221.746,134.652 221.826 M377.043 221.888 C 376.836 222.223,377.021 222.256,377.430 221.957 C 377.747 221.725,377.757 221.680,377.490 221.680 C 377.315 221.680,377.114 221.773,377.043 221.888 M132.228 222.070 C 132.080 222.161,132.220 222.212,132.578 222.198 C 132.907 222.184,133.135 222.133,133.086 222.084 C 132.924 221.922,132.479 221.914,132.228 222.070 M135.810 223.405 C 135.988 223.601,136.075 223.821,136.003 223.893 C 135.931 223.965,136.015 224.023,136.188 224.023 C 136.362 224.023,136.594 224.177,136.703 224.365 C 136.813 224.553,136.902 224.619,136.902 224.512 C 136.903 224.288,135.814 223.047,135.617 223.047 C 135.545 223.047,135.632 223.208,135.810 223.405 M130.273 223.806 C 130.273 223.902,130.405 224.032,130.566 224.094 C 130.728 224.156,130.859 224.346,130.859 224.517 C 130.859 224.688,130.943 224.776,131.046 224.712 C 131.149 224.649,131.191 224.488,131.140 224.355 C 131.021 224.046,130.273 223.572,130.273 223.806 M131.442 223.830 C 131.064 224.064,131.258 224.202,131.725 224.033 C 131.933 223.957,132.017 223.842,131.911 223.777 C 131.806 223.712,131.595 223.736,131.442 223.830 M39.757 224.237 C 39.818 224.334,39.999 224.414,40.160 224.414 C 40.321 224.414,40.407 224.487,40.352 224.577 C 40.297 224.666,40.378 224.740,40.533 224.740 C 40.733 224.740,40.757 224.670,40.616 224.500 C 40.382 224.219,39.597 223.978,39.757 224.237 M225.413 224.280 C 225.380 224.803,225.749 225.391,226.111 225.391 C 226.371 225.391,226.357 225.330,226.030 225.046 C 225.811 224.856,225.588 224.527,225.534 224.314 C 225.448 223.975,225.433 223.971,225.413 224.280 M127.837 224.797 C 127.767 224.910,127.851 225.057,128.023 225.123 C 128.453 225.288,128.587 225.107,128.245 224.823 C 128.052 224.663,127.925 224.655,127.837 224.797 M222.206 225.436 C 222.065 226.486,222.195 226.652,222.379 225.655 C 222.455 225.241,222.614 224.838,222.733 224.759 C 222.870 224.668,222.834 224.614,222.633 224.612 C 222.408 224.610,222.285 224.848,222.206 225.436 M367.432 224.945 C 367.135 225.051,367.104 225.586,367.394 225.586 C 367.508 225.586,367.551 225.506,367.491 225.407 C 367.430 225.309,367.491 225.189,367.626 225.141 C 367.761 225.093,367.827 225.010,367.773 224.956 C 367.720 224.902,367.566 224.897,367.432 224.945 M123.974 225.813 C 123.668 226.037,123.438 226.390,123.438 226.637 C 123.438 226.875,123.332 227.176,123.203 227.305 C 123.074 227.434,123.038 227.539,123.123 227.539 C 123.419 227.539,123.995 226.666,123.785 226.536 C 123.505 226.363,123.808 225.927,124.125 226.049 C 124.266 226.103,124.435 226.008,124.500 225.839 C 124.675 225.384,124.571 225.379,123.974 225.813 M98.633 225.745 C 98.633 225.868,98.419 226.023,98.159 226.088 C 97.696 226.204,97.286 226.758,97.662 226.758 C 97.766 226.758,97.852 226.670,97.852 226.563 C 97.852 226.455,97.973 226.367,98.121 226.367 C 98.449 226.367,98.932 225.820,98.758 225.646 C 98.689 225.577,98.633 225.622,98.633 225.745 M226.877 226.270 C 227.011 226.902,227.726 228.177,227.731 227.795 C 227.733 227.667,227.646 227.508,227.539 227.441 C 227.432 227.375,227.344 227.123,227.344 226.881 C 227.344 226.640,227.211 226.271,227.048 226.063 C 226.769 225.705,226.759 225.717,226.877 226.270 M367.241 226.172 C 367.225 226.387,367.285 226.563,367.374 226.563 C 367.584 226.563,367.782 226.050,367.630 225.898 C 367.412 225.680,367.271 225.780,367.241 226.172 M220.313 226.240 C 220.581 226.381,220.842 226.463,220.893 226.421 C 221.030 226.309,220.454 225.983,220.117 225.982 C 219.956 225.982,220.043 226.098,220.313 226.240 M363.940 226.199 C 363.013 226.408,362.501 226.886,362.424 227.616 C 362.394 227.896,362.311 228.184,362.239 228.256 C 362.168 228.327,362.112 228.569,362.115 228.792 C 362.124 229.388,362.578 228.615,362.622 227.930 C 362.639 227.661,362.663 227.332,362.674 227.197 C 362.686 227.063,362.827 226.953,362.988 226.953 C 363.149 226.953,363.281 226.873,363.281 226.775 C 363.281 226.677,363.632 226.538,364.061 226.465 C 364.491 226.393,364.891 226.253,364.952 226.155 C 365.078 225.951,365.037 225.953,363.940 226.199 M366.588 226.538 C 366.956 226.874,367.300 227.148,367.351 227.148 C 367.534 227.148,366.695 226.327,366.311 226.129 C 366.095 226.019,366.219 226.203,366.588 226.538 M45.780 226.654 C 45.806 226.836,45.924 227.044,46.041 227.116 C 46.158 227.188,46.293 227.511,46.340 227.833 L 46.426 228.418 46.455 227.775 C 46.473 227.378,46.341 226.978,46.108 226.728 C 45.794 226.391,45.739 226.379,45.780 226.654 M51.018 226.667 C 51.350 227.063,52.265 227.300,52.037 226.931 C 51.971 226.824,51.816 226.774,51.691 226.820 C 51.567 226.865,51.289 226.760,51.074 226.586 C 50.695 226.278,50.693 226.281,51.018 226.667 M48.787 226.829 C 48.025 227.066,47.375 227.539,47.813 227.539 C 47.941 227.539,48.048 227.429,48.050 227.295 C 48.052 227.107,48.090 227.109,48.214 227.304 C 48.342 227.507,48.424 227.497,48.623 227.257 C 48.760 227.092,48.940 226.999,49.023 227.051 C 49.107 227.102,49.283 227.013,49.416 226.853 C 49.549 226.693,49.624 226.572,49.584 226.583 C 49.544 226.594,49.186 226.705,48.787 226.829 M93.457 226.953 C 93.523 227.061,93.710 227.148,93.871 227.148 C 94.032 227.148,94.109 227.061,94.043 226.953 C 93.977 226.846,93.790 226.758,93.629 226.758 C 93.468 226.758,93.391 226.846,93.457 226.953 M66.057 227.289 C 65.756 227.533,65.771 227.546,66.211 227.430 C 66.815 227.269,67.112 227.018,66.699 227.018 C 66.530 227.018,66.241 227.140,66.057 227.289 M145.767 227.228 C 145.839 227.417,145.898 227.637,145.898 227.718 C 145.898 227.799,146.030 227.865,146.191 227.865 C 146.576 227.865,146.563 227.813,146.060 227.310 C 145.725 226.975,145.663 226.957,145.767 227.228 M68.430 228.033 C 68.656 228.521,68.851 228.633,69.011 228.369 C 69.060 228.289,68.900 228.072,68.654 227.888 C 68.213 227.557,68.210 227.559,68.430 228.033 M47.402 228.006 C 47.322 228.210,47.302 228.422,47.359 228.478 C 47.537 228.657,47.694 228.365,47.619 227.994 C 47.551 227.654,47.540 227.655,47.402 228.006 M216.676 228.037 C 216.726 228.168,216.637 228.461,216.478 228.689 C 216.319 228.916,216.276 229.102,216.382 229.102 C 216.488 229.102,216.631 228.926,216.699 228.711 C 216.767 228.496,216.891 228.320,216.973 228.320 C 217.055 228.320,217.122 228.203,217.122 228.060 C 217.122 227.917,217.001 227.799,216.854 227.799 C 216.706 227.799,216.626 227.907,216.676 228.037 M71.045 228.064 C 70.857 228.113,70.703 228.238,70.703 228.342 C 70.703 228.450,70.889 228.432,71.143 228.301 C 71.875 227.920,71.848 227.854,71.045 228.064 M72.838 228.112 C 72.991 228.210,73.135 228.414,73.158 228.567 C 73.216 228.962,74.219 229.934,74.219 229.595 C 74.219 229.447,74.002 229.155,73.737 228.946 C 73.472 228.738,73.316 228.507,73.390 228.433 C 73.533 228.290,73.080 227.936,72.754 227.936 C 72.646 227.936,72.684 228.015,72.838 228.112 M52.344 228.492 C 52.344 228.586,52.476 228.773,52.637 228.906 C 52.955 229.170,52.994 229.107,52.811 228.629 C 52.686 228.302,52.344 228.202,52.344 228.492 M70.095 229.053 C 70.081 229.383,70.038 229.458,69.983 229.248 C 69.851 228.744,69.529 228.832,69.573 229.360 C 69.603 229.724,69.701 229.796,70.071 229.726 C 70.355 229.671,70.492 229.538,70.430 229.376 C 70.375 229.232,70.415 229.061,70.520 228.997 C 70.736 228.863,70.578 228.516,70.301 228.516 C 70.200 228.516,70.107 228.757,70.095 229.053 M227.651 228.665 C 227.766 228.744,227.922 228.975,227.997 229.178 C 228.073 229.382,228.183 229.499,228.243 229.439 C 228.411 229.272,227.947 228.515,227.679 228.519 C 227.518 228.521,227.509 228.568,227.651 228.665 M46.498 228.850 C 46.541 229.333,46.812 229.742,46.914 229.477 C 46.973 229.323,46.901 229.084,46.753 228.946 C 46.605 228.808,46.491 228.765,46.498 228.850 M360.156 229.222 C 360.156 229.289,360.411 229.633,360.723 229.988 L 361.289 230.633 361.748 230.113 C 362.130 229.680,362.138 229.651,361.792 229.941 C 361.427 230.248,361.362 230.254,361.261 229.989 C 361.197 229.823,361.010 229.688,360.846 229.688 C 360.681 229.688,360.547 229.556,360.547 229.395 C 360.547 229.233,360.459 229.102,360.352 229.102 C 360.244 229.102,360.156 229.156,360.156 229.222 M53.210 229.513 C 53.111 229.673,53.147 229.697,53.323 229.588 C 53.511 229.472,53.548 229.517,53.457 229.753 C 53.389 229.932,53.413 230.078,53.510 230.078 C 53.835 230.078,53.906 229.735,53.629 229.505 C 53.420 229.332,53.320 229.334,53.210 229.513 M216.211 229.469 C 216.211 229.577,216.305 229.722,216.419 229.793 C 216.555 229.877,216.504 230.068,216.272 230.342 C 215.921 230.758,215.921 230.759,216.324 230.419 C 216.548 230.231,216.802 230.143,216.888 230.224 C 216.974 230.305,216.945 230.178,216.822 229.943 C 216.569 229.454,216.211 229.178,216.211 229.469 M230.859 229.590 C 230.859 229.919,230.895 229.932,231.332 229.764 C 231.768 229.597,231.716 229.297,231.250 229.297 C 231.033 229.297,230.859 229.427,230.859 229.590 M236.049 229.484 C 235.692 229.612,235.691 229.626,236.029 229.756 C 236.417 229.905,236.603 229.814,236.495 229.531 C 236.457 229.431,236.256 229.410,236.049 229.484 M239.991 229.786 C 240.043 230.057,240.163 230.327,240.258 230.386 C 240.540 230.560,240.452 229.754,240.163 229.514 C 239.948 229.336,239.915 229.387,239.991 229.786 M79.185 229.789 C 79.392 229.946,79.609 230.026,79.668 229.968 C 79.790 229.845,79.294 229.497,79.004 229.501 C 78.896 229.503,78.978 229.633,79.185 229.789 M138.281 229.762 C 138.281 229.923,138.369 230.109,138.477 230.176 C 138.584 230.242,138.672 230.165,138.672 230.004 C 138.672 229.842,138.584 229.656,138.477 229.590 C 138.369 229.523,138.281 229.601,138.281 229.762 M148.947 229.848 C 148.883 229.952,149.003 230.244,149.213 230.497 C 149.666 231.041,149.716 230.914,149.337 230.184 C 149.187 229.895,149.012 229.744,148.947 229.848 M74.492 230.046 C 74.547 230.135,74.642 230.509,74.702 230.876 C 74.859 231.832,75.196 232.409,75.523 232.284 C 75.746 232.198,75.721 232.102,75.401 231.804 C 75.180 231.598,75.000 231.221,75.000 230.965 C 75.000 230.364,74.812 229.883,74.577 229.883 C 74.475 229.883,74.436 229.956,74.492 230.046 M139.946 230.070 C 139.876 230.183,139.960 230.330,140.133 230.397 C 140.562 230.561,140.696 230.380,140.354 230.096 C 140.162 229.937,140.034 229.928,139.946 230.070 M53.748 230.406 C 53.929 230.454,54.115 230.685,54.161 230.920 C 54.229 231.272,54.248 231.253,54.270 230.811 C 54.292 230.370,54.218 230.278,53.857 230.296 C 53.546 230.312,53.514 230.344,53.748 230.406 M62.549 230.600 C 62.307 230.769,62.109 231.111,62.109 231.360 C 62.109 231.609,62.027 231.864,61.926 231.926 C 61.826 231.988,61.756 232.207,61.772 232.412 C 61.787 232.617,61.875 232.739,61.968 232.682 C 62.060 232.624,62.088 232.451,62.028 232.297 C 61.969 232.143,62.045 231.969,62.198 231.910 C 62.351 231.852,62.434 231.696,62.383 231.564 C 62.292 231.327,62.949 230.418,63.174 230.471 C 63.238 230.486,63.399 230.454,63.530 230.401 C 63.662 230.348,63.594 230.302,63.379 230.299 C 63.164 230.296,62.791 230.432,62.549 230.600 M235.156 231.055 C 235.156 231.513,234.503 232.227,234.082 232.227 C 233.921 232.227,233.789 232.124,233.789 231.999 C 233.789 231.873,233.743 231.817,233.687 231.873 C 233.631 231.929,233.670 232.185,233.772 232.442 C 233.875 232.700,233.965 232.797,233.972 232.659 C 233.982 232.463,234.076 232.457,234.405 232.633 C 234.756 232.821,234.806 232.809,234.711 232.561 C 234.648 232.397,234.757 232.118,234.954 231.940 C 235.199 231.718,235.335 231.688,235.387 231.845 C 235.438 231.998,235.553 231.966,235.734 231.749 C 235.964 231.471,235.963 231.432,235.726 231.483 C 235.539 231.524,235.469 231.401,235.510 231.104 C 235.544 230.862,235.478 230.664,235.364 230.664 C 235.250 230.664,235.156 230.840,235.156 231.055 M240.571 231.065 C 240.626 231.276,240.882 231.502,241.140 231.567 C 241.398 231.632,241.597 231.785,241.582 231.907 C 241.519 232.430,241.625 232.617,241.981 232.617 C 242.255 232.617,242.340 232.725,242.285 233.008 C 242.244 233.223,242.293 233.398,242.394 233.398 C 242.774 233.398,242.587 232.388,242.188 232.283 C 241.973 232.227,241.797 232.081,241.797 231.960 C 241.797 231.838,241.498 231.500,241.134 231.209 C 240.552 230.745,240.483 230.727,240.571 231.065 M80.296 231.097 C 80.284 231.281,80.449 231.526,80.664 231.641 C 80.929 231.782,81.055 231.785,81.055 231.647 C 81.055 231.536,80.929 231.445,80.776 231.445 C 80.623 231.445,80.457 231.292,80.408 231.104 C 80.326 230.788,80.317 230.788,80.296 231.097 M215.875 231.078 C 215.754 231.199,215.702 231.418,215.758 231.566 C 215.819 231.724,215.674 231.909,215.401 232.018 C 215.148 232.119,215.056 232.207,215.197 232.214 C 215.338 232.221,215.397 232.336,215.329 232.471 C 215.261 232.605,215.330 232.562,215.483 232.376 C 215.636 232.190,215.833 232.102,215.920 232.181 C 216.007 232.260,216.015 232.214,215.938 232.080 C 215.860 231.946,215.871 231.836,215.961 231.836 C 216.052 231.836,216.144 231.616,216.166 231.348 C 216.212 230.797,216.183 230.770,215.875 231.078 M232.422 231.055 C 232.422 231.162,232.500 231.250,232.594 231.250 C 232.689 231.250,232.813 231.426,232.869 231.641 C 232.925 231.855,233.073 232.031,233.198 232.031 C 233.328 232.031,233.247 231.781,233.008 231.445 C 232.569 230.829,232.422 230.731,232.422 231.055 M352.045 231.259 C 351.976 231.371,352.019 231.582,352.140 231.728 C 352.305 231.927,352.297 232.018,352.108 232.094 C 351.935 232.164,351.928 232.201,352.088 232.211 C 352.400 232.232,352.594 231.893,352.355 231.746 C 352.251 231.681,352.215 231.499,352.276 231.341 C 352.401 231.013,352.234 230.953,352.045 231.259 M151.969 232.277 C 152.014 232.305,152.249 232.495,152.490 232.698 C 152.732 232.902,152.930 233.017,152.930 232.954 C 152.930 232.758,152.326 232.227,152.102 232.227 C 151.984 232.227,151.925 232.249,151.969 232.277 M54.402 233.280 C 54.442 234.182,54.954 234.432,55.594 233.860 C 56.011 233.487,56.045 233.415,55.727 233.574 C 55.185 233.846,54.688 233.659,54.688 233.182 C 54.688 232.979,54.619 232.813,54.535 232.813 C 54.450 232.813,54.391 233.023,54.402 233.280 M59.487 233.705 C 59.280 233.857,59.166 234.036,59.233 234.103 C 59.301 234.171,59.503 234.080,59.682 233.901 C 60.103 233.480,59.973 233.350,59.487 233.705 M56.949 233.765 C 56.891 233.859,57.071 233.936,57.349 233.936 C 57.706 233.936,57.777 233.886,57.589 233.768 C 57.249 233.552,57.080 233.552,56.949 233.765 M213.913 234.112 C 213.374 234.378,213.314 234.472,213.523 234.726 C 213.739 234.989,213.777 234.975,213.831 234.613 C 213.867 234.368,213.995 234.241,214.147 234.299 C 214.288 234.353,214.455 234.261,214.519 234.093 C 214.660 233.727,214.697 233.726,213.913 234.112 M197.852 234.191 C 197.852 234.305,197.930 234.350,198.026 234.291 C 198.233 234.162,198.828 235.016,198.828 235.442 C 198.828 235.607,198.904 235.742,198.996 235.742 C 199.276 235.742,198.993 234.735,198.605 234.347 C 198.203 233.945,197.852 233.873,197.852 234.191 M156.844 234.463 C 156.507 234.869,156.665 235.378,157.188 235.571 C 157.474 235.677,157.594 235.667,157.518 235.544 C 157.452 235.438,157.272 235.352,157.117 235.352 C 156.785 235.352,156.758 235.080,157.038 234.557 C 157.277 234.111,157.176 234.063,156.844 234.463 M194.795 234.374 C 194.565 234.467,194.306 234.659,194.221 234.801 C 194.095 235.009,194.123 235.012,194.365 234.816 C 194.530 234.683,194.717 234.626,194.781 234.690 C 194.844 234.753,195.098 234.665,195.343 234.493 C 195.829 234.153,195.513 234.084,194.795 234.374 M166.602 234.566 C 166.602 234.651,166.819 234.762,167.084 234.812 C 167.349 234.863,167.526 234.840,167.478 234.761 C 167.348 234.551,166.602 234.385,166.602 234.566 M205.665 234.595 C 205.664 234.770,205.861 235.044,206.101 235.203 C 206.496 235.466,206.510 235.528,206.247 235.862 C 205.974 236.209,205.979 236.214,206.348 235.944 C 206.562 235.786,206.770 235.638,206.808 235.614 C 206.846 235.590,206.605 235.279,206.272 234.924 C 205.846 234.469,205.666 234.372,205.665 234.595 M161.035 235.155 C 161.250 235.422,161.595 235.797,161.802 235.988 C 162.008 236.179,162.204 236.575,162.237 236.869 C 162.341 237.797,162.367 237.891,162.512 237.891 C 162.590 237.891,162.704 237.759,162.766 237.598 C 162.828 237.437,162.793 237.305,162.689 237.305 C 162.585 237.305,162.497 237.107,162.494 236.865 C 162.488 236.421,161.996 235.774,161.122 235.059 L 160.645 234.668 161.035 235.155 M242.773 235.254 C 242.773 235.522,242.810 235.742,242.855 235.742 C 242.900 235.742,243.073 235.795,243.240 235.859 C 243.514 235.964,243.514 235.916,243.242 235.370 C 242.876 234.638,242.773 234.612,242.773 235.254 M167.383 235.389 C 167.383 235.443,167.559 235.690,167.773 235.938 C 167.988 236.185,168.164 236.300,168.164 236.193 C 168.164 236.086,167.988 235.839,167.773 235.645 C 167.559 235.450,167.383 235.335,167.383 235.389 M283.301 235.547 C 283.367 235.655,283.227 235.742,282.987 235.742 C 282.748 235.742,282.607 235.797,282.673 235.863 C 282.865 236.055,283.818 235.752,283.688 235.541 C 283.623 235.437,283.483 235.352,283.375 235.352 C 283.268 235.352,283.234 235.439,283.301 235.547 M285.547 235.556 C 286.400 236.135,286.554 236.176,286.290 235.754 C 286.152 235.533,285.862 235.353,285.646 235.355 C 285.318 235.357,285.302 235.390,285.547 235.556 M351.244 235.583 C 351.300 235.764,351.240 235.950,351.112 235.996 C 350.984 236.042,350.946 236.151,351.029 236.240 C 351.318 236.550,351.620 236.002,351.373 235.615 C 351.188 235.326,351.163 235.319,351.244 235.583 M204.498 235.693 C 204.491 236.001,205.196 236.719,205.506 236.719 C 205.636 236.719,205.595 236.611,205.413 236.475 C 205.233 236.340,204.956 236.055,204.796 235.840 C 204.636 235.625,204.502 235.559,204.498 235.693 M186.979 236.017 C 186.979 236.179,187.052 236.266,187.142 236.210 C 187.231 236.155,187.305 236.286,187.305 236.500 C 187.305 236.715,187.402 236.951,187.521 237.025 C 187.803 237.199,187.552 236.330,187.219 235.977 C 187.023 235.770,186.979 235.778,186.979 236.017 M193.812 236.449 C 193.755 236.596,193.640 236.674,193.556 236.622 C 193.472 236.570,193.301 236.652,193.175 236.803 C 192.884 237.153,193.436 237.111,193.791 236.756 C 193.919 236.628,194.176 236.523,194.363 236.523 C 194.550 236.523,194.751 236.447,194.809 236.353 C 194.867 236.259,194.690 236.182,194.415 236.182 C 194.139 236.182,193.868 236.302,193.812 236.449 M200.806 236.733 C 200.667 237.047,200.407 237.303,200.228 237.302 C 199.982 237.299,199.964 237.259,200.156 237.138 C 200.361 237.007,200.358 236.935,200.140 236.754 C 199.878 236.536,199.861 236.620,199.984 237.522 C 199.993 237.587,200.213 237.600,200.474 237.550 C 200.809 237.487,200.914 237.369,200.831 237.153 C 200.748 236.936,200.800 236.879,201.009 236.960 C 201.172 237.022,201.429 236.985,201.580 236.878 C 201.793 236.726,201.773 236.709,201.492 236.800 C 201.225 236.887,201.158 236.842,201.239 236.630 C 201.453 236.072,201.057 236.167,200.806 236.733 M243.248 236.495 C 243.248 236.691,243.371 236.966,243.521 237.106 C 243.752 237.322,243.772 237.289,243.653 236.894 C 243.462 236.266,243.248 236.055,243.248 236.495 M245.508 236.530 C 245.508 236.634,245.376 236.719,245.215 236.719 C 244.883 236.719,244.822 237.025,245.117 237.207 C 245.225 237.273,245.313 237.232,245.313 237.115 C 245.313 236.997,245.502 236.831,245.734 236.745 C 246.096 236.612,246.110 236.571,245.832 236.465 C 245.654 236.396,245.508 236.426,245.508 236.530 M349.658 236.530 C 349.417 236.627,349.219 236.745,349.219 236.793 C 349.219 236.959,349.810 236.791,350.041 236.561 C 350.310 236.292,350.260 236.288,349.658 236.530 M183.806 236.963 C 183.603 237.500,183.705 237.715,184.093 237.566 C 184.313 237.482,184.331 237.390,184.168 237.193 C 184.048 237.049,184.007 236.839,184.077 236.727 C 184.146 236.615,184.151 236.523,184.087 236.523 C 184.024 236.523,183.897 236.721,183.806 236.963 M163.277 237.016 C 162.903 237.468,163.125 237.514,163.645 237.093 C 163.959 236.838,164.013 236.719,163.815 236.719 C 163.655 236.719,163.413 236.853,163.277 237.016 M168.858 236.895 C 168.495 237.037,168.497 237.049,168.907 237.156 C 169.199 237.232,169.336 237.180,169.336 236.993 C 169.336 236.842,169.314 236.725,169.287 236.732 C 169.260 236.740,169.067 236.813,168.858 236.895 M244.093 237.591 C 243.795 238.000,243.788 238.096,244.034 238.343 C 244.190 238.498,244.256 238.699,244.180 238.789 C 244.105 238.878,244.197 238.834,244.385 238.690 C 244.766 238.399,244.853 238.180,244.501 238.398 C 244.338 238.498,244.308 238.337,244.391 237.823 C 244.527 236.984,244.531 236.987,244.093 237.591 M192.055 238.150 C 192.090 238.796,192.470 239.041,192.661 238.542 C 192.716 238.398,192.676 238.281,192.572 238.281 C 192.468 238.281,192.383 238.105,192.383 237.891 C 192.383 237.676,192.301 237.500,192.201 237.500 C 192.102 237.500,192.036 237.793,192.055 238.150 M287.317 237.903 C 287.310 238.070,287.485 238.401,287.705 238.638 C 287.926 238.874,288.063 239.137,288.011 239.221 C 287.959 239.305,287.997 239.502,288.096 239.658 C 288.226 239.864,288.276 239.766,288.278 239.301 C 288.280 238.894,288.168 238.616,287.972 238.541 C 287.802 238.476,287.588 238.237,287.496 238.010 C 287.385 237.735,287.325 237.699,287.317 237.903 M179.102 239.149 C 179.102 239.316,179.008 239.453,178.895 239.453 C 178.781 239.453,178.742 239.541,178.809 239.648 C 178.916 239.822,178.781 239.879,178.391 239.827 C 178.246 239.808,177.937 240.257,177.933 240.492 C 177.931 240.581,178.068 240.515,178.237 240.346 C 178.405 240.177,178.615 240.039,178.702 240.039 C 178.981 240.039,179.502 239.092,179.295 238.964 C 179.188 238.898,179.102 238.981,179.102 239.149 M251.179 238.975 C 251.183 239.077,251.318 239.380,251.480 239.648 L 251.774 240.137 251.646 239.648 C 251.513 239.139,251.166 238.639,251.179 238.975 M280.362 239.327 C 279.885 239.850,279.838 240.118,280.289 239.748 C 280.549 239.534,280.790 239.346,280.824 239.328 C 280.858 239.311,280.814 239.253,280.726 239.200 C 280.638 239.147,280.475 239.204,280.362 239.327 M346.917 239.629 C 346.930 240.070,346.987 240.146,347.176 239.971 C 347.333 239.825,347.348 239.702,347.219 239.621 C 347.110 239.553,347.081 239.399,347.154 239.280 C 347.228 239.160,347.201 239.063,347.095 239.063 C 346.988 239.063,346.908 239.317,346.917 239.629 M173.730 239.740 C 173.730 240.175,174.055 240.282,174.360 239.948 C 174.443 239.856,174.402 239.844,174.268 239.922 C 174.118 240.008,174.023 239.948,174.023 239.769 C 174.023 239.608,173.958 239.435,173.877 239.386 C 173.796 239.336,173.730 239.495,173.730 239.740 M275.732 239.530 C 275.544 239.672,275.391 239.859,275.391 239.944 C 275.391 240.030,275.552 239.954,275.748 239.776 C 275.945 239.598,276.179 239.518,276.268 239.599 C 276.357 239.680,276.367 239.636,276.289 239.502 C 276.121 239.210,276.156 239.208,275.732 239.530 M278.402 239.577 C 278.428 239.753,278.649 240.104,278.894 240.359 C 279.138 240.613,279.290 240.948,279.230 241.104 C 279.157 241.292,279.215 241.350,279.404 241.278 C 279.560 241.218,279.688 241.266,279.688 241.385 C 279.688 241.504,279.777 241.602,279.887 241.602 C 280.138 241.602,279.973 240.633,279.673 240.349 C 279.506 240.191,279.481 240.261,279.577 240.625 C 279.696 241.075,279.688 241.083,279.470 240.723 C 279.340 240.508,279.116 240.262,278.972 240.176 C 278.829 240.090,278.711 239.848,278.711 239.639 C 278.711 239.429,278.631 239.258,278.533 239.258 C 278.435 239.258,278.376 239.401,278.402 239.577 M243.679 239.801 C 243.625 239.889,243.650 240.073,243.736 240.211 C 243.857 240.407,243.916 240.396,244.007 240.159 C 244.130 239.839,243.846 239.530,243.679 239.801 M270.020 239.985 C 270.234 240.038,270.542 240.182,270.703 240.304 C 270.958 240.498,270.961 240.483,270.728 240.186 C 270.581 239.998,270.273 239.854,270.044 239.866 C 269.650 239.888,269.649 239.894,270.020 239.985 M267.664 240.516 C 267.292 240.792,267.293 240.797,267.692 240.770 C 267.916 240.755,268.099 240.628,268.099 240.488 C 268.099 240.177,268.123 240.175,267.664 240.516 M288.483 241.146 C 288.470 241.608,288.722 241.992,289.035 241.989 C 289.234 241.987,289.275 241.932,289.143 241.843 C 289.027 241.764,288.832 241.523,288.710 241.309 C 288.588 241.094,288.486 241.021,288.483 241.146 M274.289 241.504 C 274.228 241.665,274.223 241.918,274.280 242.066 C 274.337 242.214,274.285 242.434,274.164 242.554 C 274.009 242.709,274.008 242.773,274.159 242.773 C 274.422 242.773,274.653 242.220,274.496 241.966 C 274.432 241.864,274.487 241.652,274.616 241.495 C 274.790 241.287,274.793 241.211,274.627 241.211 C 274.503 241.211,274.351 241.343,274.289 241.504 M252.187 242.183 C 252.164 242.494,252.223 242.796,252.319 242.856 C 252.415 242.915,252.472 242.699,252.447 242.376 C 252.385 241.590,252.241 241.483,252.187 242.183 M343.164 241.992 C 342.949 242.207,342.776 242.493,342.779 242.627 C 342.783 242.761,342.885 242.695,343.007 242.480 C 343.287 241.987,343.581 241.790,343.820 241.938 C 343.922 242.001,343.943 241.951,343.866 241.827 C 343.679 241.524,343.618 241.538,343.164 241.992 M266.772 242.041 C 266.676 242.228,266.679 242.957,266.774 242.861 C 266.840 242.795,266.895 242.638,266.895 242.513 C 266.895 242.388,266.997 242.285,267.122 242.285 C 267.248 242.285,267.416 242.219,267.497 242.139 C 267.577 242.058,267.453 241.992,267.220 241.992 C 266.987 241.992,266.786 242.014,266.772 242.041 M265.859 242.813 C 265.556 243.116,265.560 243.494,265.869 243.672 C 266.003 243.749,266.053 243.746,265.979 243.664 C 265.906 243.582,265.925 243.304,266.023 243.046 C 266.224 242.518,266.195 242.477,265.859 242.813 M289.718 243.029 C 290.602 243.596,290.992 243.977,290.911 244.197 C 290.785 244.542,291.129 244.995,291.394 244.832 C 291.538 244.743,291.554 244.610,291.438 244.465 C 291.212 244.184,291.499 243.359,291.823 243.359 C 291.952 243.359,291.999 243.301,291.928 243.230 C 291.857 243.159,291.619 243.264,291.399 243.464 C 291.007 243.818,290.989 243.815,290.511 243.300 C 290.243 243.010,289.873 242.779,289.689 242.785 C 289.389 242.795,289.392 242.820,289.718 243.029 M294.429 243.090 C 294.603 243.264,294.804 243.347,294.877 243.274 C 294.949 243.202,294.879 243.061,294.721 242.961 C 294.259 242.669,294.085 242.746,294.429 243.090 M342.632 243.213 C 342.529 243.347,342.381 243.566,342.305 243.699 C 342.073 244.106,342.660 243.781,342.926 243.356 C 343.188 242.935,342.940 242.815,342.632 243.213 M303.662 244.342 C 303.904 244.439,304.102 244.624,304.102 244.753 C 304.102 244.882,304.158 244.931,304.227 244.861 C 304.417 244.671,303.902 244.139,303.541 244.153 C 303.325 244.161,303.365 244.222,303.662 244.342 M300.495 246.018 C 300.320 246.192,300.230 246.388,300.294 246.453 C 300.359 246.518,300.473 246.477,300.548 246.362 C 300.622 246.246,300.811 246.111,300.967 246.061 C 301.160 245.999,301.181 245.927,301.032 245.835 C 300.911 245.760,300.670 245.843,300.495 246.018 M337.133 245.884 C 336.936 246.005,336.948 246.065,337.184 246.156 C 337.351 246.220,337.536 246.194,337.595 246.099 C 337.749 245.850,337.429 245.701,337.133 245.884 M341.141 245.839 C 340.872 246.107,341.036 246.794,341.427 247.038 C 341.653 247.179,341.784 247.208,341.718 247.101 C 341.653 246.995,341.710 246.859,341.844 246.800 C 341.979 246.740,341.917 246.710,341.706 246.734 C 341.467 246.761,341.295 246.640,341.248 246.412 C 341.202 246.185,341.254 246.097,341.387 246.180 C 341.505 246.253,341.602 246.224,341.602 246.117 C 341.602 245.861,341.300 245.679,341.141 245.839 M297.106 246.527 C 296.806 246.827,296.812 247.206,297.119 247.383 C 297.253 247.460,297.300 247.454,297.224 247.369 C 297.147 247.284,297.176 247.043,297.288 246.833 C 297.532 246.377,297.429 246.203,297.106 246.527 M336.328 247.459 C 336.328 247.909,335.766 248.633,335.416 248.633 C 335.284 248.633,335.097 248.773,335.001 248.944 C 334.801 249.303,334.924 250.195,335.174 250.195 C 335.266 250.195,335.259 249.978,335.159 249.713 C 334.971 249.219,335.572 248.505,335.969 248.750 C 336.059 248.806,336.133 248.724,336.133 248.568 C 336.133 248.260,336.652 247.982,336.918 248.147 C 337.008 248.203,337.138 248.159,337.205 248.050 C 337.319 247.866,337.048 247.763,336.645 247.837 C 336.551 247.854,336.520 247.689,336.578 247.469 C 336.635 247.250,336.603 247.070,336.505 247.070 C 336.408 247.070,336.328 247.245,336.328 247.459 M311.232 247.659 C 311.300 247.769,311.428 247.813,311.516 247.758 C 311.605 247.703,311.733 247.802,311.801 247.978 C 311.868 248.154,311.978 248.244,312.044 248.177 C 312.218 248.003,311.723 247.461,311.390 247.461 C 311.236 247.461,311.165 247.550,311.232 247.659 M330.898 248.672 C 330.770 248.801,330.664 249.037,330.664 249.197 C 330.664 249.439,330.706 249.433,330.908 249.166 C 331.042 248.988,331.372 248.757,331.641 248.653 L 332.129 248.462 331.631 248.450 C 331.357 248.443,331.027 248.543,330.898 248.672 M334.124 249.668 C 333.989 250.020,334.824 250.791,335.133 250.600 C 335.301 250.496,335.195 250.373,334.792 250.206 C 334.419 250.052,334.244 249.864,334.311 249.689 C 334.369 249.538,334.373 249.414,334.319 249.414 C 334.265 249.414,334.178 249.529,334.124 249.668 M329.703 250.428 C 329.688 250.934,329.297 251.443,329.297 250.956 C 329.297 250.824,329.240 250.773,329.171 250.842 C 329.102 250.911,329.146 251.087,329.267 251.234 C 329.389 251.381,329.424 251.578,329.344 251.672 C 329.264 251.766,329.353 251.725,329.541 251.581 C 329.729 251.437,329.883 251.193,329.883 251.039 C 329.883 250.866,329.977 250.815,330.127 250.905 C 330.313 251.017,330.319 250.985,330.153 250.770 C 330.033 250.615,329.886 250.356,329.827 250.195 C 329.764 250.026,329.712 250.124,329.703 250.428 M316.718 251.391 C 316.812 251.539,316.890 251.719,316.892 251.790 C 316.893 251.862,316.969 251.994,317.060 252.083 C 317.151 252.173,317.195 252.033,317.157 251.773 C 317.120 251.513,316.968 251.260,316.819 251.211 C 316.628 251.148,316.598 251.202,316.718 251.391 M322.672 251.312 C 322.663 251.447,322.508 251.504,322.314 251.444 C 322.010 251.349,322.012 251.363,322.329 251.566 C 322.731 251.823,322.943 251.714,322.790 251.331 C 322.717 251.149,322.683 251.144,322.672 251.312 M320.459 251.711 C 320.137 251.910,319.922 252.216,319.922 252.473 C 319.922 252.709,319.784 253.040,319.615 253.209 C 319.255 253.568,319.387 253.609,319.892 253.293 C 320.136 253.141,320.218 252.916,320.154 252.578 C 320.079 252.186,320.124 252.109,320.371 252.204 C 320.576 252.283,320.650 252.238,320.587 252.074 C 320.535 251.937,320.693 251.728,320.939 251.609 C 321.185 251.491,321.299 251.390,321.191 251.386 C 321.084 251.381,320.754 251.527,320.459 251.711 M329.611 252.230 C 329.676 252.400,329.815 252.539,329.920 252.539 C 330.177 252.539,330.016 252.095,329.724 251.998 C 329.581 251.950,329.538 252.040,329.611 252.230 M319.242 254.172 C 318.884 254.434,318.655 255.078,318.920 255.078 C 318.995 255.078,319.212 254.814,319.403 254.492 C 319.790 253.836,319.767 253.789,319.242 254.172 M317.676 254.804 C 317.676 255.062,317.742 255.273,317.822 255.273 C 317.903 255.273,317.969 255.103,317.969 254.894 C 317.969 254.686,317.903 254.475,317.822 254.425 C 317.742 254.375,317.676 254.546,317.676 254.804 " stroke="none" fill="#fc2c24" fill-rule="evenodd"></path></g></svg>