<svg id="svg" xmlns="http://www.w3.org/2000/svg" xmlns:xlink="http://www.w3.org/1999/xlink" width="400" height="300" viewBox="0, 0, 400,300" version="1.1"><g id="svgg"><path id="path0" d="M176.314 188.162 C 176.016 188.294,175.833 188.463,175.907 188.537 C 175.981 188.611,175.934 188.672,175.802 188.672 C 175.671 188.672,175.625 188.773,175.702 188.897 C 175.778 189.021,175.696 189.228,175.518 189.358 C 175.133 189.639,174.227 189.506,174.089 189.148 C 173.984 188.872,172.852 188.821,172.852 189.092 C 172.852 189.183,172.786 189.247,172.705 189.235 C 171.726 189.080,170.726 189.975,171.111 190.662 C 171.219 190.857,171.182 190.951,170.996 190.951 C 170.844 190.951,170.778 190.857,170.849 190.743 C 170.920 190.628,170.728 190.731,170.423 190.970 C 170.119 191.210,169.749 191.406,169.603 191.406 C 169.456 191.406,169.346 191.472,169.359 191.553 C 169.434 192.026,169.305 192.204,168.964 192.096 C 168.757 192.030,168.302 192.141,167.938 192.345 C 167.578 192.547,167.130 192.690,166.943 192.663 C 166.731 192.632,166.602 192.740,166.602 192.947 C 166.602 193.131,166.499 193.384,166.373 193.510 C 166.199 193.684,166.257 193.783,166.617 193.927 C 167.070 194.108,167.063 194.116,166.455 194.128 C 166.046 194.136,165.820 194.238,165.820 194.415 C 165.820 194.594,165.684 194.654,165.430 194.588 C 165.134 194.511,165.033 194.586,165.015 194.899 C 164.971 195.644,164.945 195.715,164.648 195.898 C 164.270 196.132,164.231 196.823,164.588 196.960 C 164.815 197.047,164.819 197.114,164.609 197.340 C 164.470 197.492,164.297 197.580,164.225 197.536 C 164.153 197.493,163.961 197.590,163.799 197.752 C 163.637 197.914,163.366 198.047,163.198 198.047 C 162.931 198.047,162.792 198.397,162.867 198.877 C 162.880 198.958,162.759 199.023,162.598 199.023 C 162.437 199.023,162.305 199.111,162.305 199.219 C 162.305 199.326,162.161 199.414,161.986 199.414 C 161.154 199.414,160.181 199.873,160.070 200.318 C 160.006 200.572,159.890 200.764,159.811 200.746 C 159.372 200.645,158.637 201.249,158.683 201.672 C 158.726 202.063,158.347 202.443,158.017 202.342 C 157.969 202.327,157.865 202.489,157.786 202.702 C 157.669 203.018,157.469 203.087,156.713 203.076 C 156.166 203.068,155.751 203.156,155.707 203.290 C 155.665 203.415,155.544 203.465,155.439 203.400 C 155.204 203.255,154.679 203.930,154.833 204.178 C 154.893 204.277,154.849 204.299,154.733 204.228 C 154.618 204.156,154.405 204.209,154.259 204.344 C 154.114 204.479,153.865 204.618,153.706 204.652 C 153.206 204.760,152.539 205.272,152.539 205.548 C 152.539 205.790,151.875 206.129,151.508 206.074 C 151.425 206.061,151.306 206.183,151.244 206.345 C 151.182 206.506,151.046 206.586,150.943 206.522 C 150.840 206.458,150.705 206.598,150.643 206.833 C 150.564 207.136,150.487 207.188,150.379 207.012 C 150.280 206.853,150.180 207.013,150.095 207.464 L 149.964 208.163 148.908 208.078 C 148.327 208.032,147.852 208.063,147.852 208.147 C 147.852 208.232,147.654 208.314,147.412 208.330 C 146.798 208.371,146.324 208.493,146.165 208.653 C 146.090 208.728,145.868 208.789,145.671 208.789 C 145.474 208.789,145.313 208.921,145.313 209.082 C 145.313 209.243,145.237 209.375,145.144 209.375 C 145.052 209.375,145.018 209.596,145.070 209.866 C 145.145 210.258,145.100 210.333,144.848 210.236 C 144.674 210.169,144.531 210.202,144.531 210.309 C 144.531 210.416,144.390 210.491,144.216 210.476 C 143.931 210.452,143.809 210.599,143.347 211.523 C 143.266 211.685,143.104 211.794,142.987 211.768 C 142.791 211.723,142.681 212.242,142.759 212.842 C 142.777 212.985,142.565 213.089,142.245 213.093 C 141.532 213.102,140.935 213.476,140.851 213.965 C 140.815 214.180,140.703 214.385,140.604 214.422 C 140.194 214.572,139.868 215.071,139.984 215.372 C 140.071 215.600,140.024 215.661,139.821 215.583 C 139.663 215.523,139.367 215.595,139.163 215.744 C 138.959 215.894,138.624 216.016,138.418 216.016 C 138.179 216.016,138.082 216.113,138.149 216.288 C 138.262 216.584,137.451 217.464,137.250 217.263 C 137.182 217.195,137.166 217.355,137.214 217.619 C 137.274 217.953,137.212 218.099,137.010 218.099 C 136.850 218.099,136.762 218.056,136.815 218.003 C 136.867 217.950,136.813 217.789,136.693 217.645 C 136.450 217.352,135.156 217.282,135.156 217.563 C 135.156 217.661,134.887 217.802,134.557 217.874 C 133.863 218.027,133.630 218.451,133.956 218.972 C 134.081 219.173,134.117 219.316,134.035 219.291 C 133.682 219.180,132.666 220.165,132.761 220.527 C 132.814 220.731,132.714 221.118,132.538 221.386 C 132.275 221.787,132.267 221.875,132.494 221.875 C 132.914 221.875,133.079 222.512,132.725 222.770 C 132.558 222.892,132.422 223.175,132.422 223.399 C 132.422 223.701,132.321 223.786,132.030 223.730 C 131.701 223.667,131.658 223.731,131.759 224.132 C 131.834 224.434,131.795 224.609,131.650 224.609 C 131.525 224.609,131.470 224.687,131.529 224.783 C 131.588 224.878,131.489 225.076,131.308 225.222 C 131.120 225.375,131.039 225.390,131.118 225.258 C 131.200 225.121,131.095 224.977,130.857 224.902 C 130.630 224.829,130.482 224.636,130.512 224.452 C 130.542 224.275,130.479 224.120,130.371 224.109 C 130.264 224.097,130.024 224.021,129.839 223.939 C 129.488 223.784,128.320 224.194,128.320 224.473 C 128.320 224.561,128.242 224.584,128.147 224.525 C 128.052 224.467,127.924 224.610,127.863 224.845 C 127.759 225.241,127.726 225.249,127.401 224.955 C 126.990 224.585,125.977 224.294,125.977 224.546 C 125.977 224.642,125.823 224.726,125.635 224.733 C 124.824 224.762,124.036 225.523,124.328 225.995 C 124.386 226.090,124.298 226.115,124.131 226.051 C 123.925 225.972,123.827 226.050,123.825 226.297 C 123.823 226.575,123.783 226.598,123.654 226.395 C 123.456 226.082,122.698 226.260,122.710 226.617 C 122.730 227.226,122.641 227.553,122.481 227.454 C 122.312 227.349,121.979 227.884,122.037 228.167 C 122.053 228.243,121.945 228.260,121.798 228.204 C 121.463 228.075,120.508 228.938,120.508 229.368 C 120.508 229.544,120.420 229.698,120.313 229.712 C 120.205 229.725,120.037 229.747,119.938 229.761 C 119.840 229.774,119.693 229.851,119.613 229.932 C 119.284 230.260,118.973 230.067,119.060 229.590 C 119.108 229.321,119.059 229.102,118.949 229.102 C 118.840 229.102,118.772 229.036,118.799 228.955 C 118.826 228.875,118.774 228.792,118.683 228.773 C 118.593 228.753,118.411 228.589,118.279 228.408 C 118.020 228.055,116.406 228.163,116.406 228.533 C 116.406 228.631,116.230 228.711,116.016 228.711 C 115.781 228.711,115.625 228.841,115.625 229.036 C 115.625 229.215,115.567 229.304,115.496 229.233 C 115.426 229.163,115.250 229.203,115.106 229.322 C 114.962 229.442,114.844 229.472,114.844 229.389 C 114.844 229.213,114.155 229.970,113.717 230.627 C 113.542 230.890,113.364 230.994,113.292 230.876 C 113.223 230.765,112.972 230.644,112.733 230.608 C 112.495 230.571,112.195 230.437,112.068 230.310 C 111.695 229.938,110.979 230.032,110.839 230.472 C 110.770 230.688,110.643 230.821,110.557 230.768 C 110.246 230.576,109.210 231.272,109.031 231.793 C 108.834 232.369,108.917 232.877,109.183 232.713 C 109.274 232.657,109.403 232.700,109.471 232.809 C 109.539 232.920,109.412 233.008,109.186 233.008 C 108.923 233.008,108.705 232.818,108.570 232.471 C 108.455 232.175,108.277 231.717,108.173 231.452 C 108.024 231.068,107.950 231.027,107.812 231.251 C 107.666 231.487,107.618 231.478,107.509 231.196 C 107.438 231.011,107.236 230.858,107.059 230.856 C 106.597 230.852,104.690 231.877,104.807 232.067 C 104.861 232.155,104.813 232.227,104.699 232.227 C 104.585 232.227,104.491 232.424,104.489 232.666 C 104.486 233.198,104.176 233.733,103.984 233.541 C 103.718 233.275,103.320 233.840,103.320 234.483 C 103.320 234.960,103.217 235.163,102.927 235.255 C 102.710 235.323,102.581 235.456,102.638 235.549 C 102.696 235.642,102.565 235.705,102.348 235.689 C 102.131 235.672,101.953 235.590,101.953 235.505 C 101.953 235.222,101.400 235.348,100.698 235.791 C 100.231 236.086,100.028 236.344,100.082 236.577 C 100.211 237.142,99.598 236.896,98.834 236.077 C 98.455 235.671,98.097 235.144,98.038 234.905 C 97.980 234.667,97.848 234.465,97.745 234.456 C 97.643 234.447,97.311 234.337,97.009 234.212 C 96.262 233.903,95.767 233.926,95.632 234.277 C 95.571 234.438,95.377 234.570,95.203 234.570 C 94.715 234.570,94.024 235.213,94.100 235.596 C 94.138 235.784,94.053 235.939,93.911 235.942 C 93.769 235.944,93.872 236.118,94.141 236.328 L 94.629 236.710 94.092 236.714 C 93.796 236.717,93.555 236.807,93.555 236.914 C 93.555 237.021,93.434 237.109,93.286 237.109 C 93.138 237.109,92.896 237.258,92.749 237.440 C 92.517 237.725,92.521 237.748,92.773 237.606 C 93.002 237.479,93.017 237.497,92.839 237.689 C 92.578 237.971,92.188 237.800,92.188 237.404 C 92.188 237.256,92.012 237.080,91.797 237.012 C 91.437 236.898,91.316 236.677,91.388 236.265 C 91.403 236.176,91.326 236.159,91.216 236.227 C 91.030 236.342,90.990 236.252,90.935 235.588 C 90.924 235.449,90.783 235.252,90.623 235.151 C 90.463 235.050,90.420 234.965,90.527 234.963 C 90.881 234.955,89.612 234.375,89.241 234.375 C 89.042 234.375,88.569 234.549,88.190 234.762 C 87.810 234.975,87.500 235.096,87.500 235.031 C 87.500 234.966,87.382 235.011,87.238 235.131 C 87.094 235.250,86.936 235.309,86.888 235.261 C 86.840 235.212,86.786 235.366,86.768 235.601 C 86.751 235.837,86.644 236.060,86.532 236.097 C 86.420 236.135,86.328 236.251,86.328 236.356 C 86.328 236.461,86.394 236.507,86.475 236.458 C 86.555 236.409,86.747 236.505,86.901 236.671 C 87.148 236.939,87.121 236.962,86.656 236.873 C 86.236 236.793,86.133 236.846,86.133 237.148 C 86.133 237.354,86.044 237.468,85.936 237.401 C 85.336 237.031,84.630 237.892,84.996 238.546 C 85.110 238.751,85.104 238.867,84.978 238.867 C 84.870 238.867,84.608 239.053,84.397 239.279 C 83.989 239.717,84.041 240.234,84.494 240.234 C 84.643 240.234,84.766 240.359,84.766 240.511 C 84.766 240.663,84.875 240.829,85.010 240.879 C 85.165 240.937,85.112 241.026,84.863 241.125 C 84.648 241.210,84.275 241.488,84.033 241.744 C 83.636 242.163,83.505 242.164,83.571 241.748 C 83.583 241.667,83.512 241.602,83.412 241.602 C 83.311 241.602,83.170 241.415,83.098 241.188 C 82.911 240.597,81.606 240.788,80.843 241.519 C 80.253 242.085,80.235 242.073,79.994 240.970 C 79.806 240.111,78.424 239.541,77.940 240.124 C 77.812 240.278,77.472 240.456,77.184 240.520 C 76.791 240.606,76.568 240.857,76.294 241.520 C 76.067 242.070,75.833 242.370,75.678 242.310 C 75.196 242.125,74.734 242.871,75.102 243.239 C 75.386 243.522,75.387 243.555,75.112 243.555 C 74.943 243.555,74.805 243.648,74.805 243.762 C 74.805 243.875,74.726 243.920,74.630 243.860 C 74.248 243.624,74.258 244.357,74.641 244.714 C 75.628 245.634,73.402 246.236,70.740 245.769 C 70.301 245.692,70.127 245.570,70.196 245.389 C 70.252 245.242,70.192 245.143,70.061 245.168 C 69.931 245.194,69.824 245.083,69.824 244.922 C 69.824 244.761,69.714 244.513,69.580 244.371 C 69.446 244.229,69.336 243.989,69.336 243.837 C 69.336 243.455,68.401 243.258,67.752 243.503 C 67.331 243.662,67.190 243.647,67.109 243.435 C 67.051 243.286,66.870 243.164,66.705 243.164 C 66.432 243.164,66.329 242.891,66.354 242.235 C 66.359 242.099,66.153 241.936,65.897 241.872 C 65.640 241.807,65.423 241.610,65.415 241.434 C 65.384 240.774,65.259 240.427,64.841 239.840 C 64.576 239.468,64.446 239.056,64.502 238.765 C 64.551 238.505,64.523 238.336,64.438 238.388 C 64.231 238.516,64.070 238.223,64.020 237.629 C 63.998 237.359,63.898 237.188,63.797 237.250 C 63.694 237.314,63.658 237.140,63.714 236.845 C 63.769 236.561,63.743 236.328,63.658 236.328 C 63.445 236.328,63.139 235.418,62.948 234.215 C 62.875 233.756,62.703 233.513,62.360 233.382 C 62.045 233.263,61.913 233.096,61.986 232.907 C 62.056 232.725,61.981 232.617,61.784 232.617 C 61.374 232.617,60.739 231.876,60.866 231.546 C 61.011 231.169,60.366 230.501,59.960 230.608 C 59.770 230.657,59.555 230.603,59.483 230.486 C 59.411 230.369,59.132 230.273,58.864 230.273 C 58.584 230.273,58.428 230.358,58.498 230.471 C 58.565 230.581,58.358 230.721,58.033 230.786 C 57.711 230.850,57.400 231.025,57.343 231.174 C 57.286 231.323,57.095 231.445,56.919 231.445 C 56.718 231.445,56.640 231.552,56.709 231.732 C 56.769 231.890,56.733 232.072,56.629 232.136 C 56.524 232.201,56.489 232.334,56.550 232.433 C 56.611 232.532,56.523 232.560,56.355 232.495 C 56.187 232.431,55.921 232.485,55.765 232.615 C 55.538 232.803,55.416 232.787,55.167 232.539 C 54.995 232.367,54.768 232.227,54.662 232.227 C 54.556 232.227,54.523 232.139,54.590 232.031 C 54.656 231.924,54.617 231.836,54.504 231.836 C 54.390 231.836,54.297 231.742,54.297 231.627 C 54.297 231.304,53.766 230.847,53.280 230.754 C 52.821 230.665,51.758 231.045,51.758 231.298 C 51.758 231.379,51.582 231.445,51.367 231.445 C 51.008 231.445,50.879 231.232,50.964 230.780 C 50.982 230.682,50.883 230.531,50.743 230.445 C 50.603 230.358,50.481 230.131,50.472 229.939 C 50.463 229.747,50.353 229.342,50.228 229.040 C 50.102 228.738,50.000 228.364,50.000 228.210 C 50.000 228.056,49.934 227.930,49.854 227.930 C 49.773 227.930,49.689 227.710,49.666 227.441 C 49.595 226.581,49.546 226.365,49.448 226.463 C 49.288 226.624,48.824 226.141,48.948 225.941 C 49.011 225.839,48.888 225.709,48.674 225.653 C 48.458 225.597,48.127 225.192,47.926 224.739 C 47.566 223.928,47.208 223.438,46.975 223.438 C 46.907 223.438,46.916 223.547,46.995 223.682 C 47.073 223.816,46.969 223.781,46.762 223.605 C 46.286 223.198,45.313 223.182,45.313 223.580 C 45.313 223.761,45.199 223.826,45.012 223.755 C 44.842 223.689,44.664 223.764,44.602 223.926 C 44.505 224.178,44.441 224.178,44.077 223.923 C 43.640 223.617,42.773 223.526,42.773 223.787 C 42.773 223.871,42.604 223.953,42.397 223.969 C 42.130 223.989,42.040 223.893,42.088 223.642 C 42.142 223.363,42.066 223.310,41.733 223.396 C 41.380 223.487,41.348 223.458,41.542 223.221 C 41.805 222.899,41.663 222.589,41.168 222.406 C 40.983 222.338,40.774 222.037,40.702 221.737 C 40.536 221.038,40.039 220.466,39.710 220.592 C 39.569 220.647,39.453 220.606,39.453 220.502 C 39.453 220.398,39.189 220.313,38.867 220.313 C 38.545 220.313,38.281 220.400,38.281 220.508 C 38.281 220.804,37.775 220.742,37.502 220.412 C 37.369 220.252,37.182 220.170,37.087 220.229 C 36.992 220.287,36.914 220.250,36.914 220.144 C 36.914 219.919,35.587 220.241,35.192 220.563 C 34.915 220.788,33.984 219.907,33.984 219.419 C 33.984 219.284,33.879 219.138,33.749 219.095 C 33.620 219.052,33.488 218.583,33.456 218.053 C 33.421 217.484,33.277 217.001,33.105 216.873 C 32.944 216.754,32.813 216.521,32.813 216.357 C 32.813 216.192,32.681 216.007,32.520 215.945 C 32.358 215.883,32.227 215.610,32.227 215.338 C 32.227 214.892,32.040 214.745,31.577 214.825 C 31.489 214.841,31.470 214.766,31.536 214.659 C 31.718 214.365,30.657 214.168,30.253 214.421 C 29.730 214.747,29.580 214.463,29.522 213.037 C 29.501 212.529,29.402 212.305,29.199 212.305 C 29.038 212.305,28.906 212.213,28.906 212.101 C 28.906 211.989,28.728 211.707,28.511 211.473 C 28.293 211.240,28.160 210.933,28.214 210.792 C 28.270 210.647,28.102 210.439,27.828 210.314 C 27.562 210.193,27.344 210.020,27.344 209.930 C 27.344 209.839,27.075 209.766,26.746 209.766 C 26.418 209.766,26.197 209.843,26.255 209.937 C 26.313 210.032,26.097 210.161,25.775 210.226 C 25.150 210.351,24.546 211.339,25.002 211.491 C 25.257 211.576,24.309 212.109,23.903 212.109 C 23.755 212.109,23.633 212.181,23.633 212.268 C 23.633 212.743,22.128 213.231,21.491 212.963 C 20.747 212.651,19.727 212.609,19.727 212.891 C 19.727 212.998,19.595 213.086,19.434 213.086 C 19.272 213.086,19.141 213.164,19.141 213.260 C 19.141 213.355,18.995 213.421,18.816 213.406 C 18.497 213.379,18.013 214.562,18.247 214.797 C 18.305 214.854,18.165 215.064,17.935 215.263 C 17.450 215.684,17.299 215.725,17.506 215.381 C 17.623 215.187,17.592 215.186,17.357 215.376 C 17.141 215.551,17.003 215.557,16.846 215.400 C 16.554 215.108,15.722 215.342,15.251 215.848 C 14.803 216.328,14.258 216.213,14.258 215.638 C 14.258 215.424,14.075 215.150,13.850 215.030 C 13.626 214.910,13.495 214.760,13.559 214.696 C 13.623 214.632,13.433 214.420,13.136 214.225 C 12.840 214.030,12.670 213.869,12.757 213.868 C 12.845 213.868,12.729 213.604,12.500 213.281 C 12.040 212.635,11.001 212.465,10.510 212.955 C 10.367 213.098,10.149 213.181,10.025 213.140 C 9.900 213.098,9.736 213.261,9.660 213.502 C 9.544 213.869,9.485 213.894,9.301 213.660 C 9.062 213.353,8.008 213.154,8.008 213.415 C 8.008 213.504,7.735 213.697,7.402 213.844 C 6.877 214.077,6.812 214.187,6.909 214.673 C 6.992 215.088,6.946 215.234,6.733 215.234 C 6.575 215.234,6.445 215.313,6.445 215.409 C 6.445 215.504,6.204 215.643,5.909 215.717 C 5.156 215.906,4.907 216.162,5.027 216.624 C 5.130 217.014,5.082 217.020,2.566 216.896 L 0.000 216.770 0.000 258.385 L 0.000 300.000 198.096 300.004 C 385.935 300.007,396.290 299.990,398.096 299.665 L 400.000 299.324 400.000 257.186 L 400.000 215.048 399.512 214.728 C 399.243 214.552,399.023 214.314,399.023 214.199 C 399.023 214.084,398.826 213.772,398.584 213.506 C 398.342 213.241,398.276 213.096,398.438 213.186 C 398.661 213.310,398.653 213.260,398.403 212.973 C 398.222 212.767,398.072 212.530,398.068 212.447 C 398.040 211.802,396.764 211.271,396.555 211.817 C 396.453 212.083,396.407 212.078,396.186 211.775 C 396.047 211.586,395.974 211.363,396.025 211.281 C 396.075 211.200,396.029 211.133,395.921 211.133 C 395.814 211.133,395.758 210.965,395.797 210.760 C 395.848 210.495,395.729 210.351,395.385 210.265 C 394.966 210.160,394.914 210.059,394.999 209.519 C 395.065 209.099,394.989 208.772,394.765 208.516 C 394.583 208.307,394.543 208.200,394.678 208.279 C 395.028 208.484,394.980 208.329,394.531 207.813 C 394.316 207.565,394.141 207.134,394.141 206.854 C 394.141 206.069,393.170 205.259,392.302 205.321 C 391.917 205.349,391.602 205.426,391.602 205.492 C 391.602 205.559,391.411 205.603,391.177 205.590 C 390.856 205.572,390.639 205.794,390.282 206.509 C 389.917 207.239,389.738 207.419,389.486 207.311 C 389.307 207.233,389.006 207.164,388.818 207.156 C 388.630 207.149,388.477 207.074,388.477 206.989 C 388.477 206.748,387.604 206.810,387.344 207.070 C 387.215 207.199,387.109 207.240,387.109 207.161 C 387.109 207.082,386.934 207.112,386.719 207.227 C 386.377 207.410,386.328 207.375,386.328 206.950 C 386.328 206.579,386.154 206.382,385.596 206.120 C 385.193 205.931,384.600 205.521,384.277 205.209 C 383.955 204.897,383.823 204.702,383.984 204.777 C 384.245 204.897,384.245 204.883,383.984 204.653 C 383.823 204.511,383.692 204.219,383.693 204.004 C 383.696 203.438,382.884 203.062,382.186 203.305 C 381.880 203.412,381.512 203.454,381.367 203.399 C 381.223 203.343,381.053 203.435,380.988 203.602 C 380.821 204.037,380.486 203.979,380.602 203.536 C 380.720 203.085,380.327 202.288,380.067 202.448 C 379.964 202.512,379.827 202.426,379.763 202.258 C 379.684 202.053,379.394 201.953,378.877 201.953 C 378.375 201.953,378.119 201.868,378.140 201.709 C 378.201 201.236,378.122 201.001,377.786 200.666 C 377.598 200.477,377.475 200.115,377.510 199.849 C 377.548 199.561,377.493 199.419,377.374 199.493 C 377.048 199.694,376.563 198.796,376.563 197.992 C 376.562 197.580,376.484 197.291,376.388 197.351 C 376.291 197.410,376.165 197.333,376.105 197.179 C 375.941 196.751,374.563 196.420,374.371 196.763 C 374.285 196.918,374.052 196.990,373.829 196.932 C 373.613 196.875,373.438 196.925,373.438 197.041 C 373.438 197.158,373.316 197.207,373.167 197.149 C 372.917 197.054,372.528 197.496,371.957 198.528 C 371.840 198.738,371.463 198.982,371.119 199.072 C 370.768 199.163,370.406 199.424,370.296 199.666 C 369.907 200.523,369.554 201.046,369.249 201.217 C 369.077 201.313,368.983 201.465,369.039 201.556 C 369.095 201.647,368.987 201.685,368.799 201.639 C 368.331 201.527,367.409 203.290,367.807 203.536 C 368.015 203.665,367.999 203.764,367.725 204.039 C 367.416 204.347,367.383 204.349,367.383 204.060 C 367.383 203.275,365.334 202.684,364.923 203.350 C 364.830 203.501,364.874 203.525,365.058 203.421 C 365.267 203.302,365.262 203.339,365.039 203.575 C 364.878 203.745,364.482 203.926,364.160 203.977 C 363.838 204.028,363.552 204.088,363.525 204.110 C 363.499 204.132,363.367 204.162,363.232 204.176 C 363.098 204.190,362.999 204.403,363.012 204.650 C 363.031 204.995,362.908 205.123,362.475 205.210 C 362.167 205.272,361.914 205.380,361.914 205.451 C 361.914 205.572,361.517 205.643,360.672 205.673 C 360.473 205.679,360.267 205.849,360.214 206.049 C 360.162 206.249,359.898 206.468,359.626 206.536 C 359.355 206.604,359.187 206.713,359.251 206.777 C 359.316 206.842,359.234 206.994,359.068 207.115 C 358.809 207.305,358.668 207.654,358.609 208.257 C 358.600 208.340,358.365 208.495,358.086 208.601 C 357.743 208.731,357.615 208.893,357.693 209.095 C 357.756 209.260,357.733 209.349,357.641 209.292 C 357.549 209.235,357.325 209.353,357.143 209.555 C 356.898 209.826,356.876 209.942,357.058 210.002 C 357.225 210.058,357.197 210.126,356.973 210.212 C 356.790 210.282,356.641 210.248,356.641 210.136 C 356.641 209.643,355.208 208.812,354.984 209.175 C 354.924 209.271,354.723 209.355,354.537 209.360 C 353.691 209.385,353.516 209.462,353.516 209.810 C 353.516 210.040,353.430 210.127,353.290 210.040 C 353.134 209.944,353.098 210.033,353.175 210.326 C 353.259 210.648,353.207 210.738,352.961 210.698 C 352.783 210.669,352.659 210.754,352.686 210.889 C 352.762 211.269,352.485 211.172,351.981 210.641 C 351.728 210.374,351.399 210.145,351.249 210.132 C 351.099 210.118,350.867 210.095,350.732 210.081 C 350.597 210.066,350.515 209.860,350.549 209.617 C 350.607 209.205,349.947 208.727,349.316 208.723 C 348.748 208.719,347.674 209.051,347.767 209.201 C 347.826 209.297,347.784 209.375,347.674 209.375 C 347.564 209.375,347.530 209.522,347.599 209.702 C 347.694 209.950,347.645 209.998,347.397 209.903 C 347.216 209.834,347.070 209.872,347.070 209.988 C 347.070 210.104,346.943 210.149,346.787 210.089 C 346.611 210.022,346.454 210.139,346.371 210.401 C 346.298 210.632,346.114 210.945,345.962 211.097 C 345.725 211.334,345.728 211.434,345.978 211.816 C 346.138 212.060,346.218 212.311,346.156 212.372 C 346.032 212.497,345.313 211.181,345.313 210.829 C 345.312 210.183,343.762 209.573,343.358 210.060 C 343.225 210.221,342.995 210.352,342.847 210.352 C 342.586 210.352,342.498 210.580,342.564 211.084 C 342.608 211.423,342.092 211.390,341.797 211.035 C 341.504 210.683,341.219 210.668,340.491 210.970 C 339.883 211.222,339.740 211.268,339.453 211.304 C 339.346 211.317,339.258 211.465,339.258 211.633 C 339.258 211.800,339.176 211.886,339.076 211.825 C 338.976 211.763,338.866 211.955,338.832 212.253 C 338.780 212.699,338.675 212.793,338.226 212.793 C 337.927 212.793,337.607 212.915,337.514 213.063 C 337.380 213.281,337.305 213.256,337.136 212.941 C 336.940 212.573,335.938 212.199,335.938 212.493 C 335.938 212.566,335.623 212.708,335.238 212.807 C 334.776 212.927,334.429 213.184,334.213 213.568 C 333.755 214.382,333.446 214.688,333.307 214.463 C 333.098 214.126,332.644 214.472,332.513 215.069 C 332.427 215.462,332.295 215.618,332.110 215.547 C 331.951 215.486,331.836 215.563,331.836 215.729 C 331.836 215.887,331.748 216.016,331.641 216.016 C 331.533 216.016,331.445 215.923,331.445 215.810 C 331.445 215.516,330.050 214.964,329.903 215.201 C 329.765 215.424,328.527 215.652,328.491 215.461 C 328.477 215.390,328.446 215.145,328.421 214.917 C 328.396 214.689,328.013 214.174,327.569 213.773 C 327.124 213.372,326.800 212.980,326.848 212.902 C 326.941 212.752,326.600 212.687,325.750 212.695 C 325.153 212.700,323.577 213.356,323.749 213.528 C 323.812 213.591,323.717 213.621,323.537 213.595 C 323.358 213.568,323.142 213.436,323.059 213.300 C 322.851 212.964,321.217 213.216,320.656 213.671 C 320.248 214.001,320.220 213.997,319.887 213.575 C 319.462 213.034,318.576 213.082,317.807 213.688 C 317.288 214.097,317.253 214.172,317.210 214.969 C 317.153 216.028,316.034 215.496,316.022 214.404 C 316.018 214.109,315.941 213.867,315.849 213.867 C 315.757 213.867,315.428 213.625,315.116 213.330 C 314.744 212.977,314.328 212.788,313.899 212.777 C 313.541 212.769,313.169 212.637,313.072 212.484 C 312.976 212.332,312.895 212.276,312.894 212.360 C 312.892 212.445,312.630 212.247,312.311 211.921 C 311.754 211.351,310.742 211.094,310.742 211.523 C 310.742 211.631,310.631 211.719,310.496 211.719 C 310.216 211.719,309.682 212.482,309.847 212.646 C 309.906 212.705,309.752 212.942,309.504 213.171 C 309.257 213.401,309.087 213.687,309.127 213.808 C 309.167 213.928,309.094 214.092,308.965 214.172 C 308.815 214.265,308.780 214.236,308.868 214.093 C 308.945 213.969,308.909 213.867,308.789 213.867 C 308.669 213.867,308.619 213.789,308.678 213.694 C 308.737 213.599,308.601 213.473,308.377 213.414 C 308.152 213.356,308.026 213.214,308.097 213.099 C 308.168 212.984,308.085 212.891,307.912 212.891 C 307.734 212.891,307.447 212.552,307.249 212.110 C 307.057 211.681,306.844 211.385,306.776 211.453 C 306.634 211.595,305.367 210.330,305.428 210.107 C 305.451 210.027,305.303 209.961,305.101 209.961 C 304.891 209.961,304.687 209.784,304.626 209.551 C 304.567 209.325,304.425 209.198,304.310 209.269 C 304.195 209.340,304.102 209.263,304.102 209.099 C 304.102 208.934,303.838 208.663,303.516 208.496 C 303.193 208.329,302.919 208.107,302.905 208.003 C 302.892 207.898,302.870 207.732,302.856 207.633 C 302.798 207.203,302.395 207.043,301.172 206.964 C 300.587 206.926,300.479 206.843,300.426 206.389 C 300.392 206.098,300.284 205.859,300.186 205.859 C 300.088 205.859,299.829 205.508,299.609 205.078 C 299.390 204.648,299.124 204.297,299.018 204.297 C 298.746 204.297,297.656 203.299,297.656 203.050 C 297.656 202.736,296.664 201.953,296.265 201.953 C 295.760 201.953,294.529 202.572,294.649 202.767 C 294.704 202.856,294.651 202.930,294.531 202.930 C 294.411 202.930,294.367 203.018,294.434 203.125 C 294.500 203.232,294.461 203.320,294.347 203.320 C 294.234 203.320,294.141 203.467,294.141 203.646 C 294.141 203.825,294.086 203.917,294.020 203.850 C 293.872 203.702,293.359 204.189,293.359 204.478 C 293.359 204.593,293.247 204.688,293.110 204.688 C 292.692 204.688,292.158 205.460,292.290 205.874 C 292.387 206.181,292.295 206.277,291.811 206.374 C 291.164 206.504,291.098 206.650,291.418 207.248 C 291.604 207.596,291.571 207.625,291.076 207.544 C 290.774 207.494,290.408 207.447,290.262 207.438 C 290.117 207.429,290.044 207.300,290.101 207.151 C 290.176 206.956,290.091 206.910,289.799 206.986 C 289.550 207.051,289.440 207.015,289.515 206.894 C 289.725 206.555,288.209 206.930,287.737 207.334 C 287.313 207.697,287.162 208.286,287.451 208.448 C 287.532 208.493,287.497 208.507,287.375 208.478 C 287.252 208.450,286.986 208.582,286.782 208.772 C 286.473 209.059,286.370 209.073,286.167 208.856 C 286.032 208.712,285.712 208.594,285.455 208.594 C 285.199 208.594,284.851 208.456,284.682 208.287 C 284.513 208.118,284.375 208.036,284.375 208.105 C 284.375 208.175,284.243 208.099,284.082 207.938 C 283.921 207.777,283.789 207.549,283.789 207.431 C 283.789 207.313,283.579 207.137,283.322 207.039 C 282.841 206.856,282.031 206.968,282.031 207.217 C 282.031 207.294,281.899 207.357,281.738 207.357 C 281.560 207.357,281.445 207.175,281.445 206.895 C 281.445 206.641,281.313 206.382,281.152 206.321 C 280.991 206.259,280.859 206.086,280.859 205.936 C 280.859 205.786,280.767 205.664,280.655 205.664 C 280.542 205.664,280.337 205.395,280.199 205.067 C 279.938 204.447,279.139 203.906,278.482 203.906 C 278.273 203.906,278.156 203.994,278.223 204.102 C 278.289 204.209,278.184 204.300,277.990 204.303 C 277.226 204.317,276.373 205.655,277.118 205.671 C 277.296 205.675,277.062 205.856,276.599 206.073 C 275.934 206.385,275.770 206.558,275.818 206.896 C 275.851 207.132,275.727 207.476,275.542 207.662 C 275.352 207.851,275.257 208.136,275.325 208.313 C 275.421 208.565,275.478 208.575,275.610 208.366 C 275.738 208.164,275.776 208.178,275.778 208.431 C 275.780 208.610,275.891 208.801,276.025 208.855 C 276.212 208.930,276.208 208.957,276.011 208.969 C 275.721 208.986,275.196 209.458,275.194 209.703 C 275.190 210.148,274.261 210.286,273.610 209.939 C 272.797 209.505,272.342 209.480,272.196 209.860 C 272.135 210.019,271.960 210.102,271.807 210.043 C 271.392 209.884,270.554 211.114,270.920 211.345 C 271.166 211.501,271.028 211.606,270.654 211.547 C 270.574 211.534,270.530 211.633,270.557 211.768 C 270.583 211.902,270.498 211.991,270.367 211.965 C 269.985 211.890,269.627 212.707,269.951 212.915 C 270.136 213.035,270.150 213.130,270.000 213.232 C 269.509 213.567,269.298 214.258,269.687 214.258 C 270.183 214.258,270.144 214.653,269.595 215.192 C 269.345 215.438,269.141 215.542,269.141 215.423 C 269.141 215.128,268.630 214.638,268.480 214.788 C 268.414 214.854,268.359 214.729,268.359 214.508 C 268.359 213.839,266.758 213.610,266.267 214.209 C 266.085 214.430,266.032 214.448,266.116 214.258 C 266.187 214.097,266.061 214.185,265.836 214.453 C 265.570 214.771,265.465 215.100,265.534 215.397 C 265.601 215.685,265.566 215.807,265.438 215.727 C 265.326 215.658,265.234 215.695,265.234 215.809 C 265.234 215.923,265.103 216.016,264.941 216.016 C 264.610 216.016,264.576 216.184,264.827 216.582 C 265.010 216.870,264.669 217.414,264.407 217.255 C 264.327 217.206,264.315 217.304,264.379 217.470 C 264.454 217.667,264.384 217.773,264.181 217.773 C 264.008 217.773,263.889 217.664,263.916 217.529 C 263.943 217.395,263.855 217.307,263.721 217.334 C 263.586 217.361,263.477 217.262,263.477 217.114 C 263.477 216.621,262.932 216.355,262.204 216.492 C 261.824 216.563,261.564 216.705,261.627 216.807 C 261.690 216.909,261.611 216.992,261.451 216.992 C 261.291 216.992,261.132 217.190,261.098 217.432 C 261.047 217.787,260.931 217.859,260.487 217.807 C 260.186 217.772,259.729 217.880,259.472 218.049 C 258.889 218.431,258.589 218.320,258.156 217.562 C 257.969 217.235,257.727 217.022,257.619 217.089 C 257.511 217.156,257.422 217.117,257.422 217.004 C 257.422 216.734,256.996 216.741,256.312 217.024 C 256.009 217.148,255.696 217.236,255.615 217.219 C 255.535 217.202,255.479 217.253,255.492 217.334 C 255.574 217.855,255.455 217.983,255.162 217.690 C 254.793 217.321,254.083 217.290,253.726 217.627 C 253.513 217.827,253.484 217.773,253.563 217.327 C 253.634 216.926,253.552 216.708,253.251 216.497 C 253.027 216.340,252.912 216.211,252.997 216.211 C 253.082 216.211,252.948 215.925,252.699 215.576 C 252.450 215.227,252.247 214.877,252.246 214.799 C 252.246 214.429,251.341 214.050,250.735 214.165 C 250.040 214.297,249.382 214.702,249.430 214.968 C 249.522 215.480,249.352 215.758,248.823 215.958 C 248.498 216.080,248.245 216.253,248.260 216.342 C 248.276 216.431,248.267 216.570,248.241 216.650 C 248.163 216.889,248.097 217.174,248.071 217.383 C 248.024 217.763,247.697 217.571,247.577 217.093 C 247.424 216.483,246.634 216.258,245.815 216.591 C 245.485 216.726,244.896 216.824,244.506 216.810 C 244.019 216.792,243.759 216.882,243.677 217.096 C 243.611 217.267,243.469 217.353,243.361 217.286 C 243.253 217.219,243.164 217.258,243.164 217.371 C 243.164 217.691,242.726 217.609,242.188 217.188 C 241.594 216.724,241.051 216.696,240.473 217.101 C 240.234 217.269,239.955 217.354,239.853 217.291 C 239.751 217.228,239.573 217.355,239.456 217.573 C 239.339 217.791,239.297 217.969,239.363 217.969 C 239.428 217.969,239.361 218.089,239.214 218.236 C 238.934 218.516,238.093 218.855,237.842 218.789 C 237.761 218.767,237.695 218.830,237.695 218.928 C 237.695 219.026,237.542 219.077,237.354 219.041 C 237.166 219.005,236.941 218.968,236.854 218.960 C 236.767 218.952,236.746 218.863,236.808 218.763 C 236.870 218.663,236.837 218.530,236.734 218.466 C 236.631 218.403,236.582 218.169,236.625 217.947 C 236.681 217.655,236.624 217.573,236.418 217.652 C 236.261 217.712,236.133 217.664,236.133 217.545 C 236.133 217.198,234.421 217.520,233.954 217.955 C 233.716 218.177,233.593 218.465,233.660 218.641 C 233.733 218.831,233.669 218.945,233.490 218.945 C 233.332 218.945,233.203 219.028,233.203 219.129 C 233.203 219.404,232.133 219.268,232.104 218.990 C 232.091 218.858,232.069 218.618,232.056 218.457 C 232.042 218.296,231.965 218.178,231.885 218.195 C 231.804 218.212,231.573 218.154,231.371 218.067 C 231.152 217.972,230.858 217.998,230.644 218.131 C 230.237 218.385,229.883 217.948,229.883 217.192 C 229.883 216.966,229.793 216.674,229.684 216.544 C 228.506 215.149,228.423 215.013,228.497 214.585 C 228.513 214.497,228.435 214.480,228.325 214.548 C 228.215 214.616,228.125 214.540,228.125 214.378 C 228.125 214.190,227.985 214.112,227.734 214.160 C 227.520 214.202,227.344 214.143,227.344 214.030 C 227.344 213.918,227.225 213.871,227.080 213.927 C 226.722 214.064,226.140 213.350,226.182 212.826 C 226.242 212.066,226.177 211.896,225.850 211.954 C 225.673 211.986,225.486 211.890,225.434 211.740 C 225.370 211.555,225.425 211.518,225.609 211.623 C 225.796 211.729,225.819 211.712,225.684 211.566 C 225.576 211.451,225.357 211.328,225.196 211.293 C 224.776 211.203,224.427 210.714,224.420 210.205 C 224.417 209.963,224.326 209.766,224.219 209.766 C 224.111 209.766,224.023 209.641,224.023 209.488 C 224.023 209.336,223.776 209.156,223.474 209.090 C 222.903 208.965,222.461 208.161,222.461 207.250 C 222.461 207.010,222.379 206.863,222.280 206.925 C 222.180 206.987,222.068 206.838,222.031 206.595 C 221.994 206.351,221.860 206.173,221.735 206.198 C 221.609 206.222,221.319 205.981,221.091 205.660 C 220.863 205.340,220.738 205.078,220.814 205.078 C 220.889 205.078,220.728 204.902,220.455 204.688 C 219.949 204.290,218.623 204.129,218.848 204.492 C 218.914 204.600,218.809 204.690,218.615 204.694 C 217.784 204.708,217.005 206.123,217.724 206.311 C 217.938 206.366,217.866 206.409,217.535 206.423 C 217.124 206.440,217.028 206.522,217.111 206.787 C 217.202 207.081,217.189 207.086,217.018 206.824 C 216.908 206.656,216.798 206.112,216.772 205.614 C 216.746 205.116,216.653 204.753,216.566 204.807 C 216.478 204.862,216.406 204.808,216.406 204.688 C 216.406 204.567,216.323 204.521,216.221 204.584 C 216.119 204.646,216.070 204.522,216.111 204.306 C 216.153 204.091,216.103 203.863,216.001 203.799 C 215.824 203.690,214.950 202.104,215.010 202.002 C 215.130 201.799,214.988 201.563,214.746 201.563 C 214.585 201.563,214.453 201.463,214.453 201.342 C 214.453 200.987,212.665 201.268,212.372 201.669 C 212.234 201.857,212.162 202.076,212.211 202.155 C 212.260 202.235,212.153 202.419,211.972 202.566 C 211.690 202.795,211.668 202.791,211.816 202.539 C 211.960 202.296,211.938 202.287,211.689 202.489 C 211.525 202.622,211.318 202.666,211.230 202.586 C 211.142 202.507,211.129 202.617,211.200 202.832 C 211.312 203.171,211.278 203.162,210.938 202.762 C 210.723 202.508,210.547 202.097,210.547 201.848 C 210.547 201.222,209.646 200.551,208.896 200.618 C 208.510 200.652,208.318 200.588,208.350 200.433 C 208.376 200.302,208.333 200.206,208.252 200.218 C 207.863 200.280,207.606 200.176,207.715 200.000 C 207.784 199.888,207.612 199.805,207.315 199.805 C 206.936 199.805,206.824 199.726,206.905 199.517 C 206.966 199.358,206.867 199.146,206.683 199.043 C 206.500 198.941,206.413 198.795,206.489 198.719 C 206.566 198.643,206.452 198.357,206.238 198.085 C 205.988 197.767,205.916 197.522,206.037 197.401 C 206.506 196.932,205.014 196.216,204.114 196.478 C 203.746 196.585,203.433 196.653,203.421 196.628 C 203.408 196.603,203.245 196.338,203.058 196.040 C 202.872 195.742,202.745 195.353,202.776 195.174 C 202.862 194.675,201.866 194.175,201.384 194.476 C 201.086 194.661,200.984 194.661,200.908 194.475 C 200.841 194.309,200.808 194.305,200.797 194.464 C 200.788 194.592,200.611 194.646,200.391 194.588 C 200.119 194.517,200.000 194.582,200.000 194.801 C 200.000 194.975,199.912 195.128,199.805 195.142 C 198.633 195.288,198.261 195.026,198.245 194.043 C 198.234 193.332,198.050 193.017,197.438 192.666 C 196.579 192.172,196.486 192.145,196.143 192.295 C 195.955 192.377,195.701 192.429,195.579 192.410 C 195.065 192.331,194.336 192.777,194.336 193.171 C 194.336 193.429,194.253 193.527,194.110 193.438 C 193.955 193.342,193.918 193.431,193.994 193.720 C 194.055 193.952,194.025 194.092,193.927 194.032 C 193.830 193.972,193.750 194.015,193.750 194.129 C 193.750 194.243,193.640 194.314,193.506 194.287 C 193.372 194.260,193.278 194.332,193.299 194.447 C 193.359 194.785,192.170 194.519,192.039 194.165 C 191.752 193.388,189.844 192.722,189.844 193.399 C 189.844 193.485,189.712 193.555,189.551 193.555 C 189.390 193.555,189.258 193.667,189.258 193.805 C 189.258 193.942,189.087 194.178,188.878 194.328 C 188.669 194.479,188.537 194.666,188.585 194.744 C 188.633 194.822,188.492 194.838,188.272 194.781 C 188.035 194.719,187.897 194.547,187.935 194.360 C 188.017 193.945,187.329 193.262,186.661 193.094 C 186.332 193.011,186.133 192.829,186.133 192.610 C 186.133 191.303,183.554 191.138,182.899 192.404 C 182.508 193.161,181.886 192.860,181.714 191.829 C 181.628 191.316,180.983 191.014,180.225 191.131 C 179.693 191.214,179.484 191.173,179.462 190.984 C 179.398 190.416,179.368 190.317,179.134 189.893 C 179.001 189.651,178.959 189.453,179.040 189.453 C 179.122 189.453,178.997 189.319,178.763 189.155 C 178.490 188.964,178.381 188.741,178.459 188.537 C 178.541 188.323,178.506 188.264,178.354 188.358 C 178.228 188.436,178.125 188.412,178.125 188.306 C 178.125 187.974,177.344 187.843,177.004 188.119 C 176.774 188.305,176.724 188.310,176.830 188.135 C 177.000 187.852,177.017 187.851,176.314 188.162 M332.321 217.158 C 332.174 217.305,331.836 216.952,331.836 216.650 C 331.836 216.384,331.881 216.394,332.113 216.710 C 332.265 216.919,332.359 217.120,332.321 217.158 " stroke="none" fill="#f4b42c" fill-rule="evenodd"></path><path id="path1" d="M179.130 189.884 C 179.265 190.130,179.389 190.420,179.405 190.527 C 179.420 190.635,179.446 190.833,179.462 190.967 C 179.479 191.101,179.690 191.201,179.932 191.188 C 180.262 191.171,180.287 191.144,180.029 191.076 C 179.811 191.019,179.688 190.798,179.688 190.462 C 179.688 190.144,179.529 189.839,179.285 189.686 C 178.905 189.449,178.896 189.460,179.130 189.884 M183.004 191.899 C 182.868 192.063,182.813 192.253,182.882 192.322 C 182.951 192.391,183.008 192.343,183.008 192.214 C 183.008 192.085,183.206 191.900,183.447 191.803 C 183.745 191.683,183.784 191.622,183.569 191.614 C 183.394 191.607,183.140 191.736,183.004 191.899 M167.139 192.322 C 166.951 192.371,166.797 192.485,166.797 192.575 C 166.797 192.803,167.338 192.701,167.619 192.420 C 167.855 192.184,167.751 192.162,167.139 192.322 M197.070 192.484 C 197.070 192.520,197.343 192.685,197.676 192.852 C 198.134 193.080,198.227 193.089,198.060 192.887 C 197.861 192.647,197.070 192.325,197.070 192.484 M187.593 193.676 C 187.767 193.850,187.968 193.933,188.041 193.860 C 188.113 193.788,188.043 193.647,187.885 193.547 C 187.424 193.255,187.249 193.332,187.593 193.676 M191.602 193.531 C 191.602 193.651,191.683 193.750,191.783 193.750 C 191.882 193.750,192.004 193.904,192.053 194.092 C 192.128 194.380,192.146 194.384,192.165 194.116 C 192.177 193.941,192.056 193.688,191.895 193.555 C 191.692 193.387,191.602 193.379,191.602 193.531 M193.483 193.946 C 193.282 194.149,192.931 194.344,192.702 194.380 C 192.339 194.437,192.354 194.460,192.813 194.557 C 193.144 194.627,193.325 194.588,193.301 194.453 C 193.279 194.335,193.372 194.260,193.506 194.287 C 193.640 194.314,193.750 194.243,193.750 194.129 C 193.750 194.015,193.837 193.976,193.943 194.042 C 194.054 194.110,194.087 194.032,194.020 193.858 C 193.956 193.691,193.891 193.560,193.876 193.566 C 193.860 193.573,193.683 193.744,193.483 193.946 M165.988 193.966 C 165.808 194.081,165.926 194.136,166.357 194.138 C 166.707 194.139,166.992 194.107,166.992 194.066 C 166.992 193.888,166.231 193.813,165.988 193.966 M202.743 195.271 C 202.738 195.409,202.884 195.760,203.066 196.052 C 203.248 196.343,203.406 196.601,203.418 196.624 C 203.429 196.648,203.697 196.582,204.014 196.479 L 204.590 196.291 204.044 196.362 C 203.585 196.422,203.440 196.322,203.125 195.726 C 202.920 195.338,202.748 195.132,202.743 195.271 M373.116 196.874 C 372.885 196.967,372.626 197.159,372.541 197.301 C 372.415 197.510,372.446 197.510,372.708 197.298 C 372.885 197.154,373.100 197.079,373.185 197.131 C 373.270 197.182,373.453 197.102,373.592 196.952 C 373.874 196.647,373.735 196.624,373.116 196.874 M205.970 197.441 C 205.910 197.537,206.034 197.822,206.245 198.075 C 206.455 198.328,206.631 198.432,206.634 198.305 C 206.638 198.178,206.513 197.947,206.357 197.791 C 206.201 197.635,206.128 197.453,206.194 197.387 C 206.261 197.320,206.262 197.266,206.196 197.266 C 206.131 197.266,206.029 197.344,205.970 197.441 M376.582 198.172 C 376.571 198.534,376.727 198.973,376.964 199.246 L 377.366 199.707 377.126 199.219 C 376.993 198.950,376.822 198.467,376.744 198.145 L 376.602 197.559 376.582 198.172 M206.445 198.806 C 206.445 198.902,206.576 199.032,206.735 199.093 C 206.910 199.160,206.980 199.342,206.912 199.553 C 206.817 199.846,206.833 199.855,207.010 199.609 C 207.297 199.210,207.284 199.153,206.836 198.873 C 206.621 198.739,206.445 198.709,206.445 198.806 M377.485 200.054 C 377.415 200.236,377.472 200.447,377.613 200.532 C 377.753 200.615,377.973 200.859,378.103 201.074 C 378.320 201.434,378.328 201.426,378.206 200.977 C 378.132 200.708,378.009 200.444,377.933 200.391 C 377.856 200.337,377.752 200.166,377.702 200.010 C 377.628 199.779,377.587 199.787,377.485 200.054 M369.643 200.307 C 369.365 200.584,369.214 201.172,369.419 201.172 C 369.465 201.172,369.634 200.908,369.795 200.586 C 370.124 199.926,370.089 199.861,369.643 200.307 M368.613 201.309 C 368.376 201.354,368.124 201.584,368.053 201.819 C 367.981 202.054,367.792 202.395,367.633 202.577 C 367.473 202.758,367.379 203.014,367.422 203.146 C 367.504 203.391,368.359 202.094,368.359 201.724 C 368.359 201.610,368.521 201.559,368.717 201.611 C 368.935 201.668,369.076 201.600,369.076 201.438 C 369.076 201.292,369.068 201.184,369.059 201.198 C 369.050 201.213,368.849 201.263,368.613 201.309 M158.267 201.941 C 158.073 202.457,158.084 202.495,158.378 202.311 C 158.558 202.199,158.705 201.940,158.705 201.737 C 158.705 201.196,158.515 201.285,158.267 201.941 M210.550 202.078 C 210.548 202.200,210.728 202.508,210.949 202.762 C 211.264 203.124,211.307 203.139,211.150 202.832 C 210.811 202.169,210.553 201.845,210.550 202.078 M294.775 202.192 C 294.317 202.413,294.169 202.930,294.564 202.930 C 294.689 202.930,294.730 202.868,294.654 202.792 C 294.578 202.716,294.805 202.500,295.159 202.312 C 295.847 201.945,295.508 201.838,294.775 202.192 M296.968 202.269 C 297.142 202.443,297.343 202.526,297.416 202.454 C 297.488 202.382,297.418 202.241,297.260 202.141 C 296.799 201.849,296.624 201.926,296.968 202.269 M157.422 202.746 C 157.422 202.967,157.510 203.094,157.617 203.027 C 157.725 202.961,157.813 202.780,157.813 202.625 C 157.813 202.470,157.725 202.344,157.617 202.344 C 157.510 202.344,157.422 202.525,157.422 202.746 M215.243 202.441 C 215.231 202.770,216.028 203.959,216.167 203.820 C 216.239 203.748,216.203 203.629,216.087 203.554 C 215.972 203.479,215.736 203.154,215.564 202.832 C 215.391 202.510,215.247 202.334,215.243 202.441 M297.656 203.064 C 297.656 203.322,298.645 204.189,299.126 204.353 C 299.406 204.448,299.379 204.392,299.024 204.146 C 298.755 203.961,298.338 203.598,298.096 203.341 C 297.854 203.083,297.656 202.959,297.656 203.064 M381.629 203.132 C 381.223 203.383,381.520 203.548,382.034 203.357 C 382.378 203.230,382.415 203.164,382.191 203.078 C 382.030 203.016,381.777 203.041,381.629 203.132 M367.327 203.910 C 367.408 204.221,367.488 204.257,367.700 204.082 C 368.079 203.767,368.034 203.516,367.596 203.516 C 367.319 203.516,367.250 203.616,367.327 203.910 M216.081 204.411 C 216.081 204.563,216.125 204.643,216.180 204.588 C 216.235 204.534,216.439 204.731,216.634 205.028 C 216.959 205.521,216.990 205.531,216.991 205.149 C 216.992 204.920,216.787 204.598,216.536 204.434 C 216.154 204.183,216.081 204.180,216.081 204.411 M220.313 204.590 C 220.446 204.751,220.644 204.883,220.751 204.883 C 220.860 204.883,220.839 204.753,220.703 204.590 C 220.569 204.429,220.372 204.297,220.265 204.297 C 220.156 204.297,220.177 204.426,220.313 204.590 M292.725 204.640 C 292.196 204.968,292.021 205.273,292.362 205.273 C 292.458 205.273,292.587 205.142,292.649 204.980 C 292.711 204.819,292.896 204.688,293.060 204.688 C 293.225 204.688,293.359 204.600,293.359 204.492 C 293.359 204.245,293.365 204.243,292.725 204.640 M383.785 204.426 C 383.896 204.481,383.944 204.594,383.893 204.678 C 383.841 204.762,383.976 204.991,384.193 205.188 C 384.542 205.503,384.572 205.506,384.460 205.214 C 384.390 205.032,384.255 204.883,384.159 204.883 C 384.063 204.883,384.006 204.784,384.033 204.663 C 384.060 204.542,383.970 204.417,383.833 204.385 C 383.696 204.353,383.675 204.371,383.785 204.426 M152.902 204.894 L 152.441 205.297 153.027 204.954 C 153.799 204.502,153.810 204.492,153.570 204.492 C 153.456 204.492,153.156 204.673,152.902 204.894 M299.805 205.469 C 299.920 205.684,300.099 205.859,300.202 205.859 C 300.306 205.859,300.391 206.074,300.391 206.336 C 300.391 206.598,300.477 206.866,300.583 206.932 C 300.918 207.139,300.550 205.823,300.165 205.438 C 299.694 204.968,299.543 204.980,299.805 205.469 M393.359 205.636 C 393.359 205.837,393.951 206.114,394.088 205.977 C 394.135 205.930,393.991 205.793,393.767 205.673 C 393.543 205.553,393.359 205.537,393.359 205.636 M276.568 205.852 C 276.103 206.146,276.420 206.208,276.953 205.927 C 277.222 205.785,277.310 205.670,277.148 205.670 C 276.987 205.670,276.726 205.752,276.568 205.852 M216.800 206.299 C 216.802 206.433,216.878 206.662,216.971 206.808 C 217.089 206.995,217.139 206.923,217.139 206.564 C 217.139 206.284,217.062 206.055,216.968 206.055 C 216.874 206.055,216.798 206.165,216.800 206.299 M385.742 206.190 C 385.903 206.248,386.145 206.433,386.279 206.603 C 386.501 206.883,386.523 206.883,386.523 206.601 C 386.523 206.295,386.118 206.040,385.677 206.070 C 385.552 206.079,385.581 206.133,385.742 206.190 M289.366 206.853 C 289.427 206.951,289.596 207.031,289.741 207.031 C 289.887 207.031,290.051 207.141,290.105 207.275 C 290.176 207.451,290.208 207.455,290.219 207.287 C 290.235 207.039,289.904 206.773,289.501 206.712 C 289.366 206.692,289.306 206.755,289.366 206.853 M291.026 206.836 C 291.021 207.185,291.346 207.743,291.477 207.611 C 291.528 207.560,291.448 207.299,291.300 207.031 C 291.143 206.748,291.028 206.666,291.026 206.836 M301.774 206.885 C 301.819 206.912,302.083 207.133,302.360 207.377 C 302.734 207.705,302.865 207.745,302.865 207.532 C 302.865 207.373,302.791 207.289,302.700 207.345 C 302.610 207.401,302.484 207.309,302.419 207.141 C 302.355 206.973,302.165 206.836,301.997 206.836 C 301.830 206.836,301.729 206.858,301.774 206.885 M389.759 207.052 C 389.850 207.199,389.743 207.227,389.429 207.141 C 389.035 207.032,389.017 207.045,389.308 207.228 C 389.663 207.450,390.039 207.343,390.039 207.020 C 390.039 206.919,389.946 206.836,389.832 206.836 C 389.718 206.836,389.686 206.933,389.759 207.052 M287.434 207.387 C 286.965 207.905,287.034 208.083,287.516 207.601 C 287.740 207.377,287.886 207.157,287.841 207.111 C 287.795 207.066,287.612 207.190,287.434 207.387 M394.645 208.177 C 394.588 208.270,394.714 208.503,394.926 208.696 C 395.139 208.888,395.313 208.953,395.313 208.840 C 395.313 208.728,395.175 208.583,395.007 208.518 C 394.839 208.454,394.757 208.313,394.823 208.205 C 394.890 208.096,394.901 208.008,394.847 208.008 C 394.794 208.008,394.703 208.084,394.645 208.177 M357.861 208.405 C 357.620 208.502,357.422 208.716,357.422 208.880 C 357.422 209.045,357.343 209.180,357.247 209.180 C 357.152 209.180,357.016 209.329,356.946 209.511 C 356.827 209.821,356.842 209.821,357.185 209.510 C 357.387 209.328,357.615 209.242,357.692 209.320 C 357.770 209.397,357.776 209.311,357.705 209.128 C 357.613 208.886,357.717 208.741,358.086 208.601 C 358.365 208.495,358.594 208.362,358.594 208.306 C 358.594 208.166,358.384 208.195,357.861 208.405 M347.803 208.805 C 347.415 209.031,347.346 209.375,347.689 209.375 C 347.814 209.375,347.854 209.312,347.777 209.235 C 347.700 209.158,347.971 208.992,348.379 208.865 C 348.978 208.679,349.027 208.632,348.633 208.620 C 348.364 208.612,347.991 208.695,347.803 208.805 M144.922 209.766 C 144.922 209.873,144.790 209.961,144.629 209.961 C 144.468 209.961,144.337 210.115,144.339 210.303 C 144.341 210.573,144.378 210.588,144.512 210.375 C 144.606 210.227,144.781 210.167,144.900 210.240 C 145.033 210.322,145.117 210.218,145.117 209.972 C 145.117 209.751,145.073 209.570,145.020 209.570 C 144.966 209.570,144.922 209.658,144.922 209.766 M304.688 209.784 C 304.688 209.881,304.868 209.961,305.090 209.961 C 305.311 209.961,305.443 210.039,305.384 210.135 C 305.325 210.231,305.504 210.458,305.781 210.639 L 306.286 210.970 305.853 210.384 C 305.430 209.813,304.688 209.430,304.688 209.784 M394.922 209.828 C 394.922 209.986,395.054 210.165,395.215 210.227 C 395.376 210.289,395.508 210.292,395.508 210.234 C 395.508 210.176,395.376 209.997,395.215 209.835 C 394.961 209.581,394.922 209.580,394.922 209.828 M27.360 210.032 C 27.754 210.377,28.395 210.583,28.150 210.286 C 28.002 210.107,27.746 209.961,27.580 209.961 C 27.414 209.961,27.315 209.993,27.360 210.032 M342.494 210.268 C 342.326 210.437,342.188 210.706,342.188 210.865 C 342.188 211.035,342.094 211.098,341.962 211.017 C 341.822 210.930,341.790 210.963,341.876 211.103 C 342.063 211.406,342.603 211.391,342.564 211.084 C 342.497 210.574,342.587 210.352,342.860 210.352 C 343.014 210.352,343.195 210.264,343.262 210.156 C 343.456 209.841,342.830 209.932,342.494 210.268 M345.017 210.373 C 345.231 210.630,345.429 210.876,345.457 210.921 C 345.485 210.966,345.508 210.877,345.508 210.724 C 345.508 210.571,345.310 210.324,345.068 210.176 L 344.629 209.906 345.017 210.373 M143.410 210.641 C 143.277 210.793,143.221 211.053,143.285 211.220 C 143.349 211.387,143.304 211.523,143.185 211.523 C 143.066 211.523,142.969 211.622,142.969 211.743 C 142.969 211.894,143.059 211.887,143.262 211.719 C 143.423 211.585,143.555 211.328,143.555 211.148 C 143.555 210.968,143.660 210.715,143.789 210.586 C 143.918 210.457,143.940 210.355,143.838 210.359 C 143.736 210.363,143.543 210.490,143.410 210.641 M345.601 211.087 C 345.471 211.181,345.512 211.448,345.721 211.860 C 345.896 212.206,346.092 212.436,346.157 212.371 C 346.222 212.306,346.153 212.079,346.004 211.866 C 345.855 211.653,345.779 211.357,345.836 211.208 C 345.953 210.905,345.895 210.876,345.601 211.087 M270.537 211.641 C 270.392 211.805,270.312 211.978,270.359 212.026 C 270.406 212.073,270.605 211.935,270.800 211.720 C 270.995 211.504,271.075 211.331,270.978 211.336 C 270.880 211.340,270.682 211.477,270.537 211.641 M310.200 211.632 C 309.961 211.799,309.768 212.041,309.772 212.169 C 309.775 212.299,309.894 212.250,310.038 212.061 C 310.180 211.873,310.397 211.719,310.520 211.719 C 310.642 211.719,310.742 211.631,310.742 211.523 C 310.742 211.268,310.711 211.274,310.200 211.632 M312.109 211.719 C 312.324 211.934,312.545 212.109,312.599 212.109 C 312.654 212.109,312.589 211.934,312.455 211.719 C 312.321 211.504,312.100 211.328,311.965 211.328 C 311.815 211.328,311.872 211.481,312.109 211.719 M396.134 211.710 C 396.403 212.141,396.593 212.088,396.417 211.630 C 396.353 211.464,396.210 211.328,396.098 211.328 C 395.970 211.328,395.983 211.468,396.134 211.710 M334.827 212.697 C 334.593 212.791,334.302 213.071,334.182 213.319 C 333.969 213.757,333.972 213.758,334.274 213.379 C 334.446 213.164,334.868 212.885,335.213 212.759 C 335.558 212.633,335.708 212.529,335.547 212.527 C 335.386 212.526,335.062 212.602,334.827 212.697 M7.275 213.694 C 6.911 213.928,6.641 214.265,6.641 214.486 C 6.641 214.967,6.332 215.275,5.518 215.608 C 5.168 215.751,4.883 215.940,4.883 216.028 C 4.883 216.116,5.125 216.062,5.420 215.908 C 5.715 215.753,6.067 215.627,6.201 215.626 C 6.335 215.626,6.445 215.537,6.445 215.430 C 6.445 215.322,6.575 215.234,6.733 215.234 C 6.946 215.234,6.992 215.088,6.909 214.673 C 6.812 214.187,6.877 214.077,7.402 213.844 C 7.735 213.697,8.008 213.510,8.008 213.429 C 8.008 213.228,7.997 213.232,7.275 213.694 M317.461 213.737 C 317.064 214.078,317.012 214.193,317.255 214.193 C 317.432 214.193,317.538 214.153,317.489 214.103 C 317.440 214.054,317.593 213.852,317.831 213.654 C 318.068 213.456,318.201 213.291,318.126 213.288 C 318.052 213.284,317.752 213.486,317.461 213.737 M320.332 213.721 L 320.062 214.160 320.529 213.772 C 320.786 213.558,321.033 213.360,321.077 213.332 C 321.122 213.304,321.034 213.281,320.880 213.281 C 320.727 213.281,320.480 213.479,320.332 213.721 M327.734 213.942 C 328.110 214.305,328.455 214.568,328.501 214.526 C 328.592 214.443,327.341 213.281,327.162 213.282 C 327.101 213.283,327.358 213.580,327.734 213.942 M267.578 213.867 C 267.739 213.971,268.003 214.057,268.164 214.057 C 268.424 214.057,268.424 214.035,268.164 213.867 C 268.003 213.763,267.739 213.678,267.578 213.678 C 267.318 213.678,267.318 213.699,267.578 213.867 M333.424 214.129 C 333.125 214.490,333.381 214.694,333.715 214.360 C 333.863 214.212,333.984 214.040,333.984 213.979 C 333.984 213.773,333.644 213.864,333.424 214.129 M17.890 214.732 C 17.659 215.283,17.533 215.381,17.173 215.287 C 16.884 215.211,16.781 215.245,16.868 215.387 C 17.196 215.918,18.251 215.256,18.277 214.502 C 18.298 213.900,18.217 213.949,17.890 214.732 M251.855 214.370 C 252.070 214.532,252.246 214.727,252.246 214.803 C 252.247 214.879,252.442 215.215,252.680 215.549 C 252.918 215.884,253.076 216.195,253.030 216.240 C 252.985 216.286,253.119 216.431,253.329 216.562 C 253.640 216.756,253.711 216.749,253.711 216.526 C 253.711 216.376,253.579 216.202,253.418 216.140 C 253.257 216.078,253.125 215.893,253.125 215.729 C 253.125 215.564,253.043 215.430,252.943 215.430 C 252.843 215.430,252.698 215.232,252.621 214.991 C 252.476 214.533,251.995 214.075,251.660 214.075 C 251.553 214.075,251.641 214.208,251.855 214.370 M31.398 214.388 C 31.533 214.442,31.605 214.549,31.558 214.625 C 31.511 214.701,31.652 214.776,31.873 214.793 C 32.259 214.822,32.260 214.813,31.908 214.547 C 31.707 214.395,31.455 214.274,31.348 214.279 C 31.240 214.285,31.263 214.333,31.398 214.388 M13.477 214.724 C 13.477 214.765,13.696 214.943,13.965 215.119 C 14.519 215.482,14.600 215.409,14.146 214.955 C 13.866 214.675,13.477 214.540,13.477 214.724 M139.767 214.957 C 139.601 215.390,139.619 215.625,139.819 215.625 C 139.913 215.625,139.990 215.405,139.990 215.137 C 139.990 214.571,139.933 214.525,139.767 214.957 M138.574 215.716 C 138.098 215.934,138.063 215.987,138.390 216.000 C 138.612 216.008,138.963 215.887,139.172 215.729 C 139.647 215.369,139.345 215.363,138.574 215.716 M15.039 215.811 C 15.039 215.965,14.889 216.022,14.648 215.959 C 14.433 215.903,14.307 215.936,14.367 216.034 C 14.427 216.131,14.598 216.211,14.746 216.211 C 15.055 216.211,15.331 215.852,15.156 215.677 C 15.092 215.613,15.039 215.673,15.039 215.811 M264.460 216.455 C 264.450 217.206,264.433 217.256,264.082 217.523 C 263.799 217.739,263.802 217.762,264.111 217.767 C 264.299 217.771,264.453 217.692,264.453 217.592 C 264.453 217.492,264.575 217.289,264.724 217.140 C 264.952 216.912,264.953 216.795,264.731 216.394 L 264.467 215.918 264.460 216.455 M32.813 216.457 C 32.813 216.621,32.944 216.806,33.105 216.868 C 33.267 216.929,33.410 217.224,33.425 217.523 C 33.448 217.985,33.464 218.000,33.536 217.626 C 33.586 217.369,33.453 216.973,33.217 216.672 C 32.948 216.331,32.813 216.258,32.813 216.457 M247.781 216.932 C 247.595 217.119,247.630 217.578,247.831 217.578 C 248.070 217.578,248.263 217.028,248.066 216.906 C 247.978 216.852,247.850 216.864,247.781 216.932 M257.422 217.004 C 257.422 217.117,257.511 217.156,257.619 217.089 C 257.727 217.022,257.969 217.235,258.156 217.562 C 258.547 218.248,258.957 218.467,259.261 218.154 C 259.415 217.996,259.369 217.954,259.093 218.001 C 258.848 218.043,258.629 217.901,258.476 217.601 C 258.135 216.931,257.422 216.527,257.422 217.004 M242.285 217.253 C 242.709 217.592,243.164 217.676,243.164 217.415 C 243.164 217.326,243.054 217.248,242.920 217.243 C 242.786 217.238,242.500 217.168,242.285 217.087 L 241.895 216.940 242.285 217.253 M255.674 217.274 C 255.544 217.429,255.297 217.500,255.119 217.432 C 254.835 217.323,254.831 217.344,255.085 217.619 C 255.242 217.790,255.372 217.916,255.373 217.900 C 255.374 217.884,255.542 217.673,255.745 217.432 C 255.949 217.190,256.068 216.992,256.011 216.992 C 255.954 216.992,255.802 217.119,255.674 217.274 M134.717 217.517 C 134.529 217.567,134.375 217.680,134.375 217.769 C 134.375 217.859,134.551 217.886,134.766 217.830 C 134.980 217.774,135.156 217.650,135.156 217.555 C 135.156 217.460,135.134 217.393,135.107 217.405 C 135.081 217.418,134.905 217.468,134.717 217.517 M33.468 218.544 C 33.503 218.807,33.634 219.056,33.758 219.098 C 34.071 219.202,34.041 218.899,33.694 218.446 C 33.414 218.080,33.406 218.084,33.468 218.544 M236.672 218.377 C 236.803 218.548,236.864 218.735,236.806 218.793 C 236.749 218.850,236.838 218.949,237.003 219.013 C 237.445 219.182,237.371 218.867,236.869 218.438 C 236.601 218.211,236.525 218.187,236.672 218.377 M33.991 219.550 C 33.968 219.967,34.969 220.772,35.200 220.523 C 35.391 220.318,35.392 220.288,35.205 220.393 C 35.061 220.474,34.765 220.307,34.479 219.982 C 34.214 219.680,33.994 219.486,33.991 219.550 M37.500 220.410 C 37.634 220.571,37.881 220.703,38.050 220.703 C 38.295 220.703,38.280 220.646,37.977 220.416 C 37.481 220.041,37.191 220.037,37.500 220.410 M41.587 222.705 C 41.438 223.192,41.508 223.419,41.835 223.504 C 42.195 223.598,42.200 223.580,41.912 223.262 C 41.741 223.072,41.659 222.859,41.731 222.787 C 41.803 222.715,41.803 222.656,41.732 222.656 C 41.660 222.656,41.595 222.678,41.587 222.705 M43.786 223.708 C 43.820 223.727,43.991 223.853,44.167 223.986 C 44.422 224.180,44.505 224.179,44.581 223.980 C 44.641 223.823,44.499 223.720,44.201 223.702 C 43.939 223.686,43.752 223.688,43.786 223.708 M131.445 224.307 C 131.445 224.462,131.292 224.680,131.104 224.789 C 130.893 224.912,130.860 224.990,131.017 224.994 C 131.169 224.998,131.214 225.099,131.126 225.244 C 131.026 225.412,131.082 225.405,131.308 225.222 C 131.489 225.076,131.588 224.878,131.529 224.783 C 131.470 224.687,131.515 224.609,131.629 224.609 C 131.743 224.609,131.836 224.478,131.836 224.316 C 131.836 224.155,131.748 224.023,131.641 224.023 C 131.533 224.023,131.445 224.151,131.445 224.307 M127.450 224.791 C 127.316 225.007,127.624 225.240,127.805 225.060 C 127.990 224.874,127.956 224.609,127.746 224.609 C 127.645 224.609,127.512 224.691,127.450 224.791 M49.460 226.742 C 49.589 226.912,49.719 227.087,49.749 227.132 C 49.780 227.177,49.805 227.038,49.805 226.823 C 49.805 226.608,49.674 226.432,49.515 226.432 C 49.282 226.432,49.271 226.493,49.460 226.742 M119.010 229.788 C 119.010 230.141,119.454 230.172,119.649 229.834 C 119.726 229.700,119.717 229.655,119.629 229.735 C 119.541 229.814,119.366 229.794,119.240 229.689 C 119.082 229.558,119.010 229.588,119.010 229.788 M112.180 230.409 C 112.401 230.630,113.122 230.684,112.989 230.469 C 112.922 230.362,112.682 230.273,112.456 230.273 C 112.230 230.273,112.105 230.334,112.180 230.409 M109.521 230.891 C 109.224 231.000,108.987 231.232,108.990 231.413 C 108.996 231.706,109.016 231.705,109.195 231.396 C 109.305 231.208,109.517 231.055,109.666 231.055 C 109.816 231.055,109.992 230.967,110.059 230.859 C 110.125 230.752,110.152 230.671,110.119 230.679 C 110.086 230.688,109.817 230.783,109.521 230.891 M60.742 231.708 C 60.742 231.888,61.497 232.617,61.684 232.617 C 61.801 232.617,61.677 232.397,61.408 232.129 C 60.956 231.677,60.742 231.542,60.742 231.708 M108.664 232.129 C 108.488 232.588,108.737 233.008,109.185 233.008 C 109.412 233.008,109.539 232.920,109.471 232.809 C 109.403 232.700,109.266 232.661,109.166 232.723 C 108.988 232.833,108.907 232.566,108.970 232.080 C 109.014 231.740,108.801 231.774,108.664 232.129 M61.957 233.038 C 62.054 233.329,62.891 233.647,62.891 233.392 C 62.891 233.288,62.759 233.203,62.598 233.203 C 62.437 233.203,62.305 233.115,62.305 233.008 C 62.305 232.900,62.209 232.813,62.093 232.813 C 61.977 232.813,61.915 232.914,61.957 233.038 M103.218 233.804 C 103.033 234.386,103.187 234.431,103.450 233.872 C 103.574 233.612,103.600 233.398,103.510 233.398 C 103.420 233.398,103.289 233.581,103.218 233.804 M90.332 234.766 C 90.547 234.858,90.635 234.942,90.527 234.953 C 90.420 234.964,90.482 235.060,90.666 235.167 C 90.849 235.274,90.959 235.469,90.910 235.601 C 90.861 235.732,90.996 236.104,91.210 236.426 C 91.488 236.845,91.599 236.915,91.600 236.670 C 91.601 236.482,91.508 236.328,91.395 236.328 C 91.281 236.328,91.242 236.240,91.309 236.133 C 91.375 236.025,91.339 235.938,91.229 235.938 C 91.118 235.938,91.075 235.814,91.133 235.663 C 91.265 235.320,90.641 234.566,90.240 234.584 C 90.034 234.594,90.062 234.650,90.332 234.766 M100.785 235.496 C 100.399 235.648,99.922 236.133,100.160 236.133 C 100.263 236.133,100.555 235.960,100.808 235.749 C 101.285 235.352,101.280 235.301,100.785 235.496 M93.815 236.436 C 93.815 236.592,93.976 236.719,94.173 236.719 C 94.370 236.719,94.531 236.678,94.531 236.628 C 94.531 236.578,94.370 236.451,94.173 236.346 C 93.903 236.201,93.815 236.223,93.815 236.436 M86.417 236.538 C 86.250 236.807,86.418 236.966,86.782 236.882 C 87.024 236.827,87.028 236.777,86.808 236.574 C 86.628 236.409,86.503 236.398,86.417 236.538 M85.829 236.931 C 85.757 237.048,85.796 237.241,85.915 237.361 C 86.075 237.520,86.133 237.464,86.133 237.148 C 86.133 236.677,86.031 236.604,85.829 236.931 M91.909 237.064 C 92.024 237.142,92.175 237.361,92.244 237.549 C 92.314 237.737,92.456 237.891,92.560 237.891 C 92.866 237.891,92.996 237.540,92.746 237.386 C 92.604 237.297,92.570 237.329,92.657 237.470 C 92.734 237.594,92.714 237.695,92.612 237.695 C 92.511 237.695,92.382 237.520,92.326 237.305 C 92.270 237.090,92.106 236.915,91.962 236.917 C 91.790 236.919,91.771 236.970,91.909 237.064 M84.633 238.353 C 84.656 238.784,84.751 238.979,84.909 238.920 C 85.064 238.860,85.091 238.714,84.984 238.506 C 84.893 238.329,84.858 238.074,84.906 237.939 C 84.954 237.805,84.905 237.695,84.796 237.695 C 84.687 237.695,84.614 237.991,84.633 238.353 M64.063 238.074 C 64.063 238.175,64.150 238.313,64.258 238.379 C 64.365 238.445,64.453 238.675,64.453 238.889 C 64.453 239.103,64.673 239.602,64.941 239.997 C 65.210 240.392,65.430 240.604,65.430 240.467 C 65.430 240.330,65.264 240.040,65.062 239.823 C 64.860 239.606,64.639 239.083,64.571 238.660 C 64.466 238.001,64.063 237.537,64.063 238.074 M84.619 241.022 C 84.377 241.119,84.187 241.311,84.195 241.449 C 84.207 241.645,84.232 241.646,84.309 241.455 C 84.363 241.321,84.527 241.211,84.673 241.211 C 84.819 241.211,84.992 241.123,85.059 241.016 C 85.199 240.789,85.198 240.789,84.619 241.022 M80.797 241.357 C 80.497 241.656,80.431 241.662,80.269 241.406 C 80.110 241.154,80.084 241.159,80.081 241.444 C 80.076 241.988,80.384 242.010,80.865 241.498 C 81.378 240.952,81.321 240.833,80.797 241.357 M65.430 241.472 C 65.430 241.626,65.624 241.802,65.861 241.864 C 66.444 242.016,66.451 241.956,65.899 241.544 C 65.525 241.264,65.430 241.250,65.430 241.472 M66.269 242.448 C 66.345 242.645,66.406 242.876,66.406 242.962 C 66.406 243.048,66.582 243.164,66.797 243.221 C 67.314 243.356,67.290 243.249,66.660 242.619 C 66.288 242.247,66.173 242.196,66.269 242.448 M69.733 244.873 C 69.749 245.254,70.267 245.713,70.372 245.440 C 70.430 245.288,70.379 245.066,70.258 244.946 C 70.008 244.695,69.724 244.656,69.733 244.873 " stroke="none" fill="#fcb42c" fill-rule="evenodd"></path></g></svg>