<svg id="Layer_1" data-name="Layer 1" xmlns="http://www.w3.org/2000/svg" viewBox="0 0 2048 1536"><defs><style>.cls-1{fill:#ebb44b;}</style></defs><path class="cls-1" d="M2039.43,1084.73c-1-2.87-2.12-5.51-5.79-4.39-3.89,1.18-5.1-.65-6.48-4-1.65-3.94-4-7.54-4.78-11.89-.75-4-4.11-6.89-4.28-11.37-.14-3.94-4.95-6.08-8.86-4.8a49.15,49.15,0,0,1-5.3,1.23,3.12,3.12,0,0,0-2.58,2.69c-.92,4.4-6.17,7.38-9.67,4.76-3-2.21-4.78-1.51-7.45-.11s-5.35,2.26-6.09-2.44c-.34-2.1-2.56-3.54-4.71-4-3.5-.69-5-3.59-7.17-5.8a2.73,2.73,0,0,1-.46-.88c-3.68-8.8-4.46-9.4-12.58-4.89-3.57,2-3.52.78-4-2-.7-3.94-5.06-7.56-7.62-6.23-3.28,1.7-4.08.42-4.52-2.54a9.72,9.72,0,0,0-1.47-3.65c-3-4.6-6.24-8.93-6.87-14.74-.43-4-6.29-8-8.9-6.39-2,1.22-4,1.39-6,2-5.4,1.68-6.14,2.95-3.87,8.57-3.62-1.72-5.13,2.8-8,2.28-2.67-.5-2.59,1.08-3.72,2.54-2.7,3.48-4,8.3-8.89,9.9-1.64.55-4.6,7.27-3.74,8.7,1.13,1.9.86,2.88-1.19,3.81-2.21,1-2.65.13-3.46-1.79-.65-1.56-1.68-4.21-4.21-3.18s-6.54-.11-6.53,4.46c-1.54.32-2.9-1.28-4.67-.09a136.13,136.13,0,0,1-17.51,10.09c-7.76,3.7-12.59,12.81-17.74,20.37-1.28,1.89-2.39,3.08-4.22,0-1.13-1.87-3.48-5.43-5.46-3.85-3,2.39-11.11-1.48-9.17,7,0,.15-.74.48-1.14.73-3.26,2.07-6.36,3.42-8.74-1.26-.47-.92-1.54-2.18-2.81-1.66-3.28,1.33-3.73-.52-3.84-3a2.07,2.07,0,0,0-.5-1.37c-1.41-1.31-2.76-4-4.7-3-2.58,1.33-7.18-.31-7.62,4.18-.25,2.57-2.17,2.92-3.58,3.54-4.16,1.84-5.6,4.84-4.81,9.12.15.82.65,1.66-.47,2a1.42,1.42,0,0,1-2-.93c-.65-2.56-3-4.2-3.28-7.14-.27-2.55-2.57-5.44-5.44-4.06-2.66,1.28-7.78-.13-7.59,5.49,0,1-2,1.23-2.47.64-3.37-4.54-6.82-.62-10.14-.16-4.38.6-5.54,3.06-2.88,7.15-2,.27-3.71.26-5.32,1.53s-5,2.12-5.84.88c-3.3-4.76-7-1.59-10.47-1.15-4,.49-6.26,2.24-3.87,6.05-2.66,3.21-10.17-1.06-9.3,6.95,0,.22-.36.64-.61.7-4.6,1.07-3.14,3.64-1.64,6.31.61,1.1.89,2.28-.88,2.66-1.42.3-2.26-.24-2.37-1.74a16.67,16.67,0,0,0-.15-2c-.84-4.57-5-6.67-9.45-5.47-2.37.64-6,2.94-7.3-1-1.59-4.94-6.33-7-8.73-11.19a4.28,4.28,0,0,0-6.09-1.48c-2.79,1.59-6.37,1.34-8.86,3.8a2,2,0,0,1-2.76.07c-4.7-5-9.26-.46-13,1-2.65,1-3,1.13-4.79-.76-2.81-3-12-.14-11.34,3.53,1,5.3-2.62,6-5.37,8.38-1.2-2.68-2.14-5.17-3.38-7.51-2-3.83-5.49-9.29-8.62-8.55-6.08,1.43-7.64-2-10.42-5.29-1.69-2-3.74-3.17-6.76-.68-4.11,3.4-4.9,8.27-7,12.54-.52,1-.87,2.27-1.79,2.88s-1.38-.48-1.84-1.17c-6.45-9.73-14.39-18.11-23-26-3-2.76-6.57-5.12-8.64-9.14-1.32-2.54-4.81-4.61-7.87-3s-3.08-.18-3.49-1.93a21,21,0,0,0-7.82-11.6c-3.62-2.77-6.79-5.42-8.77-9.58-1-2-3.35-3.62-5.32-2.55-2.33,1.25-7,1.86-6.35,4.6.92,3.87-2,4.6-3.4,5.45-2.86,1.66-4.15,5.17-7.65,5.95-1,.22-1.59,1.92-1,2.5,2.8,2.75-.69,3-1.56,4.22-1.15,1.58-4.36,1.52-3,5.11.54,1.45-1.85,2.37-3.7,1.41-2.46-1.29-4.83-2.78-7.38-3.86-3.08-1.29-9.56,2.65-9.58,5.44,0,1,3.06,2.17.3,2.85-2.44.61-4.32,4.34-7.52,1.55-.83-.71-2.31-1.57-3.09-1.29-5.27,1.94-7-2.37-9.35-5.21-2.24-2.66-4.22-4.63-7.71-1.68-1,.87-3.72,2.78-4,.41-.66-6-6.61-8.44-8.22-13.75-.74-2.43-4.78-4.72-6.15-3.28-2.44,2.54-10.22,1.25-7,8.42.08.16-.54.74-.93,1-3,2-5.69,3.58-6.28,8-.28,2.1-1.41,3.52.51,5.26.72.66,1.64,1.9.45,2.46-2.71,1.28-3.23,4.49-5.82,5.87-2.42,1.29-4.3,2.7-6.77-.18-3.47-4.06-6.57-.63-9.63,1.08-2.5,1.41-4.67,2.86-2,6.14.86,1-1.07.79-1.32,1.31-1.23,2.58-7.52,1.66-4.8,6.92-3.44,2.63-2.41,4.93.38,7.32.84.72-.15,1.36-.8,1.92-1.47,1.27-2.86,2.64-4.26,4-1.72-2.2-4.33-3.7-5.68-6.59-1-2.12-4-3.42-6-2.15-2.29,1.5-7,2.82-5.92,5.7,1.18,3.28-1.15,4-2.14,5-3.14,3.18-4.09,6.37-1.64,10.18.8,1.24,1,2-.35,2.82-1.08.66-2,1.25-2.69-.52-1-2.36-3.36-3.7-4.56-5.79-1.34-2.32-3.25-5.08-5.39-4.27s-6.57,1.5-5.48,6.21c.32,1.36-1.95,2.17-2.35,1.85-3.37-2.7-5.9.1-8.48,1.24-3,1.35-4.49.4-5.91-2.26-3.74-7-7.64-6.29-12.94-.83a15.55,15.55,0,0,0-1.18,1.56c-2.41-1.72-4.37-4.72-7.51-1.19-1,1.12-3,1-2.88-.89.23-5.71-4.47-9-6.3-13.73-1.19-3.06-3.13-5-7.68-3-4,1.7-4.24,5.48-6.83,7.56-4.16,3.34-6.59,6.95-3.58,12.63a14.77,14.77,0,0,1-6-5.3c-3.45-5.29-4.65-5.52-9.64-1.51-1.14.92-2.06,2.85-3.53,1-1.82-2.29-3.1-1.5-4.89-.08-2.93,2.32-5.9,3.88-9.37.43-2.11-2.09-4.33-1.32-7.39-.43-5.37,1.56-6.83,7-11.63,8.92-6.61,2.67-7,2.94-9.86-3.61-1.09-2.51-3.66-4.6-5.67-3.71-2.74,1.21-7.75,1-7.59,5.2s-2.75,4.14-4.93,5.11c-2.8,1.24-4-.48-5.13-3-1.23-2.86-2.87-6-7-3.22-1.35.89-3.06.38-3.07-1.21-.06-7.24-6.7-10.74-9.18-16.59-1-2.37-4.34-4.7-6-4-3.85,1.54-4.18-1.13-4.35-3-.49-5.19-4.29-8-7.18-11.56-3.5-4.35-5.71-9.71-10.79-12.82-.88-.54-1.26-2.38-1.34-3.66-.26-3.94-3-6.36-5.38-8.9-1.29-1.38-2.6-2.67-3-4.47-.83-3.65-4.7-5.35-6.58-4.84-3.35.91-7,2.6-9.4,5.75a1.86,1.86,0,0,0-.21,1c-.22,4-.22,4-3.92,6.35-.56-7-4.16-12.55-7-18.48-.87-1.85-2.83-3-3-5-.28-3-2.38-6.26-4.44-5.45-2.6,1-8.48-.89-7.56,5.42.13.91-.83.78-1.33,1.11-5.39,3.54-8.31,2.64-9.7-3.52-.8-3.54-4.47-6.75-5.83-5.95-4.7,2.78-6.06-.71-8.21-3-1-1-1.9-1.84-3.43-1.29-.84.3-1.68.43-1.72-.86-.12-3.67-2.83-6.3-3.82-9.57-2.2-7.21-2.62-7.74-9.72-5.92-3,.77-4.67.37-5.52-2.66-.17-.61-.75-1.1-1-1.71-3.37-8.67-5-9.29-12.8-4.69-7.38,4.39-10.58,2.86-11.49-5.46-.59-5.48-5-8.15-10.16-6.27a15,15,0,0,1-3,.37c-6,.87-6.7,2-5.17,7.72a26,26,0,0,1-5.41,1.6c-2.47.49-7.31,4.69-8.2-2.47-.23-1.8-3-4.57-4.32-3.91-2.84,1.44-8.13.6-8.29,4.12-.17,3.84-2.59,4.47-4.44,4.64-2.49.21-3.42-2.27-4.18-4.74s-2.33-5.37-6.12-4.11c-1.54.52-2-.48-2.5-1.66-3.14-8.15-3.11-8-11.34-5.48-3.55,1.09-4.87,2.63-2.58,6-5.23,2.07-7.19-.54-8.62-5.11-.94-3-2.49-6.47-7.14-3.81-1.33.77-4.25,1.5-4.31-1.3-.11-5.32-4.81-8.15-6.16-12.77-.46-1.57-2.71-3.81-4.58-2.81-2.21,1.18-5.54,1.07-6.53,4-2,5.91-4.91,7-9.22,2.67-2.18-2.2-3.77-2.42-5.87-.62-1.12,1-2.44.91-3.68,1.31-3.11,1-6.82,1.64-5.05,6.59.72,2-1.44,1.13-2.15,1.73-2.64,2.18-8.48.85-7.26,7-2.81-1.3-12,.73-13.76,2.87-.87,1.07-1.62,2.53-.56,3.63,2.13,2.22.31,2.14-1.17,2.46-2.17.47-3.18,3.5-5.94,2.69.08,3.78-2.74,6.35-3.92,9.6-.09.22.57.76.93,1.1,2.18,2,1.42,3.19-1.07,4.1-4.41,1.62-8.11,4.12-10.15,8.61-.36.8-.57,2.27-1.83,1.93-8.24-2.21-10.65,6.79-16.75,8.66-.3.09-.46.84-.58,1.31-1.23,5-4.46,7.33-9.45,7.93-3.46.41-7.63.32-9.92,3.44a13.18,13.18,0,0,1-7.46,5.23c-2.52.71-4.72,1.87-4.35,5.1-5.56,1.2-9.95,3.94-12,9.51-1.23,3.26-3.58,4-6.62,3.07-1.35-.39-2.28-1.47-4.11-.68a71.63,71.63,0,0,1-10.17,3.11c-5.16,1.33-5.91,2.72-3.69,7.53a9.75,9.75,0,0,1-1.46.26c-2.84.16-5.06,2.57-8,2.24.44,3.85-2.2,6-4.49,8.42-.15.15-.06.7.1.93,3.36,4.58,1.33,4.54-2.56,3-.32-.13-.9.32-1.32.57-2.45,1.46-4.39,2.66-6.08,5.75s-5.44,7.19-10.23,8.23c-1.14.24-2.84.76-2.61,1.91.67,3.34-1.69,4.16-3.78,5.23-1.09.55-1.07,1.38-1.3,2.38-.68,3-1.77,3.88-3.91.72-1.33-2-4.21-3.73-5.9-2.63-2.65,1.71-7.91,2.57-7.44,5.6.72,4.66-2.49,5.09-4.34,7.41-1.73,2.16-3.33,7.07-2.21,8.38,4.5,5.24-1.12,8.22-2.52,11.16-1.72,3.64-3.66,6.82-3.27,11.47-2.69-2.39-5.16-4.35-6.62-7.42-1.16-2.41-5-4.18-5.76-3.18-2.06,2.57-7.41,2.09-6.73,7.08.09.7,2.4,1.1.38,2-1.09.5-1.58-.4-2.26-1.27-1.55-2-3-5.65-5.77-4.42-3.43,1.53-10.14-.84-9.57,6.68.06.86-1.22,1-2,1.09-4.44.72-7,3.7-8.9,7.43-1.15,2.28-2.39,3.94-5.24,4.42-1.66.28-2.66,2-3.06,4.1-.74,3.85-5.07,4.06-7.69,5.51-1.81,1-1.74-3.07-2.31-5-.89-3-3.45-6.07-5.86-5.81-6.85.74-12.88,4.63-17.27,9.57-5.41,6.06-4.93,6.73-11.52,1.49-1.91-1.53-3.65-1.62-4.67-.13-1.61,2.34-4.18,2.5-6.24,3.68-5.19,3-5.68,4.36-2.41,9.35-4.19,1.7-5.69-.69-6.73-4.16-1-3.3-5.69-6.61-7.83-5.58-2.52,1.21-4.93,2.64-7.38,4-1.94,1.07-2.72,3-1.4,4.55,1.76,2.08.1,1.66-.87,2.76-2,2.23-6.72,1.37-6.51,5.72.18,3.75-4.73,7.77-8.16,6.52-2.81-1-7.69,1.6-7.76,4.57,0,1.58-.21,2.09-1.64,2.09s-3.66,2-4.56,0c-1.76-3.79-6.16-5.29-7.32-9.71-.94-3.61-7.74-6.08-9.51-3.86-1.58,2-3.76,2.59-5.6,3.84-4.4,3-4.7,4.38-.61,8.43-3.61-.27-4.29,3.67-6.73,4.24-3.47.81-3.84,2-2,4.68.53.75.86,1.5-.11,2a1.44,1.44,0,0,1-1.28-.36c-1.75-6.38-9.16-9.07-10.18-16.08-.53-3.67-7.41-7.35-9.53-5.41-2,1.8-4.32,2.32-6.44,3.45-4.88,2.6-5.47,4-3.47,7.06-1.13,5.74-11.39,2.07-8.58,11.3.4,1.32-1.76,1.2-2.53,2-1.25,1.25-3.21,2.75-1,4.45,4.36,3.35,3.78,5.74-1,7.81-.6.27-1.42.63-1.6,1.14-1.38,3.87-3,1.5-4.18.06-4.83-5.82-4.79-5.86-11-1.73-4.93,3.28-4.93,3.29-6.65-2.29a6.56,6.56,0,0,0-9.17-3.87,22.53,22.53,0,0,1-4.1,1.65c-3.87,1.27-4.47,3.52-1.7,7.14-3.26-.72-4.56,1.87-6.63,3-3.42,1.86-2.22,6.68-5.16,9,.53.63,1.08,1.24,1.58,1.89,1.47,1.87,1.42,2.75-.87,4.57-4.62,3.69-9.4,2.22-14.28,2-5.21-.21-10.22-.45-12.7-6.35a19.57,19.57,0,0,0-2.14-3.84c-1.41-1.94-3-4.18-6-1.85-1.06.82-2.92,2.17-4.06.77-3.45-4.28-7.62-8.44-9.48-13.4s-4.27-9.42-6.16-14.16c-2.66-6.67-4.23-13.67-7-20.28a24,24,0,0,0-2.68-4.86c-2.69-3.8-7.47-5.94-8.52-11.08-.71-3.48-4.81-3-7.08-4.85-1.29-1.06-3.06,1.12-4.25,2.61-.53.66-2.07.49-2.64,1.14-1.42,1.62-4.56,1.33-4.85,3.87-.52,4.51-5.44,2.76-7.18,5.39-2.25-1.56-5-2.53-6.09-5.44-.63-1.65-1.08-3.32-3.08-4.26-4-1.86-9.66.13-13.52,5.11-.58-2.18-.77-4.6-1.83-6.55-2.69-5-4.22-10.29-5.7-15.63a20.07,20.07,0,0,0-3-6.38c-2.52-3.68-6.82-6.15-7.53-11.26-.36-2.54-7.77-5.76-8.82-4.27-4.92,7-12.74-.76-18,3.82-.14.12-1.09-.27-1.2-.58-1.82-5.13-7.3-7.82-8.53-13.47-1-4.4-6.31-6.09-10.31-3.75-1.75,1-3.07,1.15-4.8-.55-2.56-2.5-5.4-3.29-8.7-.31-1.92,1.73-4,2.94-6.88-.64a27.72,27.72,0,0,1-5.7-12.85,19.12,19.12,0,0,0-2.87-7.11c-1.53-2.32-2.94-4.65-4.3-7.05-1.21-2.12-3.26-6.65-7.63-2.8-2.39,2.1-3.92.85-4.5-1.92-.78-3.66-.88-7.6-3.46-10.59-2.06-2.4-3.36-5.17-5-7.8-1.48-2.46-4.33-6.47-8.5-2.08-.92,1-2.71,1.16-4.12,1.64s-2.58,2.08-2,3c2.41,3.68-1.18,3.69-2.72,4.6-2.13,1.25-4.35,2.3-6.47,3.63-3.78,2.37-7.88,5.66-12.39.89-1-1-2.62-1.67-3.66-.78-3.43,2.94-9,3.9-9.14,10-.08,3.1-3,5.64-5.39,4.29-5.29-3-8,.85-11.19,3.15-1.52,1.08-3.25,1.66-3.65,0-1.5-6-7.75-8.38-9.86-14-1.42-3.77-5.53-4.32-9-2.25-2.35,1.41-5.29,4.39-7.42,3.06-4.7-2.91-6.8,1.39-10,2.42-1.67.54-2.33,2.59-1.34,3.7,2.15,2.39-.28,1.92-1.2,2.63-2.64,2-7.5,2.09-7.72,6.12-.15,2.82-1.29,2.43-2.84,2.41-6.17-.07-12.43.4-18.49-.46C2.29,1106,.89,1095.41,0,1096v440H2048V1096.1C2043.36,1093.8,2041.07,1089.5,2039.43,1084.73Zm-169-44a.54.54,0,0,1,.23.1c.06,0,0,.19.05.29Z"/></svg>
