<svg id="svg" xmlns="http://www.w3.org/2000/svg" xmlns:xlink="http://www.w3.org/1999/xlink" width="400" height="300" viewBox="0, 0, 400,300" version="1.1"><g id="svgg"><path id="path0" d="M212.109 125.872 C 208.737 128.695,201.829 136.527,196.582 143.477 C 194.678 145.999,191.957 149.324,191.405 149.805 C 189.273 151.658,187.474 154.035,187.000 155.626 C 186.189 158.348,185.938 158.917,184.625 161.008 C 182.032 165.142,181.550 166.506,181.067 171.094 C 180.661 174.943,180.172 175.415,172.635 179.240 C 170.552 180.297,167.085 182.271,164.930 183.626 C 162.775 184.981,160.366 186.441,159.577 186.871 C 158.788 187.301,157.124 188.441,155.878 189.405 C 152.637 191.912,151.678 192.476,148.296 193.862 C 145.172 195.144,143.777 195.853,140.137 198.010 C 135.784 200.589,134.264 201.878,131.110 205.665 C 130.349 206.579,128.993 207.985,128.098 208.790 C 124.990 211.583,121.768 214.623,120.075 216.359 C 119.075 217.385,117.848 218.411,117.101 218.849 C 115.537 219.763,113.750 221.253,113.270 222.042 C 112.713 222.958,112.320 223.077,110.341 222.927 C 108.048 222.754,107.188 222.014,105.831 219.043 C 105.635 218.613,105.088 217.823,104.615 217.287 L 103.755 216.312 103.095 216.799 C 102.413 217.301,101.456 217.987,97.889 220.531 C 95.567 222.186,95.800 222.156,93.903 221.058 C 93.394 220.764,92.301 220.396,91.461 220.237 C 90.625 220.078,89.370 219.682,88.672 219.356 C 87.974 219.031,86.910 218.638,86.309 218.483 C 85.117 218.175,83.442 217.384,82.520 216.693 C 82.197 216.452,81.397 215.986,80.742 215.658 C 79.008 214.792,78.329 214.135,77.679 212.699 C 77.362 211.999,76.938 211.194,76.737 210.910 C 76.536 210.626,76.156 209.592,75.894 208.611 C 75.509 207.172,75.265 206.656,74.632 205.936 C 74.201 205.446,73.744 204.723,73.616 204.329 C 73.489 203.935,73.089 203.051,72.728 202.363 C 72.366 201.676,72.070 201.014,72.070 200.894 C 72.070 200.774,71.814 200.364,71.501 199.985 C 71.188 199.605,70.709 198.746,70.437 198.075 C 69.906 196.768,69.300 196.111,68.619 196.100 C 67.855 196.089,67.049 195.192,66.606 193.862 C 66.025 192.115,64.782 190.120,64.323 190.196 C 61.307 190.692,60.971 190.329,59.853 185.355 C 59.576 184.121,59.273 182.012,59.179 180.667 C 58.923 176.977,58.043 174.496,56.674 173.602 L 55.880 173.084 55.551 173.602 C 55.370 173.888,54.369 174.956,53.328 175.977 C 51.820 177.454,50.975 178.528,49.177 181.250 C 44.238 188.731,40.240 193.489,37.865 194.716 C 35.476 195.950,33.264 197.568,32.891 198.353 C 31.686 200.891,29.417 200.856,27.135 198.263 C 25.802 196.749,26.794 196.287,20.535 201.340 C 19.638 202.064,19.200 202.565,19.114 202.964 C 18.499 205.816,14.990 205.951,9.668 203.327 C 6.011 201.523,2.642 200.958,0.439 201.780 L 0.000 201.943 0.000 250.972 L 0.000 300.000 200.000 300.000 L 400.000 300.000 400.000 250.972 L 400.000 201.943 399.463 201.728 C 396.900 200.698,387.647 201.978,386.328 203.544 C 384.963 205.165,380.747 204.673,378.516 202.632 C 378.032 202.190,377.229 201.595,376.730 201.309 C 375.687 200.711,374.939 199.889,374.400 198.748 C 374.193 198.309,373.812 197.687,373.555 197.365 L 373.087 196.782 371.456 197.430 C 370.558 197.786,369.601 198.162,369.328 198.265 C 369.055 198.367,368.670 198.751,368.473 199.118 C 367.859 200.258,366.612 200.403,365.741 199.436 C 365.012 198.627,362.716 198.934,357.813 200.497 C 355.933 201.096,353.655 201.812,352.752 202.088 C 351.790 202.382,350.762 202.854,350.271 203.230 C 348.474 204.601,345.509 204.587,344.309 203.201 C 342.547 201.167,340.162 197.018,339.307 194.498 C 339.137 193.997,338.815 193.487,338.591 193.365 C 338.028 193.060,337.130 191.755,336.985 191.031 C 336.843 190.318,336.548 190.281,334.343 190.705 C 332.544 191.051,331.757 191.354,327.441 193.361 C 322.733 195.552,314.609 198.289,309.785 199.311 C 305.726 200.170,305.548 200.139,303.356 198.181 C 302.611 197.517,301.623 196.753,301.161 196.484 C 300.254 195.957,299.540 195.289,298.384 193.885 C 297.979 193.393,297.110 192.582,296.454 192.082 L 295.261 191.175 293.578 191.476 C 292.652 191.641,290.977 191.970,289.855 192.205 C 287.934 192.609,287.671 192.620,285.362 192.388 C 282.644 192.115,280.831 192.173,279.465 192.576 C 278.196 192.950,277.109 192.508,275.417 190.928 C 273.473 189.114,273.370 189.063,271.657 189.063 C 270.353 189.063,269.970 188.974,268.721 188.386 C 267.553 187.836,266.839 187.656,264.887 187.419 C 261.791 187.042,261.108 186.678,258.678 184.106 C 257.170 182.509,256.837 182.046,256.839 181.556 C 256.845 180.491,257.365 178.467,258.184 176.317 C 259.280 173.438,259.258 173.079,257.819 170.520 C 256.020 167.319,254.967 163.287,254.754 158.789 C 254.650 156.592,254.316 155.277,253.408 153.503 C 252.948 152.602,251.812 152.259,249.953 152.459 C 244.664 153.028,242.649 152.518,241.504 150.321 C 240.667 148.713,240.117 148.427,237.485 148.233 C 234.865 148.039,234.231 147.723,232.465 145.736 C 231.648 144.817,231.054 144.324,230.658 144.237 C 230.203 144.137,229.958 143.890,229.585 143.155 C 229.220 142.433,228.569 141.766,226.905 140.407 C 224.510 138.451,224.171 138.265,222.161 137.798 C 219.560 137.195,218.232 136.021,217.568 133.740 C 217.341 132.961,216.910 131.577,216.610 130.664 C 216.310 129.751,216.006 128.601,215.935 128.109 C 215.855 127.550,215.597 126.965,215.247 126.547 L 214.689 125.879 214.965 127.613 C 215.118 128.567,215.284 129.415,215.335 129.497 C 215.386 129.580,215.651 130.777,215.923 132.158 C 216.195 133.538,216.624 135.327,216.877 136.133 C 217.130 136.938,217.576 138.433,217.869 139.453 C 218.162 140.474,218.612 141.994,218.869 142.832 C 219.126 143.670,219.336 144.473,219.336 144.617 C 219.336 144.760,219.565 145.027,219.846 145.211 C 220.149 145.410,220.658 146.190,221.104 147.138 C 221.516 148.014,222.080 149.037,222.358 149.412 C 223.269 150.638,223.832 153.339,224.203 158.261 C 224.315 159.744,224.625 161.941,224.892 163.144 C 225.159 164.347,225.467 165.903,225.576 166.602 C 225.751 167.721,225.869 167.958,226.571 168.606 C 228.014 169.939,229.994 175.122,230.282 178.320 C 230.757 183.597,231.166 185.156,232.075 185.157 C 233.489 185.159,234.746 186.486,235.447 188.716 C 235.692 189.498,236.173 190.752,236.515 191.504 C 236.857 192.256,237.431 193.706,237.789 194.727 C 238.148 195.747,238.934 197.624,239.536 198.898 C 240.523 200.988,242.387 205.984,242.380 206.523 C 242.376 206.824,240.448 202.783,240.301 202.165 C 240.190 201.700,239.652 200.717,238.261 198.438 C 237.967 197.954,237.287 196.460,236.752 195.117 C 236.217 193.774,235.461 192.150,235.072 191.508 C 234.684 190.865,234.276 189.987,234.166 189.555 C 233.580 187.254,232.954 186.523,231.569 186.523 C 229.401 186.523,228.415 184.528,227.931 179.156 C 227.736 176.994,227.528 176.445,226.330 174.930 C 225.905 174.392,225.313 173.413,225.014 172.754 C 224.597 171.833,224.327 171.496,223.851 171.299 C 222.138 170.589,220.796 164.939,220.497 157.177 C 220.311 152.349,220.184 151.166,219.729 150.000 C 219.540 149.517,219.243 148.630,219.068 148.029 C 218.831 147.217,218.622 146.879,218.251 146.711 C 217.691 146.455,217.188 145.428,217.188 144.540 C 217.188 144.215,217.006 143.487,216.785 142.922 C 216.564 142.357,216.207 140.708,215.993 139.258 C 215.779 137.808,215.480 136.182,215.328 135.645 C 215.176 135.107,214.964 133.780,214.855 132.695 C 214.747 131.610,214.531 130.234,214.376 129.636 C 214.220 129.039,213.990 127.685,213.864 126.629 C 213.739 125.572,213.622 124.693,213.605 124.677 C 213.588 124.660,212.915 125.198,212.109 125.872 M210.823 183.056 C 210.902 183.587,211.162 184.221,211.431 184.540 C 211.689 184.847,212.009 185.529,212.141 186.055 C 212.274 186.581,212.487 187.144,212.614 187.305 C 212.862 187.617,213.657 189.481,214.258 191.157 C 214.647 192.242,215.656 193.305,216.626 193.652 C 218.365 194.275,220.704 196.938,221.398 199.085 C 221.578 199.642,222.280 201.108,222.957 202.344 C 223.635 203.579,224.418 205.205,224.696 205.957 C 224.975 206.709,225.567 208.125,226.013 209.103 L 226.823 210.882 228.792 211.002 C 231.480 211.164,232.043 211.355,232.837 212.373 C 233.200 212.838,234.027 213.660,234.676 214.200 C 236.148 215.424,237.134 216.598,238.579 218.848 C 239.199 219.814,240.366 221.440,241.171 222.461 C 243.289 225.145,243.545 225.980,242.467 226.687 C 241.752 227.155,241.104 226.882,240.310 225.777 C 239.708 224.938,239.521 224.805,238.947 224.805 C 238.460 224.805,238.077 224.620,237.517 224.113 C 237.096 223.733,236.703 223.501,236.643 223.597 C 236.123 224.438,233.411 223.890,232.496 222.758 C 231.955 222.089,231.909 222.072,231.299 222.304 C 230.807 222.492,230.527 222.495,230.058 222.318 C 229.532 222.119,229.378 222.143,228.902 222.495 C 227.973 223.182,225.586 222.023,225.586 220.885 C 225.586 220.810,225.344 220.706,225.049 220.655 C 224.753 220.605,224.362 220.499,224.180 220.421 C 223.923 220.311,223.781 220.438,223.555 220.979 C 222.674 223.087,221.763 220.611,221.322 214.910 C 221.057 211.483,220.274 209.914,218.421 209.095 C 217.753 208.800,217.706 208.686,217.071 205.859 C 216.890 205.054,216.540 204.043,216.294 203.613 C 216.047 203.184,215.665 202.180,215.445 201.383 C 215.051 199.953,214.762 199.489,213.550 198.340 C 212.771 197.601,212.306 195.806,212.301 193.515 C 212.299 192.624,212.208 191.323,212.100 190.625 C 211.991 189.927,211.853 188.872,211.793 188.281 C 211.732 187.690,211.559 186.930,211.408 186.592 C 211.256 186.253,211.133 185.882,211.133 185.768 C 211.133 185.653,210.960 185.227,210.750 184.820 C 210.498 184.335,210.329 183.513,210.258 182.422 C 210.139 180.588,210.520 181.015,210.823 183.056 M181.641 191.678 C 181.641 192.202,181.056 193.064,178.872 195.760 C 178.048 196.778,177.084 198.126,176.731 198.756 C 176.234 199.642,174.681 201.930,174.323 202.302 C 174.294 202.333,174.346 201.981,174.438 201.521 C 174.531 201.060,174.699 200.193,174.811 199.593 C 175.183 197.601,177.152 195.036,179.891 192.978 C 180.242 192.714,180.700 192.209,180.909 191.855 C 181.357 191.096,181.641 191.027,181.641 191.678 M299.902 193.440 C 300.225 193.717,300.613 193.944,300.765 193.944 C 301.098 193.946,301.085 193.934,300.098 193.377 L 299.316 192.936 299.902 193.440 " stroke="none" fill="#fcf4b4" fill-rule="evenodd"></path><path id="path1" d="M213.870 124.313 C 213.590 124.650,213.883 127.744,214.372 129.622 C 214.530 130.227,214.747 131.610,214.855 132.695 C 214.964 133.780,215.176 135.107,215.328 135.645 C 215.480 136.182,215.779 137.808,215.993 139.258 C 216.207 140.708,216.564 142.357,216.785 142.922 C 217.006 143.487,217.188 144.215,217.188 144.540 C 217.188 145.428,217.691 146.455,218.251 146.711 C 218.622 146.879,218.831 147.217,219.068 148.029 C 219.243 148.630,219.540 149.517,219.729 150.000 C 220.184 151.166,220.311 152.349,220.497 157.177 C 220.796 164.939,222.138 170.589,223.851 171.299 C 224.327 171.496,224.597 171.833,225.014 172.754 C 225.313 173.413,225.905 174.392,226.330 174.930 C 227.528 176.445,227.736 176.994,227.931 179.156 C 228.415 184.528,229.401 186.523,231.569 186.523 C 232.954 186.523,233.580 187.254,234.166 189.555 C 234.276 189.987,234.684 190.865,235.072 191.508 C 235.461 192.150,236.218 193.774,236.755 195.117 C 237.292 196.460,238.047 198.086,238.432 198.730 C 238.817 199.375,239.369 200.298,239.659 200.781 C 239.949 201.265,240.240 201.887,240.304 202.165 C 240.446 202.776,242.376 206.828,242.380 206.523 C 242.387 205.984,240.523 200.988,239.536 198.898 C 238.934 197.624,238.148 195.747,237.789 194.727 C 237.431 193.706,236.857 192.256,236.515 191.504 C 236.173 190.752,235.692 189.498,235.447 188.716 C 234.746 186.486,233.489 185.159,232.075 185.157 C 231.166 185.156,230.757 183.597,230.282 178.320 C 229.994 175.122,228.014 169.939,226.571 168.606 C 225.869 167.958,225.751 167.721,225.576 166.602 C 225.467 165.903,225.159 164.347,224.892 163.144 C 224.625 161.941,224.315 159.744,224.203 158.261 C 223.832 153.339,223.269 150.638,222.358 149.412 C 222.080 149.037,221.516 148.014,221.104 147.138 C 220.658 146.190,220.149 145.410,219.846 145.211 C 219.565 145.027,219.336 144.760,219.336 144.617 C 219.336 144.473,219.126 143.670,218.869 142.832 C 218.612 141.994,218.162 140.474,217.869 139.453 C 217.576 138.433,217.130 136.938,216.877 136.133 C 216.624 135.327,216.195 133.538,215.923 132.158 C 215.651 130.777,215.386 129.580,215.335 129.497 C 215.284 129.415,215.118 128.567,214.965 127.613 L 214.689 125.879 215.247 126.547 C 215.597 126.965,215.855 127.550,215.935 128.109 C 216.006 128.601,216.310 129.751,216.610 130.664 C 216.910 131.577,217.341 132.961,217.568 133.740 C 218.232 136.021,219.560 137.195,222.161 137.798 C 224.171 138.265,224.510 138.451,226.905 140.407 C 228.569 141.766,229.220 142.433,229.585 143.155 C 229.958 143.890,230.203 144.137,230.658 144.237 C 231.054 144.324,231.648 144.817,232.465 145.736 C 234.231 147.723,234.865 148.039,237.485 148.233 C 240.117 148.427,240.667 148.713,241.504 150.321 C 242.649 152.518,244.664 153.028,249.953 152.459 C 251.812 152.259,252.948 152.602,253.408 153.503 C 254.316 155.277,254.650 156.592,254.754 158.789 C 254.967 163.287,256.020 167.319,257.819 170.520 C 259.258 173.079,259.280 173.438,258.184 176.317 C 257.365 178.467,256.845 180.491,256.839 181.556 C 256.837 182.046,257.170 182.509,258.678 184.106 C 261.108 186.678,261.791 187.042,264.887 187.419 C 266.839 187.656,267.553 187.836,268.721 188.386 C 269.970 188.974,270.353 189.063,271.657 189.063 C 273.370 189.063,273.473 189.114,275.417 190.928 C 277.110 192.509,278.196 192.951,279.465 192.574 C 279.963 192.426,281.206 192.250,282.227 192.183 C 283.247 192.117,283.945 192.046,283.778 192.027 C 283.315 191.974,280.163 190.678,278.496 189.855 C 276.068 188.656,274.918 187.777,272.905 185.580 C 271.855 184.434,270.952 183.452,270.898 183.398 C 270.496 182.996,268.810 180.850,267.753 179.395 C 264.564 175.005,264.517 174.919,262.292 169.336 C 260.486 164.803,260.292 164.391,259.076 162.511 C 257.889 160.677,257.556 159.841,256.722 156.603 C 255.484 151.799,254.881 150.660,253.032 149.624 C 250.301 148.094,247.289 147.320,242.722 146.972 C 236.048 146.465,234.720 145.654,229.259 138.753 C 227.413 136.421,223.626 132.426,221.777 130.862 C 220.151 129.486,216.467 126.047,215.557 125.055 C 214.560 123.970,214.263 123.839,213.870 124.313 M56.445 173.028 C 55.959 173.177,55.960 173.179,56.704 173.629 C 58.017 174.421,58.924 177.001,59.179 180.667 C 59.273 182.012,59.576 184.121,59.853 185.355 C 60.971 190.329,61.307 190.692,64.323 190.196 C 64.782 190.120,66.025 192.115,66.606 193.862 C 67.049 195.192,67.855 196.089,68.619 196.100 C 69.300 196.111,69.906 196.768,70.437 198.075 C 70.709 198.746,71.188 199.605,71.501 199.985 C 71.814 200.364,72.070 200.774,72.070 200.894 C 72.070 201.014,72.366 201.676,72.728 202.363 C 73.089 203.051,73.489 203.935,73.616 204.329 C 73.744 204.723,74.201 205.446,74.632 205.936 C 75.265 206.656,75.509 207.172,75.894 208.611 C 76.156 209.592,76.536 210.626,76.737 210.910 C 76.938 211.194,77.362 211.999,77.679 212.699 C 78.329 214.135,79.008 214.792,80.742 215.658 C 81.397 215.986,82.197 216.452,82.520 216.693 C 83.442 217.384,85.117 218.175,86.309 218.483 C 86.910 218.638,87.974 219.031,88.672 219.357 C 89.776 219.871,92.553 220.587,92.742 220.406 C 92.939 220.218,87.272 217.393,86.686 217.386 C 86.007 217.379,82.363 213.711,81.086 211.751 C 79.263 208.950,76.120 202.210,74.422 197.461 C 72.762 192.815,70.390 188.818,66.193 183.594 C 64.124 181.019,62.664 178.922,61.366 176.660 C 59.518 173.441,58.222 172.484,56.445 173.028 M210.258 182.422 C 210.329 183.513,210.498 184.335,210.750 184.820 C 210.960 185.227,211.133 185.653,211.133 185.768 C 211.133 185.882,211.256 186.253,211.408 186.592 C 211.559 186.930,211.732 187.690,211.793 188.281 C 211.853 188.872,211.991 189.927,212.100 190.625 C 212.208 191.323,212.299 192.624,212.301 193.515 C 212.306 195.806,212.771 197.601,213.550 198.340 C 214.762 199.489,215.051 199.953,215.445 201.383 C 215.665 202.180,216.047 203.184,216.294 203.613 C 216.540 204.043,216.890 205.054,217.071 205.859 C 217.706 208.686,217.753 208.800,218.421 209.095 C 220.274 209.914,221.057 211.483,221.322 214.910 C 221.763 220.611,222.674 223.087,223.555 220.979 C 223.781 220.438,223.923 220.311,224.180 220.421 C 224.362 220.499,224.753 220.605,225.049 220.655 C 225.344 220.706,225.586 220.810,225.586 220.885 C 225.586 222.023,227.973 223.182,228.902 222.495 C 229.378 222.143,229.532 222.119,230.058 222.318 C 230.527 222.495,230.807 222.492,231.299 222.304 C 231.909 222.072,231.955 222.089,232.496 222.758 C 233.411 223.890,236.123 224.438,236.643 223.597 C 236.703 223.501,237.096 223.733,237.517 224.113 C 238.077 224.620,238.460 224.805,238.947 224.805 C 239.521 224.805,239.708 224.938,240.310 225.777 C 241.104 226.882,241.752 227.155,242.467 226.687 C 243.545 225.980,243.289 225.145,241.171 222.461 C 240.366 221.440,239.199 219.814,238.579 218.848 C 237.134 216.598,236.148 215.424,234.676 214.200 C 234.027 213.660,233.200 212.838,232.837 212.373 C 232.043 211.355,231.480 211.164,228.792 211.002 L 226.823 210.882 226.013 209.103 C 225.567 208.125,224.975 206.709,224.696 205.957 C 224.418 205.205,223.635 203.579,222.957 202.344 C 222.280 201.108,221.578 199.642,221.398 199.085 C 220.704 196.938,218.365 194.275,216.626 193.652 C 215.656 193.305,214.647 192.242,214.258 191.157 C 213.657 189.481,212.862 187.617,212.614 187.305 C 212.487 187.144,212.274 186.581,212.141 186.055 C 212.009 185.529,211.689 184.847,211.431 184.540 C 211.162 184.221,210.902 183.587,210.823 183.056 C 210.520 181.015,210.139 180.588,210.258 182.422 M336.985 191.031 C 337.130 191.755,338.028 193.060,338.591 193.365 C 338.815 193.487,339.137 193.997,339.307 194.498 C 340.242 197.252,343.359 202.482,344.690 203.529 C 346.778 205.171,350.857 204.003,350.898 201.750 C 350.917 200.743,350.914 200.736,350.839 201.611 L 350.760 202.539 349.346 202.539 L 347.932 202.539 345.092 199.658 C 343.026 197.564,341.817 196.138,340.660 194.434 C 338.195 190.802,336.654 189.375,336.985 191.031 M180.909 191.855 C 180.700 192.209,180.242 192.714,179.891 192.978 C 177.152 195.036,175.183 197.601,174.811 199.593 C 174.699 200.193,174.531 201.060,174.438 201.521 C 174.346 201.981,174.294 202.333,174.323 202.302 C 174.681 201.930,176.234 199.642,176.731 198.756 C 177.084 198.126,178.048 196.778,178.872 195.760 C 181.056 193.064,181.641 192.202,181.641 191.678 C 181.641 191.027,181.357 191.096,180.909 191.855 M296.089 191.749 C 296.754 192.275,298.243 193.747,299.620 195.242 C 300.002 195.657,300.749 196.258,301.280 196.579 C 301.811 196.899,302.760 197.633,303.389 198.210 C 305.227 199.896,305.902 200.111,308.013 199.685 C 309.983 199.286,310.021 199.201,308.430 198.755 C 307.170 198.401,305.984 197.665,303.060 195.420 C 302.004 194.609,301.012 193.945,300.857 193.945 C 300.701 193.945,299.889 193.466,299.053 192.880 C 297.507 191.797,297.040 191.561,295.996 191.338 L 295.410 191.213 296.089 191.749 M26.172 197.037 C 26.172 197.334,28.357 199.618,28.919 199.909 C 30.060 200.499,31.221 200.295,32.132 199.344 C 33.255 198.172,33.458 197.469,32.481 198.133 L 31.798 198.597 30.499 198.149 C 29.784 197.903,28.735 197.515,28.167 197.288 C 27.110 196.866,26.172 196.747,26.172 197.037 M373.778 197.705 C 374.084 198.162,374.429 198.757,374.545 199.029 C 374.896 199.847,375.769 200.759,376.730 201.309 C 377.229 201.595,378.032 202.190,378.516 202.632 C 380.608 204.546,384.789 205.142,386.203 203.728 C 386.760 203.170,386.590 203.115,385.261 203.424 C 383.043 203.940,382.109 203.514,377.930 200.080 C 373.779 196.670,372.658 196.029,373.778 197.705 M367.871 198.645 C 367.549 198.736,366.860 198.866,366.340 198.932 C 365.404 199.051,365.399 199.056,365.754 199.451 C 366.573 200.360,367.812 200.258,368.418 199.232 C 368.928 198.368,368.910 198.348,367.871 198.645 M3.534 201.451 C 3.580 201.497,4.408 201.643,5.374 201.774 C 6.917 201.985,7.435 202.171,9.673 203.316 C 14.323 205.696,16.977 205.861,18.648 203.876 C 19.468 202.901,19.335 202.432,18.376 202.921 C 16.542 203.857,16.006 203.829,11.719 202.576 C 8.525 201.642,2.961 200.878,3.534 201.451 M104.707 217.406 C 105.167 217.956,105.739 218.813,105.977 219.310 C 107.345 222.169,108.099 222.775,110.498 222.947 L 112.305 223.076 112.891 222.491 C 113.620 221.761,113.667 221.406,112.993 221.713 C 112.398 221.984,109.448 220.174,107.520 218.353 C 105.939 216.861,105.232 216.406,104.493 216.406 L 103.870 216.406 104.707 217.406 " stroke="none" fill="#fcfcd3" fill-rule="evenodd"></path></g></svg>