<svg id="Layer_1" data-name="Layer 1" xmlns="http://www.w3.org/2000/svg" viewBox="0 0 2048 1536"><defs><style>.cls-1{fill:#e24234;}.cls-2{fill:#fdfdfd;}</style></defs><path class="cls-1" d="M172.17,1052.89a2.89,2.89,0,0,0-1.57-2.73,3.88,3.88,0,0,1-1.14-1.79c-1-2.18-1.69-4.49-3.67-6.06-.17-.13-.2-.43-.29-.65a33.15,33.15,0,0,0-3.17-6.55,11.72,11.72,0,0,0,2.39-2.06,2.09,2.09,0,0,0,.25-3c-.65-.9-1.2-1.88-1.87-2.78a7.72,7.72,0,0,1-1.44-4.85c.07-2.61-.8-4.53-3.06-5.74-.82-.44-1.3-.95-1.17-1.85a2.91,2.91,0,0,0-2-3.24c1.57-.91,2.76-1.82,3.06-3.48a3.11,3.11,0,0,0-1.64-3.17c-1-.57-3-.57-3.33.24-.68,1.68-2.06,3-2.33,4.86-.12.77,0,1.31,1,1.51s1.09.72.41,1.4a2.65,2.65,0,0,1-.76.58,7.12,7.12,0,0,0-4.13,5.71c-.06.37-.24.62-.61.56a.89.89,0,0,1-.53-.43,1.82,1.82,0,0,1-.11-1.39,13.48,13.48,0,0,0,.21-3.1c0-2.83-.24-3-3-3-1.81,0-3.56.6-5.46.45,0-.62,0-1.18-.09-1.73s.23-1.2-.41-1.49-1.25.12-1.77.48a3,3,0,0,0-1.2,2.25c-.08.82.74,1.25.85,1.9.28,1.61,1.19,1.64,2.43,1.25,1.53-.48,3.18-.09,4.71-.68a.8.8,0,0,1,1.14.83c0,1.95,0,3.91,0,5.85-.94.06-1.21-.5-1.59-.87-1.09-1.06-2.12-2.17-3.22-3.22s-2.32-1.13-3.11-.1c-1.73,2.29-3.45,4.59-5,7-1.07,1.61-1,1.68-2.52.88-1.15-.59-1.79-.19-1.82,1.11a1.79,1.79,0,0,0,1,1.79c.34.19,1.07-.17,1,.66a101.57,101.57,0,0,0-8.37,7.44,3.75,3.75,0,0,1-.78-1.83,38.84,38.84,0,0,0-2.84-8.11,6.81,6.81,0,0,0-2.76-2.91c-.87-.49-1.42-.25-1.53.71a7.9,7.9,0,0,0,.21,3.31c.86,2.74,1.65,5.5,2.51,8.24.42,1.35.63,2.84,2.07,3.63a.83.83,0,0,1,.37.82q0,1.68,0,3.36c0,.72-.4,1-1.08.89a26.68,26.68,0,0,0-5.5-.24c-1.31,0-1.68-.56-1.6-1.73a16.52,16.52,0,0,0-.31-3.57c-.21-1.42-.72-3-.37-4.23a4.15,4.15,0,0,0-.22-2.93c-.17-.41-.43-.82.12-.88,1.56-.16,1.31-1.29,1.43-2.3s.8-2,.19-3c-.4-.68-.83-1.77-1.66-1.49-1.57.53-3.35-.13-4.77.95a.27.27,0,0,0-.09.21c0,1.44-1.15,1.71-2.1,2.27a19.64,19.64,0,0,0-4.28,3.06,4.72,4.72,0,0,1-2.24,1.24,12.06,12.06,0,0,0-5,3.18,2.8,2.8,0,0,0-.78,1.68,15,15,0,0,0,1,8.64,6.51,6.51,0,0,1,0,5.14c-.84,2.12-.76,4.41-.82,6.6,0,1.31-.1,2.22-1.08,3.11-.66.61-.4,1.17.48,1.26,1.35.12,2.7-.19,4.05.21.62.18.73-.44.69-1a1.48,1.48,0,0,0-.77-1.16c-.78-.44-.72-1-.62-1.81.61-4.41,1.5-8.8,1.38-13.29,0-.4-.21-1,.74-1a12.89,12.89,0,0,0,2.08,3.9,5,5,0,0,1,.79,3.84c-.48,2.95,0,6-1.12,8.88a.82.82,0,0,0,.61,1.12,4.3,4.3,0,0,0,3.18-.62c.48-.27.48-.79.18-1.26s-.91-.41-.77-1.06a5.28,5.28,0,0,1,3.73-1.86c0,.42.1.73.12,1.05.22,3.11.79,3.89,3.79,4.66a25.3,25.3,0,0,0,8.1.28,1.77,1.77,0,0,0,1.26-.61c1.18-2.08,2.83-2.2,4.82-1.36a2.93,2.93,0,0,0,1.19.1c3.36-.06,6.68.53,10,.67a68.69,68.69,0,0,1,7.16.49,30.89,30.89,0,0,0,6.93.06c1.8-.13,3.46-.39,4.55-2.3,2.08,2.84,4.92,3.64,8.05,3.95,2.28.22,4.1-.27,5.2-2.44a1,1,0,0,1,1.34-.54,10,10,0,0,0,4.05,0c1.73-.21,2.1-.79,1.72-2.57-.09-.44-.16-.75.17-1C172.44,1055.15,172.13,1054,172.17,1052.89Zm-72.61-6.83a11.53,11.53,0,0,1-2.27-3.86c-.78-2,1-4.75,3.09-4.94a.79.79,0,0,1,.91.57,36.07,36.07,0,0,0,2.76,5.34A7.48,7.48,0,0,0,99.56,1046.06Zm6.79-5.66a5.24,5.24,0,0,1-2.22-2.72c-.85-1.87-.85-1.87,1.24-3.09A8.44,8.44,0,0,1,106.35,1040.4Zm23.22-1.68a.84.84,0,0,1-.88.92,28.49,28.49,0,0,1-3.58-.08c-1-.12-1.29-.7-.92-1.71a6.31,6.31,0,0,1,1.57-2.37c1.25-1.22,2.53-2.41,4.27-4A61,61,0,0,0,129.57,1038.72ZM142,1035.5c-.1,4.61-.1,4.57-4.68,4.23-1.75-.13-3.51-.08-5.26,0-1.11,0-1.61-.35-1.57-1.51.07-2,.08-4,.34-6a1.89,1.89,0,0,1,1.52-1.82,15,15,0,0,1,3.94-.4h.8c4.26,0,4.89.61,4.91,4.78Zm-4-8.45c-1.78,0-3.62.29-5.39-.39a33.75,33.75,0,0,1,3.91-5.42c.62-.72,1-.9,1.67-.2,1.64,1.71,3.31,3.4,5.12,5.25C141.59,1027.66,139.73,1027.09,138,1027.05Zm19.16,14c-.72,0-1.44,0-2.16,0-2.41.19-4.75-.53-7.15-.61-2.06-.07-2.48-.62-2.5-2.67,0-1.67,0-3.35.11-5,0-1.24.68-1.78,2-1.93,4.06-.5,10.52,3.53,11.81,6.89C160.16,1040.16,159.72,1041,157.18,1041.08Z"/><path class="cls-2" d="M1125.29,774l-2.68-1.76a1.5,1.5,0,0,0-2,.54,1.53,1.53,0,0,0-.15,1.15,1.71,1.71,0,0,0,.69.9l2.68,1.76a1.5,1.5,0,0,0,2-.54,1.54,1.54,0,0,0,.15-1.15,1.59,1.59,0,0,0-.69-.9Z"/></svg>
