<svg xmlns="http://www.w3.org/2000/svg" viewBox="0 0 2048 1536"><defs><style>.cls-1{fill:#2c202f;}</style></defs><path class="cls-1" d="M2048,1158.59a4.66,4.66,0,0,0-2.27,1.63c-2.86,4.43-7.68,5.28-11.82,7.26-3.83,1.82-2.3,5.56-3.42,8.29-.72,1.76,1.83,1.72,3.12,2.08,1.07.3,1.9.84,2,1.92.11,1.46-1.34,1.43-2.13,1.5-3.28.32-6.51.32-6.65,5,0,1-1.61,2.64-3,1.75-2.37-1.55-5.71-1.22-7.46-3.54-1.45-1.94-2.93-1.73-4.1-.45-1.58,1.75-3.74,2.17-5.65,3-4.15,1.72-3.33,4-1.09,7a26.13,26.13,0,0,0-4.9,2,6.5,6.5,0,0,1-7,0c-2.08-1.34-2.67-3.15-2.07-5.61.68-2.79-1.17-4-3.56-4.48-1.63-.33-3.85,0-4.69-1.4-3.26-5.25-7.64-9.87-8.44-16.55-.43-3.6-3.37-6.67-7-6.46-3.06.18-4.69-1.15-6.6-2.68-5.61-4.47-10.84-3.12-14,3.6-.39.84-.65,1.54-2,1.68-3.76.37-7.94.23-9.69,4.85-.27.7-1.14,1-2.09,1-4.3.24-6.8,2.91-6.57,7,.07,1.3,1,2.81-.11,3.81-4.54,4.23,1.81,3.6,2.38,5.52,3.28-1.75,4.85.86,4.59,2.93-.32,2.61-3.71.86-5.11,1.72-2.77,1.71-9.28-1-7.76,6.44.62,3-3.72,5-6.34,3.14-1.44-1-2.61-1.56-3.84,0-1.57,2-3.85,4.28-2.83,6.77,1.13,2.78,1.43,7.06,6.55,6.41-.49,1-.8,1.56-1.07,2.15-1.73,3.8-4.6,4.43-7.87,1.52-1.22-1.09-2-3-3.9-2.69-3.44.59-5.37-1.62-7.49-3.5-3.37-3-10-2-11.54,2.1-.81,2.09-1.38,3.17-4,3.27-2.87.12-6.24.15-7.44,4-.23.76-1.48,1-2.64.78-3.86-.72-4.77,2.2-5.51,5-.34,1.24.46,3-.18,3.9-3.69,4.81-.45,5.18,3.27,5.73a3.34,3.34,0,0,1,2.73,3.64c-.17,1.9-2.16,1.14-3.3,1.2-1.76.1-3.5-.53-5.14.85a1.74,1.74,0,0,1-2.59-.69c-2.11-4.31-5-8.31-4.94-13.46,0-3.44-1.92-6.29-5.18-6.94a9.74,9.74,0,0,1-5.51-3.3c-3.66-3.9-8.83-3.53-11.58,1.09-.81,1.36-1.48,1.58-3,1.67-2.77.15-6.12-.7-7.68,3-.27.63-1.31.82-2.25.62-3.81-.81-5.09,1.55-5.68,4.69-.21,1.14,0,2.71-.68,3.34-3.61,3.34-.1,4.33,1.86,4.81s3.22,1.41,2.87,3.19c-.4,2-2.45,1.14-3.79,1.11-4.77-.14-7.53.76-7.73,3.16-.24,2.85-1.62,4.27-4.23,3.84-.37-.06-6.4-1.79-1.63-5.29.24-.18,2-4.49-2-4.74-.65,0-1.62-.37-1.37-1.11,1.19-3.54-1.66-6.83-1.13-9.69.63-3.34-2.7-4.46-2.22-7.15.87-4.84,2.32-9.85-4.42-12.06-1.7-.56-2.29-2.49-1.64-4.26a2.78,2.78,0,0,0-1.85-4c-4.74-1.35-6.18-5.26-7.61-9.16-1.92-5.2-1.2-12.29-9.54-12.67-.33,0-.62-.74-.92-1.14-2.2-2.87-4.81-3.71-8.55-3-4.92.94-8.27-3-6.3-7.17,1.89-4-1.09-5.8-3.26-5.85-6.49-.15-7.57-6.48-9.71-9.7s-3.32-8.76-3.36-13.82c0-3.82-3.07-7.89-7.3-7.86-4.5,0-6.24-3-8.48-5.36-3.67-3.88-13.34-2.88-14.65,2.31-1.43,5.68-6.4,4.18-8.35,3.37-3.1-1.28-3.76.17-4.36,1.86a4.35,4.35,0,0,1-4.71,3.17c-5.18-.28-8.51,2.66-8.58,8,0,1.32.34,2.65-.52,3.84-2.43,3.37-1.2,5.53,3.4,6.06,2.67.31,3.56,2.34,3.55,4.53,0,2.9-2.36,1.2-3.7,1.52a3.64,3.64,0,0,1-2.35-.29c-3.37-1.31-6,2.89-9.52,1.32a21,21,0,0,0-.43,5.26c0,2.41-2.6,3.3-4.42,4.35s-2.71-.58-3.61-1.73-2-2.49-3.64-1c-2.4,2.17-5.84,5.12-5.1,7.69,1,3.34.66,9,7.36,8.69-1.66,2.14-3.16,3.5-3.48,5.56a1.45,1.45,0,0,1-1.86,1.18c-4.74-.82-8.18.94-9.63,5.66-.5,1.66-3.31,2.73-1.8,4.65,2.59,3.3,6.39,5.26,9.07,8.84,1.86,2.47,4.12,4.3,4.38,7.63.07,1,1.87,2.56-1.06,2.21-2.37-.29-6.56,3.48-6.83-.08-.6-8.19-8.63-7.61-12.23-12.06-1.07-1.32-5.28-.56-6.62,1.68-2.67,4.5-8,3.21-11.47,6.07-2.55,2.12-5.47,1.4-7.6-1.5a2.54,2.54,0,0,0-2.29-.72c-3,1.32-4.43-1.14-6.15-2.59-5.56-4.64-11-3.58-14.24,2.91-.41.82-.51,1.63-1.95,1.73-3.74.27-8-.28-9.89,4.39-.44,1.07-1.79,1-2.66.64-2.06-.92-2.64.91-3.89,1.69-3.7,2.32-.68,6.8-2.69,8.91-4.19,4.38,1.57,3.91,2.29,5.8,3.45-1.7,4.69,1.07,4.36,3.16-.38,2.35-3.36.74-4.94,1.34-3.22,1.24-8.86-.55-8.22,6.24.23,2.52-3.78,4.89-5.52,3.63-1.57-1.15-2.76-3.35-4.86-.78-1.39,1.71-2.82,3.41-2.72,5.42a8.45,8.45,0,0,1-1-.85c-1-1.09-4-1.85-2.27-4.85,2.49-4.24-.48-11.37-5-13-2.51-.92-5.45-2.48-4.39-5.28,1.71-4.52-.65-5.89-4-6-4.93-.24-4.27-6.79-8.81-7.09,1.24-4.17-2.61-7.07-2.7-11.13-.08-3.47-2.74-7.22-6.45-7-3.91.29-5.62-2.12-7.81-3.92-3.54-2.91-11.07-2.42-12.31,1.71-1,3.19-3,4.32-5.28,4.18-3.47-.2-5.73.63-7.25,3.79a2.47,2.47,0,0,1-2.58,1.08c-5-.72-6,2.84-6.65,6.6-.25,1.42,1,3.09-.39,4.27-5,4.26,1.93,3.47,2.28,5.45,3.27-1.43,4.71,1,4.44,3.18-.31,2.6-3.29,1.73-4.89,1.3-3.09-.85-4.67,3-7.9,2-.7-.21-.21,2.94-.42,4.51-.4,3-4.25,4.75-6.37,2.81s-3.25-1.21-4.81.66c-4.17,5-2.56,10.63,5.57,13.36-4.77.32-2.24,5.61-5.93,5.27-3.19-.3-4.71,1.39-6.59,3.07-.89.8-1.66,2.41-3.07.6-3.22-4.13-6.49-8.11-7.6-13.56-.56-2.77-3.08-5.33-6.09-5s-4.88-1.23-6.9-2.68c-3.73-2.69-9.88-1.41-10.69,3a4,4,0,0,1-4.35,3.48c-5.13-.22-6.56,5.22-10.87,6.34-3.32.86-1.34,4.63-2.14,6.88-1.51,4.23-1,5.85,3.82,5.51,1.61-.12,3.5,2.72,2.41,3.29-3,1.57-6.6,2-10,2.9-1.06-4.25-7.18-3.34-7.81-6-1.22-5.18-4.09-7.38-8.15-10.32s-6.06-8.69-6.86-14.35c-.39-2.74-2.82-5.43-5.92-5.19a5.94,5.94,0,0,1-5.39-2.64c-2.38-3-4.87-2.4-8-1.66s-3.52,4.65-4.7,4.9c-4.61,1-8.16,4-12.34,5.34-2.87.93-4.3,2.22-5.07,4.61-.48,1.52.34,3.82-.52,4.8-3.1,3.54.83,4.45,2.11,4.52,2.55.15,4.14,1.19,3.77,3.3-.33,1.91-2.8.75-4.2,1.18-3,.92-7.92-.66-7.41,5.63.14,1.71-2.13,5-5.34,2.25-1.74-1.51-2.73-1-4.06.63-2.91,3.51-2.74,7.88,1.3,10.2,1.76,1,1.84,1.43.88,2.68-.73,1,0,2.88-2.6,2.7-3.28-.23-6.68.65-5.71-4.6.08-.43-.63-1.31-1.15-1.5-5.23-2-6.5-6.52-7.43-11.23-.54-2.73-1.72-4.75-4.6-5.12a4.53,4.53,0,0,1-3.27-2.07,4.35,4.35,0,0,0-6.94-.79c-3.79,4.17-9.15,4.38-13.6,6.73-.66,5.71-1.69,6.07-7.64,2.64.64-1.85,2.59-.77,3.75-1.71,2.14-1.72,2.07-4,0-4.55-3.07-.77-3-2.34-2.84-4.62a4.58,4.58,0,0,0-.4-2.86c-2.64-3.49-2.24-7.87-3.63-11.71a.6.6,0,0,0-.39-.58c-4.23-1.85-3.15-3.5.19-5.07-.13-2.08-2.6-3.65-1.28-6-1.79-2.35-5.34-2-7-4.5a.82.82,0,0,0-.75-.55l-2.5-1.44c2.32-3.61-1.82-4.59-2.8-6.86-3.52.18-2.65-4.4-5.44-5-4.93,1.45-2.34-2-2.39-3.68a1.68,1.68,0,0,0-.41-.87l-6.64-12.13-1-.18c-1.87.75-4,2.55-4.94-1l-3.34-2.77c-3.15-1.39-6,.37-8.45,1.59s-1.73,3.53.93,5c-2,.46-3.67.93-5.25-.46a1.3,1.3,0,0,0-2,.51c-1.33,2.12-2.34,1.61-3.16-.38-1.88-.06-1.78,1.44-2.08,2.63.79.6,1.08,1.48,0,1.75-2.77.68-5.65,1.35-8-1.2l-1.41-1.34c-1.21-3.25-4.26-4.7-6.62-6.83l-.71-1.2c-2-1.27-5.32-1.54-4.07-5.3a1,1,0,0,0-.42-.77c-1.81-.36-2-2-2.52-3.3-1.38-3.21-2.6-6.37-7.16-5.77-1.55.21-2.62-1.08-3.19-2.56-3.38-3-8.66-2.24-10,1.75-.73,2.12-2.06,2.53-3.61,3.4-5.18,2.89-12.09,3.45-12.09,12.47,0,3.22.7,4.29,2.57,4.25,2.25-.06,3.5.65,3.33,2.44s-2.33,1.09-3.62,1.54c-2.29.79-5.75.47-6,3.93-.29,3.67-.85,6.14-5.18,3.59-1.14-.67-1.75,0-2.5.74-2.6,2.73-2.61,7.35.8,8.76,3.17,1.31,2,2.78,1.29,4.38-1.21,2.85-3.76.64-4.36.11-3-2.63-5.33-.59-7,1-5.23,5.19-10.39,5.83-15,.63-3-3.39-5.79-2.09-8.14-.11-4.6,3.89-9.07,2.73-10.87-3.18-.22-.72-.81-1.68-1.42-1.85-5.8-1.65-7.4-6.41-8.85-11.41-.68-2.37-2.18-4.34-4.83-4.35a4.92,4.92,0,0,1-3.9-1.83,4.38,4.38,0,0,0-6.66-.43c-2.25,2.57-5,3.36-7.7,4.92-6.54,3.86-8.14,3.69-10.45-3.8-.89-2.92-1.64-5.91-5.23-6.47a7.31,7.31,0,0,1-3.61-1.22c-4.55-3.44-6.58-3.1-9.85,1.46-1.37,1.92-3.3,1.55-5.22,1.63-2.28.1-1.92-1.35-2.31-2.87-.81-3.17-2.85-6.14-6.27-6.06a5.46,5.46,0,0,1-4.91-2.54c-3-4.17-6.45-2.21-9.78-1.25-2,.57-1.61,4-2.87,4.3-4.35,1-8.07,3.36-12.13,4.68a7.31,7.31,0,0,0-5,4.45c-.63,1.43.27,3.86-.62,4.79-3.38,3.54.51,4.14,2,4.46,2.07.43,3.92.94,3.57,3.07s-2.72.88-4.12,1.33c-3,.94-7.68-.46-7.35,5.52.1,1.82-1.87,3.93-4.69,2.64-3.67-1.7-7,.75-6.37,5,.2,1.31.32,2.43-.52,3.15a39.35,39.35,0,0,1-15,8.36c-4.68,1.32-3.07,5.62-4.51,8.41-1.08,2.09,1.55,2.24,3,2.6s2.22,1,2.1,2.33-1.49,1.07-2.38,1.16c-3.22.34-7-.38-7.07,4.8,0,1.17-2,2.69-3,1.88-2.71-2.33-4.11-1-5.36,1.3s-.24,4.42,1.42,6.23c2,2.21,1.57,3.3-1.43,4.26a7.4,7.4,0,0,0-5.13,6c-.36,2,1.6,2.55,3,3.54a24.37,24.37,0,0,1,4.24,4.47c1,1.21,1.86,2.91-.06,3.71s-5.52,3.26-6.11,1.64c-1.37-3.71-5.78-5-6.19-9.09-.48-4.79-4.65-5.9-8.1-7.49-3.07-1.41-7.7-.91-6.77-6.51.09-.52-.84-1.54-1.49-1.8-4.5-1.76-5.77-5.72-6.52-9.8-.59-3.26-2.37-4.58-5.1-6.43-4.72-3.21-8.29-5-12.35.34-.3.4-1.27.44-1.91.4-3.09-.21-4.92,2.52-7.74,3.21-2.61.65-1.57,4.07-2.56,6.13-.88,1.85,1.55,1.61,2.52,2.18.8.47,1.43,1,1.38,1.84A1.36,1.36,0,0,1,861,1260c-5.49-1.85-6.69,7.42-12.5,4.83a3.41,3.41,0,0,0-1.36,1.91c-.39,5.88-3.46,4-5.66,1.63-3.07-3.24-6.26-1.46-7.45.63-1.62,2.87-4,2.82-6.25,3.69h0c0-3-4-5.11-3-7.71,1.06-3.11-1.78-5.37-.62-8.11-4.68-1.94-5.49-8.23-8.48-9.93-6.05-3.43-8.22-8.1-9.73-14-.71-2.72-2.2-5.22-5.15-5.36-2.46-.11-3.88-1.37-5.48-2.72-3.18-2.7-8-2.23-9.44,1.52a4.34,4.34,0,0,1-4.9,2.88c-1.9-.18-2.69.11-3.45,1.69s-2.07,1.58-3.71,1.77c-5.57.63-2.92,6.2-4.91,9.17-1.27,1.89,1.61,2.35,2.93,2.65,1.51.34,2.71.87,2.59,2.38-.15,1.82-1.88,1.25-3.09,1.49-3.08.62-6.84.15-6.87,5.26,0,1.37-2,3.86-4.42,1.51-1.66-1.62-2.58-.48-3.59.76-2.63,3.23-1.81,6.23,1.07,8.54,1.24,1,1.35,1.51.76,2.72a2.71,2.71,0,0,1-2.25,1.88c-5,1.1-4.86-2.65-5.5-5.34-.83-3.49-2.78-6.22-6.14-6.16-2.76,0-4.21-1.43-5.89-2.67-3-2.21-8.83-2.52-9.65.54-1.73,6.5-10,2.94-11.68,8.66a1.53,1.53,0,0,1-1.26,0c-2-1.8-5.2-1.08-6.91-3.62a4,4,0,0,0-6.19-.46c-3.89,4.54-10.11,4-14.45,7.43-1.37,1.08-3.73.29-2.81-2.21,1.67-4.54-.92-8.9-2.35-12-2.15-4.7-.89-9.24-2.12-13.68-.57-2.06-.5-3.61-3.19-3.92-2.4-.27-5.32-1.88-4.59-4.33,1.47-4.93-1.32-5.63-4.76-6.44a3.21,3.21,0,0,1-2-1.29c-2.27-4.81-5.68-9-6.06-14.8-.18-2.84-2.58-6-5.88-5.84-3,.17-4.19-1.58-5.79-3-4.09-3.65-9.23-2.78-11.83,2.14-2.13,4-6,1.67-8.92,2-2.31.28-1.31-2.22-1.64-3.7-.66-3-.28-6.83-4.93-7.38-1.43-.17-2-1.7-1.72-3.2a2.25,2.25,0,0,0-1.65-2.74c-5.12-1.21-6.86-5.37-8.21-9.6-.95-3-2.76-4-5.5-5.44-5.36-2.8-9.64-4.46-13.38,1.86-.2.33-1,.27-1.38.52-5.18,3.24-11.46,4.81-15.39,9.89-.95,1.22-2.07.8-3.08,1.08-5.44,1.5-11.53,1.89-13.08,9-2.9-1.52,0-5.22-2.79-6.18-5.88-2-7.35-6.91-8.47-12.1A6.84,6.84,0,0,0,544,1172c-5.1-3.74-9-8.26-10.63-14.52-1-3.89-8.18-8.27-10.61-6.23-2.22,1.87-4.87,2.31-7.13,3.77-1.8,1.17-4.09,1-5.12,3.91-1.18,3.33,2.05,4,2.79,6.18-2.77.69-6.15-.35-6.89,3.65-.19,1-1.4.82-2.52.62-3.56-.65-4.18,1.91-2.91,4.08,1.47,2.5,1.69,3.36-1.26,4.65s-4.7,3.23-.79,6.17c2.66,2,5.09,4.86-.68,6.82-1.5.51-3.6,1.64-3.89,4.1s-1.68,1.3-2.67.43c-1.36-1.19-2.18-2.76-1.09-4.43A2.71,2.71,0,0,0,489,1187c-7.67-1.78-9.65-8.36-10-14.15-.6-10.42-11.56-9.13-15.38-15.47-.1-.17-.93.11-1.42.17-3.48.41-5.76,1.73-8.42,4.72s-8.51,3.78-13,5a8.1,8.1,0,0,0-5.3,4c-.86,1.41.17,4.31-.84,5.22-3.55,3.19.2,4.35,1.55,4.75,2.08.61,4.44,1,3.87,3.35s-3.41.68-5,1.24c-2.77,1-7.53-.7-7.32,5.28.07,2-2.44,4.76-5.38,2-1.61-1.49-2.54-1.48-4.1.07-3.29,3.26-3.46,7.48-.09,10.39.8.69,3.32.4,1.64,2.38-1,1.14-.28,3.66-3.84,3.12-4.36-.65-5.84,4.22-7.24,7.5-.48,1.12,2.14,2.94,3.75,4.31,3.14,2.67,7,5.54,6.75,10.68l-6.36,1.38c-.44-.17-1.24-.29-1.29-.54-.82-4.65-4.35-8-5.71-12.44l-1.63-1.35c-3.47-.83-3.13-3.48-2.93-6.08l-.08-.12c-1.38.46-2.1-.15-2.39-1.48l-1.37-1c-1.1-1.22-6.08-.64-2-4.28,1-.91,1.32-1.87.2-2.93-2.51.13-2.84-4-5.8-3,.19-2.85.84-5.29,4.49-5.15.5-1.13-.11-1.94-.77-2.74-2.3-.77-2-1.95-.52-3.31.71-1,1-2-.25-2.8a5.48,5.48,0,0,1-4.17-2.35l-1.59-.84c-3.05-2.7-6.87-1.68-10.66-.83.07-.49.15-1,.22-1.47,1.19-.36,2.4-.66,3.57-1.1,2.11-.79,6-1,1.39-4.18-1-.67.25-1.76.56-2.64a.85.85,0,0,0-.77-.34c-2,.58-3.63.57-3.68-2.15,0-.4-.05-.8-.07-1.2-1.86-1.69-3.94-1.16-6.86,0,3.43-6.11,1.14-10.88-1.94-15.18-1.65-2.31-4.3-3.94-6.61-5.73a2.49,2.49,0,0,1-1.21-2.49c-.84-.79-1.72-1.54-2.51-2.38-3.2-3.4-10.48-2.92-12,1.31-1,2.86-2.49,3.26-4.79,3.27-3,0-5.84.2-7.49,3.41a2.19,2.19,0,0,1-3.1.76c-1.87-1.25-2.33.46-3.47,1.16-3.55,2.2-1.24,6.73-3.32,8.79-4.13,4.07,1.49,3.67,2,5.5,3.06-1.12,4.46,1.19,4.16,3.17-.42,2.85-3.28.65-4.81,1.25-3.08,1.21-8.67-1.5-8.41,5.45.11,3-4,4.45-6.29,2.44-1.09-1-1.94-2-3.31-.69-1.88,1.81-4.47,3.86-3.78,6.46.73,2.77.81,6.86,5.75,7.14-2.71.85-.78,5.79-4.56,4.79-4.5-1.2-5.41,2.64-7.28,4.72-2,2.24-1.8,5.87,1,6.89s3.72,3.41,5.57,5.07c2.47,2.2,2.58,6.23-.26,8s-5.13,4.46-7.81,5.67c-5.42,2.44-4.54,6-2.9,9.64,1.19,2.64,2,3.92-1.25,5.75-2.5,1.41-4.53,4.07-.26,6.76,6,3.77,5.82,4.62-.28,8.42-.69.42-1.34.92-2,1.39.22,2.41-.31,5,1.73,7,.68.67,2.65,1.12.94,2.44-.92.71-2.1.2-2.89-1-2-3-2.34-6.43-2.91-9.82-2.14-.4-3.47-1.52-3.44-3.86-1.11-.13-2.29-.12-2.78-1.44l-1-.62a1.78,1.78,0,0,1-1.93-1.89l-2.58-5.05a1.9,1.9,0,0,1-1.32-2.21c-1.89-1.63-4.65-1.32-6.55-3.16-1.31-1.27-3.15-.16-4,.89-3.59,4.47-9.1,5.7-13.77,8.22-6.47,3.5-7.69,6.47-3.14,11-7.15,2-7.14,1.79-8.13-3.77-1.23-6.93-.9-14.36-5.46-20.4a34.14,34.14,0,0,1-5.79-10.56c-1-3.1-6.56-3.77-9.7-1.93-4.9,2.87-6.68,2.28-8.71-2.8a7.09,7.09,0,0,0-1.57-1.92,4.17,4.17,0,0,1-1.21-4.67c1-3.69-2.32-8.52-5.9-9.8-2.2-.79-4.2-2-3.19-4.7a2.75,2.75,0,0,0-1.95-3.81c-7.77-.69-9.56-7.13-11.73-12.57-1.46-3.67-2.73-7.55-6.83-7.2-4.47.38-5.62-4.46-9.38-4.43a3.68,3.68,0,0,0-1,.25c-2.79.89-5,1.69-6.71,4.94-2,3.74-7.8,3.28-11.16,6.75-1.81,1.88-7.15,8.37-6,11.53a1.53,1.53,0,0,0,1.08.87c3.54.18,5.69,2.81,8.79,4.82-2.89-.45-5.2.4-7.59.57-5.66.4-7,3.12-4.75,8.43.13.31.82.39.33.94-1.65-3.73-4.66,1.81-6.7-1-1.19-1.65-2.54-.62-3.54.84-2.19,3.2-1.7,5.9.93,8.64.83.87,3.73.22,2.42,2.74-.84,1.61-.64,3.66-3.93,3.87s-5.61,3.91-6,7.12c-.19,1.58,2.93,2.82,5.06,3.85,2.56,1.25,4.51,3.9,6.44,6.19.47.56,1.58,2.37.2,3-1.55.71-4.56,2.28-4.84,1.34-1.24-4.05-6.13-5.71-6.4-10-.22-3.6-2.06-5-4.94-6.86-3.33-2.15-5.28-2.83-7.83.52-.54.72-1.7-.14-2.59-.71-4.48-2.84-7.4-7.33-10.08-11.46-2.28-3.51-3.4-7.1-7.74-9.26-3.35-1.66-5.35-2.17-7.39,1-1.61,2.47-5.2.94-6.85,3.54-.15.24-3.25-.11-4.17-2.83-1.76-5.15-1.1-10.94-6-15.45-3.46-3.22-6.8-7.35-8.3-12.57-.83-2.89-8.51-4.87-9.78-3.08-1.64,2.3-4.14,2.54-6.16,3.78-5.29,3.25-5.7,5.15-1.19,9.26-2,1.58-7.1-.17-5.64,5.08l.2,0a1.2,1.2,0,0,0-.11.12c-1.77.36-3.72-1.79-5.34.26a2.76,2.76,0,0,0,.29,4c1.26,1.13,1.63,2.23,0,3.11-2.08,1.14-1.91-1-2.49-2-2.55-4.34-3-9.32-4.29-14-1.25-4.55-5.21-8.12-8.19-10.56-4-3.3-6.85-6.61-8.14-11.27-.74-2.72-2.08-5-4.56-5.16a5.7,5.7,0,0,1-1.91-.54V1536H2048ZM42.69,1214.18c-1.13,2.91-2.77,4.25-6,1.52,2.55-.92,3.3-2.9,3-5.94C41.71,1211.11,43.68,1211.59,42.69,1214.18Zm3.84-5.94c-1.09,0-2-.81-1.44-1.93s-.11-3,1.66-3.16c1.43-.14,1.69,1.21,1.91,2.32C48.52,1206.86,48.22,1208.23,46.53,1208.24Zm6.9-15.11c-.54,1.78-2.44,2.33-3.94,3-.61.29-1.66-.56-1.39-1.5a3.6,3.6,0,0,1,3.24-2.77C52.53,1192,53.66,1192.37,53.43,1193.13Zm73.84,96.32c-1.13-1.6-2.2-2.32-4-2-2.1,4.5-5.67,2.88-9,2.1a1.25,1.25,0,0,1-.9-1.54,2.1,2.1,0,0,1,2.32-1.46c2.29.19,4.54.74,6.82,0,.32-2.48,2.09-3,4.2-3.29,2.36-.27,2,1.65,2.52,2.91,1.21,3,3.78,3.06,6.61,2.76C133.26,1291.77,129.15,1292.09,127.27,1289.45ZM157,1294.7c-2.2.17-4.09-.74-7.3-1.9a11.91,11.91,0,0,1,2-.37c1.87.42,4.07-.35,5.54,1.49C157.27,1294.06,157.05,1294.7,157,1294.7Zm9.37-95c2-.66,2.74-3.87,5.72-2.79,1,.36,2.49,1,1.91,1.69a76,76,0,0,1-6.42,6.27c-.53-1.18-2.79-.65-3.23-2.36S164.85,1200.14,166.33,1199.65Zm-5.88,24.3a11.51,11.51,0,0,0,1.43-2.48c.47-1-.66-3.06,1.48-2.82s2.87,1.95,2.71,4.3a4.08,4.08,0,0,1-3,4.68,3.16,3.16,0,0,1-3.21-.8C158.65,1225.65,159.7,1224.85,160.45,1224Zm10.29,71.88c-.45,2.62-3.38.89-4.56,1.47-4.54.66-5.94-1.42-5.62-5.11.09-1.11-.48-2.56.75-3.2,1.59-.83,1.88.76,2.34,1.73a3.14,3.14,0,0,0,2.77,1.85C169,1292.38,171.22,1293,170.74,1295.83Zm4.67-79c-2.53.69-4.49,1.94-4.77,4.87a1,1,0,0,1-1.35,1,1.59,1.59,0,0,1-.75-1.09c-.63-3.35,2.8-7.58,6.19-7.72.88-.23,1.71-.12,2,.81C177.19,1215.84,176.53,1216.48,175.41,1216.78Zm12.76,79.61c-.55,1.58-2.2,1.1-3.48,1a21.37,21.37,0,0,0-3.95-.34c-3.54.51-4.3-1.39-4.1-4.31.1-1.3.09-2.63.31-3.91.36-2,1.29-2.92,3.46-1.78,1.59.83,2.34,3.31,5,2.26,1-.39.73,1.07.51,1.8-.32,1-1.47,2,.26,2.88C187.18,1294.52,188.66,1295,188.17,1296.39Zm.2-30.76c-1.53-.89-4.94.88-4.66-2.76.21-2.73,1.21-4.58,4.56-3.15,4-2.25,3,1.34,3.32,3.06A2.36,2.36,0,0,1,188.37,1265.63Zm17.32,28.86c-.25.47-1.2.25-1.67-.33-1.58-2,.7-3.08,1-4.66A3.78,3.78,0,0,1,205.69,1294.49Zm95.07-5.06c-.79.7-1.91.41-2.28-.85-.74-2.47,1.17-3.47,2.64-4.74a6.26,6.26,0,0,1,4.41-1.8c2.48.19-1.27,2.56,2.27,3.43A19.13,19.13,0,0,0,300.76,1289.43Zm32-118.9c.72-.29.67.32.77.73-.12.25-.25.49-.38.73a8.31,8.31,0,0,1-.89-.89A1.22,1.22,0,0,1,332.79,1170.53Zm3.27,21c-1.19,10.52-1.19,10.52-6.07,8.34Zm-4.33,94.62c-2.22-1.1-4.1.94-6.1-.06-.11.64-.13,1.38-1,1.44-.17,0-.55-.42-.52-.6.14-.82.81-.89,1.49-.87,0-2.44,2.75-3.11,3.63-2.84,5.16,1.64,9,.2,12.17-5.93C341.4,1283.86,335.68,1288.09,331.73,1286.12ZM343.86,1205c-1.81,1.16-2.63-.65-3.88-1.18s-1.66-1.92-.75-2.24c3.76-1.35.37-7.53,5-7.54,2.26,0,2,3.34,3.26,4.56C347,1201.39,346.1,1203.54,343.86,1205Zm21.26,40c1,.29,1.67.46,2.29.65,1.07.31,2.86-1.72,3.18.63s-1.66,2-3.14,1.92c-.84,0-1.93-.18-2.18.69-.53,1.83-1.6,2.44-3.32,1.94s.1-2.58-1.31-3.3a7.26,7.26,0,0,1,3.49-2.37A2.81,2.81,0,0,1,365.12,1245Zm-13.93-51.77c-.25-.45.1-1.26.6-1,3.13,1.87,5.35-4,8.42-1,1,1,.43,2.1-.85,2.75-1.57.81-3.71.1-4.89,2-.85,1.33-1.85,2.56-3.21,4.43C350.28,1197.37,352.35,1195.35,351.19,1193.22Zm4.67,70.21c1.71-2.13,4.07-1.36,7.13-1.41-1.73,3.14-3.28,4.54-6,3.32C356.08,1265,355.39,1264,355.86,1263.43Zm-7.2-87.2a2.17,2.17,0,0,1,1.13-2.48c4-2.55,8.15-3.47,13.12-.58-4.26,1.4-8.11,2.64-11.94,3.93C349.91,1177.45,348.94,1177.62,348.66,1176.23Zm30.58,94c-2.66.25-3.6,3.67-6.38,2.44-.21,1.33-.5,2.56-2.34,2l-.06,0a1,1,0,0,1-.71,1.27c-.44,3.07-2.41,3.45-5,2.82-2.93,3.82-7.28,4-11.34.24a23.16,23.16,0,0,1-2.49-3.39c2.53-1,5-.54,6.46-4.06,1.58-3.77,4.92.1,7.34,1.37l6.06-.2a1.37,1.37,0,0,1,1.68-.87c3.89-2.35,6.64-5.24,4.79-10.73,3,4.81,6.66,2,10.2,1.24C387.64,1268.17,383.25,1269.91,379.24,1270.27Zm8.21-68.8c-1.25-.24-1.41-1.18-1.41-2.22V1194c3.71.23-.37,5.83,3.79,5.77A1.81,1.81,0,0,1,387.45,1201.47Zm13.43,60.5c-1.27.11-2.68.21-3.57-1a1.37,1.37,0,0,1,.1-1.3c1.1-1.26,2.42-.82,3.53-.07s2.55-1,3.55.48C403.92,1262,402.27,1261.84,400.88,1262Zm42.82-56.29-.15.38-.15-.38Zm.76,3.51c-.66,1.39.39,3.71-1.69,4.1-1,.19-3.43-1-2.8-1.89.82-1.14.71-3.52,2.45-3.48C443.84,1207.92,444.91,1208.24,444.46,1209.19Zm9.07,6.63c-2.11,1.75-4.08.55-5.4-.43-2.06-1.55.07-2.17,1.23-3a3.06,3.06,0,0,0,.7-2.2c0-2.27,1.87-3.79,3.23-3.55,1.57.28,2.08,2.67,2.58,4.27C455,1212.65,455.14,1214.49,453.53,1215.82Zm13-9c-5.11,2.38-5.1,2.39-7.81,6.09-.32-5.27,3-9.23,6.89-9.16,1.08,0,2,0,2.21,1.27C468,1206,467.38,1206.43,466.54,1206.82Zm36.95,16.84c-2.64-.49-2.86-3.3-4.15-5.05-.33-.45.84-2,2.11-2.36,1.28,2,4,2.81,4.24,5.56C505.86,1223.56,504.56,1223.86,503.49,1223.66Zm92.57,51.74c-.09.63-.51,1.43-1,1.15-.93-.51-.28-1.26.2-1.85a1.86,1.86,0,0,1,.1-.48c.72-1.33-1.07-3.61,1.4-4.19,1.41-.32,2,1,2.35,2.11C600.17,1275.12,597.29,1274.51,596.06,1275.4Zm.68-82.86c-1-.11-.89-1.18-.33-1.92.74-1,2.45-1.19,2.21-2.89a19.61,19.61,0,0,1,3.86.3c1.12.3,1.58,1.42.42,2.14-1.35.86-2.72,1.31-3.51,3.08C598.81,1194.57,597.75,1192.65,596.74,1192.54Zm8.68,8.8c-.43,2.3-3.51.9-3.93,2.81-1.46.22-2.23-.8-2-1.3.8-1.7,2.79-1.83,4.3-2.59C604.81,1199.76,605.59,1200.45,605.42,1201.34Zm31,86.76c-1.43-.16-2.34-.82-2.27-1.87.12-1.81,2.28-1.4,3.31-2.47.71-.74,1.64.88,1.71,1.75C639.36,1287.6,637.08,1287.1,636.44,1288.1Zm1.19-32.44c-2.26,1.74-4-.06-6-.27-.12,0-.38-1-.2-1.21,1.92-2,5.69-1.52,6.27-5.65.93,1.09,1.54,1.5,1.68,2A4.39,4.39,0,0,1,637.63,1255.66Zm2.12-25.51c-.18-1.41.71-2,1.87-2.54,2.34-1.16,4.08-4.06,7.37-2.16,1.08.62,2.41,1.24,1.44,2.52-1.81,2.4-6.1,1.19-7,5.23C642.21,1231.56,640,1232.09,639.75,1230.15ZM650,1246.27c-5,2.48-5,2.53-7.36,5.61-1.37-2.34.88-4.17-.21-6.2-.74-1.37.49-1.59,1.61-1.44,2.48.32,4.77-3,7.21-.61C652.16,1244.54,651.27,1245.64,650,1246.27Zm11.87,49.09c.3,2.16-1.08,3-2.74,3.53s-2.09-.49-2.32-1.78c-1.13.17-2.61.7-3.2-.42s0-2.6.86-3.64c1.71-2.12,4.08-.88,6.11-.84S661.69,1294.16,661.86,1295.36Zm7.35,16.82c-2.25-.51-1.25-3.07-1.87-4.67-.47-1.22.5-2.2,2-2,2.55.34,1.95,3.07,3.3,4.37A3.31,3.31,0,0,1,669.21,1312.18Zm66.88-26c-1.22-.5-2.67-.73-3.59-1.56-1.09-1-.41-2.19.67-2.91,3.32-2.2,6.72-4,11.62-.87C741,1282.11,736.9,1281.75,736.09,1286.15Zm43-15.85c-.09,1.55-1.13,1.29-2.13.82s-1.64-1-.57-2.19c1.22-1.29,1.16-3.44,3.26-4.73C780.68,1266.56,779.21,1268.35,779.1,1270.3Zm17.08-5.41c-2.62.45-2.4,3.24-4.34,5.39-1.14-4,.83-5.94,2.87-7.44,1-.77,3.37-2.1,4.14-.77C800.17,1264.33,797.74,1264.63,796.18,1264.89Zm30.7,7.46c.12-.12.23-.25.35-.38l.49.7Zm90.91,51.79c-1.42-1.42-5,.8-4.82-2.77.08-1.84,1.45-2.47,3.22-2.21,2.77-.41,2.69,2,3.25,3.54C919.93,1324.07,918.39,1324.75,917.79,1324.14Zm15-4.47c-2.65.7-4.67,2.24-7.3,5.09.17-5.91,4.26-6.76,7.4-8.48a1.07,1.07,0,0,1,1.59.65A2.47,2.47,0,0,1,932.81,1319.67Zm8-35c-1.73,2.61-4.11-2-6.3-.08-1.64-1.95.54-2.57,1.36-3.48,1.49-1.63,3.94-2.65,2.33-5.64-.45-.85.52-1.39,1.85-1.35,2.37-.11,2.45,2.69,2.51,3.86A11.67,11.67,0,0,1,940.81,1284.7Zm68.4,2.88c-1.34,3-3,3.78-5.22,3.13a1.18,1.18,0,0,1-.76-1.92C1004.7,1286.82,1006.73,1288,1009.21,1287.58Zm-21.65-61,.11.42-.32,0ZM980,1249.06l-1.27,0c-.68-1.47-1.33-2.95-2.06-4.39-.47-.93-2.19-1.41-1.11-2.82a2,2,0,0,1,1.74-.58c1.28.34,2.6.9,2.68,2.52S980,1247.31,980,1249.06Zm1.32-13.45c-3.59-2.5-3.59-2.5,1.2-8.71C983.59,1230.25,981.78,1232.7,981.36,1235.61Zm7.25,2.21c-1.15-.16-2.52-.16-3-1.39-.57-1.42.65-2,1.68-2.61a4.56,4.56,0,0,0,2.17-3.7c.11-.95-.46-2.12,1.1-2.17.93,0,1.33.86,1.72,1.59C993.74,1232.24,991.28,1237.8,988.61,1237.82Zm7.9-22.73c-2-6.28-.65-8.35,4.53-7.46,1.1.19,2.65-.08,2.78,1.38a2.76,2.76,0,0,1-2.71,2.82C998.3,1211.22,997.8,1213.29,996.51,1215.09Zm28,78.94a16.9,16.9,0,0,1-5,2.44c-4.06,1.15-4.41,3.69-3.17,6.6,1.33,3.12-1.16,2.18-2.29,2.76-.31-1.92-4.55-.66-3.2-4.25.46-1.25,1-4-1.63-4.54-2.77-.56-3.26,2.43-4.76,3.79-.94.84,0,2.15,1,2,2.09-.22,3,0,1.75,2.2-1.15,2.07-2.8,3-4.88,1.63-3.72-2.43-1.93-6.06-.8-8.67a4.85,4.85,0,0,1,6.29-1.67c4.45,2.14,11.08.05,13.49-3.62,1.22-1.85,2.13-3.72,1.12-6.09C1023.58,1289.17,1029.43,1290.34,1024.55,1294Zm30.42,3.64c-.87,2.27-4,2.29-3.8.08.13-1.69-.16-3.73.53-6C1054.94,1292.82,1055.93,1295.14,1055,1297.67Zm4.81-79.47a22.62,22.62,0,0,1,3.77-2.11,2,2,0,0,1,2.42,1.19c.42,1-.45,1.43-1.28,1.57-1.77.3-2.17,2-2.94,3.14-1.18-.7-2.37-1.07-3-1.87C1058.24,1219.48,1059,1218.64,1059.78,1218.2Zm6.87,13.26a10.85,10.85,0,0,1-1.87.64c-1.64.5-1.13,2.72-3,3.5a3.72,3.72,0,0,1,1.2-4.31c1.16-1.08,2.44-2.85,4.15-2.16S1067.76,1230.89,1066.65,1231.46Zm30.6,12c-.64,1.87-2,.22-2.85,0s-1.1-1.72-.47-2c2.27-1,3.73-5.65,7.51-1.41C1100,1241.37,1097.94,1241.41,1097.25,1243.44Zm29.72-4.91c-1.44,1.72-3.53,2.86-4.72,4.88-1.06-.66-3.12-1.59-2.31-2.51,1.32-1.49,2.46-3.71,4.71-3.92C1125.89,1237.22,1127.44,1238,1127,1238.53Zm18.64-22.15.73,1c-.3.09-.63.3-.89.24s-.34-.45-.5-.69Zm4,22c0,.75-.88,1.53-1.16,1.23-1.59-1.66-4.24-.41-5.54-1.93-.82-1,1.43-1.5,1.45-1.86.21-3.24,4.1-4.73,3.28-9C1153,1230.67,1149.85,1234.66,1149.58,1238.36Zm.49-19.2c-.1,1.37-.61,1.78-1.81,1.47-1.45-.38-1.12-1-.45-2.1a42.7,42.7,0,0,0,2.36-5.24l.95.2A50.43,50.43,0,0,0,1150.07,1219.16Zm8.93-19.87c-.89-.3-.39-1.7.32-2.52,2.83-3.29,6.22-3.7,10.41-1.83-2.17,2.61-5.36,3.06-7.25,5.52C1161.55,1201.66,1160.18,1199.69,1159,1199.29Zm10.54,12.74c-3.34.4-4.6,3-6,6-1.93-5.44.73-7.27,4.93-8.28.86-.21,1.52-.73,1.92.3C1170.74,1210.83,1170.43,1211.93,1169.54,1212Zm45.68,2.57c.19.39.37.78.56,1.16l-1.16-.54Zm5.68,24.14c-1.07.21-2-.21-1.86-1.6.26-2,1.88-2,3.37-2.21,1.15-.23,2.19.06,2.16,1.33C1224.51,1238.59,1222.43,1238.43,1220.9,1238.74Zm-5.5-14c-.9-1.18-2.94-.56-3.53-2.08s0-3.35,1.34-3.2c3.64.42,2.45-2,2.63-3.68,1.62.33,3.24.63,4.85,1,1.36.29,2.72.63,4.45,1C1222.1,1221.08,1216.55,1219.88,1215.4,1224.79Zm23.25,65.8c-2.83.6-3.83-2.72-5.43-5,2,.68,4.44-3.4,5.59.32C1239.2,1287.18,1240.66,1290.17,1238.65,1290.59Zm11.49,16.48c-1.38.35-2.64,1.37-4.21.59-.42-2.67,2.48-4.76,1.3-8.24a4,4,0,0,0,2.85,2.59c1.31.32,3.64-.51,3.57,1.48C1253.6,1305,1252.09,1306.57,1250.14,1307.07Zm3.7-27.12a46.38,46.38,0,0,0-3.91,3.59c-1.22-1.19-1.19-3,0-3.26,4.63-1.15,4.45-4.16,3-8.12C1258.61,1276.52,1258.58,1276.48,1253.84,1280Zm23.47,16.06c-1.37-.08-2.58-.75-1.83-2.11.86-1.57-.55-4.61,2.46-4.68,1.8,0,2.12,1.82,2.11,3.37C1280,1294.4,1279.46,1295.87,1277.31,1296Zm3.8-17c-1.69-1.35-.1-1.94.7-3,2-2.56,3.91-2.54,6.11.43C1284.78,1275.32,1284.81,1282,1281.11,1279Zm31.5,25.08c-2.69-.94-.88-4.48-3-6.08-.45-.34.69-1.15,1.2-1a5.2,5.2,0,0,1,3.46,5.24C1314.35,1303.12,1314.14,1304.62,1312.61,1304.08Zm24.34-27.6-.19.33-.14-.35Zm-4,29.83c-2-1.63-3.3-4.28-6.48-2.48-1.31.74-2.06-.44-2-1.89.06-1.74,1.07-1.8,2.38-1.43,1.56.44,3.11.85,4.8,1.3-.35-2.23-2.72-1.83-3.6-3.3,1.56-.66,2.83-3.4,4.51-2C1335.59,1299.15,1333.86,1302.64,1332.92,1306.31Zm4-25.46c-1.08.89-.43,3.05-2.27,3.17-.89-.4-2.15-1.13-1.57-1.58,1.2-.92.62-3.23,2.66-3.23C1336.82,1279.21,1337.39,1280.44,1336.9,1280.85Zm21.61-4.62c-3.71.26-5.25,3.32-7.47,6.14-.17-6.63,1.24-8.23,6.47-8.71.93-.09,1.54-.39,1.85.56S1359.45,1276.17,1358.51,1276.23Zm9.9,51.75c-1.89-.81-5.79,1.13-5.63-2.92.08-2.29,1.78-4.12,4.38-3.38,1.57.45,5.39-1.9,4.25,2.77C1371.73,1326.81,1370.83,1329,1368.41,1328Zm28.55-47.1c-2.27-.74-5-.11-6.83-2a2.51,2.51,0,0,1-.54-1.76c.06-.71.69-1.06,1.85-1,1.48,2.54,3.55,1.18,5.73.41.92-.32,1.3.74,1.25,1.66C1398.36,1279.39,1398.18,1281.28,1397,1280.88Zm9.39,36.29c-2.16-4.12-5-4.53-8.69-2.92.73-3.34,2.63-3.41,4.58-3,1.2.27,2.46,1.55,2.82-.8-2.2-.5-3.37-1.9-2.14-3.9.95-1.56,1.36-2.46-.39-3.54-.92-.57-1.42-1.46-.4-2.41s1.95-.29,2.74.19c4.31,2.59,3,5.82.92,9.09C1407.35,1311.87,1406.17,1314,1406.35,1317.17Zm1-25.65c-.07.75.33,2-.81,2a5.06,5.06,0,0,1-3.15-1c-.83-.71.39-1.3.82-1.9l3.64-5.2C1407.67,1288,1407.55,1289.76,1407.38,1291.52Zm15.12-28.41a12.26,12.26,0,0,1,6.77,1.5c-2.69,1-3.8,3.15-6.18,3.36-1.49.13-3.61,1.88-3.87-.69C1419.11,1266.15,1420,1263.4,1422.5,1263.11Zm-3,63.63c-1.09.35-1.83-.79-1.86-1.8-.06-1.66,1.44-1.47,2.54-1.77.82-.11,1.91-.12,1.84.94A3.35,3.35,0,0,1,1419.52,1326.74Zm9-42.8c-3.44.5-4.75,3-6.08,5.85-1.89-4.85.83-7.31,4.55-9.18,1.12-.56,2.34-.59,3,.75A1.72,1.72,0,0,1,1428.55,1283.94Zm14.4,51c-.67.19-1-.15-1.26-.72l1.51.36C1443.12,1334.74,1443.06,1335,1443,1335Zm-1.21-3.47c-1,.62.11,1.78-.12,2.69-2.26.16-4.88.13-4.48-2.92.35-2.68,2.93-2.88,5.44-3,5.17-.35,2.49,3.49,4,5.72C1444.07,1333.66,1444.17,1330,1441.74,1331.51Zm37-76.12c.44-1.43,1.12-4.24,3.69-3.91,2,.25,1.29,2.18.74,3.1-.81,1.34.54,2.57-.58,4.42C1481.25,1257.37,1477.92,1258.16,1478.78,1255.39Zm-5.13,19.35c.71-2.25,7.35-3.12,1.69-6.92a1.17,1.17,0,0,1,0-1.78,2.31,2.31,0,0,1,2.68-.55c3.89,1.29,4.38,6.31,1,11.26.12.34.24.69.35,1l-1-.38Zm4.79,5.64.39-.15c0,.19.07.39.11.58-.14,0-.31,0-.42-.09S1478.46,1280.5,1478.44,1280.38Zm.49,36c3.34-.81,6.66-3.69,10.49-.76C1485.72,1314.87,1483.45,1325.42,1478.93,1316.38Zm16.85-59c-1.07,3.59-5.42,4.9-8,2.33-1.29-1.32,0-1.94.79-2.72,2.91-2.66,2.9-2.67,2.21-6.19C1494.72,1251.55,1497,1253.2,1495.78,1257.34Zm.2-25.8c-.5-1.06-.56-2.64.42-3.23,2.45-1.47,5.12-2.57,7.25-3.6,1.83.41,3.59-.41,4,1.35.63,2.56-1.89,1.48-2.88,2.21a18.48,18.48,0,0,1-6,3.18C1497.79,1231.72,1496.86,1233.38,1496,1231.54Zm4.08,23.92c.8-2.22-2.58-6.12,2.79-6.52C1503.39,1251.69,1500.64,1253.15,1500.06,1255.46Zm2.84-6.55c1.09-.9-.23-4.4,3-2.88,1.24.58,3.06-3.37,3.45.42.24,2.19-1.71,2.52-3.48,2.54C1504.86,1249,1503.88,1248.94,1502.9,1248.91Zm12.7,71.85c-.86,1.41-1.91,3.08-4.28,2.66-1.53-.27-3.47-.19-2.86-2.24.75-2.49,3.64-.67,5.19-1.86C1514.75,1319.31,1516.1,1319.92,1515.6,1320.76Zm7.59-13.24c-.29.72-2.49,2.84-4.27.62a8.18,8.18,0,0,0-2-.07c-2.8.55-4-1.46-4.26-3.42-.33-2.2,2.27-2.2,3.59-3.16,1.49-1.08,2.78.68,4.29.25,1-.29,2.33-2.66,3-.29A10,10,0,0,1,1523.19,1307.52Zm3.2,6.41-.39-.44c.15,0,.3-.13.43-.1a6.13,6.13,0,0,1,.81.31Zm8.15,7.16a2,2,0,0,1-3,.7c-3.37-2.33-.31-4.84-.18-7.59C1535.43,1315.67,1535.66,1318.23,1534.54,1321.09Zm3.27-12c-1.9,2.5-5.27,1.83-7.27,3.64-1.43-.12-1.44-1-1.22-1.8.45-1.68,6.5-4.52,8.13-3.93C1538.91,1307.55,1538.54,1308.14,1537.81,1309.11Zm-1.91-7.75c-1.35-2.88-.47-5.63,1-5.19,4.14,1.24,3.41-8.25,8.69-3.26C1542.69,1295.92,1538.48,1297.29,1535.9,1301.36Zm14.54-34.15a27.14,27.14,0,0,0-2.67-5.64c.69.67,2.93.1,5.3.47C1552.54,1264.17,1550.38,1265.11,1550.44,1267.21Zm39.6-12.59c1.21-2.42-1.77-3.28-1.63-5.32C1592.86,1249.29,1593,1249.74,1590,1254.62ZM1577.23,1284c-2.8,1.83-1.24,3.46-.72,5.45a4.87,4.87,0,0,1-1.55,4.9c-1.49,1.27-2.23-.69-3.17-1.41a2.74,2.74,0,0,0-3.2-.31c-1.23.58-2.73.92-3.17-1-.32-1.38-.61-2.76,1.41-3.64,3.12-1.35,5.23-3.7,5-7.45-.37-.88-1.17-2,.24-2.48a4.3,4.3,0,0,1,4.46,1.45C1577.54,1280.74,1578.38,1283.29,1577.23,1284Zm7.7-14.77a3,3,0,0,0,1.25-3c-.1-1.91.19-4.16,2.62-4a3.93,3.93,0,0,1,3.49,4c0,3.52-1,5.78-3.27,7.21-1.87,1.17-3.73-.16-5.06-1.07C1582.44,1271.34,1583.82,1270,1584.93,1269.27Zm4.56,40.41c-1.36.17-1.83-.94-2-1.8-.37-2.72,2.44-1.4,3.53-2.51,1.29-1.32,1.14.9,2,1C1592.89,1308.87,1588.83,1306.65,1589.49,1309.68Zm41.16-77.32c-.54-.7-.24-2.1.44-2.07,2.21.1,1.54-3.44,3.69-2.81,1.14.33,2.9,0,3.32,1.61s-1.48,1.33-2.17,2.05c-1,1-1.75,2.18-2.78,3.5A19.84,19.84,0,0,1,1630.65,1232.36Zm8.65,11.2c-.32,1.25-1.55.92-2.42,1.25-1,.38-2,.92-3.3,1.53-.33-2.18,1.3-2.6,2.08-3.55a2.63,2.63,0,0,1,3.18-.44A1.35,1.35,0,0,1,1639.3,1243.56Zm55.69-102c2.2-.25,2.45,1,2.3,2.73l.48.48c.77.09,2.23-.17,2,.66-.39,1.74-2.15.93-3.31,1-2.12,0-2.7-1.51-2.89-3.27C1693.52,1142.17,1694,1141.7,1695,1141.58Zm-7.44,15.69c.76-.28.69.39.92.92-.19.27-.43.59-.67.91-.35-.29-.83-.51-1-.89C1686.49,1157.57,1687.13,1157.43,1687.55,1157.27Zm1,30.52c2.74.19-1.27,3.56,2.43,3.27-1.83,1.52-.67,4.28-3,4.11a5.06,5.06,0,0,1-4-2.48C1686.59,1192.1,1685.11,1187.56,1688.56,1187.79Zm-12.31,25.71a39,39,0,0,1,4.06-2.52c2.33-1.13,2.53-2.31.63-4.08-.75-.71-2.49-1.1-1.78-2.56.35-.71,1.63-.95,2.49-1.41.8,1.54,3.59.57,3.69,2.55s1.67,3.91,0,6.19a8.87,8.87,0,0,0-1.37,6.88c-3.61-.33-3-4.67-3.23-4.34C1678.82,1217.55,1677.74,1212.9,1676.25,1213.5Zm2.64,48.74c4-.74,8.26-3.49,13.83-.09C1687.3,1262.75,1683.32,1271.7,1678.89,1262.24Zm13.82-45.07c.07.75.8,1.46.09,2.27-2,0-2.58-2-4-2.79-.92-.49-1.08-1.57.24-1.6,2.28-.07,1.74-.81,1.13-2.33a2.13,2.13,0,0,1,1.62-2.67c1.23-.16,2.67-.83,3.78.36.43.47.77,1.15.07,1.7C1692.66,1214.43,1692.47,1214.66,1692.71,1217.17Zm5.87,22.73c-.12,1.42-.67,2.36-2.11,1.19a2.24,2.24,0,0,1-.66-3.1c1.16-1.49,3.18-1.35,4.84-1.74.3-.07,1.48,1.54,1.41,2.3C1701.85,1241,1699.75,1239.38,1698.58,1239.9Zm4.48-43c-1.55,1.43-3.27,4.51-6.09,1.63-1.21-1.23-2.5.1-4-.57.92-3.38,5.22-4.59,5.46-8.28.57-.86,0-2.62,1.69-2.55,2.14.09,3.06,1.56,3.28,3.56C1705.75,1192.87,1704.89,1195.22,1703.06,1196.89Zm13.81,87.16c-1.39,2.59-3.21,2.33-5.39,1.21-.89-.47-2-.66-1.79-2a2.12,2.12,0,0,1,2-1.85,17.14,17.14,0,0,1,7.22.4A5,5,0,0,0,1716.87,1284.05Zm.26-118.42c-.58-5.43-4.81,1.37-6.35-2.4-.34-.84-1,.65-1.31,1.27-.51,1-1,2.62-2.37,1.4-.95-.85-.93-3.39,0-3.6,3.86-.91,6.61-5.18,11.3-3.62,1.44.48,2.46.75,2.39,2.5C1720.66,1163.38,1718.82,1164,1717.13,1165.63Zm7.51,124.23c-2.41-.1-1.38-1.94-1.33-3.38a13.41,13.41,0,0,0,0-2.76,29.31,29.31,0,0,1,2.73,1.77c2.88,2.13,3.84,4.61,6.1,8.55C1728.87,1292,1727.33,1290,1724.64,1289.86Zm22,5.18c-2.41,2.62-4.81.14-7.82.08,2.39-3.5,5-2.58,7.49-1.79A1.92,1.92,0,0,1,1746.65,1295Zm37.23-48.68c1.32-.41,1.72.51,2,1.54-.87,0-1.76,1.35-2.57.06A1,1,0,0,1,1783.88,1246.36Zm-1.22,9.79c5.9-.88,4-4.76,3.26-8.16a12.91,12.91,0,0,1,.95,1c1.28,1.63,4.21,3.16,3.32,5-1.15,2.34-5,2.22-6.81,4.51-.06.07-1.07-.34-1.08-.56C1782.26,1257.33,1782.44,1256.18,1782.66,1256.15Zm-2.93,37.84c-6.81.31-13.64.41-20.43,1-3.7.34-5.35-.43-4.41-4.37.19-.8-.15-1.83.23-2.45.78-1.26-.39-3.74,1.33-3.81a5.68,5.68,0,0,1,4.42,2.73c.71,1.09,1.24,2.31,2,3.33,3.17,4.06,5.47,1.56,7.71-1.12,1.38-1.88-4.09-3.93-.35-5,2.12-.63,2.79,2.92,3.42,5a2.64,2.64,0,0,1-.12,1l0,0c1.56-.38,3.22-.15,4.72-1.07,1.17-.71,3.3-2,3.79-.49S1783.1,1293.47,1779.73,1294Zm6.59-7.5q-.83-4.4-1.66-8.89c-5.47,2.65-5.47,2.65-6.12-5.2,2.13.62,3.06,5.76,5.56.94.1-.19,1.9-1.09,2.08,1.14.3,3.78,2.65,6.73,5.43,9.67Zm30.25-7.34c-.48,1.77-1.88,3.22-2,5.3-.08,1.2-1.88,2.14-2.68,1.45-1.95-1.67-5.28.67-6.48-2.45-.29-.76-.2-2.24.7-1.84,5.06,2.26,4.58-2.23,5.87-4.56l0-.07c.42-1.24-1.67-2.48-.13-3.63,1.16-.86,2.34,0,3.14.76A5.21,5.21,0,0,1,1816.57,1279.15Zm2.36-13.64c-.27,1,.07,2.71-1.86,1.7-1.17-.6-2.13-1.32-1.1-3.06s3.32-2.55,4.67-4.58C1820.07,1261.55,1819.47,1263.52,1818.93,1265.51Zm5.29,4.59c-2.06-.79-3.13-1.69-.58-3.14a2.33,2.33,0,0,0,1.31-2.41c0-1.84.57-3.8,2.62-3.38,2.28.46,2.43,2.83,2.48,4.45C1829.63,1269.41,1827,1271.17,1824.22,1270.1Zm16.82-8.46c-4.2-.63-5.72,2.79-8,5.63-1.18-2.85,1.87-4.67.55-7-.33-.57.64-.77,1.33-.33,2.33,1.49,4.48-2.94,6.8-.27C1842.24,1260.32,1841.71,1261.75,1841,1261.64Zm.94-18c-.11.66-7.6,4.74-7.81,4.3-.58-1.28-3.66-.68-2.51-2.86,1.42-2.71,4.26-3.63,7.15-3.64,1.07,0,2.76,0,3.2,1.65A4.22,4.22,0,0,1,1842,1243.65Zm32.29,25.39a.9.9,0,0,1,.24.12s0,.17.06.25Zm-.1-.07c-3.33.4-3.31-1-2.2-3.61.64-1.48,2.38-2,2-4.42C1876.5,1264.2,1873.47,1266.5,1874.17,1269Zm10.74,2.24a4.36,4.36,0,0,1-5.52,0c-2-1.5,0-2.43,1-3.34a2.35,2.35,0,0,0,.69-2.23c-.19-2.22.51-4.53,2.95-4,2.14.42,2.45,3.12,2.92,4.63C1886.21,1268.28,1886.4,1270.07,1884.91,1271.21Zm13-10.45c-3.47.29-5.4,2.08-6.11,5.43-.18.85-.91,1.56-1.83,1.1s-.66-1.39-.37-2.77c-1.14-5.26,3.14-5.82,7.09-6.79,1-.24,2-.68,2.36.71C1899.4,1259.5,1899.16,1260.66,1898,1260.76Zm-9.46-15.56c-.83.43-1.74.56-2-.43a3.09,3.09,0,0,1,.29-2.31c2.45-3.62,8.12-4.54,13.48-1.86A56.9,56.9,0,0,0,1888.5,1245.2Zm52.33-29.47c1.83.6-1.7,3.36.23,5-1.67,1.45-2.81-.24-5.2-.83C1938.83,1219.08,1937.65,1214.69,1940.83,1215.73Zm-4.31-26.22c.09,0,.38.34.58.53-.2.18-.4.36-.59.55l-.77-.41A3.47,3.47,0,0,1,1936.52,1189.51Zm-.31,54.9c-1.89-.36-.38-2-.57-2.88-.58-2.66-2-5,1.14-7.11.81-.53-.49-1.25-1-1.8-.8-.8-3-1.07-1.59-2.85s3.26-.38,4.38.43c1.46,1.07,1.65,3.09,1.72,4.18-.53,2.9-1.63,4.85-1.19,7.31A2.57,2.57,0,0,1,1936.21,1244.41Zm1,35.35c4.93-1.63,8.81-5.72,13.62-1.32C1943.92,1284,1943.92,1284,1937.21,1279.76Zm14.18-55.85c-1.71,1.37-3.72,0-4.93-1-1.87-1.61.19-2.4,1.33-3.27.8-.61,1.63-1.37,1.11-2.5-.89-1.93-1.1-3.89,1.38-4.3s2.94,2.23,4,3.82c.31.5.17,1.28.36,3.16C1954.93,1221.2,1953,1222.62,1951.39,1223.91Zm5.13-31.66a2.57,2.57,0,0,1-2,2.42c-1.29-.17-1.6-1.11-1.66-2.12-.09-1.63,1.12-1.77,2.33-1.83C1956.2,1190.67,1956.63,1191.3,1956.52,1192.25Zm9.42,18.85c-4.47.42-6.16,3.58-7.53,7.38-1-5.62,1.14-8.51,6.21-10,1.24-.37,2-1.19,2.58.36A1.58,1.58,0,0,1,1965.94,1211.1Zm-4.66-18.53c-1.21.06-2.9,1.07-3.59-.43a6.41,6.41,0,0,1,0-3.85c.52-2.23,2.09-.6,3.2-.65a14.91,14.91,0,0,1,7.15,1.43C1964.93,1190,1963.72,1192.45,1961.28,1192.57Zm78.21,8.51c-1.88.68-2.9-2-4.52-3.4,2-1.25,4.22-.24,5.74-3.27C2040.37,1197.51,2041.8,1200.24,2039.49,1201.08Z"/></svg>
