<svg xmlns="http://www.w3.org/2000/svg" width="1920" height="1400" viewBox="0 0 1920 1400"><path d="M1914.81,835.15c-2.69-2,3.59-9.86-2-9.87-2.69.19-3.37-6.72-6.85-4.76,5.53-9.44-1.49-11-6.59-16.68-1.73-2.81-7.74,1.76-8,6.52-.33,6.93-4.32,9.85-5.24,15.84-1.45,2.84-4-2-5.24-2.71-3.69-2,.86-5.25-.91-8-4.09-5.81-10.1-10.51-11.92.39-.51,4.29-3.94,4.43-4.53,9.16,1.73-8.92-6.8-8.17-3.69-13.42,1.85-3.08,3.17-6-.42-8.27a1.61,1.61,0,0,1-.54-.85c-1.79-10.88-8.48-10.41-6.06-13.17,1-1.14.69-2.55.42-4s-7.67-8.77-8.53-7.81c-5.7,3.4-4.94,10.3-7.83,16.09-5.32,8.28-1.3,12-4.61,16-2.59,1.28.37-4.12-6-5,.28-2.39,2.61-2.92,1.77-6.58-1.44-6.43-7.15-4-6.26-11.56.19-2.82.1-5.42-1.85-6.65a1.75,1.75,0,0,1-.8-2.28c1.6-3,0-5.58,0-8,0-4.3-1.66-4.31-2.75-6-.88-1.32-2-1.61-1.78-4.93.34-4.34-5.67-7.2-8.3-4.21a3.15,3.15,0,0,1-1.09,2.53c-.14.77-.29,1.55-.43,2.32,1.8,3.1-3,6.91-3.11,11.29-.49,2-.92,3-2.1,1.83-3-3.7,2.21-5.42,1.88-9.49-1-5-2-9.91-5.25-12.37-.59-.45.3-1.16.47-1.76,1.75-4.83-3.3-7.85-5.57-10.32-4.28-.93-5.58,9.81-8.31,12-3,4.92-3.47,11.76-4.79,17.86-.93,4.26-3.57,7.86-2,13.65-2.49-3-4.93-4.7-7-7.65-1.8-2.58-8.1,2.57-8.65,7.38-.8,6.92-5.52,8.11-6.67,14.14-1.43-1.34-3.94,1.22-4.35-1-.82-4.64-3-4.22-5.15-5.46,6.28-10.61-1-10.77-6.37-18-1.64-2.83-7.81,1.5-8.51,6.26-1,10.22-8.31,14.37-9.11,23.11-1-1.47-2.27-1.55-2-4.76.34-3.93-5.67-6.51-8.31-3.81a4,4,0,0,1-.3,1.34c-1.66-4.75-5.08-7.67-5.52-13.74-.24-3.48-5.43-7.32-6.76-5.45-2.55,3.77-8.41,3.92-7.72,9.12-1.12,2.34-2.66,4.09-3.89,6.24-1.66-3.93-3.91-4.7-7.05-1.45-1.19,1.23-2.59,1.74-1.91,4.52a1.2,1.2,0,1,1-2.08,1.18c-.53-2.45-2.81-8.72-5.37-6.86-2,1.71-5.88,1.68-5.62,6.23.67,6.86-4.25,4.89-4.49,9.56,0,13-11.41-4.55-16.6-3.86-4.11-.83-7.29-5.34-8-9.19-1.65-8.82-4.6-9.46-9.31-7.08-.42.22-1-.51-1.47-.29-3.66,1.94-9.39-3.23-10.37,7.23-2.64-2.09-2.64-2.09-5.5-.84-8.59,4.27-9.4-2-12-11.38-.47,2.08.1,4.08-.71,5.7-1.21-.55-1.1-3.42-2.8-3.33.06,3,2.34,6.88-1.59,8.08s-7.22-3.19-8.11,4.06c-3.55,18.13-14.43-1.91-21.62,8.53-1,1.4-2.27,2.86-3.52,3.12-3.72.78-7.54,4.09-11.25,3.76v-.87c-2.58,1.29-8.8,1.29-6.51,5.54.39.8.92,1-.37,1.36-3.66,1.07-4.36,1.8-6.48,5.61-1.58,1.28-4.9,1.54-2.43,4.3.9,1,.22,2.27-.44,3.11-1,1.27-1.64-.32-2.47-.52-1.44-.35-2.39-2.36-4-1.59-1.89,1.37-5.67,2.57-6,5.07,2.24,4.08-3,3.79-4.05,5.84,1.54,2.78-3.95,6.33,1.43,8.35a2.54,2.54,0,0,1-2.59.31c-1.73-.32-6.59,2.64-6.14,3.79,1.8,4-3.36,3.44-3.58,6,1.09,2-2.48,4.66,1,6.24-2.32,5.64-3.52,8.37,1.54,11.92-2,1.25-4.12,2.49-3,5.39-7.57,3.14-8.58,12.64-19.59,15.3-.79.27-1.48,1.25-2.36.49-6.58-6.24-17.71,9.52-7.94,13.88,3.62,3.66-2.56,8.73-2.86,12.69-.83,5-5,6.93-8,10-1.46,1.49-4.73.72-4.74,4,0,2.87-1.84,3.63-4.46,3.74-8.77-.37-3.42,6.74-12,6.59-1.87.21-1.1-2.09-1.71-3.16-5.57-10.9-8.23-9.77-14.17,0-.54.56-2.12,2.2-.6,4.21,1,1.31-1.53,2.69-2.27,4.16-.53,1.06-1.59-.45-2.32-1-5.31-4.15-14.44-.83-15.23,5.76-.54,4.44-2.79,7.37-6.3,9.77-1.19-3.76-4.57-5.81-6.42-9a2.34,2.34,0,0,0-3.61-.6,1.27,1.27,0,0,1-2,0c-2.1-1.8-4-1.35-5.94.43-2.64,2.14-13.81,2.16-10.06,7.77,0,0-.4.72-.57.7-1.76-.24-3,1.51-3.56,2.17-6.42,7,2,8.72-3.45,11.48a1.34,1.34,0,0,0-.71,1.9c.76,1.57-.58,2.89-.35,4.59.3,2.23-2.3,2.08-4.11,2.66-4.64,1.5-7.18,6.3-11.75,8.13-.73.28-.75,1.25-.75,2,.52,7.29-5.64,4.76-5,9.18.14.57-1.17.45-1.55.16-4-3-5.89,1.68-8.86,2.38a1.5,1.5,0,0,0-.71,2c2.09,2.49-.43,3.06-1.63,4.11-1.43,1.26-4.47,1.65-2.31,4.7-1.12,1.53-3.61,2.82-.83,4.59,2,1.47,1.23,2.55-.5,3.62-3.25,2-2.9-1.33-3.55-2.55-1.55-2.94-6.73-5.75-8.27-3.9-3.62,3.68-12.38,5.28-4.49,11-4.79-1.45-4.74,4-8.51,3.53-3.17,3,4.76,3.44-2.61,7.47-1-3.5-4.21-5.41-5.36-8.78-.35-1-2.3-2.65-3.7-1.73-1.7,1.1-5.07,1.1-4.85,3.48.06,3.44-3.09,3.58-4.16,6.22-1-2.41-4.17-3.46-4.61-6.1-.69-3.71-4.56-4.31-7.32-3.12-2.23-3.41-11.63,1.69-10.45,4.93-2.57-.78-4.69,1.36-7.07,2.37-3,1.31-1,3-.23,5-4-1.35-3.62-4.35-4.59-6.57-2.1-4.16-6.47-7.25-9.16-10.76-3.29-2.56-5.29.46-7.77,1.45-3.09,1.25-3.53,2.91-.84,5.1-1.3.31-2.59,1.24-3.4-.2a27.1,27.1,0,0,0-9.62-10.18c-2.82-3.6-.78-8.28-4.38-12.06-2.07-2.06-4.42-4.55-4.88-8-.29-2.12-5.56-3.88-6.94-2.64s-2.89,1.28-4.29,1.93c-3.78,1.75-4.18,2.65-1.58,6.3-3.59-1.28-4.59,2.79-7.74,2.33-1.83,2,2.43,3.64-2,5.29a1.41,1.41,0,0,0-.69,2.31c1.31,1.32-1.14,2.85.45,4.07,0,.06-.36.87-.73.79-2.87-2.08-2.57-7.92-6.65-8a3.8,3.8,0,0,0-4.49-1.87c-2,.88-6,1.41-5.35,3.92.65,3.1-1.84,3.13-3.08,4.34-2.91-1.65-5.2,1.07-7.79,2.31-3,1.44-1,3.31-.23,5.57a7.71,7.71,0,0,1-1.15-.56,9.58,9.58,0,0,0-2.79-4.4c-1.15-5.89-6.73-9.66-9.8-14.22-3.29-2.82-5.28.52-7.75,1.62-3.1,1.37-3.53,3.21-.84,5.63-1.3.34-2.59,1.38-3.4-.22a28.9,28.9,0,0,0-9.62-11.26c-2.81-4-.77-9.16-4.37-13.33-2.07-2.28-4.41-5-4.87-8.82-.29-2.36-5.55-4.29-6.93-2.93s-2.88,1.43-4.28,2.14c-3.78,2-4.17,2.93-1.58,7-3.59-1.42-4.59,3.08-7.73,2.58-.13,0-.78,1.28-.59,1.58,3.12,4.11-4.06,3.51-2.13,6.83,1.3,1.45-1.14,3.14.44,4.49,0,.49-.84,1.3-1.37.6-1-3.3-4.69-4.69-5.76-8-.74-2.26-3.17-3.36-4.73-2.61-9.51,2.64-2,5.57-7.64,8.52a3.09,3.09,0,0,0-1.32,1.46c-6.67-7.41-5.86-11.64-16.33-4.91-4.24-4.32-7.57-.28-11.41,1.46-3-3.22-1.69-7.74-4-11.19-3-3-6.74-5.44-7.91-9.77-.69-2.56-6.81-4.9-8.43-3.38-3.59,3.21-13.09,3.82-6.31,9.75-2.09.67-4.3.44-5.11,3-.4,1.23-2.89-.17-4.3.56-1.15-3.25-5.82-3.89-6.61-7.63-.55-2.6-6.79-5.38-8.58-4-2,1.59-4.47,2.5-6.76,4,1.27-3-1.2-5-2.12-7.26-1.37-6.68-4.95-9.3-9-14.28-2.71-3.95-7.74-.5-9.83,2.15-.21.41.06,1.1.3,1.58.17.32,1.05.71.47,1-3.22,1.33-4.2,4-5.2,6.67-.49,2.14,4.85,3,1.86,5.13-2.69,1.19-2.61-4.43-5.27-5.34-.74-.47-.48-1.18.11-1.74-.14-.42-.29-.84-.43-1.25a1.58,1.58,0,0,1-1.08-1.37c-2.61-1.61-8.56-.07-8.22,2.27.26,1.92-1.07,2-2,2.85-1-5.56-8-7.69-9-13.81-.7-2.83-6.8-5.42-8.43-3.73-3.87,3.7-13,4.22-6.3,10.78-2.09.74-4.29.49-5.1,3.26-.4,1.35-2.89-.18-4.3.62-1.14-3.6-5.81-4.31-6.6-8.44-.55-2.87-6.79-5.94-8.56-4.41-2.05,1.77-4.47,2.76-6.93,4.57,1.59-3.46-1-5.61-1.95-8.15-1.19-7-5-10.41-9-15.81-.61-1.37-3.22-2.58-4-2-2,1.53-7.07,2.71-5.51,6.16.16.36,1,.78.46,1-3.22,1.47-4.19,4.42-5.2,7.38-.35,1.84,1.6,2,2.27,3.1,1.61,2-1.84,4.34-2.49,1.48-.74-1.76-1.49-3.6-3.19-4.81-.73-.53-.47-1.32.12-1.93l-.43-1.39a1.69,1.69,0,0,1-1.07-1.51c-2.61-1.78-8.56-.07-8.22,2.52.26,2-.89,2.15-1.76,2.94-1.09,1-2.68,1-2.73,3.56,0,1.47-1.59,3,0,4.8.53.62-.2,1.14-.8,1.37-1.92.73-2,2.28-1.83,4,.75,4.66-5,3.15-6.19,6.9-.83,2.18,1.47,2.5,1.75,3.93-5.91.29-3.53,3.68-5.95,3a2.57,2.57,0,0,1-1.46-2.84c.74-3.06-1.88-4.71-3.11-6.7-3.17-4.15-2.26-7.67-7.75-9.61-1.52,0-11.35,4.25-8,7,2.38,1.65-4.16,1.34-6,7.87-3.35,2-3.6,2.87-1,5.44,3.1,3.19-5.24,2.5-3.66,8-.57-2.82-4-2.91-4.48-5.47-1.93-6.84-8.12-3.32-11.79-.23-1.71,1.89,2.77,3.57-.91,4.74-1.27.42-3.75,3.35-5.18,1.62-.91-3.57-4.86-5.32-5.19-9.46-.22-2.84-6.16-5.57-7.87-3.89-3.75,3-12.36,3.86-6.53,10-3.44-1.17-4.11,3-6.77,2.84s-2.63,1.31-2,3.11c.31,1,1.72,1.91,0,2.79s-2.31-.34-3.1-1.65c-5.3-7.73-9.89,4.2-13.08-.3-1.49-2-3.85-3.56-4.32-6.24s-2.77-4.35-4.57-4.18c-2.28.28-9.3,2.72-6.84,6,1,.77.34.67-.23,1.29-1.61,1.74-6.38.73-4.84,5.35a11.87,11.87,0,0,0-1.37.22c-2.18-8.21-12.08-5.43-11.41,1.43.39,1.48-.7,1-1.19,1.17a7.75,7.75,0,0,0-2.88,2.24c-1.12-3.28-4.61-5.41-6.22-8.51-.92-1.27-3-4.14-5.82-1.35a1.3,1.3,0,0,1-2.32-.49c-.64-3.57-4.82-4.71-6.32-7.75-.42-.84-2.56-3.18-4.8-.84-1.32,1.39-2.54.5-2.54-.81-.25-4.5-5.1-6.7-6.23-11-1.22-3.41-6.42-1.73-9.26-.59-3.33.87-3.23,2.58-1.42,4.71-3.5.95-4.92,2.14-5.68,4.79-3.16,2.1-9.38,4.38-4.83,8.57a8,8,0,0,0-1.29.59c-7.75-6.31-6.17-15.77-10.28-23.48-1.75-2.58-4.87-4.37-5.27-7.84-.24-2.08-5.44-4.39-6.77-3.27-1.65,1.39-3.65,1.87-5.58,2.54s-2.63,2.7-1.91,3.49c2.46,2.57-1.62,1.58-3.35,4.51-1.72-3.46-4.16-4.49-7.84-2.2-1.19.73-2.6,1-1.92,2.7.18.46.32.84-.36,1-2.71,1.11-2.85-5.91-7.1-4.42-2.17,1-6.2,1.08-5.6,4.11-2.29-1.34-3.5-6.6-6.66-5.56-4.11,3.8-3.66.41-4-2.2-1.32-3.52-4.84-5.68-5.84-9.58-.79-2.77-4.21-3.44-7-1.92-3.17,1.16-7.11,2.26-4.06,5.85-1.59,2.39-7.17.81-5.66,6.17-3.42-.45-7.9,1.12-11.79.6-1.72-5.63-1.65-11.92-4.4-17-1.67-2.92-4.87-4.83-5.26-8.67-.24-2.31-5.43-4.86-6.76-3.61-1.65,1.53-3.65,2.06-5.57,2.8s-2.63,3-1.91,3.87c2.45,2.83-1.6,1.72-3.34,5-1.72-3.85-4.17-4.95-7.84-2.44-1.19.81-2.59,1.15-1.91,3,.19.52.31.94-.36,1.13-2.67,1.26-2.82-6.52-7.09-4.89-9.71,2.46-2.32,5.59-8.59,8.5-1,.52-1.6.62-1.52,2-.25,8.74-12-3.41-16.6-2.55-10.55-.92-6.45-15.32-17.32-10.78-.42.14-1-.34-1.47-.19-3.66,1.28-9.39-2.14-10.37,4.78-2.64-1.38-2.64-1.38-5.5-.55-8.16,2.76-9.35-.93-12-7.54-.47,1.38.1,2.7-.71,3.78-1.21-.37-1.1-2.27-2.8-2.21,1.64,4.83,0,6-5.27,5.29-6.94-1.85-2.38,11.28-14.61,7.48-7.75-3.08-8.57-.37-15,3-5.76.8-11.77,5.63-17.24-.75-.25-.29-.94-.3-1.42-.27-1.78.25-12.77.54-9.43,3.93,1.92,1.74.55,2.15-.93,2.67-11.54,4-21.25,12.36-33.66,13.95-1.58.29-3.53.85-4.44-.95s-3-2.91-3.51-5.21c-.38-1.62-2.66-3.21-4-2.44-1.9,1.07-5.58,1.06-5.29,3.95.27,2.56-1.38,2.94-2.54,3.93-.56.48-1.81.26-1.84,1.42.21,2.53-3.79,1.65-3.73-.15-.1-3.69-7.71-17.33-11.81-15.22-3.52,1.1-4.79,3-4.45,5.6.23,1.73-2.17,1.29-2.6,2.76-.16.52-1.46,0-1.51-.47-.41-3.95-4.4-5.57-5.67-9-.69-1.86-3.55-3.29-4.23-2.49-1.57,1.87-6.26,1.14-4.95,5.27.94,3.95-6.72-1.63-8.41,6.9-4.34,1.64-6.54,3.92-8.11-1.71a11.86,11.86,0,0,1-.93-4.13c-.67-6.34-8.59-8.53-10.05-14.4-1.14-2.48-7.12-7.1-10.1-5.21-2.71,3.16-7.83,2.72-10.52,5.88-1.91,1.36-3-2.39-3.48-3.73-1.49-4.49-6.63-3.32-10.18-1.78-3.77,1.36-4.15,2.35-2.1,5.68-1.21-.21-2.83,1.25-3.36-.91-1-4.29-1.91-8.63-3.23-12.85-.8-2.54,0-5.29-2.56-7.79-1.38-1.35-3.67-3-4-5.36-.52-4-4.19-5.76-7.33-7.38-13.06-4.49-6.94-24-15.89-25.53-9.29.75-2.64,3.87-8,5-6.86,2.15-5.26-2.74-8.69-5.58-3.54-1.3-2-7.14-6.2-7.27-1,0-29.34-1.2-63-2.53-2.89-5.18-1.72-20.21-8.57-21.26-1.9.64-5.57.07-5.5,2.74.07,2.51-1.37,2.38-2.48,2.74-4,1.29-5.86.19-7-3.82a3.14,3.14,0,0,0-1.69-2.36c-3.48-1.39-2-7.91-6.19-8-2.22.26-7.08,1.28-7.83,3.8-.4.76,1.73,1.88-.18,2.25-1.74.33-1.87-1-1.92-2.44-.17-5-2.35-9.32-4.57-13.62-1.08-3-4.88-1.64-6.52-3.62C13,826.25,3,828.8,0,829.08V1231H1.72v0H1920V829C1918,829.76,1917.62,837.53,1914.81,835.15Zm-1900.74,26c-1.44-2.2-4.81-.78-4.85-4.27,0-1.39.27-2,1.54-2.37,3.78-.67.31,2.71,4,2.8C14.59,858.34,14.39,859.41,14.07,861.13Zm4.66,1c-.3,1.11-.94.42-1.36.21-3.05-1,2.63-5.37-1.79-5.18C18.22,854.22,19.9,860.07,18.73,862.13Zm734.92,141.72c-1.12,1.46-2.36.18-3.76-1,3.37.89,2.88-1.62,3.09-3.79C755.06,1000.88,754.61,1002.62,753.65,1003.85Zm78.22-9.5c-3.9.4-1.85-4.32.8-4.74.45-.13,1.27,1,2.27,1.83C832.84,991.64,833.6,994.26,831.87,994.35Zm3.25-.65s0-.14-.07-.22l.43.13A1.66,1.66,0,0,1,835.12,993.7Zm80.07-7.35c-.34-.93-.53-2.09-1.27-2.69.19-.74-.49-1.54-.9-2.27a2.5,2.5,0,0,1,3.34,1.35C917.17,984.2,915.46,985.06,915.19,986.35Zm1.13-8.19c-1.27.23-1.63-1.18-.72-1.92C916.9,975.9,917.23,977.84,916.32,978.16Zm7.59-2.06c-1.41,1.38-2.58,3.06-4.52,3.42-1.1-.11-1.81-.5-1.23-1.43s-.24-3.29,1.67-2.66c1.51.51,2,1,2.65-.85.13-.41,2.33-1.77,3.19-.27S924.52,975.49,923.91,976.1Zm86.92,28.88c-.89,1.3-4.17-.59-2.25-1.58,1.66-1,.52-1.88-.17-3.11C1012.43,1001.17,1013,1002.56,1010.83,1005Zm1.12-7.41c-3,.37-.24-3.42.33-.93C1012.23,997,1012.38,997.47,1012,997.57Zm7.55-1.87c-.88,1.29-6.71,5.39-5.75,1.6.53-.79-.21-3,1.81-2.08,1.73.83,1.77.61,2.34-.79C1019.2,992.45,1024,994.3,1019.5,995.7Zm17.55,12.18a4.89,4.89,0,0,1-.2-.48c.13.16.26.32.39.51Zm87.42,24.09a1.34,1.34,0,0,0-.78,1.48c-4.64,4.38-6.7-3.91-1.77-2,.85.56,1.84-.57,2.8.33Zm608.29-231.11-.33.17c.42-1.13,1.14-1.21,1.79-.91A13.35,13.35,0,0,1,1732.76,800.86Zm10.11,4.18a3.34,3.34,0,0,1,.23.76C1743,805.56,1743,805.29,1742.87,805Zm81,28.54c-.09,0-.18-.06-.36-.14l.43-.22C1823.93,833.35,1823.91,833.58,1823.88,833.58Zm3.29,1.1c-1.75-.15-1-4.55-3.1-4.88,1-1.4,1.84-3.28,2.29-3.06C1828.63,827.17,1831.46,835.07,1827.17,834.68Zm79,15.91a7.88,7.88,0,0,1,.68-8.09c.22,3.64-.28,7.84,3.12,6.36C1908.59,850.88,1907.34,853,1906.2,850.59Z" fill="#7D7D7D"/></svg>
