<svg xmlns="http://www.w3.org/2000/svg" width="1920" height="1400" viewBox="0 0 1920 1400"><path d="M1905.75,846.19c-17-2.32-34.35,15.39-49.41,5.14-4.78-3.84-22.06-24.54-26.93-21.76-21.2,10.92-15.56,3.09-32.22-6.57-29.74-20.09-38.4-61.29-64.34-85.25-13.6-4.55-16.45,17.61-23.16,25.49-5.77,9.3-12.26,18-18.07,27.27-27.89,38.83-24,104.43-73.62,124.71-17.24,11.83-13.5,14.61-30.44-.48h0l-44.48-66.39h0c-17.62-4.91-35.92-.83-52.71,5.3h0c-21.31,7.79-32.41-17.87-49.74-24.12-11.37,1.43-21.1,9.31-33.23,7.67-21.25-1.13-47.55,19.69-66.52,12.51a212.75,212.75,0,0,1-19.19-19.5c-7.35-6.91-12.9-23.1-22-26.2-36.9,5.12-69,32-107,33.85-18.88-6.36-31.68-24.9-51.28-30.06-16.79,0-32.8,8.62-49.69,2.26-51.64-16.86-70.77-67.18-92-112.28-8.55-11.52-9.2-26.17-14.17-39.23-9-21.18-42.66-20.65-62.3-22.59-27.14-4.42-37.44-33.27-56.14-49.93-12-11.86-25.55-22.13-37.06-34.56-3.18-3.43-3.3-3.31-6.56.51-38.76,33.21-68.69,77-101,115.69-3.5,19.84-21.2,33.36-22.71,53.74-1,15.78-.47,23.07-16.06,30.55-18.82,10.49-38.45,19.4-56.15,31.84-8.28,5.12-17.28,9.06-24.76,15.54-6.71,5.82-13.75,11.5-22.1,14.71-31.84,12-61.18,29.84-82,57.09C478.26,889.48,459.55,909.33,437,925c-7.05.7-20.76-11.15-26-16.38-2.65-3.38-8.87-6.78-12.75-2.93-8.27,5.83-16.59,11.59-24.65,17.7-6.11,5.33-12.08-2.29-17.93-4.42-6.37-5.92-15.81-7.58-23.15-11.94-25.13-17.13-35.18-49.44-45.94-76.57-11-33.57-38.67-56.86-55.22-87.27-21.5-30.68-60.23,72.24-88.95,79.77-19.57,10.14-13.35,17.25-37.36,6.57-1-.37-2.26-1.48-3.34,0-10.44,5.77-18.81,14.19-27.88,21.71-18.63,11.49-44.64-13.25-73.82-3v377.52c638.68,1.41,1280.88,1.41,1920,0V848.35C1915.28,847.35,1910.68,845.35,1905.75,846.19Z" fill="#BDBDBD"/></svg>
