<svg xmlns="http://www.w3.org/2000/svg" width="1920" height="1400" viewBox="0 0 1920 1400"><path d="M131.56,867.26a2.16,2.16,0,0,0-1.18-2.06,2.89,2.89,0,0,1-.86-1.34c-.73-1.65-1.27-3.39-2.77-4.58-.12-.09-.15-.32-.21-.48a25.51,25.51,0,0,0-2.39-4.94,9,9,0,0,0,1.79-1.56,1.57,1.57,0,0,0,.2-2.26c-.5-.68-.91-1.42-1.41-2.1a5.79,5.79,0,0,1-1.09-3.66,4.3,4.3,0,0,0-2.31-4.33c-.62-.33-1-.71-.88-1.39a2.2,2.2,0,0,0-1.49-2.44c1.18-.69,2.08-1.38,2.3-2.63A2.34,2.34,0,0,0,120,831.1c-.75-.43-2.27-.43-2.52.18-.51,1.26-1.55,2.27-1.76,3.66-.08.59,0,1,.78,1.15s.82.54.31,1a2.07,2.07,0,0,1-.58.44,5.38,5.38,0,0,0-3.11,4.31c-.05.27-.19.46-.46.42a.7.7,0,0,1-.4-.32,1.39,1.39,0,0,1-.08-1.06,9.64,9.64,0,0,0,.15-2.34c0-2.13-.18-2.28-2.23-2.29-1.36,0-2.68.46-4.12.34,0-.47,0-.89-.06-1.3s.17-.91-.31-1.13-1,.09-1.34.37a2.21,2.21,0,0,0-.9,1.69c-.06.62.55,1,.64,1.44.21,1.21.9,1.23,1.83.94,1.15-.36,2.4-.07,3.55-.51a.6.6,0,0,1,.86.62c0,1.48,0,3,0,4.42-.71,0-.91-.39-1.2-.66-.82-.8-1.6-1.64-2.42-2.43s-1.76-.85-2.35-.07c-1.31,1.72-2.6,3.46-3.8,5.26-.8,1.22-.73,1.27-1.9.66-.86-.44-1.35-.14-1.37.84a1.36,1.36,0,0,0,.72,1.35c.25.14.8-.13.76.5a74.38,74.38,0,0,0-6.31,5.61,2.73,2.73,0,0,1-.59-1.38,28.89,28.89,0,0,0-2.15-6.12,5.2,5.2,0,0,0-2.08-2.2c-.65-.36-1.07-.18-1.15.54a6.05,6.05,0,0,0,.16,2.5c.65,2.07,1.24,4.15,1.89,6.22.32,1,.48,2.14,1.57,2.73a.65.65,0,0,1,.27.62c0,.85,0,1.69,0,2.53,0,.55-.3.78-.81.67a19.24,19.24,0,0,0-4.15-.17c-1,0-1.27-.43-1.21-1.31a12.76,12.76,0,0,0-.23-2.69,8.27,8.27,0,0,1-.28-3.2,3.09,3.09,0,0,0-.17-2.2c-.13-.31-.32-.62.1-.66,1.17-.13,1-1,1.07-1.74s.61-1.49.14-2.27c-.3-.5-.62-1.33-1.24-1.12-1.19.4-2.53-.09-3.61.72a.21.21,0,0,0-.06.16c0,1.08-.87,1.28-1.59,1.71a14.93,14.93,0,0,0-3.22,2.31,3.52,3.52,0,0,1-1.69.93,9.12,9.12,0,0,0-3.78,2.4,2.11,2.11,0,0,0-.58,1.26,11.33,11.33,0,0,0,.72,6.53,4.87,4.87,0,0,1,0,3.87,14.29,14.29,0,0,0-.61,5,2.77,2.77,0,0,1-.82,2.34c-.5.46-.3.89.37.95a15.65,15.65,0,0,1,3.05.16c.47.13.55-.33.52-.72a1.11,1.11,0,0,0-.58-.87c-.59-.33-.55-.78-.47-1.37a61.13,61.13,0,0,0,1-10c0-.31-.16-.78.56-.79a9.61,9.61,0,0,0,1.57,2.94,3.77,3.77,0,0,1,.6,2.9c-.37,2.22,0,4.53-.85,6.69a.62.62,0,0,0,.46.85,3.23,3.23,0,0,0,2.4-.47c.36-.2.36-.59.14-1s-.69-.31-.59-.8a4,4,0,0,1,2.81-1.4c0,.31.08.55.09.79.17,2.34.6,2.93,2.86,3.51a18.75,18.75,0,0,0,6.12.21,1.3,1.3,0,0,0,.94-.45c.9-1.57,2.14-1.67,3.64-1a2.43,2.43,0,0,0,.9.08c2.53,0,5,.39,7.56.5a48.81,48.81,0,0,1,5.4.37,23.45,23.45,0,0,0,5.23,0c1.35-.09,2.61-.29,3.43-1.73,1.57,2.14,3.71,2.75,6.07,3,1.72.16,3.1-.2,3.92-1.84a.72.72,0,0,1,1-.41,7.51,7.51,0,0,0,3.06,0c1.3-.16,1.58-.59,1.3-1.94-.07-.33-.12-.56.13-.78C131.77,869,131.53,868.09,131.56,867.26Zm-54.75-5.15a8.53,8.53,0,0,1-1.72-2.91,3,3,0,0,1,2.33-3.72.59.59,0,0,1,.69.43,27.5,27.5,0,0,0,2.08,4A5.53,5.53,0,0,0,76.81,862.11Zm5.11-4.27a3.91,3.91,0,0,1-1.67-2.05c-.64-1.41-.64-1.41.93-2.33A6.35,6.35,0,0,1,81.92,857.84Zm17.52-1.26a.63.63,0,0,1-.66.69,22.25,22.25,0,0,1-2.71-.06c-.78-.09-1-.53-.69-1.29a4.78,4.78,0,0,1,1.18-1.79c1-.92,1.91-1.81,3.23-3A46.39,46.39,0,0,0,99.44,856.58Zm9.39-2.43c-.07,3.47-.07,3.45-3.53,3.19-1.31-.1-2.64-.06-4,0-.83,0-1.2-.27-1.18-1.14,0-1.5.06-3,.26-4.5a1.43,1.43,0,0,1,1.14-1.37,11.4,11.4,0,0,1,3-.3h.61c3.22,0,3.69.46,3.7,3.61Zm-3-6.37a11.45,11.45,0,0,1-4.07-.3,25.66,25.66,0,0,1,3-4.08c.46-.55.74-.68,1.26-.15,1.23,1.28,2.49,2.55,3.85,4C108.5,848.24,107.1,847.8,105.81,847.78Zm14.45,10.58h-1.63c-1.82.15-3.58-.4-5.39-.46-1.55,0-1.87-.46-1.89-2,0-1.26,0-2.53.08-3.79,0-.94.52-1.35,1.47-1.46,3.07-.37,7.94,2.67,8.91,5.2C122.51,857.67,122.18,858.31,120.26,858.36Z" fill="#e24234"/></svg>