<svg xmlns="http://www.w3.org/2000/svg" width="1920" height="1400" viewBox="0 0 1920 1400"><path d="M779.62,741.16c-77.76,1.38-156,1.72-233.56,1.44,4.77-8.1,18.74-8.65,27.35-9.66,13.58-9.2,29.39-14.63,46.18-12.15,12.42-15.19,33.7-23.56,53.07-23.65,20.6,2.55,33.13,5.79,48.51,20.17a121,121,0,0,1,30.54,12.29c9.54,1.95,19.95,2.33,27.91,8.68Z" fill="#f4f4f4"/><path d="M183.06,640.3c3-4.31,8.18-3.95,12.24-6.3,12.69-14.16,24.92-6.36,40.48-5.16,10.05,4.52,21.61.83,32,5,4.52,2.5,10.75,4.17,14,8.19-24.27,2.16-50,.14-74.81,1.14-7.07,1.25-14.3-.77-21.55-.4A2,2,0,0,1,183.06,640.3Z" fill="#f4f4f4"/><path d="M1459.89,707.7c-7.2-1.91-38,3.49-15.47-8.22a1.71,1.71,0,0,0,.78-1.33c-1.11-10,12.63-13.92,19.23-7.93,4.74.46,8.58,2.3,9.84,7.23,1.87,2.89,6.48,2.28,8.24,5.73v3.29C1475.2,708.1,1467.38,707.1,1459.89,707.7Z" fill="#f4f4f4"/><path d="M1298.89,554.88c-77.75,1.38-156,1.72-233.55,1.43,4.76-8.09,18.73-8.64,27.35-9.65,13.57-9.21,29.38-14.63,46.18-12.16,12.41-15.18,33.69-23.56,53.07-23.64,20.6,2.55,33.13,5.78,48.51,20.16a120.6,120.6,0,0,1,30.53,12.3c9.55,1.95,20,2.32,27.91,8.68Z" fill="#f4f4f4"/><path d="M859.56,583.26c3-4.32,8.18-4,12.24-6.3,12.69-14.17,24.92-6.36,40.48-5.16,10.05,4.52,21.61.83,32,5,4.52,2.5,10.75,4.17,14,8.2-24.27,2.15-50,.13-74.81,1.14-7.07,1.25-14.3-.78-21.55-.41A2,2,0,0,1,859.56,583.26Z" fill="#f4f4f4"/></svg>
