<svg xmlns="http://www.w3.org/2000/svg" width="1920" height="1400" viewBox="0 0 1920 1400"><path d="M469.58,573.91c10.55,2.2,21.19,4.55,30.13,11a2.37,2.37,0,0,0,2,.14,61,61,0,0,1,17.58-5.61c30.25-6.7,66.29,16.45,67.58,48.57,11.34,2.21,22.34,7,28.65,17.2,8.13,1.54,16.35,2.28,23.44,7.66,7.51,2.08,15.9.14,23.5,2.95a32.11,32.11,0,0,1,13,7.06c2.7,1.94,4.19,6,7.44,6.9,6.45-.17,24.61.4,25.36,7.95-.4,1.62-1.48,1.94-3,1.9-132.25-1.21-265.34-.52-397.35-5.33V672.6c4.7-6.11,11.63-6.23,18.37-6.71-2.2-24.31,31-34.6,47.24-19.63a30.08,30.08,0,0,1,21.53-7C393.36,600.59,433.06,571.37,469.58,573.91Z" fill="#f4f4f4"/><path d="M1046.29,722.36c-7.19-1.91-38,3.49-15.46-8.22a1.68,1.68,0,0,0,.77-1.34c-1.1-10,12.64-13.91,19.24-7.92,4.74.46,8.57,2.29,9.84,7.22,1.86,2.9,6.47,2.29,8.24,5.74v3.29C1061.61,722.76,1053.79,721.76,1046.29,722.36Z" fill="#f4f4f4"/><path d="M812.73,704.2c-6.54-19.92,8.48-31.13,22.4-27.19,5.45-32.48,57.46-44.48,68.11-8.54,16.33.86,34.58,7.45,41.49,23.46a1.66,1.66,0,0,0,1.39.75c10.13-1.64,22.81,4.94,23.61,15.8,1.16,5.42-23.84,1.69-28.2,2.75-41.17.25-82.31.37-123.45.8-5.34,0-10.78.1-16.08,0C794.05,708.23,809.5,704.13,812.73,704.2Z" fill="#f4f4f4"/><path d="M1777.37,588.15c-.8-10.86-13.48-17.44-23.61-15.8-8.9-15.1-24.78-23.87-42.88-24.21-10.65-35.93-62.66-23.94-68.11,8.54a20.06,20.06,0,0,0-11.16,0c-5.92-8.28-15-12.36-24.3-14.35-2.39-41.71-47.41-59.83-79.44-43.1-38.14-29.11-97.11,4.51-95.42,54.44a25.86,25.86,0,0,0-19.63,7c-14.76-15-45.08-4.68-43.06,19.63-6.16.48-12.47.6-16.76,6.71v1.64C1460.49,589.89,1752.68,595.73,1777.37,588.15Z" fill="#f4f4f4"/></svg>
