<svg id="Layer_1" data-name="Layer 1" xmlns="http://www.w3.org/2000/svg" viewBox="0 0 2048 1536"><defs><style>.cls-1{fill:#fdf6b0;}</style></defs><g id="Layer_2" data-name="Layer 2"><path class="cls-1" d="M2039.41,1030.89c-18.94-.69-37.12,3.33-54.78,10a5.16,5.16,0,0,1-4.68,4.59c-9.53,1.34-19.56,4-28-2.55s-18.14-11.23-25.06-19.33c-3.7-4.32-5.86-10-8.71-15-5.11-.43-9.35,2.31-13.8,4-9.88,3.78-19.69,7.13-30.61,6.25-4.54-.36-9.27.75-13.83,1.67-20.33,4.11-39.27,13-59.57,17.33-.52,3.74-3.82,4.54-6.47,5.61-11.09,4.44-22.45,4.06-29.74-8-3-5-6.76-9.55-9.92-14.46-3.35-5.18-6.57-10.38-8.51-16.4-2.39-7.4-5.62-14.46-11.85-19.74-3.1-2.62-3.94-6.49-4.07-10.45-9.41.52-18.67,2.14-27.2,6.09a685.62,685.62,0,0,1-89.76,34.68c-8.48,2.57-17,5.11-26,4.55-7.36,5.81-18.75,5.36-26.08-1.61a100.79,100.79,0,0,0-20.28-15.33,12.87,12.87,0,0,1-4-3.82c-4.85-6.89-10.2-13.23-17.51-17.67-.44-.27-.48-1.2-.7-1.82A47.78,47.78,0,0,0,1502,981c-16.58,4.42-33.22,6.85-50.1,1.52-1.89,1.68-4.18.79-6.28.88-2.84.13-5.74-.23-8.4,1.08-8.67,4.27-15.48.36-21.93-5a49.26,49.26,0,0,1-4.29-4.26c-5.13-5.47-10.9-9.27-19-8a17.15,17.15,0,0,1-12.44-2.89c-8.11-5.29-17.54-5.11-26.59-6-7.44-.73-13.32-4-18.81-8.56-5.67-4.71-9.77-10.94-15.38-15.77-3.08-2.67-2.1-6.87-1.52-10.5,1.55-9.64,5.13-18.68,8.74-27.66,2.75-6.82,3-13.08-1.49-19.44-9.26-13-12.92-28-15.77-43.38-1.93-10.4-1.8-21-3.36-31.26-1.31-8.6-2.74-19.06-13.23-23-6.35-2.37-12.93-.59-19.28.65-8.09,1.58-16.06,0-23.9-1-5.26-.73-9.12-5.08-10.89-10.27-2.83-8.37-9.37-10.71-17.13-11.27-3.67-.27-7.41.14-11-.37-7.36-1-12.9-5.3-17.4-11-3.2-4-6-8.45-11.71-9.48a3.86,3.86,0,0,1-2.93-2.55c-3.53-9.82-12.73-14.27-19.76-20.77-6.74-6.21-15-8.53-23.84-10.57-11.52-2.66-18.46-10.9-20.76-22.68-1.89-9.67-6.66-18.52-8-28.37a11.59,11.59,0,0,0-4.43-7.59c-1.49,3.14-.36,6,.36,8.67,3.53,13.21,4.85,26.89,8.83,40,4.6,15.15,8.92,30.39,13.31,45.6.29,1,.46,2,1.4,2.53,4.28,2.37,6.37,6.4,7.73,10.74,2.34,7.44,8.6,12.72,10.74,20.29a115.52,115.52,0,0,1,4.29,26.09,263,263,0,0,0,7.49,49.84,29.15,29.15,0,0,1,.58,3.95c.43,4.44,1.65,8,5.74,11,6.11,4.41,7.31,12.13,10.28,18.61,6.86,15,8.49,31.07,10.23,47.17a97.78,97.78,0,0,0,2.91,16.23c.55,1.93,1.46,2.94,3.43,2.91,9.37-.13,13.88,6.27,16.63,13.63,7.78,20.81,15.37,41.7,24.9,61.77,4.46,9.39,7.48,19.21,10.82,29a1.69,1.69,0,0,1-.45,2.2c-2.4-4.81-5.35-9.3-6.94-14.23-3-9.2-8.28-17-13.14-25.16s-7.06-17.33-10.83-25.9a36,36,0,0,0-3.06-5.72,59.52,59.52,0,0,1-7.35-16.37c-2.54-8.45-5.06-13.5-14.75-12.12-4.46.64-6.61-2.42-8.59-5.67-5.66-9.31-7.11-19.79-7.6-30.29-.41-8.8-1.7-16.72-8.3-23.36a33.59,33.59,0,0,1-7.65-12.89,9.27,9.27,0,0,0-4.58-5.72c-7.07-3.19-9.3-9.57-10.61-16.11-2.74-13.7-4.84-27.54-7.13-41.33a26.27,26.27,0,0,1-.12-5,243.89,243.89,0,0,0-2.27-41.51c-1-7.12-4.27-13.93-6.6-20.85a3.43,3.43,0,0,0-1.68-1.76c-5.45-2.49-6.31-7.3-6.63-12.52a14.09,14.09,0,0,0-1.12-5.34c-5-10-4.68-21.1-6.66-31.68-1.07-5.73-3.43-11.16-3.55-17.11-.27-13.39-5.3-26.1-5.83-39.48a11.2,11.2,0,0,0-2-6.57,136.69,136.69,0,0,0-15.75,13.19c-13.14,12.27-24,26.6-36.25,39.66a307.75,307.75,0,0,0-22.46,26.95c-16.87,22.72-34.37,44.89-54.52,64.83a20.8,20.8,0,0,0-6,10.25c-3.33,14.59-10.38,27.4-18.53,39.8C933.42,841.4,929,851.91,928,863.83c-.78,9.09-.79,18.38-4.29,27.1-.9,2.27-1.91,4.26-4,5.56-4.4,2.75-8.86,5.39-13.19,8.23-10.55,6.93-22.23,11.65-33.4,17.38-14.49,7.43-27.85,16.69-41.65,25.24-11.06,6.86-23.09,12.14-33.09,20.82-9,7.78-18.37,15.39-29.54,19.69a357.47,357.47,0,0,0-55.33,27.2c-15.09,9-29,19.13-40,33.08-4.43,5.65-9,11.37-14.28,16.14-18.2,16.35-36.18,32.91-53.2,50.49a23,23,0,0,1-5.95,4.56c-8.67,4.51-16,10.92-23.38,17.12-1.47,5.17-5.4,6.3-10.09,6-1.31-.07-2.66-.91-3.88-.72-14.25,2.28-18.74-8.59-23.38-18.14-2.74-5.63-7.73-9.49-10-15.22-1.86-.06-3.11,1.27-4.42,2.2-11,7.81-22.17,15.53-32.94,23.7-4.07,3.1-7.43,3.6-11.72.84-3.91-2.52-8.15-4.53-12.25-6.76-7.31-.13-13.94-2.31-20.4-5.81-7.89-4.29-17.57-4.12-25.07-9.75a122.12,122.12,0,0,0-18.52-11,22.58,22.58,0,0,1-10.6-11.64c-4.18-9.73-10.39-18.65-11.4-29.63-.2-2.21-2.11-3.77-3.75-5.22-2.42-2.15-4.58-4.57-5.5-7.67-4-13.52-13.39-24.39-18.45-37.42a10.41,10.41,0,0,0-8.51-6.87c-6.17-.94-8.44-6.24-9.91-11.46-1.63-5.76-4.83-10.56-7.77-15.61-1.76-3-3.78-3.27-6.63-2.68-9,1.89-14.43-1.48-16.67-10.42-3.73-14.88-7.48-29.66-7.27-45.29.14-9.6-4.56-18.35-8.41-27.06-1.27-2.87-5.14-2.41-6.47-5.17-.75.31-1.91.41-2.18,1-3.07,6.27-9.15,9.65-13.7,14.49-2.51,2.67-5.33,5-7.48,8.09-15.18,21.57-29.49,43.74-46.08,64.32C204.66,984.2,196,994.11,183,999.83c-7.34,3.21-14,8.41-20.17,13.76-3.39,10.73-16.38,16.8-25.1,6.59-3.18-3.72-8-6.13-9.12-11.49-14,7.73-25.15,19-37.28,29.07-.43,6.36-8.34,12.79-15.82,13.15-11.86.57-22.19-4-32.15-9.56-8-4.47-16.09-8.58-25.58-8.6-1.42,0-2.71-.14-3-1.88A58.44,58.44,0,0,0,0,1032.11V1536H2048V1032.19A47.09,47.09,0,0,0,2039.41,1030.89ZM929,982.27a28.25,28.25,0,0,1-5.58,9.4c-8.17,9.66-16.46,19.21-22.29,30.59-2.12,4.12-5.32,7.47-8.89,11.53.21-21.1,11.61-34.39,26.83-45.26,3-2.12,4.92-4.92,6.9-7.8.64-.93,1.11-2.47,2.53-1.69C929.66,979.66,929.38,981.21,929,982.27Zm314.36,178.84c-2.32,2.38-4.93,1.83-7.32.29a11.78,11.78,0,0,1-4-3.76c-2.26-4.08-4.85-7.15-10.14-6.2a2.61,2.61,0,0,1-2.17-1c-3.35-5.73-8.92-5-13.62-3.69-7.28,2-11.7-1.51-15.45-6.44-1.85-2.44-3.06-2-5.68-1.63-5.81.94-11.67.49-17.57,2.48-4.32,1.46-7.68-3.33-9.73-6.71-2.29-3.79-5.88-4.1-9.11-5.46-2.38-1-2.44,1.17-3,2.79-1.37,4-2.87,4.23-5.93,1.22-2-2-2.5-4.58-3.07-7.22-2.8-12.89-1.72-26.26-4.94-39.09-1.88-7.51-5.76-13.33-13.27-16.3-3.37-1.33-4.35-4.5-4.88-7.67-1.33-7.89-2.4-15.77-6.91-22.76a22.43,22.43,0,0,1-3-8.46c-.88-5.56-3-10.31-7.56-13.63-7.27-5.25-8.52-13.44-8.47-21,.09-13-2.06-25.62-3.63-38.32a38,38,0,0,0-4.53-12.92,25.38,25.38,0,0,1-2.38-18,13.93,13.93,0,0,1,2.23,6.36c.49,4.15,1,8.33,4.59,11.29a4.2,4.2,0,0,1,1.31,2.09c2.9,11.33,9.42,21.21,13,32.31,1.71,5.32,6,8.54,11.31,11.07,11.42,5.45,19.79,14.3,24,26.35,3,8.43,7.17,16.17,11.66,23.81a75.39,75.39,0,0,1,7.38,17c1.94,6.66,6,12.36,8.2,18.86,1,2.8,3.33,3.45,6.11,3.28,6.55-.4,12.94.9,19.37,1.9a6.46,6.46,0,0,1,4.65,2.56c3.69,5.28,8.57,9.29,13.41,13.45a82.15,82.15,0,0,1,18.57,22.86c5,9.17,12.17,16.72,18.42,25a49.22,49.22,0,0,1,4.35,7.29C1247.41,1156.47,1245.59,1158.86,1243.4,1161.11Z"/></g></svg>