<svg xmlns="http://www.w3.org/2000/svg" width="1920" height="1400" viewBox="0 0 1920 1400"><path d="M1914.88,969.4c-2.18-1.15,0-3.94-2.1-4.66-4.43-1.51-5.55-5.21-6.39-9.13-2.63-5.26-9.08-7.46-10.06-14-.78-2.93-6.17-6.24-8-4.7-4.14,3.24-13.69,3.79-7.14,10.45-2.08.53-4.63-.26-5.19,2.76-.63,1.66-6.17-1.49-4.09,3.54,3.6,4.28-7.37,3.58-1.55,8.16,6.29,5.07-2.58,3.68-3.45,8.24-.42,3.2-4.47-1.6-2.83-3,2.54-4.81-8.87-1.8-8.8-13.88-.46-7.85-8.72-6.88-11.6-11.66a9.71,9.71,0,0,0-7.43,3.69c-4.7,4.72-14.63,1.22-14.42,10.67-4.19,4.66,5,2.49,4.09,6.1-.44,1.81-2.57.52-3.76.94-2.08.73-5.68-.52-5.51,4-1.35,5.73-4.67-1-7.18,1.62s-2.58,5.63,0,7.82c.61.52,2.51.3,1.25,1.79-.73.86-.22,2.76-2.9,2.36-3.29-.49-4.41,3.18-5.46,5.65,1.33,3.71,8.55,5.75,7.92,11.31l-4.8,1c-.33-.13-.94-.22-1-.41-.62-3.48-3.25-6-4.29-9.32-2.54-1.87-4.15-2.18-3.46-5.66l-.06-.09c-1,.35-1.58-.12-1.8-1.12-1-1.58-5.88-1-2.54-4,.76-.69,1-1.41.15-2.21-1.89.1-2.14-3-4.37-2.25.14-2.15.64-4,3.39-3.89.37-.85-.09-1.46-.58-2.07-1.74-.57-1.5-1.46-.39-2.49,1.9-2.58-2.59-2-3.33-3.88-2.83-2.2-5.78-2.34-9.24-1.26,0-.37.1-.74.16-1.11,11-3,1.38-2.14,4.16-6a.65.65,0,0,0-.58-.25c-2.44.87-2.56-.49-3.1-2.75-1.33-1-2.84-.6-4.9.21,2.59-4.61.86-8.2-1.46-11.44-1.24-2.49-5.62-3.31-5.9-6.2-2.44-3.5-9-5.28-10.91-.81-.76,2.15-1.88,2.46-3.62,2.46-2.28,0-4.4.16-5.65,2.57a1.65,1.65,0,0,1-2.33.58c-1.41-.94-1.76.34-2.62.87-2.68,1.66-.94,5.08-2.5,6.63-3.12,3.08,1.12,2.77,1.49,4.15,2.31-.84,3.36.9,3.14,2.39-.32,2.15-2.48.5-3.63,1-10.52.58-3.16,3.29-8.42,6.69-2.7.93-3.3-3-5.16-1.26-1.42,1.36-3.38,2.91-2.86,4.86s.61,5.18,4.34,5.39c-2,.64-.58,4.37-3.44,3.61-3.39-.9-4.07,2-5.49,3.56s-1.35,4.43.74,5.2c3.25,1.81,8.14,6.82,4,9.84-2.12,1.3-3.87,3.37-5.88,4.28-7.86,3.39,2.07,8.78-3.14,11.6-8.07,6,11.53,5.65-1.91,12.5-.63,6.2,3.88,5.56,2,7.11-3.55.83-3.77-5.74-4.37-8.16-1.62-.3-2.62-1.14-2.6-2.9-.83-.1-1.72-.1-2.09-1.09l-.74-.47c-1.19,0-1.6-.82-1.43-2.22l-2-3a1.44,1.44,0,0,1-.92-1.64c-1.43-1.23-3.51-1-4.94-2.38-1-1-2.38-.13-3,.66-3.33,5.28-20.44,6.65-12.75,14.48-10.21,4.72-3.94-11.24-10.25-18.22a25.87,25.87,0,0,1-4.37-8c-4-7-11.4,5-13.88-3.56-1-1.67-3-2.52-2.1-5,1.39-7.42-8.42-6.7-6.85-10.93,1.12-5.22-7.06.15-10.32-12.35-1.1-2.77-2.06-5.7-5.16-5.43-3.54.36-4.48-4-7.62-3.21-2.18.69-3.9,1.26-5.24,3.78-1.49,2.82-5.88,2.47-8.41,5.09-1.36,1.42-5.39,6.31-4.54,8.7a1.13,1.13,0,0,0,.82.65c2.67.14,4.29,2.12,6.62,3.64-5.93.08-12.67,0-9,7.49-1.25-2.81-3.52,1.37-5.06-.78-2.91-2.62-5.24,5.21-2,7.15.62.65,2.81.17,1.82,2.07-.64,1.21-.48,2.75-3,2.92s-4.22,2.94-4.5,5.36c-.14,1.2,2.21,2.13,3.82,2.91,1.93.94,3.4,2.94,4.86,4.67.36.42,1.19,1.78.15,2.26s-3.44,1.71-3.66,1c-.93-3.05-4.61-4.3-4.81-7.51-.16-3.89-6.84-9.11-9.64-4.78-4.2-.26-7.3-6.08-9.55-9.18-1.89-4.11-6.87-10.48-11.66-5.94-1.3,1.42-3.75.52-4.92,2.36a3.16,3.16,0,0,1-3.15-2.13c-1.32-3.89-.83-8.26-4.49-11.66a21.25,21.25,0,0,1-6.25-9.48c-.63-2.17-6.43-3.67-7.38-2.32-3.27,3.23-12,4.69-5.54,9.83-1.51,1.19-5.36-.13-4.26,3.83l.15,0s-.09.09-.08.1c-1.33.26-2.8-1.36-4,.19-2.31,2.06,2.81,3.89.23,5.39-2.72,1.34-4.41-10.07-5.11-12.09-5.32-10.69-8.08-5.17-11.8-22.5-.41-1.15-1.58,0-1.88.56-2.16,3.34-5.79,4-8.92,5.47-2.88,1.38-1.73,4.19-2.57,6.26-.54,1.32,1.38,1.29,2.35,1.56,2,.39,1.94,2.81-.11,2.58-7.27-.31-3.19,6-7.26,5.09-1.79-1.17-4.31-.92-5.62-2.67-1.1-1.46-2.22-1.3-3.09-.34-2.83,2.6-9.38,2.51-5.09,7.51a19.43,19.43,0,0,0-3.69,1.55c-2.72,2.06-8.2-.16-6.85-4.19,1-4.24-4.52-2.66-6.22-4.43-2.46-4-5.77-7.45-6.37-12.49a5.3,5.3,0,0,0-5.32-4.87c-6.61-.74-10.3-9.15-15.5.69-.29.64-.49,1.16-1.53,1.27-2.83.27-6,.17-7.31,3.66-3,1.83-6.69.69-6.53,6.08.06,1,.73,2.12-.08,2.88-3.42,3.19,1.36,2.71,1.79,4.16,2.48-1.32,3.66.65,3.47,2.21-.25,2-2.8.65-3.85,1.3-2.1,1.29-7-.73-5.86,4.86.47,2.25-2.81,3.75-4.78,2.36-1.09-.76-2-1.17-2.9,0-1.18,1.53-2.9,3.23-2.13,5.11.85,2.09,1.07,5.32,4.94,4.83-1.32,3.31-3.47,5.81-6.74,2.77-.92-.82-1.55-2.27-3-2-2.59.45-4-1.22-5.65-2.64-2.53-2.25-7.51-1.49-8.7,1.59-1,4.57-7.27.52-8.59,5.49-2.68,2-4.76-1.63-6.15,4.34.65,4.63-4.63,6.39,2.33,7.26a2.51,2.51,0,0,1,2.07,2.74c-.62,2.36-4.73-.3-6.37,1.54-2.76,1.32-5.74-8.25-5.68-10.67.39-5.37-5.59-4.67-8.06-7.72-2.76-2.94-6.66-2.66-8.73.82-1.9,3-6.46-.63-8.06,3.5-.2.48-1,.62-1.69.47-4.32-1-3.9,3.57-4.79,6.06-4.28,4.41,4.49,2.48,3.56,6-.3,1.51-1.85.86-2.85.83-8.52-1-3.67,5.57-9,5.29-.29,0-4.83-1.35-1.24-4,.18-.13,1.52-3.38-1.49-3.57-.49,0-1.22-.27-1-.83.9-2.67-1.25-5.16-.85-7.32.47-2.51-2-3.35-1.68-5.39,3.08-11-5.67-6.52-4.57-12.31a2.09,2.09,0,0,0-1.4-3c-8.89-2.43-3.07-15.55-12.93-16.46-1.71-2.4-3.87-3.92-7.14-3.12-3.71.7-6.24-2.25-4.75-5.41s-.82-4.38-2.46-4.42c-6.56-.41-9.79-12.06-9.86-17.73-.66-8.27-8.37-3.76-11.9-10-2.76-2.92-10.06-2.17-11.05,1.75-1.08,4.28-4.82,3.15-6.3,2.54-4.34-1.83-2.67,4.65-6.84,3.79-6.13-.35-6.16,4.29-6.86,9-4.06,5.78,5.9,2.8,5.24,8,0,2.19-1.78.9-2.79,1.15a2.81,2.81,0,0,1-1.77-.22c-2.54-1-4.56,2.18-7.18,1a16.48,16.48,0,0,0-.33,4c0,1.82-2,2.49-3.33,3.28s-2-.43-2.72-1.3-1.52-1.88-2.74-.78c-1.81,1.64-4.41,3.86-3.85,5.79.72,2.53.49,6.76,5.55,6.56-1.25,1.61-2.38,2.64-2.63,4.19-1.58,2.46-6.68-1.61-8.66,5.16-.38,1.25-2.5,2.06-1.36,3.51,3.31,3.91,9.08,6.89,10.14,12.42.06.75,1.42,1.93-.79,1.67-1.79-.22-5,2.62-5.15-.06-.46-6.18-6.52-5.74-9.23-9.09-.8-1-4-.43-5,1.26-2,3.39-6.06,2.42-8.65,4.58-1.92,1.6-4.12,1-5.74-1.13-2.74-1.7-2.86,1.58-6.36-2.5-4.19-3.5-8.27-2.7-10.74,2.2-.31.61-.38,1.23-1.47,1.3-2.82.2-6-.21-7.46,3.31-1.68,2-2.44-1.35-4.94,1.76-2.79,1.75-.51,5.13-2,6.72-3.16,3.3,1.18,3,1.73,4.37,2.6-1.28,3.54.81,3.29,2.38-.29,1.78-2.53.56-3.72,1-2.44.93-6.69-.42-6.21,4.71.18,1.89-2.85,3.68-4.16,2.73s-2.08-2.52-3.66-.59c-1.06,1.29-2.13,2.57-2.05,4.09-1-1.29-3.86-1.62-2.46-4.3,1.87-3.2-.36-8.57-3.81-9.84-1.89-.69-4.1-1.87-3.3-4,1.28-3.41-.5-4.44-3-4.56-3.72-.18-3.23-5.12-6.65-5.34.93-3.15-2-5.34-2-8.4-.6-7.47-7.26-3.4-10.75-8.2-10.27-5.32-7.95,4.85-13.27,4.45-5.08-.78-4.16,3.52-7.41,3.66-3.8-.54-4.51,2.15-5,5-.2,1.07.73,2.33-.3,3.22-3.73,3.22,1.45,2.62,1.72,4.11,2.47-1.07,3.55.76,3.35,2.4-.24,2-2.49,1.31-3.69,1-2.33-.64-3.52,2.29-6,1.54-.52-.17-.16,2.21-.32,3.4-.3,2.25-3.2,3.58-4.8,2.11s-2.45-.9-3.63.5c-3.14,3.76-1.93,8,4.2,10.08-3.59.24-1.69,4.23-4.47,4-2.4-.23-3.55,1-5,2.32-2.26,4-7.72-7.45-8-9.77-.42-2.09-2.32-4-4.59-3.77s-3.68-.93-5.2-2c-2.82-2-7.45-1.06-8.07,2.22a3,3,0,0,1-3.27,2.63c-3.87-.17-5,3.93-8.2,4.78-2.51.65-1,3.49-1.62,5.19-1.13,3.19-.75,4.41,2.88,4.15,6.17,2.78-3.37,4-5.7,4.67-.8-3.2-5.41-2.52-5.89-4.53-2.35-7.8-11.2-8.7-11.32-18.6-.56-5.27-6.47-2.63-8.53-5.91-1.79-2.24-3.67-1.81-6-1.25s-2.65,3.5-3.54,3.69c-4,1.8-11.61,3.63-13.13,7.51-.36,1.15.26,2.88-.39,3.62-3.53,5.07,5.46,1.89,4.44,5.9-.26,1.44-2.12.56-3.17.89-2.25.69-6-.5-5.59,4.24a2.31,2.31,0,0,1-4,1.7c-1.31-1.14-2.05-.74-3.06.47-5.07,6.65,3.61,7.25,1.65,9.72-.56.72,0,2.17-2,2-2.47-.17-5,.5-4.3-3.47.06-.32-.48-1-.87-1.13-6.75-1.69-3.27-10.86-9.08-12.33a3.37,3.37,0,0,1-2.46-1.56,3.28,3.28,0,0,0-5.23-.59c-2.86,3.14-6.91,3.3-10.26,5.07-.5,4.3-1.28,4.58-5.77,2,.49-1.39,2-.58,2.84-1.28,4.09-4.27-3.43-2.5-2.11-6.92a3.49,3.49,0,0,0-.31-2.16c-2.2-2.72-1.47-6.49-3-9.27-3.19-1.39-2.38-2.64.14-3.82-.09-1.57-2-2.76-1-4.55-1.35-1.78-4-1.49-5.29-3.39-.61-.69-1.7-.94-2.46-1.51,1.75-2.72-1.37-3.46-2.11-5.17-2.66.14-2-3.32-4.1-3.78-3.72,1.09-1.77-1.49-1.8-2.78-1.65-3.31-3.58-6.52-5.32-9.8l-.55-.2c-3.35,2.2-3.82-.52-6-2.59-3.09-1.91-11.43,1.7-6.1,4.76-2.77,1.4-4.41-1.62-5.49.05s-1.76,1.21-2.38-.29c-1.41,0-1.34,1.08-1.57,2,2.44,2.22-5.58,2.57-7.1-.59-.95-2.9-4.14-3.63-5.52-6.06-1.51-1-4-1.16-3.07-4-3.15-2.12-2.32-8.09-7.62-7.42-1.17.16-2-.81-2.4-1.93-6.86-4.34-6.18,2-10.29,3.88-3.91,2.19-9.12,2.61-9.12,9.41,0,2.43.53,3.24,1.94,3.2,1.7,0,2.64.5,2.51,1.85s-1.76.82-2.73,1.15c-1.73.6-4.34.36-4.54,3-.22,2.77-.64,4.63-3.91,2.71-3.47-.71-4.55,6.32-1.28,7.16,2.39,1,1.49,2.1,1,3.31-.92,2.15-2.85.48-3.3.08-5.27-4.14-8.86,9.82-16.6,1.24-6.25-6.28-8.46,9.61-15.4-3.87-7.24-1.25-4.37-10.88-10.32-11.89a3.71,3.71,0,0,1-2.94-1.38c-4-4-7,2.61-10.83,3.39-9.45,6.67-5.28-6-11.83-7.75a5.4,5.4,0,0,1-2.72-.92c-6-5.27-5.81,3.07-11.36,2.34-2.89.16-1-6.75-6.47-6.74-5.7-.76-3.57-6.11-11.09-2.86-1.52.43-1.2,3-2.16,3.24-4.28,1.8-10.71,2.7-12.89,6.88-.47,1.09.21,2.92-.46,3.62-3.86,4.74,5,2,4.2,5.68-.77,2.62-9.28-1-8.64,5.17-.51,5.58-8.73-2.53-8.35,5.74.21,4.71-8,7.18-11.71,8.68-3.53,1-2.32,4.24-3.41,6.34-.81,1.58,1.18,1.69,2.25,2,2.22.41,2.06,3-.21,2.63-8-.5-3.3,5.68-7.58,5-3.83-3.26-5.93,3.7-3,5.68,1.52,1.67,1.18,2.49-1.09,3.21a5.59,5.59,0,0,0-3.86,4.53c-.22,2.18,4.4,3.51,5.47,6.05.77.91,1.4,2.19-.05,2.8s-4.16,2.45-4.61,1.23c-1-2.8-4.36-3.75-4.67-6.85-.36-3.62-3.5-4.46-6.1-5.65-8.49-2.27-3-3.49-6.24-6.27-6.07-2.18-3.15-9.71-8.75-12.24-3.57-2.42-6.26-3.75-9.32.25-.23.3-1,.34-1.44.31-2.33-.16-3.71,1.9-5.84,2.42-2,.49-1.19,3.07-1.93,4.62-.91,1.94,3.23,1,2.94,3a1,1,0,0,1-1.4.85c-4.14-1.39-5.05,5.6-9.43,3.65a2.51,2.51,0,0,0-1,1.43c-.3,4.44-2.61,3-4.27,1.24-4.92-4.32-5.56,3.19-10.34,3.25h0c0-2.3-3-3.86-2.3-5.82.8-2.34-1.34-4-.47-6.11-3.53-1.47-4.14-6.21-6.39-7.49-4.57-2.59-6.2-6.11-7.34-10.53-.56-4.69-5.58-3.4-8-6.1-6.81-4.76-6.08,3.93-10.82,3.32-2.59-.45-2.91,2.66-5.45,2.62-4.13.51-2.15,4.68-3.65,6.91-1.23,2.66,4.62,1.19,4.17,3.79-.92,2.76-7.68-.64-7.52,5.09a1.87,1.87,0,0,1-3.33,1.14c-3-2.44-5.7,5.11-1.9,7,3.29,3.09-5.17,6.6-5.27-.55-.63-2.63-2.1-4.69-4.63-4.65-2.08,0-3.17-1.07-4.45-2-2.25-1.67-6.65-1.9-7.27.4-1.3,4.9-7.55,2.22-8.81,6.54a1.14,1.14,0,0,1-.95,0c-1.5-1.35-3.92-.81-5.21-2.72a3,3,0,0,0-4.67-.35c-2.93,3.43-7.62,3-10.9,5.6-1,.82-2.81.22-2.12-1.66,1.26-3.43-.69-6.71-1.77-9.08-1.62-3.54-.67-7-1.6-10.31.15-4.35-6.49-2-5.87-6.23,1.65-5-2.94-3.71-5.13-5.82-1.71-3.63-4.28-6.82-4.56-11.16-.14-2.15-1.95-4.55-4.44-4.41-2.23.12-3.16-1.2-4.37-2.27-3.08-2.76-7-2.1-8.92,1.61-1.61,3-4.48,1.26-6.73,1.53-2.9.18.67-7.9-4.95-8.36-2.38-.25-.24-4.13-2.54-4.48-3.87-.91-5.18-4-6.19-7.24-2.23-4.75-11.1-9-14.25-2.7-4.27,2.31-9.39,3.88-12.64,7.85-.72.92-1.56.61-2.32.82-4.11,1.12-8.7,1.42-9.87,6.75-2.18-1.15,0-3.94-2.1-4.66-4.43-1.51-5.55-5.22-6.39-9.13-2.64-5.26-9.08-7.47-10.06-14-.78-2.93-6.17-6.24-8-4.7-4.14,3.24-13.69,3.79-7.14,10.45-2.08.53-4.64-.26-5.2,2.76-.63,1.66-6.16-1.49-4.09,3.54,3.61,4.28-7.37,3.57-1.55,8.16,6.29,5.06-2.58,3.68-3.44,8.24-.42,3.2-4.47-1.6-2.84-3,2.54-4.81-8.86-1.8-8.8-13.88-.45-7.85-8.72-6.88-11.6-11.66a9.69,9.69,0,0,0-7.42,3.69c-4.7,4.72-14.64,1.22-14.42,10.67-4.19,4.66,5,2.49,4.09,6.1-.44,1.81-2.57.52-3.76.94-2.09.73-5.68-.52-5.52,4-1.35,5.73-4.67-1-7.17,1.62s-2.58,5.63-.05,7.82c.61.52,2.51.3,1.24,1.79-.72.86-.21,2.76-2.9,2.36-3.28-.49-4.4,3.18-5.45,5.65,1.32,3.71,8.55,5.75,7.92,11.31l-4.8,1c-.34-.13-.94-.22-1-.41-.62-3.49-3.26-6-4.3-9.32-2.53-1.87-4.14-2.18-3.45-5.66l-.06-.1c-1.05.35-1.59-.11-1.8-1.11-1-1.58-5.88-1-2.54-4,.75-.69,1-1.41.15-2.21-1.89.1-2.14-3-4.37-2.25.14-2.15.64-4,3.39-3.89.37-.85-.09-1.46-.58-2.07-1.74-.57-1.5-1.46-.4-2.49,1.91-2.58-2.58-2-3.33-3.88-2.82-2.2-5.77-2.34-9.24-1.26.06-.37.11-.74.16-1.12,11.05-3,1.38-2.13,4.16-6a.62.62,0,0,0-.57-.25c-2.44.86-2.56-.49-3.1-2.75-1.34-1-2.84-.6-4.91.21,2.6-4.61.86-8.2-1.45-11.45-1.25-2.48-5.63-3.3-5.9-6.19-2.44-3.5-9-5.28-10.92-.82-.75,2.16-1.87,2.47-3.61,2.47-2.28,0-4.41.16-5.65,2.57a1.65,1.65,0,0,1-2.34.58c-1.4-.94-1.75.34-2.61.87-2.68,1.66-.94,5.08-2.51,6.63-3.11,3.07,1.13,2.77,1.5,4.15,2.3-.84,3.36.9,3.13,2.39-.32,2.15-2.47.49-3.63,1-10.52.58-3.15,3.29-8.41,6.69-2.7.93-3.3-3-5.17-1.26-1.42,1.36-3.37,2.91-2.85,4.86s.61,5.18,4.34,5.39c-2,.64-.59,4.37-3.44,3.61-3.39-.9-4.08,2-5.49,3.56s-1.36,4.43.74,5.2c3.25,1.81,8.13,6.82,4,9.84-2.12,1.3-3.87,3.37-5.89,4.28-7.85,3.39,2.08,8.78-3.13,11.6-8.07,6,11.53,5.65-1.92,12.5-.63,6.2,3.88,5.56,2,7.11-3.55.83-3.78-5.75-4.38-8.16-1.61-.3-2.61-1.14-2.59-2.9-.84-.1-1.73-.1-2.1-1.09l-.73-.47c-1.19,0-1.6-.82-1.43-2.23l-2.06-3A1.45,1.45,0,0,1,161,1006c-1.42-1.22-3.5-1-4.93-2.37-1-1-2.38-.13-3,.66-3.33,5.28-20.44,6.65-12.75,14.48-10.2,4.72-3.93-11.25-10.25-18.22a25.84,25.84,0,0,1-4.36-8c-4-7-11.4,5-13.89-3.56-1-1.68-3-2.52-2.09-5,1.38-7.42-8.42-6.7-6.86-10.93,1.13-5.22-7,.15-10.31-12.35-1.11-2.77-2.06-5.7-5.16-5.43-3.55.36-4.48-4-7.63-3.21-2.18.69-3.89,1.26-5.23,3.78-1.49,2.82-5.88,2.47-8.41,5.09-1.37,1.42-5.4,6.31-4.55,8.7a1.19,1.19,0,0,0,.82.65c2.67.14,4.29,2.12,6.63,3.64-5.93.08-12.68,0-9.06,7.49-1.24-2.81-3.51,1.37-5-.78-2.92-2.62-5.24,5.21-2,7.15.62.65,2.81.17,1.81,2.07-.63,1.21-.48,2.75-3,2.91s-4.22,3-4.5,5.37c-.14,1.2,2.21,2.13,3.82,2.91,1.93.94,3.4,2.94,4.85,4.66.36.43,1.19,1.79.16,2.26s-3.44,1.72-3.66,1c-.93-3.05-4.61-4.3-4.82-7.51-.16-3.9-6.82-9.11-9.63-4.78-.41.54-1.28-.11-2-.54-6.43-3.73-7.28-11.39-13.13-15.46a5.11,5.11,0,0,0-6.12.88c-1.3,1.42-3.76.52-4.92,2.36-5.79-.45-2.77-10.54-7.64-13.79C2.68,968.73,1.2,965.9,0,964v28.31a3.15,3.15,0,0,1,1.07-.3c.89,0,1.74.31,1.56.8-.37,1.06-1.57,1.46-2.63,1.88v278.59l1.06-.94c1.61.88,1.63,3.16,3.24,3.93.92.44,1.21,1.86,1.7,2.46a17.8,17.8,0,0,1-6,8.75v.7l6.83-6.06,1.33.55c.38,5.58-5.23,8.22-8.16,12.19v2.31c3.5-5.53,12.08-7.87,10.51-16.18a2.75,2.75,0,0,0,1,.4c-.21-2,1.27-2.45,2.5-3.49,2-1.75,2.47.94,3.76.84a16.13,16.13,0,0,0,3.19,2.64c-3.41,7.48-11.32,11.64-15.59,18.8l.92.77c3.69-4.59,7.84-8.53,13.72-10.4,2.38,8.27-9.12,11.11-5.9,19.43.32.92-.13,2.1-.22,3.16,3-4.76-1.89-5.75,5.46-13.49,3.37-6.06,3.81-13.94,7.63-20,1.84.71,1.63,3.23,3.39,3.71,1.85,10.42,10.7,21.4-.25,29.54a5.92,5.92,0,0,0,.38,1.2l7.56-9.45c3.09,14-10,7.25,3.3,26.5-.25-4.91-6.86-11.52-3.92-15.18,6.94-8.75.49-16.73-2.88-25.17,7.72.38,7.53,7.63,10.71,12.58-2.67-18.33-9.63-9.82-12.27-20.27,1.53.09-.38,3.61,2.29,2.44,2.12-.81-1.38-2.16-.16-3.33.71-.73,1.33.16,2,.34a3.79,3.79,0,0,1,2.29,1.18c1.61,2.38,3.49-.57,4.22-2,.16-.42.12-1.07.86-.74.54.25,1.57.51,1.2,1.15-1.2,2.09,1.33,3.48.79,5.47a2.46,2.46,0,0,0,1.9,3.18c2.81.41-.84,4.14,2.35,3.79,2.65-.29-.2-2.49,1.25-3.26.87-.39,1.14.79,1.55,1.28,1.59,1.67,2,1.42,3-.64.42-.91-.33-2.32,1-2.86-3.22,10.92-1.57,12.49.19,18.31-.74-5.79-1.12-11.46,1.12-17l2,2.32c1.82-1.45-.29-3.56,1.72-4.83,1-.55,1.54-1.12,2.86-.23,3.29,1.39,2.25-4.72,5.21-2.75a2.68,2.68,0,0,0,1.9-.15c-.24,3.52-6.06,11.38-6.77,16.41l6.12-11,1,.26a47.18,47.18,0,0,1-1.18,13.45c2.41-6.41,2.64-13.06,2.58-19.75,2.43-1.14,4.63-2.81,7.34-3.3-3.16,5.44-2.58,11.66.31,17.1-1.77-7.4-1.12-13.49,2.8-20.3.83.41,1.11,2.29,2.07,2.47,2.3-1.09,2.42,1.79,4.14,2.21a2.21,2.21,0,0,1,1.46-2.48c5,11-7.84,17.48,6,29.07-10.31-12.85-.26-18.29-3.74-30l.65-.25c2.46,2.85,5.18,5,7.19,8.22a17.53,17.53,0,0,0-.86-4c.87-.73,1.09-2.71,2.58-2.13.65.31,1.62.76,1.32,1.55-1.37,4.14,4.48,1.35,5.88,3.6.49,5.72,3.68,10.39,5.88,15.49-1.34-4.49-3.2-8.89-3.71-13.61,4.38,1.85,3.37,5,5.43,5,1.65-.3,2.88-.17,3.47,1.75.1.32,1.78,1.74,1.8-.53s2.75-2.31,3.94-3.8c4,17.82-9.18,9.73-6.09,25,1.13-8.3,1.92-8.59,8.53-13.64,5.54,10.27-9.19,21.29-.71,27-3.14-6.32,1.08-12.4,3.85-18.31l4.71,9.8.34-.14-8.1-24.59c5.19,5,5.19,5,10.54,3.2-6.49-2.32-6.71-2.53-8.22-5,1.52.64,2.72,3.4,4.64,2.15s1.22-3.69,1.17-5.6a14.06,14.06,0,0,0,1.92-.3l.65.55c-.81,5.23,1.69-.2,3.05,5,2.15,5.1,6.11-.38,6.39,4.12-.33,2.2,3.21,1.21,2.71-.6-.11-.6-.13-1.19-1-1.35-1.12-.26-.23-2.09.63-1.74A27.82,27.82,0,0,1,153,1312c3.15-5.82,2.69-13.79,8.41-17.65,3-2.23,4-5,4.73-8,.22-2.63,2.95-2.31,3.95-4.24.12.23.26.44.39.65-4.72,10.46-2,23-10.58,31.66-.65.64-.5,3.36.19,3.85,5.48,4.06-1.24,8.09-3.75,11.32,7.52-5,8.55-8.68,4-13.44l5.65-6.74c3.69,10.83,19.45,36.12,15,45.65,1.78-4.12,6.86-5.83,9.4-1.13,1.1-6.27-4.84-3.7-7.34-5.37q-2.13-8.38-4.22-16.68c6.34.29,13.91-3.4,14.84,5.4a11.85,11.85,0,0,0,1,2c-.7-19.64-17.69,0-20.33-18.69h14.44c-15.27-3.15-21.17-2-18.25-21.15,7.48,6.43,7.68,19,17.4,12.69-7.62.73-7.55.7-10.29-6.94-7.59-9.52-8.22-6.24-3.27-18.76.85.52,1.73,1,2.62,1.45,2.25-1.69.11-6,3.2-4.65-.87,2.33,2,2.37,2.44,3.95a3.1,3.1,0,0,0,2,2.27c.85,2.29,1.48,4.76,2.34,7.05l-1.08-6.9c2.45-.86,1,3.31,3.29,2.31,1.9-.84-.89-2.55.44-3.52,1.17.15,2.1,1.8,3.38.83,1.3-1.41-1-3,.17-4.67a13.7,13.7,0,0,0,4.12,1.32c.37-1.21-.88-2.46-1-3.26.74-.62-.25-3.43,2.23-1.88.61,6.45.14,13.34,1.94,19.79,1.77,5.84-1.88,10-4.72,14.63,11.19-8.36,4.38-23.07,4.74-34.9l1.53-.4c4,6.14-1.16,16.18,4.23,21.3,6.82,1.87,3.27,6.48,3.12,11.62,5-15-.23-7.28-4.11-16.08-.23-4.12-.09-8.26-.09-13,11.67,8.22,16.15,15.42,18.68,29.41,2.77-14.42-11-26.49-19.52-36.82a3.17,3.17,0,0,1,1.66-2.37c2.63-.59,7.33,4.38,7.94,1.22,12.63,1.67,14.75,15,16.18,25.46l.51-.11c-.37-3.95-.74-7.9-1.1-11.65l7.52-.61.09-1.13c-6.95,2.76-9.81-4-13.06-8.63.55-.94-1.17-1.39-.44-2.31,1-.31,2.25,1.34,3-.28.38-.82-.41-1.61-.46-2.5l.8-.61c.81,0,2.28,1,2.71.07-.09-.25-.18-.48-.25-.71l5.08-1.74-2.48-.91c3.09-1.58,12-3.24,13.61.89.89,2,3.72,6,6.23,4.94,1-.6,2.44-.72,3.14-1.91l1.21,1.3-13.83,9.6.64,1,7.64-4.55c-.83,7.18-2.29,13.31-9.49,16.16,14.68-3.11,5.49-17.31,17.83-19.69,1,.56,1.58.15,2.41-1.38l2.18-.15c.53.8.91,1.74,1.43,2.55-7.39,2.55-7.71,10.15-9.21,16.66,3.93-5.64,1.9-15.46,11.38-14.53,1.19,5.91-5.66,7-7.25,11.56,3.87-2.73,8.91-5.67,8.75-10.58,0,.37.25.61.75.59,2.26,0-.87-3.77,2-2.38,3.11,1.39.86-2,1.94-3.22,1.08,0,1.88,1.29,3,.7.61-1-.89-2.18.28-2.78v5.13a29.25,29.25,0,0,1,.94-5.1c1.15,1.55.67,4.94,2.66,5.61s2.57-2.2,3.9-2.93c.36,7-10.57,10.94-14.95,16l.45.58,8.55-5.55.6.81-3.25,3,.49.5,9.41-9c.22,1.14-.39,2.65.82,3.34-.5,8.7-10.29,10.55-16,15-8,6.65-16,13.44-23.13,21.07l.28.13,15.35-11.39c.17,2.09.32,4,.54,6.64.82-9.57,0-7.15,6.82-12.54a31.62,31.62,0,0,1,8.2-5.17c-4.87,6.91-11.07,12.59-13.16,21.21l7.48-10.11.84.26c.08,1.31.15,2.63.22,3.94.21-3.57.28-7.09,4.73-8.46,2.36,6.13-2.12,10.77-3.3,15.52,3.26,1.33,2.21,4.47,3.6,6.53-3.12-6.79.58-12.48,1.94-18.73-1.42-9.12,1.77-3.36,5.85-12.41,6.73,8.54-1.82,18.53-2.91,27.89l1.17.31c1.14-9.37,8.64-18.6,4.52-27.88-.58-1.22-.41-2.81-.71-5.26l2.8,2.4-1.1-3.88c17.92,14.75-1.26,17.13.09,33.27.85-4.63,1.61-9.29,5.51-13.15-.52,4.77-1,9.06-1.46,13.36,1.21-11.36,6.11-21.44,10.31-31.78.92,4.88-1.31,10.91.79,15.13,3.55,6,3.38,11.7,2.95,18.09.53-3.12,1-5.9,1.65-9.59l2.92,4.62.7-.42c-2.15-4.13-4.31-8.26-6.69-12.81l11.29,10.69c-4.73-7.47-14.39-12.76-9.81-24.59a16.92,16.92,0,0,0,2.86,3.82c-1.41-3.25-3.68-6.26.36-9.59l7,11.09-1.34-3.8c10.27,1.19,4.07,10.52,5.53,18.18h.81v-8.93l1.38-.08c.41,4.7.41,9.68,1.66,14.2,1.89,4.13.29,6.82-1.31,10.7,6.88-6.13.81-11.84,1.12-19.48,6.15,4.51,6.81,10.26,7.82,16l-.68-8.55c6,6.21,3.11,12.2.9,18.15l1,.22c1.21-4.24,2.41-8.48,3.76-13.24,5.79,5.27,7.93,11,6.54,18.52,8.47-17-19.95-25.62-19.81-42.24l1.17-.43c.82,1.24,1.65,2.49,2.54,3.85-.17-1.06-.32-2-.51-3.13,13.26.84,12.88,11.08,14.22,21.45l.56-.07q-.44-7.38-.88-14.74l.81-.26,8.74,13.85c-3.83-18.25-17.75-24.29-33.5-30.45.24-.73.15-.48.39-1.22l3.86.81c-3.94-2.21-6.22-4.19-7.14-6.34a9.08,9.08,0,0,1,3.85-1.21c2.53,2.94,7.47,1.77,10.42,4.36,4.07,3.7,7.76,7.86,12.09,11.18,5.29,4.05,11.29,7.22,13.85,14-.14-3-.72-5.81-.67-8.63s-3.17-5.25.56-8.18l7.63,33.24c2.28-6.79-1.35-15-4.11-23.49,6.12,1,6.58,6.12,8.67,9.65.68-7-6.09-9.94-8.49-15.38l12,5.07c-8.52-8.45-10-.93-17.94-17.36l.74-.78L379,1297l-12.35-10.52,5.48,1-23.53-9.08c-.08-.3-.09-.58.44-.7,4.33,3.36,2.05,0,4.17-2.15.56,1,1.6,1.32,3,1.51,0-.56,0-1.13,0-1.67,4.61,2.31,7.85,5.19,13.39,4.3-3.6-1.05-7.73.84-9.38-4.27l10.77-.76-5.58-1.71c3.37-3.07,6.8-2.37,10.3-.9-7.46-6.9-11.13,3.77-18.55,1.3.47-.57,2.11.27,2.8-.4,2.63-3.52,9.74-3.59,11.24-8,.54-2.58,2.08-2.72,4.12-2.37-.34,1-1.65,2.15-.68,3,1.6,1.21,1.53-2,3.56-1.5,1,.93-1.23,2.17.34,2.91,1.06.51,1.16,1.37,1.49,2.35l-.13.55c-2,2.23-5.1,3.12-7.66,4.5a15.23,15.23,0,0,0,8.41-3.31c.85,3,3.79,2.91,4.93,5.25,1.22-.23,1-1.7,2.21-1.93,2.3-1,3.11-.34,4.5,1.85-2.9,3.94-8.48,7.4-9.15,12.07l9.45-8.54,1.07.62c-2,11.85-10.84,20.24-18.55,28.75l.86.74,16.84-18.08c7.69,6.48-2.19,17.44,5,24.7-3.23-5.87-1.42-11.45.73-17.86.2,1.92.32,3,.34,3.22,1.09-6.81,6-13.37,8.89-19.7.61.46,1.21.95,2.13.51.54-1.16.16-2.45.42-3.82.4,9.71-.72,19.37.95,28.86,1.21-9-2.17-27.34,11.14-27.21-9.23,8.83-6,23.74-6.72,34.47,2.93-4.89,2.35-11.67,2.6-18.45,1.65,2.09,4.07,4.34,3.92,6.41a63.15,63.15,0,0,0,2.2,22c1.63,5.56-4.81,7.75-7.46,12.12,16.37-10.89,5.42-11.62,7.53-32.48a6.22,6.22,0,0,1,3.19,1.89c8.19,7.57.7,10.3,3,17.9,4.39,7.64.38,14.25-1.73,21.4,9.25-14.65,3.07-14.27,3.71-28.14l1.79-.15c1.18,7,2.36,14,3.73,22.1.33-2.92.52-4.68.63-5.62l18,12.18.6-.87c-18.84-10.55-18.15-18.94-21.79-38.36,6.46,2.4,6.1,10.13,9.07,15.36-4-27.8-9.62-11.33-14.9-23.63,17.92-10.83,10-.58,14.82,17.09l.65-.12c-.74-7.93-1.48-15.86-2.2-23.69,6.28,2,6.33,8.93,9.93,13.38-1.7-7.63-4.78-14.87-6.86-22.27a2.71,2.71,0,0,0,1.34.91,2.64,2.64,0,0,1,1.81-2.37q.66,2.6,1.31,5.17a50.6,50.6,0,0,0-.58-5.52,3.43,3.43,0,0,0,1.36-1.08,19.26,19.26,0,0,0,4.11,4.52c-1,7.46,1.18,14.65,2.61,21.94l.28,0q-.94-10.63-1.9-21.28l.09,0c6.17,8.76,9.46,17.78,12,27.9l1-.3c-3.08-10.57-5.87-21.15-10.19-31.3.28-.39,1.72-.47,1.6.25-.46,2,2.15,2.1,2.3,3.92.16,2,2.16,2.06,3.73,2.4.73.7.45,2.74,2.07,1.81s-1.14-2.37.44-3.19c2,1.39,4.55,1.9,3.34-1.61l.25.15c-.59-1-.12-1.12-.41-2.59a7.08,7.08,0,0,0,4.13,1.81c1-1.37-1.75-2.78-.2-3.75,1.16-.53,2.88-1.93,3.66-.69,1.48,2.32,4.46,1.68,6,4-.78-3.2,3.07-2.43,3.33-4.78,1.73,1.7,6.45,7.4,7.92,3.37.26-1-.48-2.48,1-2.81s.74,1.92,2.07,2.21c1.57.73,1.42,3.94,3.82,3.6,3-.71,1.54,3.09,3.93,2,2.06-1-1.2-2-.3-3.29,6.2,1.53,2.93,0,3.57-3.8,1.28.21,2.45,1,3.78.83a2.37,2.37,0,0,0-.53-2.19c-1.31-2.22,2.26-2,3.51-1.76,2.11.11-.42,3.4,2.08,2.9,2.65-.32-.49-2.52,1.06-3.54,4.52,2.94-3.09,11.6-7.33,12.78-2.75.7-5.19,2.58-7.77,3.94.14.28.29.56.44.84l19.2-10.17c-4.17,6.48-7.71,12.23-14.48,15.87,12.58-3.21,10.88-18.08,23.21-16,5.48.84,12.42-7.14,14.91,1.84-3.15,2.67-6.84,5-10.18,7.37-4.76-2.85-9.64-.47-13.48,6.37,8.95-7,8.95-7,11.22-5.27-9.3,7.48-20.16,15-25.8,25.64l18.26-16.7,1.71.58c.59,3.32,1.19,6.65,1.73,9.68,2-3.5.18-7.11-1.14-10.89l10.5-5.73,1.07.76L541.07,1313l1,.14c2.92-16.1-2.14-15.94,13.61-24.1,3.62,6.44-3.45,7.36-7.49,10.2l.27.56,8.25-3.36c3.23,9.2-18,26-20.74,37.93l17.6-20.19c3.17,7.45,1.5,13.49-1.12,19.52l2.33-3.13c1.63,3.36,3.05,6.32,4.48,9.29-.57-6.42-5.45-11.66-2.87-18.6-.49-6.1-3-8.73,4.49-12.49,1.08,6,2.1,11.56,3.11,17.15,1-8.72-4.92-16.2-.08-24.37,1.13,4.75,2.06,8.69,3,12.62.69-10.34-9.25-26.17-.69-34.67.75,1-1.07,2.14-.58,3.27.51.45,1.58-1.34,1.82.53.13,1.06,1.21,1.85,1.12,3.09-.15,2.19,1.75,1.67,2.93,1.82-.27,10.45.72,20.66,4.66,30.57.13-6.66-2-13.82-1.22-20.39a30,30,0,0,0,1.66-9.22,21.37,21.37,0,0,0,2.59-.68c5,18.65.43,25-2.15,42.88l1,.17c.57-12,11.08-21.6,8.3-34.58,11.38,9,.52,21.33,6.12,33.43.82-10.31-3.68-19.81,7.92-24.72-.23,3.64-.44,6.87-.67,10.4.62-1.3,1.11-2.33,1.84-3.89l6.06,8.5c-2.66-5.29-7.08-10.08-6.72-16.3a3.22,3.22,0,0,0,1.61-.21c.68-.21,1.23-1.35,1.93-.81a5.46,5.46,0,0,0,3.23.81c3.61,5.11,3.42,12.7,3,19,.37-5,.74-9.91,1.08-14.57,3.57,7.06,6.78,15.38,7.8,23.43l.57-.08-1.8-14.61.69-.22,5.94,11.11c-3.41-7.33-6.85-14.64-11-21.65a10.37,10.37,0,0,1,3.1-.73c.14.63.29,1.26.43,1.89l.92-.22c-.14-.57-.28-1.15-.43-1.72,2.31-.07,4.67.25,7-.38,1.06-.29,1.72-2,3.52-1,1.16.62,2.07-1.27,2.73-2.57.58,1.11-.35,3,2.1,2.35,1.54-.43,2.91,1.84,4.76.89.49,1.5,2.46,2.42,1.27,4.57,3.51-.52,3.55-4.56,6.33-3.81l.7.65a2.85,2.85,0,0,1,.23-.26c.24,5.48,6.51,1.34,9.64.93a22.64,22.64,0,0,0,.24,3.52c.2-1.23.41-2.44.64-3.79a3.52,3.52,0,0,1,1.36-.15c2.34,5.82-2.38,9.53-4.82,13.8l.95.51,7.69-10.81c.2.47.59,1.35,1,2.23a18.71,18.71,0,0,0-1.3-4.29c1,0,1.52-1,1.65-3,0-.38-.61-1.14.36-1,1.8.35,2.05-1,2.62-2,1.27,2.2,2.09,4.44.7,7.4,2.48-3.21,1.33-5.8-.09-8.41.49-1.09,1.92-2.27-.47-3.08-.11.49-.31-.7-.54-1,2.53,1.62,4-.76,5.94-.1a1.91,1.91,0,0,0,1.63,1.7c4.64,4.56-3,9.93-3.12,15-1.7,9-8.39,14.87-14,21.44l.64.55,11.39-12.39c-.17,1.91-.33,3.61-.48,5.31,2.33-7.16,2.46-15,7-21.38l1.37.46q-.55,11.63-1.1,23.26c1.69-8.5,1.51-17.45,1.24-26,2-3.3.59-5.55-1.32-7.88.5-1.32-.45-2.45,1-3.76.89,1.57,2.52,2.25,4.07,3.06.61-4.62-1.45-4.28,3.85-5.24.56,3.9-1,8.2-1.06,12.62,1.8-4.85,2.81-9.34,2.53-13.79a7.31,7.31,0,0,0,1.3-3.86c1.54,2,3.34.79,4.62,1-1.92,2.68-4.07,7.06-3.57,10,2.44,6.4-1.67,11.55-.93,17.64,1-6.23,4.38-11.49,2.69-18.39-.42-2.72,2.8-6,4.46-9.21,7.9,7.13,5.7,15.41-.89,21.38l1.8-.61.59.8-5.32,7.22,2.45-1.24c-1.64,7.65-3.2,15-4.77,22.28l.71.19,5.52-16.61,1,.19-.48,9.38c3.59-10.33-1.26-12.66,5.86-23.41,9.51,10,2.13,11-1.49,21.56l.67.3,5-9.07,1,.4c-1.73,5.82-3.08,11.63.33,17.27-4.44-12.59,8.6-21.57-4.19-32.74,4.23-6.37,3.88-13-.3-19.12a9.09,9.09,0,0,0,3.45-.13c1.32,6.27,2.65,12.54,4.24,18.75a12.89,12.89,0,0,0,4.26,6c5.54,6.22,4.51,15.14,1.34,22.61,4.09-7,8.54-13.88,3.63-22.52,7.69,3.44,6,9.17,4.8,14.89.55-.76,1.11-1.53,2-2.79.08,1.87.13,3,.18,4.23h.5V1316.1c5.21,3.83,2.21,9.61,1.58,14.79l.43.06,2.07-7.11.82,0,3,12.18c3.1-12.33-16.63-29.43-10.53-40.6l5.62,4.93c-.14,3-.24,5.22-.34,7.44l.62,0c.24-2,.48-4,.76-6.25,7,3.25,5.5,8.91,5.74,15.31,0-2.55.77-4.94,1.2-7.83,1.26,3.49,3,6.59.5,10,3.85-2.34,1.15-5.85,1.79-8.86,4.87,10.27,4.3,21.55,6.09,32.41V1319.1c4.56,5.45,4.75,11.9,6.54,17.72.32-7.94-4.84-14.6-7.24-21.82-1.46-13.92-17.41-18.21-20.3-31,2.95,1.3,9.35,1.67,8.41,5.61.13,1.54,3.22,1.13,1.77-.94,6.78,4.8,11.43,11.85,16.89,17.74-.37-5.7-6.44-11-3.33-17.93,4.52,6,8.56,12.15,10.2,19.19-3.66,3.11-7.36,6.16-11.19,9l.54.73,11-8.22a29.41,29.41,0,0,1,.28,8.58,32.28,32.28,0,0,0,1-11.47h0a64.91,64.91,0,0,0-1.65-9.65l2,3.33.65-.37q-2.34-4.08-4.67-8.16c4,2.37,8,5.15,10.59,8.93l-4.16,3.55,5.21-1.26c1.42,5.46-.9,11.67-1.11,17.3l.45.06c.86-4.63,1.73-9.26,2.75-14.73,1.54,3.3,2.67,5.73,3.81,8.16.44-4.29-2.77-8.58-4.53-12.22L787,1288.07l1,.59c-1.44,13.4-2.56,26.56-7.8,39.15,3.41-7,7.24-14,7.86-21.82,1.3-4.42,0-17.27,3.6-19.25,1.1.88,3.69.11,3.56,2.33-.1,3,4.44.71,2.21-1-1.33-1,.28-2.29,1.27-1.26,2.91,3.33,3.82-.25,3-3.09l.91-.65,4,2c.77-1.4-.19-2.13-.33-3.24l6.11-2c.39,1.63,1.88,1.43,3.1,1.4,3-.16-.15,4.18,3.21,3.27,7.52,16.67,18.37-5.41,3.78,32.41l.69.22,7.3-18.27h1l3.21,8.17c-3.23-24.83-8.78-13.78-12.44-25,2.91.89-.29-5.7,4-4.38,1.18.06,1.2,1.47,2.23,1.31,1.42-1.33-1.59-4.63.83-4.76,1.53,1.7,3.32.45,4.95.7a20.15,20.15,0,0,0,4.12.41c-2.59,7-.89,14.61,2.69,22.34-1.94-9-3.46-18.6,4.52-25,.85-1.32,2-.24,3.13-.39,6.39,5.81,14.58,7.06,22,7.75,6.29,12.36,7.39,14.41,2.47,27.31l.59.14c1.48-3.86,3-7.72,4.49-11.69,2.58,2,4.76,3.71,7,5.4-5.74-5.85-9.62-12.37-10.44-21.78,1.94.34,3.79.61,5.59.88l-1.4,1.38q3,6.87,6,13.73c-.17-5.17-4.58-9.45-1.88-14.7a43.41,43.41,0,0,1,10.42,2.71,122.67,122.67,0,0,0-8.33,21.6l.3,0q4.3-9.13,8.62-18.28l.47.16q-1.95,8.53-3.89,17a131.69,131.69,0,0,1,6.18-19.08c2.54,1.22,5,2.57,7.65,3.79a36.81,36.81,0,0,0-6.87-5.48,52.31,52.31,0,0,1,2.92-5.28l.19.24c1.34-.21,2.33-.79,3,.77h0c.71,1.89.69,2,2.95,1.4a.83.83,0,0,0,.25-1.23c2.62,1,2.05-1,4.05,2.57,1-2.22,2.4-3.68,4.18-1.92,3.16,10.19-15,13.93-9.77,24.39,5.79,11.87-5.47,23.23-.77,35.6-2.23-12.14,6.84-22.91,3.39-34.82-1.2-4.5-1.26-6.11,2.77-9.72,8.54,9.16,2.27,9.71,2.67,21.08l1.13.13c-.21-4.91-.7-9.9,3.54-13.53l-6.08-9c4.57-3,7-6.92,7-11.68a13.16,13.16,0,0,0,1.94,1.76c.41,7.93.3,15.89.85,23.82l1.11-.1c0-7.39-.15-14.73.64-22.1,1.66-1,4-2.65,5.32-.8,2.25,15,6.41,29.47,2.8,44.78,3.53-10.68,3.31-20.76,2-31.93,5.06,5.13,3.82,11.67,4.46,17.66,3.13-12.86-3-15.58-6.19-25.63a1.9,1.9,0,0,1,1.24.6l1.47.1c1,.77,2.31.52,3.53.53,2,4.82,1,13.31,7.2,14.73,7.06,1.54,6.44,13.07,1.59,16.92-1.89,1.7-2.23,3.71-1,5.46,4.09-10.23,8.37-8.87,4.32-22,7.15-3.06,8.25,13.36,11.07,17.81l.75-.26c-.86-3-1.71-6.09-2.73-9.7,7.11,3.06,6.55,10.27,10,14.89-1.2-9.83-6.45-13.08-11.41-20.37-1.51-4.86-2.68-6-7.63-6-9.69,1.2-5.35-9.92-7.55-15.79a48.68,48.68,0,0,0,4.61,2.47c.78-1.49-.39-2.88-.29-4.46a5.48,5.48,0,0,1,.56-.23l.19.42v-.47c7.81-2.31,2.81-2,8.68,4,.75,1,2.94.79,3.81,2.37.07.12.94,0,1-.1.34-2.41,3-2.25,4.21-4,.59,1.62,2,2.28,3.1,3.22,3.76,3.15,3.9,3.2,5-1.44l1.36-1,.76.1c-.59,2.36,2.1,2.66,2.68,4.29,2.47,3.26,6.66.84,9.91,2,3-.88-.5-3.11.45-5.1a18.29,18.29,0,0,0,4.82,1.71c-.4-2.43-2.84-4.08.61-5.32a3.59,3.59,0,0,0,2.42-3.86c-.12-.89.32-1.41,1.28-1.41,2.74-1.06,3.62-3.49,6.21-5.52a13.45,13.45,0,0,0,1.27,6.25c-.43.92-.86,1.83-1.28,2.74l1.77-1.55c.16.4.31.8.45,1.19l-1.14,4.92c.53-1.37,1-2.74,1.53-4.12,2.46-1.35,2.49-1.32,4.92,1.55,1.66-.45,2.6-2.2,4.37-2.46.86.46,1.43,1.07,1,2.15-1.31,4.84,4.08,4.73,6.53,7.79-7.16,1.87-12.1,6.8-16,13,4.87-5,10.05-9.29,18.3-9.82-8,10.93-15.14,21.59-18.6,34.75,3.86-6.61,7.44-12.74,11.26-19.3l2.18,3.44c-1.38-7.92,6.65-12,10.46-18.2,2.17.08.69,2.64,1.12,4.53,2.46-4.81,3.59,4.38,6.65,2.27a14.59,14.59,0,0,1-4.84,7.78l3.45-2.16c-.28,3-.5,5.4-.73,7.84,1.29-4.4,2.29-8.81,3.3-13.24.84.58,2.82,4.12,3.23.73a2.35,2.35,0,0,1,2-2.43c1.77.06,1.53-1.46,2.25-2.32a10,10,0,0,0,3.62,3.47c0,.21-.09.42-.13.63l.5.14.17-.45a21.12,21.12,0,0,0,4.15,2c1.15,1.4,2.31,2.83,3.47,4.26l.86-.63c-1.09-1.25-2.38-2.39-3.5-3.63.93,0,1.33-2.85.91-4.28-.59-1-.43-1.6.85-1.73s2-.11,1.59,1.49c-.07,3,2-.56,3.52,3.73,2.4,4.65,6.29-.74,6.3,3.53-.22,1.65,1.9,1.6,2.63.56.91-1.51-2-2.13-1.34-3.89a1.81,1.81,0,0,1,2.35.26c.8.7,1.85.31,2.78.39.77-1.72-.41-3.12-.85-4.7,2-.87,4-.56,6.1.21a9.67,9.67,0,0,1-.58-1.79c-.09-1.36-2.53-1.63-1.32-3.81.77-1.38,1-2.44,2.82-2,1.89-1.43,1.52-3.47,1-5.4,1.59,2.08,3,4.35,4.52,6.46.15,5.2-.67,10.73-.84,16l.3,0q.62-6.88,1.22-13.77l.87-.24,5.43,7.54.51-.36q-4.89-8-9.81-16a14.88,14.88,0,0,1,5.92.42c1.44-.85,3.1-.73,4.72-.79a12.26,12.26,0,0,1,1.14,2.14,19.7,19.7,0,0,0-.72-2.17,5.39,5.39,0,0,0,3.38-1.19c2.8.33,4.81,1.62,5.14.59,3.25-3,8.56-2.64,11.11-6.61h1l-13.61,15.09c.27.29.18.19.44.49l10-7.17.61.64-4.92,6.29c6.68-4.67,6.36-10.33,14.72-13.58,4.53,8.45-.07,12.28-6.62,15.38l6.58-2.49-6.57,12.64.46.29c2.86-3.83,5.72-7.66,8.69-11.62l.64,1.68,5-8.86,1,.32q-.37,4.6-.77,9.21c1.14-6.69,2.29-13.35,4.54-19.68,2,0,3.12,1.65,4.85,2.6.65,6-.45,12-1.5,18l2.49-4.84.82.1c1,4,2,8,2.86,11.22.64-6.93-4.62-14-1.62-21.13a15.65,15.65,0,0,0,.35-5.62c2.36,0,3,2.44,4.28,3.7.06,7.37,1.28,15.71,2.59,23.57v-22.9c2.76-.11-.14,4,3.15,2.64a134.49,134.49,0,0,0,6.15,16.06c-2-6.49-3.58-13.1-5.91-19.48,6.12,3.32,2.47-3.53,7.44-.56.72,4.41,2.57,8.6,4.15,12.69-1.67,3.79-3.2,7.27-4.72,10.75.24,1.36.48,2.73.62,3.48,1.29-3.88,2.65-8,4-12.11l1.25-.1,2.75,5.23.27-.1-5-17.56c10.13,1.88,4.85,10.54,7.06,17.48l.69-.08v-10.87l3.21,1.78c-2.92-3.66-4-6.11-7.15-8.51-1.18-.93-3.27-1.11-3.67-2.69,1.6-.84,2.92-2.53,5-1.88.7.23,1.17-.32,1.62-.75,2.51-2.35,4.93-.6,7.11-3.86,1.83,12.19,2.33,24,13.91,31l-2.69-3.54.4-.52,6.59,2.76c.11-.29.23-.57.35-.86-10-3.33-16.27-8.37-14.32-20l2.84,2.45c-1.67-3.68-3.45-7.62-5.49-12.1,3.37-.57,7.95-1.6,8.77,2.94.2-.23.37-.47.55-.71,1.5,3.87,2.92,7.56,4.34,11.24.32-.34.64-.69,1-1l8,1.22c-9.12-4.22-9.72-1.76-12.43-12.64.69-1.08,1.32-2.17,2.08-3.17q1.38.18,2.67.45c.64,1.67,1.38,1.8,3.2.84a32.07,32.07,0,0,1,11.83,7l.6-.82-9.39-8,.6-1,2.77,1.07c.1-.28.2-.57.31-.86-.63-.23-1.25-.48-1.87-.74.73-.49,2-1.64,2.56-1.42,2.22,1,4.16.32,6.44-.6-5.75,3.84-.43,6.47-3.61,7.31-1.65.56,0,3,1,1.38.48-.75,1.06-1,1.86-.34.27,1.17-1.16,2.66,0,3.48,1.9,1.18,2.61-1.73,4.57-1.4-.11,1.52-.67,3-.16,4.55,1.15.06,1.64-1,2.49-1.43,1.06-.5,2.89-.58,3,.33.39,2.91,2.06,2.34,3.84,1.9a.78.78,0,0,1,1,.31c1.54,2.7,4.64,2.86,6.84,4.34,4.5,3.51,8.2-1.16,12.72.13a1.69,1.69,0,0,0,1.4-.36c2.89-2.27,6.58-3.34,9.09-6.22,1.49-1.91,5.22-2.76,7.81-2.44-.19,2.54.47,5.25.65,7.87.63-2.52-.29-5.13.47-7.29,2.27,3.08,3.14,1,5.38-.52a2.64,2.64,0,0,0,0,.28c0-.11,0-.23.07-.34a16.52,16.52,0,0,0,3.62-2.18c.76,2.06,1.38,2.9,2.54,2.91-1.09,5.52,6.43,10.35.61,14.77-1,1.12-2.13,2.19-2.37,3.71,1.32-.82,1,.21,1.85.43,10.62-13.7-5.28-18.31,7.68-19.68a3.73,3.73,0,0,0,3.3,1.55c-1.3,6.87-4.51,11.55,3.12,15.42,6.8,4-2.05,10.92-3.93,15.6l1-.21c-.1,1-.18,1.92-.27,3,1.5-3.1,2.9-6,4.33-8.93,2.06,2.9,3.84,5.39,5.61,7.89l.61-.41-.18-1.47,0,0c12.6-18-1.92-16.53,3-28.36,3,.11,5.92.32,8.63-1.16,2,1.66,3.22,6.19,1.8,8-6.67,6.52-4.61,14.89-5.53,22.62,2.68-6.58-1.41-15.3,6.73-20.58-.24,9.53-2.44,18.72.22,27.82-1.65-13,6.46-27.31,1.25-39.57a3.73,3.73,0,0,0,.34-1.31c.83.77-.18,2.66,1.28,2.43,1.71-.27,2.85,1.06,4.14,1s1.55.85,2.3,1.24c1.25.65.37,1.68.56,2.48-2.68,4.25-8.75,9.06-3.11,13.73-1.44-2.85-2.19-5.55.53-8,4.32-2.78,4.34-8.87,9.61-9.63-.16,3.46.3,4.27,3,3.75.93,1.56,1.8,3.14,2.69,4.71l-3,3.68c1.14-1,2.25-2,3.35-3,.7,1.23,1.44,2.45,2.24,3.62l-1.5-4.31c1.14-1.06,2.24-2.14,3.34-3.23l3.06,10.05a44.81,44.81,0,0,0-1.7-11.4l1.35-1.37a2.3,2.3,0,0,0,3.5-2.61c-.12-.39-.51-1,.47-.89,1.38.19,2.4-.67,3.52-1.35.22,3.77-1.72,8.13,1.11,11.58h0a15.21,15.21,0,0,0,4,3.8c-1-1.72-1.81-3.07-2.44-4.18,1.22-.31,2.26-.58,3.18-.86,2,3,3.92,6,6,9.08-1.74,3.7-3.34,7.49-5.13,11.15l.56.33,5.75-9.67,2.36,3.6c-.66-1.52-1.22-3.08-1.75-4.62l8-13.49.21,0a3.78,3.78,0,0,0,2.22,2.81c3.41,5.78,9.4,10.5,6.63,18.83,3.79-6.78-1-12.35-4.25-18,7.22,2.71,9.73,4.85,17.17.91.83-1,2.85,0,3.63-.09.76,5.25,1.48,10.26,2.14,14.86v-15.53c1.26-.9,2.38-3.24,4-3.11l2.09,7.25a45.29,45.29,0,0,0-.7-7.49,3.94,3.94,0,0,0,1.68-1.6c.88-1.34,3.29-1.4,3.11-3.66,3.31,0,2-2.6,2.35-4.53a43.39,43.39,0,0,0,1.54,12.72l1.24-.17a19.72,19.72,0,0,1-1.65-10.62c4.29.06,7.53-3.46,10.47,1.44.33-.91.64-1.81,1-2.69,1.91,2.71,5.76,1.17,6.84,3.49,4.86,10,10,17.28,10.58,28.62v-9.84l4,5.25.51-.37-12.12-23.45c9.83.65,20-.85,24.65,10.34-4.49-13.94-15.39-13.31-27.47-16.53,1.74-1.47,3.49-3.28,5.21-4.83,3.88,1.67,8.25,2.46,12,4.32,19,6.16,23.09,1.1,27.21,23.23l.53-.13c-.64-3.53-1.27-7.06-2.09-11.62l5,5.72c-3.14-8.53-8.83-13.69-16.42-16.94,3-.82,6.23-.85,8.59-3.24,2.08.35,2.24-1.37,3-3-.15,2.81,1.61,2.38,3.73,2l4.56,5.78.53-.42c-1.11-1.65-2.22-3.3-3.53-5.23a4.15,4.15,0,0,1,3,3.49c.77-1.21,1.84-1.85,2.38-2.91l8.26,4q-3.72-2.7-7.54-5.18c.51-.22,1.24,0,1.75-.26.81-.4.39.8.58,1.26,1,2.58,3.59.57,5.2-.25,4.73,2.58,14.69,6.74,15.23,6.94,1.62.62,3.17,1.14,3.89-1.21a136.26,136.26,0,0,0,19.27-7.15c-8.83,7-19.06,11.53-27.17,19.76l19.45-12.11c-1.31,12.1-7.31,21.75-15.59,30.19,20.08-13.61,12.21-22.44,29.94-35.67,1.62.88,1.64,3.17,3.25,3.93.91.44,1.2,1.86,1.69,2.46-1.2,5.84-7.63,9.35-11.25,14.12l12.09-10.73,1.32.55c-2,12.33-11.17,5.92-14.44,31.61,4.23-8.12,3.22-18.18,12.5-23.12,3.57-2.16,4.5-6,4.29-10.17a2.8,2.8,0,0,0,1,.4c-.21-2,1.27-2.45,2.49-3.49,2.06-1.75,2.47.95,3.77.84a16.07,16.07,0,0,0,3.18,2.64c-3.41,7.49-11.31,11.64-15.59,18.8l.92.77c3.69-4.59,7.85-8.53,13.72-10.4,2.38,8.27-9.12,11.11-5.89,19.43.32.92-.13,2.1-.23,3.17,3-4.77-1.89-5.76,5.46-13.5,3.38-6.06,3.81-13.94,7.63-20,1.85.71,1.64,3.23,3.39,3.71,1.85,10.42,10.7,21.4-.24,29.55-.06,0,.1.35.37,1.2l7.56-9.46c3.1,14-10,7.25,3.3,26.5-.24-4.91-6.86-11.52-3.92-15.18,6.94-8.75.5-16.72-2.87-25.17,7.72.38,7.52,7.63,10.7,12.58-2.67-18.33-9.63-9.82-12.27-20.27,1.54.09-.38,3.61,2.29,2.45,2.12-.82-1.37-2.17-.16-3.33.71-.74,1.33.16,2,.33a3.8,3.8,0,0,1,2.28,1.18c1.61,2.38,3.5-.57,4.23-2,.15-.42.12-1.07.86-.73.53.24,1.56.5,1.2,1.14-1.2,2.09,1.32,3.48.78,5.47a2.47,2.47,0,0,0,1.9,3.18c2.81.41-.83,4.14,2.36,3.79,2.64-.29-.21-2.49,1.24-3.26.87-.39,1.15.8,1.55,1.28,1.59,1.67,2.06,1.42,3-.64.42-.91-.33-2.32,1-2.86-3.22,10.92-1.57,12.49.19,18.31-.74-5.79-1.12-11.46,1.12-17l2,2.33c1.81-1.46-.3-3.57,1.71-4.84,1-.55,1.55-1.12,2.86-.23,3.3,1.39,2.25-4.71,5.21-2.74a2.73,2.73,0,0,0,1.9-.16c-.23,3.52-6.06,11.38-6.77,16.41,2-3.64,4.08-7.33,6.12-11l1,.26a47.53,47.53,0,0,1-1.17,13.45c2.4-6.41,2.63-13.06,2.58-19.75,2.42-1.13,4.62-2.81,7.33-3.3-3.16,5.44-2.57,11.66.31,17.1-1.76-7.39-1.12-13.49,2.8-20.3.84.41,1.11,2.29,2.08,2.47,2.29-1.09,2.41,1.8,4.14,2.21a2.2,2.2,0,0,1,1.45-2.48c5,11-7.84,17.49,6,29.07-10.31-12.85-.26-18.29-3.74-30l.65-.24c2.46,2.84,5.18,5,7.19,8.21a17.53,17.53,0,0,0-.86-4c.88-.73,1.09-2.71,2.58-2.13.65.31,1.63.76,1.32,1.55-1.36,4.14,4.48,1.35,5.88,3.61.49,5.71,3.68,10.38,5.89,15.48-1.35-4.49-3.2-8.89-3.72-13.6,4.38,1.84,3.37,5,5.43,5,1.66-.31,2.88-.18,3.47,1.74.1.32,1.79,1.74,1.81-.53s2.75-2.31,3.94-3.8c4,17.82-9.19,9.73-6.1,25,1.13-8.3,1.92-8.59,8.53-13.64,5.55,10.27-9.19,21.29-.7,27-3.14-6.32,1.07-12.4,3.84-18.31l4.71,9.8.34-.14q-4.05-12.3-8.09-24.59c5.18,5,5.18,5,10.53,3.21-6.48-2.33-6.71-2.54-8.22-5,1.53.64,2.72,3.4,4.65,2.16,1.77-1.34,1.21-3.7,1.17-5.61a14.31,14.31,0,0,0,1.92-.3c.24.2.4.35.65.55-.82,5.23,1.69-.2,3,5,2.15,5.1,6.1-.37,6.38,4.12-.33,2.2,3.21,1.21,2.71-.59-.11-.61-.12-1.2-1-1.36-1.12-.26-.24-2.09.62-1.74a27.73,27.73,0,0,1-.27,16.31c3.15-5.82,2.69-13.79,8.41-17.65,3-2.23,4-5,4.73-8,.23-2.63,3-2.31,4-4.24.12.23.26.44.39.65-4.72,10.46-2,23-10.58,31.66-.65.64-.5,3.36.19,3.85,5.49,4.06-1.23,8.1-3.75,11.32,7.53-5,8.55-8.68,4-13.44l5.66-6.74c3.68,10.83,19.45,36.12,15,45.65,1.78-4.12,6.87-5.83,9.4-1.13,1.11-6.27-4.84-3.7-7.34-5.36-1.41-5.6-2.82-11.15-4.22-16.69,6.34.3,13.91-3.4,14.84,5.4a11.85,11.85,0,0,0,1,2c-.69-19.64-17.69,0-20.33-18.69h14.44c-15.26-3.15-21.17-2-18.25-21.15,7.48,6.43,7.68,19,17.4,12.69-7.61.73-7.54.7-10.29-6.94-7.59-9.52-8.22-6.24-3.27-18.75.85.51,1.74,1,2.62,1.44,2.25-1.69.12-6,3.2-4.65-.87,2.34,2,2.37,2.45,3.95a3.08,3.08,0,0,0,2,2.27c.86,2.29,1.48,4.76,2.34,7.05q-.52-3.36-1.07-6.9c2.44-.86,1,3.31,3.28,2.32,1.9-.85-.89-2.56.44-3.53,1.17.15,2.1,1.8,3.38.83,1.3-1.41-1-3,.17-4.67a14.1,14.1,0,0,0,4.12,1.33c.38-1.22-.88-2.47-1-3.27.75-.62-.25-3.43,2.24-1.88.6,6.46.13,13.34,1.93,19.79,1.77,5.84-1.88,10-4.72,14.63,11.19-8.36,4.38-23.07,4.74-34.89l1.53-.41c4,6.14-1.16,16.18,4.24,21.3,6.81,1.87,3.26,6.48,3.12,11.62,5-15-.23-7.28-4.11-16.08-.23-4.12-.09-8.26-.09-13,11.67,8.22,16.14,15.42,18.68,29.41,2.76-14.42-11-26.49-19.53-36.81a3.17,3.17,0,0,1,1.66-2.38c2.63-.58,7.34,4.38,7.94,1.22,12.63,1.67,14.76,15,16.18,25.46l.51-.11-1.09-11.65,7.51-.61.09-1.13c-6.94,2.77-9.8-4-13.06-8.63.55-.94-1.17-1.39-.44-2.31,1-.3,2.25,1.34,3-.28.39-.82-.41-1.61-.46-2.5l.8-.61c.81,0,2.29,1,2.71.07l-.25-.7,5.08-1.75-2.48-.91c3.09-1.58,12-3.24,13.61.89.89,2,3.72,6,6.23,4.94,1-.6,2.44-.72,3.14-1.91.42.44.81.88,1.21,1.3l-13.83,9.61c.22.32.43.64.64,1l7.64-4.55c-.82,7.18-2.29,13.31-9.49,16.16,14.68-3.11,5.5-17.3,17.83-19.69,1,.56,1.58.15,2.42-1.38l2.18-.15c.52.8.91,1.75,1.43,2.56-7.39,2.54-7.72,10.14-9.22,16.65,3.94-5.64,1.9-15.45,11.39-14.53,1.18,5.91-5.67,7-7.25,11.56,3.86-2.73,8.9-5.67,8.74-10.57,0,.36.25.6.75.58,2.27,0-.87-3.77,2-2.38,3.12,1.4.86-2,1.94-3.22,1.09,0,1.88,1.29,3,.7.6-1-.89-2.18.28-2.78v5.13a28.53,28.53,0,0,1,.93-5.1c1.16,1.55.68,4.94,2.66,5.61s2.57-2.2,3.91-2.93c.35,7-10.58,10.94-15,16,.15.19.3.39.46.58l8.54-5.55.6.82-3.25,3,.49.5,9.41-9c.23,1.13-.39,2.64.83,3.33-.51,8.7-10.3,10.55-16,15-8,6.65-16,13.44-23.12,21.07l.27.13,15.35-11.39c.17,2.09.33,4,.54,6.64.83-9.57,0-7.15,6.83-12.53a31.4,31.4,0,0,1,8.2-5.18c-4.88,6.91-11.07,12.59-13.17,21.21l7.48-10.1.84.25c.08,1.31.15,2.63.23,4,.21-3.57.27-7.1,4.72-8.47,2.36,6.13-2.12,10.77-3.3,15.52,3.27,1.33,2.21,4.47,3.61,6.53-3.12-6.78.57-12.48,1.93-18.73-1.42-9.12,1.77-3.36,5.85-12.41,6.73,8.54-1.82,18.53-2.9,27.89l1.16.31c1.15-9.37,8.65-18.6,4.53-27.88-.59-1.22-.41-2.8-.71-5.26l2.79,2.4c-.44-1.56-.76-2.72-1.09-3.88,17.91,14.75-1.27,17.13.08,33.28.85-4.64,1.62-9.3,5.51-13.15-.52,4.76-1,9.06-1.45,13.35,1.21-11.36,6.1-21.44,10.31-31.77.91,4.87-1.32,10.9.78,15.12,3.55,6,3.39,11.7,2.95,18.09.54-3.12,1-5.9,1.65-9.59l2.92,4.62.71-.42-6.7-12.81,11.29,10.69c-4.72-7.47-14.39-12.76-9.81-24.59a17.23,17.23,0,0,0,2.86,3.82c-1.41-3.25-3.68-6.26.37-9.59,2.28,3.61,4.47,7.06,7,11.09-.58-1.67-.93-2.66-1.34-3.8,10.27,1.19,4.07,10.52,5.53,18.18l.81,0v-8.93l1.38-.09c.42,4.7.41,9.68,1.66,14.2,1.9,4.13.29,6.82-1.3,10.71,6.87-6.14.8-11.85,1.11-19.49,6.15,4.51,6.82,10.26,7.82,16l-.68-8.55c6,6.21,3.11,12.2.9,18.15l1,.22,3.75-13.24c5.8,5.27,7.93,11,6.55,18.52,8.46-17-19.95-25.62-19.82-42.24l1.18-.43,2.54,3.85c-.18-1.06-.33-2-.52-3.13,13.27.84,12.89,11.08,14.22,21.46l.57-.08q-.45-7.38-.89-14.74l.81-.26,8.74,13.85c-3.82-18.25-17.74-24.29-33.5-30.44l.4-1.22,3.85.8c-3.93-2.21-6.21-4.19-7.13-6.34a9.13,9.13,0,0,1,3.84-1.21c2.53,2.94,7.47,1.77,10.43,4.36,4.06,3.7,7.75,7.86,12.09,11.19,5.28,4.05,11.29,7.22,13.84,14-.14-3-.72-5.81-.67-8.63s-3.17-5.25.56-8.18l7.63,33.24c2.28-6.79-1.35-15-4.1-23.49,6.11,1,6.57,6.12,8.67,9.65.68-7-6.1-9.94-8.5-15.38l12,5.07c-8.52-8.45-10-.93-17.94-17.36l.74-.77L1918.3,1297l-12.36-10.52,5.48,1-23.52-9.08c-.08-.3-.1-.58.44-.7,4.32,3.36,2,0,4.16-2.15.56,1,1.6,1.32,3,1.51,0-.56,0-1.13,0-1.67,4.6,2.31,7.84,5.19,13.38,4.31-3.6-1.06-7.73.83-9.37-4.27l10.77-.77-5.59-1.71c3.38-3.07,6.8-2.37,10.31-.9-7.47-6.9-11.14,3.77-18.55,1.3.47-.57,2.11.27,2.79-.4,2.64-3.52,9.75-3.59,11.25-8,.53-2.58,2.07-2.71,4.11-2.36-.34,1-1.64,2.14-.67,3,1.59,1.21,1.52-2,3.55-1.5,1,.94-1.23,2.17.34,2.91,1.07.51,1.16,1.38,1.49,2.35,0,.18-.08.37-.13.55-2,2.23-5.1,3.12-7.66,4.5a15.2,15.2,0,0,0,8.41-3.31l.11.27V963.92A7,7,0,0,0,1914.88,969.4ZM58.07,1056.09a3,3,0,0,0-3-1.33c-1.58,3-4.26,1.89-6.75,1.38a.82.82,0,0,1-.68-1,1.59,1.59,0,0,1,1.74-1c1.72.13,3.41.49,5.12,0,.24-1.63,1.57-2,3.16-2.16,1.77-.18,1.5,1.08,1.89,1.91.9,2,2.83,2,5,1.82C62.57,1057.62,59.48,1057.83,58.07,1056.09Zm22.29,3.46c-1.66.11-3.08-.5-5.48-1.26a13.53,13.53,0,0,1,1.47-.24c1.4.28,3.05-.23,4.15,1C80.59,1059.12,80.43,1059.54,80.36,1059.55Zm7-62.45c1.51-.43,2.06-2.54,4.3-1.84.75.24,1.86.65,1.42,1.11a52.83,52.83,0,0,1-4.81,4.13c-.4-.78-2.09-.43-2.43-1.56S86.28,997.42,87.39,997.1Zm-4.41,16a7.06,7.06,0,0,0,1.07-1.63c.35-.64-.5-2,1.11-1.85s2.16,1.28,2,2.82a2.7,2.7,0,0,1-2.28,3.08,2.58,2.58,0,0,1-2.41-.53C81.62,1014.18,82.41,1013.65,83,1013.06Zm7.72,47.22c-.34,1.72-2.54.59-3.42,1-3.41.44-4.46-.93-4.22-3.36.07-.72-.36-1.68.56-2.1,1.2-.55,1.41.5,1.76,1.14a2.4,2.4,0,0,0,2.08,1.22C89.41,1058,91.06,1058.45,90.7,1060.28Zm3.51-51.92c-1.9.45-3.38,1.27-3.58,3.19a.77.77,0,0,1-1,.66,1.07,1.07,0,0,1-.56-.72c-.47-2.2,2.1-5,4.65-5.07.66-.15,1.28-.08,1.53.54C95.54,1007.74,95.05,1008.15,94.21,1008.36Zm9.58,52.29c-.42,1-1.65.73-2.61.68a18.9,18.9,0,0,0-3-.22c-2.66.34-3.23-.91-3.08-2.83a22.32,22.32,0,0,1,.24-2.57c.26-1.32,1-1.91,2.59-1.16,1.19.54,1.76,2.17,3.76,1.48.74-.26.55.7.38,1.18-.24.66-1.1,1.33.2,1.89C103,1059.43,104.15,1059.73,103.79,1060.65Zm.14-20.2c-1.14-.59-3.7.58-3.49-1.82.16-1.79.91-3,3.42-2.07,3-1.48,2.22.88,2.49,2C106.78,1040.34,104.78,1040.88,103.93,1040.45Zm13,19c-.19.3-.9.16-1.26-.22-1.18-1.29.53-2,.75-3.06A2.28,2.28,0,0,1,116.94,1059.41Zm40.77,236.79c.48-1.8-1.62-3.34-.66-5.3l3.85,1.35C160,1293.43,159,1294.74,157.71,1296.2Zm4.43-5.7c-2.21-2.57-1-2.93.64-5.11a4.24,4.24,0,0,0,1.45.84A14.7,14.7,0,0,1,162.14,1290.5Zm26.17-234.42a1.06,1.06,0,0,1-1.71-.56c-.56-1.62.88-2.28,2-3.11a5.08,5.08,0,0,1,3.31-1.19c1.86.13-1,1.69,1.71,2.26A15.14,15.14,0,0,0,188.31,1056.08ZM212.36,978c.54-.19.5.21.57.48-.09.16-.18.32-.28.48a5.44,5.44,0,0,1-.67-.59S212.19,978,212.36,978Zm2.45,13.77c-.89,6.92-.89,6.92-4.56,5.49Zm-3.25,62.17c-1.66-.73-3.08.62-4.58,0-.08.42-.1.9-.75.94-.13,0-.41-.27-.39-.39.1-.54.61-.59,1.12-.57,0-1.61,2.06-2,2.72-1.87,3.87,1.08,6.78.13,9.14-3.89C218.82,1052.42,214.53,1055.2,211.56,1053.91Zm9.11-53.32c-1.36.76-2-.43-2.92-.78s-1.24-1.26-.56-1.47c2.82-.89.28-5,3.77-5,1.69,0,1.48,2.19,2.45,3A5.53,5.53,0,0,1,220.67,1000.59Zm16,26.3,1.73.42c.8.21,2.14-1.13,2.38.42s-1.25,1.3-2.35,1.26c-.63,0-1.45-.12-1.64.45a1.8,1.8,0,0,1-2.49,1.27c-1.32-.33.07-1.69-1-2.16a5.55,5.55,0,0,1,2.62-1.56A2.1,2.1,0,0,1,236.62,1026.89Zm-10.45-34c-.19-.3.08-.83.45-.63,2.35,1.22,4-2.61,6.32-.65.75.64.33,1.38-.64,1.81-1.17.53-2.78.06-3.67,1.28-.64.88-1.39,1.69-2.41,2.91C225.49,995.6,227,994.27,226.17,992.88Zm3.5,46.12c1.29-1.4,3.06-.89,5.36-.93-1.3,2.07-2.47,3-4.54,2.18C229.84,1040,229.32,1039.38,229.67,1039Zm-5.4-57.29a1.36,1.36,0,0,1,.85-1.62c3-1.68,6.12-2.29,9.85-.39-3.2.92-6.09,1.74-9,2.58C225.21,982.51,224.48,982.63,224.27,981.71ZM229,1269.94c.17-.71,1-1,2.66-1.27C230.79,1269.11,229.91,1269.54,229,1269.94Zm18.21-226.44c-2,.16-2.7,2.4-4.8,1.6-.15.87-.37,1.68-1.75,1.31l0,0c.11.42-.07.7-.54.83-.33,2-1.81,2.27-3.72,1.85-2.2,2.51-5.47,2.6-8.51.16A16.2,16.2,0,0,1,226,1047c1.9-.68,3.75-.35,4.86-2.67s3.69.07,5.5.9l4.56-.13a1.07,1.07,0,0,1,1.26-.57c2.92-1.54,5-3.44,3.59-7,2.29,3.16,5,1.28,7.66.82C253.53,1042.12,250.24,1043.25,247.23,1043.5Zm6.16-45.21c-.94-.16-1.06-.77-1.06-1.45v-3.46c2.79.16-.27,3.84,2.85,3.8C255,998.06,254.44,998.47,253.39,998.29ZM263.47,1038a2.93,2.93,0,0,1-2.68-.67.82.82,0,0,1,.07-.86,2,2,0,0,1,2.66,0c.85.5,1.91-.69,2.66.31C265.75,1038.05,264.51,1038,263.47,1038Zm36.4-32.58a1.87,1.87,0,0,0,.53-1.45,2.32,2.32,0,0,1,2.42-2.33c1.17.18,1.56,1.75,1.93,2.8-.63,1.16-.55,2.37-1.75,3.24-1.59,1.15-3.07.37-4.06-.28C297.4,1006.42,299,1006,299.87,1005.46Zm-4.25-4.4-.11.25-.11-.25Zm-2.8,3.76c.61-.75.53-2.32,1.83-2.29,1.08,0,1.87.21,1.54.84-.49.91.29,2.43-1.27,2.69C294.18,1006.18,292.35,1005.4,292.82,1004.82Zm11.71,287.6c-2.15,2.27-3.22,5.57-4.46,7.82-1.6-2.69-3.74-6.21-5.8-9.75,1-1.13.54-3.2,2.17-3.92.73,1.46,2.3,2.33,2.88,4.75,1.78-3.29.55-5.86,5.15-5.07,2.5.45,2.67-2,4.22-3a5.15,5.15,0,0,0,.48.37A16.9,16.9,0,0,1,304.53,1292.42Zm8.24-290.61c-3.84,1.56-3.84,1.57-5.87,4-.24-3.46,2.22-6.06,5.17-6,.82,0,1.52,0,1.66.83C313.84,1001.24,313.39,1001.55,312.77,1001.81Zm31.72,274.61a3.26,3.26,0,0,0,.43.55l-1-.37ZM339,1008c1,1.3,3,1.85,3.18,3.66.13,1.14-.84,1.34-1.65,1.21-2-.32-2.15-2.16-3.11-3.31C337.14,1009.26,338,1008.26,339,1008Zm-11.24,265.49c2.23-2.81,6.62-9,8.95-2.72,3.49,5.56,2.78,1.48,5.73.14a6.8,6.8,0,0,1,.93,2.23C338,1275.15,333.85,1276.21,327.73,1273.49Zm25.44,16.75c.54.66,1.46,1.75,1.26,2.17-2.49,4.78,1.83,8.82,1.15,13.27l-19-17.64c.16-.39.32-.78.47-1.17l4.66,1,.17-.65-7.69-1.9C342.32,1282.81,348.54,1284.54,353.17,1290.24Zm45.11,6.26c-5.08-7.61-5.32-13.2.5-21.06.9,1.82,1.46,4.18,2.79,5.77C401.85,1286.41,401.48,1291.46,398.28,1296.5Zm4.66-9.33q0-2.6,0-5.19C406.26,1282,403.65,1285.51,402.94,1287.17Zm41.26-271.7c1.76-.76,3.06-2.67,5.53-1.42.81.41,1.81.81,1.09,1.65-1.37,1.58-4.59.79-5.25,3.44-.93-1.08-2.57-.73-2.77-2C442.66,1016.21,443.33,1015.85,444.2,1015.47Zm-7.62,17.46c1.44-1.33,4.27-1,4.71-3.72.69.72,1.16,1,1.26,1.34a2.7,2.7,0,0,1-1.35,3.34c-1.69,1.15-3,0-4.47-.17C436.64,1033.71,436.45,1033.05,436.58,1032.93Zm5.8,20.57c.12,1.38-1.59,1-2.07,1.71-1.07-.11-1.76-.54-1.7-1.23.09-1.19,1.71-.92,2.48-1.63C441.63,1051.87,442.32,1052.93,442.38,1053.5ZM417,998.21c-.33,1.51-2.64.59-3,1.84-1.1.15-1.67-.52-1.49-.85.6-1.12,2.1-1.2,3.23-1.7C416.56,997.17,417.15,997.63,417,998.21Zm-6.77-7c.56-.63,1.84-.78,1.66-1.9a17.31,17.31,0,0,1,2.9.19c.84.2,1.18.94.32,1.41-1,.56-2.05.86-2.64,2-.44.87-1.23-.39-2-.46S409.84,991.65,410.26,991.17Zm-.26,55.69c-.07.42-.39.94-.76.76-.7-.34-.22-.83.14-1.21a.84.84,0,0,1,.08-.32c.54-.88-.81-2.37,1.05-2.75,1.06-.22,1.47.67,1.76,1.38C413.08,1046.68,410.92,1046.28,410,1046.86Zm7.7,232c-.22,0-.54-.61-.82-.94l-4.14,5.07c-.2-1.23-.43-2.4-.65-3.52a4.23,4.23,0,0,0,2.21.5c-2.21-4.83,3-2.79,3.84-6.12.24-2,2.33-1.55,3.55-2.48-.78,2-2.39,3.58-3.81,5.29,1.59-1.7,3.91-3.16,4.76-5.08.92,3.46,4.27-2.67,4.92.16a6.31,6.31,0,0,0-.16,4.67C424.32,1277.94,421.06,1278.39,417.7,1278.87ZM430,1295.13c-1.11.24-2.69-1.68-4.9-3.21l8-4.64,6.44,4.14C435.93,1292.91,433.07,1294.47,430,1295.13Zm10.89-5.79-5.43-3.5c1.35-1.91,2.61-3.71,4-5.76C444.56,1284.2,444.58,1284.34,440.91,1289.34Zm7.62,4.1-.52.35-5.61-4.44,2.46-3.44Zm2-265.71c-3.74,1.63-3.73,1.66-5.53,3.68-1-1.54.66-2.74-.16-4.07-.56-.9.37-1,1.21-.95,1.86.21,3.58-2,5.41-.4C452.12,1026.59,451.45,1027.31,450.49,1027.73ZM459.4,1060c.22,1.41-.82,2-2.06,2.32s-1.57-.33-1.74-1.17c-.85.11-2,.46-2.4-.28s0-1.71.64-2.39c1.29-1.39,3.07-.58,4.58-.55S459.27,1059.19,459.4,1060Zm5.51,11c-1.68-.34-.93-2-1.4-3.07-.35-.8.37-1.44,1.5-1.31,1.91.22,1.46,2,2.47,2.86A2.52,2.52,0,0,1,464.91,1071Zm50.21-17.11a10,10,0,0,1-2.7-1c-.81-.63-.3-1.44.51-1.91,2.49-1.45,5.05-2.64,8.72-.57C518.82,1051.27,515.73,1051,515.12,1053.92Zm8.14,227.77c.12-1.06.25-2.23.4-3.52a1.77,1.77,0,0,0,1.4.19,3.43,3.43,0,0,0,.39-2.26l10.45,2.21Zm6.83-10a11.33,11.33,0,0,1,1.33-1.46c2.22,1.92,5.61-4.63,11.29,1.41A57.27,57.27,0,0,1,530.09,1271.65Zm17-.77a.89.89,0,0,1,.52-.12Zm.35-227.36c-.06,1-.85.84-1.6.53s-1.23-.69-.43-1.44.87-2.26,2.45-3.1C548.59,1041.06,547.49,1042.23,547.41,1043.52Zm9,236.62-1.68-2.34c.67.48,1.12,1.35,2.18.7.23-1,.48-2,.87-3.64h0a6.21,6.21,0,0,0,1.41,2.13ZM560.23,1040c-2,.3-1.8,2.13-3.25,3.54-.86-2.62.62-3.9,2.15-4.89.77-.5,2.53-1.37,3.11-.5C563.23,1039.59,561.4,1039.79,560.23,1040Zm23,4.9.26-.25.37.46Zm9.49,264.26a18,18,0,0,0-4.89-13.33c1.36-.38,1.78-2.63,3.15-3.61.91.46.53,2.24,1.64,2.14,2.1-.18,1.52,1.39,1.83,2.35.65,2.08,1.31,4.09,4,4.13C601.89,1302.35,596.27,1306.94,592.77,1309.12Zm58.76-230.23c-1.07-.94-3.73.52-3.62-1.83.06-1.21,1.09-1.62,2.42-1.45,2.08-.27,2,1.3,2.43,2.33S652,1079.28,651.53,1078.89Zm11.28-2.94a11.48,11.48,0,0,0-5.49,3.34c.13-3.88,3.2-4.44,5.56-5.57a.84.84,0,0,1,1.19.43A1.63,1.63,0,0,1,662.81,1076Zm6-23c-1.3,1.72-3.09-1.29-4.73,0-1.23-1.28.4-1.69,1-2.28,1.12-1.08,3-1.74,1.75-3.71-.34-.56.39-.91,1.39-.89,1.78-.07,1.84,1.77,1.89,2.54A7,7,0,0,1,668.81,1053Zm29.45-23.41-1,0c-.52-1-1-1.94-1.55-2.89-.36-.61-1.64-.93-.83-1.85a1.62,1.62,0,0,1,1.3-.38c1,.22,2,.59,2,1.65S698.26,1028.41,698.26,1029.56Zm1-8.84c-2.69-1.64-2.69-1.64.9-5.72C700.93,1017.2,699.57,1018.81,699.25,1020.72Zm4.66-5.92.08.27-.24,0Zm.79,7.37c-.87-.1-1.9-.1-2.27-.91s.48-1.34,1.26-1.71a2.93,2.93,0,0,0,1.62-2.44c.09-.62-.34-1.39.83-1.42.7,0,1,.56,1.3,1C708.54,1018.51,706.7,1022.16,704.7,1022.17Zm15.46,32.7c-1,2-2.22,2.48-3.92,2.05-.84-.21-.94-.82-.57-1.26C716.77,1054.37,718.3,1055.15,720.16,1054.87Zm-9.54-47.63c-1.53-4.12-.49-5.49,3.4-4.9.83.13,2-.05,2.09.91s-1.31,2-2,1.85C712,1004.7,711.59,1006.06,710.62,1007.24Zm13.75,305.13c-8-5.7-9.07-4.84-10.72-20.08l3.92,6.46c-1.85-4.39-4.44-8.58-3.6-13.58,2.27,4.39,4.24,8.83,4.26,13.86,1.95-3.5-.72-11.54-2.35-14.85a9.79,9.79,0,0,0,1.74-.81,8.25,8.25,0,0,0,1.24,3.67c2.87,3.86,2.48,11.17.38,14.57Zm4.18-29.66a13,13,0,0,1-3-1.79c1.68-.5,2.63-5,4.44-2.4-1.62,1.82.57,3.39.51,5.15C729.84,1283.34,729.2,1283,728.55,1282.71Zm3.12-223.61a13,13,0,0,1-3.78,1.6c-3,.76-3.31,2.43-2.38,4.34s-.87,1.43-1.72,1.81c-.23-1.25-3.42-.43-2.4-2.79.35-.82.73-2.63-1.23-3s-2.44,1.6-3.57,2.49c-.7.55,0,1.41.76,1.34,1.56-.15,2.24,0,1.31,1.45s-2.11,2-3.67,1.06c-2.79-1.59-1.44-4-.59-5.69.42-.85,2.5-2,4.72-1.1,3.34,1.41,8.32,0,10.12-2.37.92-1.22,1.6-2.45.85-4C731,1055.91,735.33,1056.68,731.67,1059.1Zm16.09,241.49c-3.86-3.88-5-7.81-8.76-11.13,1-1.07.58-3,1.77-4.11l3.05,3.47c1.53-.86.07-3.44,1.83-3.85C745.22,1290.5,746.08,1294.22,747.76,1300.59Zm36-276c1.7-.65,2.8-3.71,5.64-.92-1.1.87-2.63.9-3.15,2.23s-1.47.14-2.14,0S783.29,1024.74,783.76,1024.56Zm-6.75,252c.12.33.27.63.41.93l-1.27.54A3.55,3.55,0,0,0,777,1276.6Zm-13.37-260.13c1.38.49.47,1.15-.36,1.53a10.34,10.34,0,0,1-1.4.42c-1.23.32-.85,1.78-2.25,2.29a2.27,2.27,0,0,1,.89-2.83C761.39,1017.18,762.35,1016,763.64,1016.47Zm-5.52-7.19a18,18,0,0,1,2.83-1.38,1.53,1.53,0,0,1,1.82.78c.31.69-.34.94-1,1-1.33.2-1.63,1.31-2.21,2.07a8.3,8.3,0,0,1-2.25-1.24C757,1010.12,757.56,1009.57,758.12,1009.28Zm-6.46,52.27a13.54,13.54,0,0,1,.4-3.92c2.43.68,3.17,2.2,2.45,3.86C753.86,1063,751.52,1063,751.66,1061.55Zm16.61,237.8c-3.46-6-10.13-9.35-14.49-14.8l.74-.9,5.89.65c-2.39-1.12-5.47-.88-7.57-2.31,2.36.34,4.66-1.8,6.83-2.58l3.29.75-2.49-1.12c1.48-.6,3-1,4-2.11.82.82,4,3.33,1.68,4.61.55,1.18,3.07,2,.66,3.73l1.64,2c.09-1.43.15-2.63.26-4.47l5.62,10,.77-.43-6.5-13.58a3.56,3.56,0,0,0,.92-.09c1-.24,1.71,4.67,3.19,1.87l.06.15.69-.27,8.56,6.39-5.75-7.43,1.85-.68c2,2.24,5.74,8.22,7.57,3.21.69-.85.05-2.59,1.1-2.78,2.43-.46.63,1.88,1.3,2.41a7.5,7.5,0,0,1,1.73,1.89A161.27,161.27,0,0,0,768.27,1299.35Zm40.29-276.71c-1.07,1.13-2.65,1.88-3.54,3.21-.79-.43-2.34-1-1.74-1.65,1-1,1.85-2.44,3.54-2.57C807.75,1021.78,808.91,1022.28,808.56,1022.64Zm14-14.55.54.66c-.22.06-.47.2-.66.16s-.26-.3-.38-.45Zm3,14.44c0,.49-.66,1-.87.81-1.2-1.09-3.19-.27-4.16-1.27-.62-.64,1.07-1,1.09-1.22.15-2.13,3.07-3.11,2.45-5.89C828.11,1017.48,825.74,1020.1,825.54,1022.53Zm.37-12.62c-.08.91-.47,1.18-1.36,1-1.09-.25-.85-.66-.35-1.38a26,26,0,0,0,1.78-3.44l.71.13A30.38,30.38,0,0,0,825.91,1009.91Zm6.7-13c-.67-.2-.3-1.11.24-1.66,2.13-2.15,4.67-2.42,7.82-1.19-1.64,1.71-4,2-5.45,3.62C834.52,998.42,833.5,997.13,832.61,996.86Zm7.91,8.37c-2.51.27-3.45,2-4.48,3.91-1.45-3.57.55-4.78,3.7-5.44.65-.14,1.14-.48,1.44.2A.91.91,0,0,1,840.52,1005.23Zm25,265a3,3,0,0,0-.12,1.41c-4.81,2.6-8.47-.3-11.74-3.58,1.48-1.54,3.67,1,5.47.14s3.64.42,5.49.38C865.49,1268.58,865.76,1269.3,865.54,1270.24Zm2.52,4.46c.47-.27.93-.52,1.4-.77a5.11,5.11,0,0,1,.51,1Zm24.47-220.92c.29.83,1.39,2.78-.12,3.06-2.13.4-2.88-1.78-4.08-3.28C889.8,1054,891.66,1051.33,892.53,1053.78Zm-17.71-46.86.41.76-.87-.35Zm-2.28,268.44a1.07,1.07,0,0,1,1,.16ZM875,1013.62c-.68-.78-2.21-.37-2.65-1.37s0-2.2,1-2.1c2.74.27,1.85-1.31,2-2.42,1.21.21,2.43.41,3.64.64,1,.2,2,.42,3.34.69C880,1011.18,875.81,1010.39,875,1013.62Zm6.88,7.53c0,1.53-1.6,1.43-2.75,1.63-.8.14-1.53-.14-1.4-1,.2-1.32,1.42-1.34,2.54-1.46C881.07,1020.12,881.86,1020.31,881.83,1021.15Zm-5,254.91c.19-1,.62-1.33,2.13-2.25.76-.47,1.5-.64,1.23-1.86-.14-.6.84-.68,1-.3.95,2,2.91,2.6,4.54,3.66-.85.65-1.67,1.36-2.47,2.1C881.14,1276.89,879,1276.45,876.81,1276.06Zm17.66,5.36a50.78,50.78,0,0,0-9.66-3.61,7.93,7.93,0,0,1,2.1-1.69c1.67,1.46,4.33,1.42,4.32-1.16,1.58-.19,3.21-.28,4.89-.39a5,5,0,0,1,.06.56,2.73,2.73,0,0,1,1.11,1.1C896.31,1278,895.37,1279.74,894.47,1281.42ZM901,1067.67c-1,.23-2,.9-3.16.39-.31-1.75,1.86-3.13,1-5.42a2.88,2.88,0,0,0,2.14,1.71c1,.2,2.74-.34,2.69,1C903.63,1066.32,902.49,1067.34,901,1067.67Zm2.77-17.82c-1,.68-1.92,1.55-2.93,2.36-.91-.78-.89-1.94,0-2.14,3.48-.76,3.35-2.73,2.22-5.33C907.39,1047.6,907.37,1047.57,903.8,1049.85Zm17.62,10.55c-1-.05-1.93-.49-1.37-1.38s-.41-3,1.85-3.08c1.35,0,1.59,1.2,1.58,2.22A2,2,0,0,1,921.42,1060.4Zm2.86-11.17c-1.27-.89-.08-1.28.53-1.94,1.53-1.68,2.93-1.67,4.58.28C927,1046.81,927.05,1051.19,924.28,1049.23Zm23.65,16.48c-2-.62-.66-3-2.24-4-.33-.22.52-.76.9-.62a3.45,3.45,0,0,1,2.6,3.44C949.23,1065.07,949.07,1066.06,947.93,1065.71Zm18.27-18.13-.14.21-.11-.23Zm-3,19.59c-1.52-1.07-2.48-2.81-4.86-1.63-1,.49-1.55-.29-1.51-1.24.05-1.14.81-1.18,1.79-.94,1.16.29,2.34.56,3.6.86-.26-1.47-2-1.21-2.7-2.17,1.17-.44,2.13-2.24,3.39-1.3C965.18,1062.46,963.88,1064.76,963.17,1067.17Zm3-16.73c-.81.59-.32,2-1.7,2.09-.67-.27-1.62-.74-1.18-1,.9-.6.47-2.12,2-2.12C966.1,1049.37,966.53,1050.17,966.16,1050.44ZM973.55,1288c.11-.5.28-.71.66-.69Zm8.83-240.61c-2.78.17-3.93,2.18-5.6,4-.13-4.35.93-5.4,4.86-5.72.69-.06,1.15-.25,1.38.37S983.09,1047.37,982.38,1047.41Zm7.44,34c-1.42-.54-4.35.74-4.23-1.92a2.43,2.43,0,0,1,3.29-2.22c1.18.29,4-1.25,3.19,1.82C992.31,1080.64,991.63,1082.09,989.82,1081.41Zm21.43-31c-1.7-.48-3.72-.07-5.12-1.28a1.43,1.43,0,0,1-.41-1.15c0-.47.51-.7,1.39-.67,1.11,1.67,2.66.78,4.3.27.69-.21,1,.49.94,1.09C1012.3,1049.48,1012.17,1050.72,1011.25,1050.46Zm7,23.85c-1.62-2.71-3.75-3-6.52-1.93.55-2.19,2-2.23,3.44-2,.9.17,1.84,1,2.11-.53-1.65-.33-2.53-1.24-1.61-2.56.72-1,1-1.61-.28-2.32-.7-.38-1.08-1-.31-1.59s1.46-.19,2.06.13c3.23,1.7,2.22,3.82.69,6C1019.05,1070.82,1018.17,1072.25,1018.3,1074.31Zm.77-16.85c-.05.48.25,1.27-.61,1.28a4.22,4.22,0,0,1-2.36-.64c-.62-.47.3-.86.61-1.25l2.74-3.42C1019.29,1055.14,1019.2,1056.3,1019.07,1057.46Zm11.35-18.67a10.39,10.39,0,0,1,5.09,1c-2,.68-2.86,2.08-4.64,2.21-1.12.09-2.71,1.24-2.91-.45A2.79,2.79,0,0,1,1030.42,1038.79Zm-2.24,41.8a1.15,1.15,0,0,1-1.39-1.18c0-1.09,1.08-1,1.91-1.16.61-.08,1.43-.08,1.38.61C1030,1079.76,1029,1080.35,1028.18,1080.59Zm6.79-28.12c-2.59.33-3.57,2-4.57,3.85-1.42-3.19.63-4.81,3.42-6,.84-.36,1.76-.38,2.21.5S1035.92,1052.35,1035,1052.47Zm10.81,33.53a.74.74,0,0,1-1-.46l1.13.23C1045.9,1085.85,1045.86,1086,1045.78,1086Zm-.91-2.27c-.77.4.08,1.16-.09,1.76-1.7.11-3.67.09-3.37-1.91.27-1.76,2.2-1.9,4.09-2,3.88-.23,1.87,2.29,3,3.76C1046.62,1085.14,1046.69,1082.76,1044.87,1083.73Zm27.8-50c.33-.94.84-2.79,2.78-2.57,1.47.16,1,1.43.55,2-.61.87.4,1.68-.43,2.9C1074.53,1035,1072,1035.53,1072.67,1033.72Zm-3.84,12.71c.52-1.48,5.51-2,1.26-4.55-.45-.26-.34-.83,0-1.17a1.91,1.91,0,0,1,2-.35c2.93.84,3.29,4.14.75,7.39l.27.68-.75-.25Zm3.59,3.71.29-.1.09.38a1,1,0,0,1-.32-.06S1072.44,1050.21,1072.42,1050.14Zm2.72,250a3.57,3.57,0,0,1,0-.8l.55.15C1075.51,1299.66,1075.33,1299.88,1075.14,1300.11Zm-2.36-226.32c2.51-.54,5-2.43,7.88-.5C1077.89,1072.8,1076.18,1079.72,1072.78,1073.79Zm12.66-38.79a3.81,3.81,0,0,1-6,1.53c-1-.87,0-1.28.59-1.78,2.19-1.76,2.18-1.76,1.66-4.08C1084.64,1031.19,1086.37,1032.28,1085.44,1035Zm.15-17c-.38-.69-.42-1.73.31-2.12,1.84-1,3.84-1.69,5.45-2.37,1.37.27,2.69-.26,3,.89.47,1.68-1.42,1-2.16,1.45a14.75,14.75,0,0,1-4.55,2.09C1087,1018.17,1086.25,1019.26,1085.59,1018.05Zm3.06,15.72c.6-1.47-1.94-4,2.09-4.29C1091.15,1031.29,1089.09,1032.25,1088.65,1033.77Zm2.13-4.31c.82-.59-.17-2.89,2.23-1.89.92.38,2.29-2.22,2.59.28.17,1.43-1.29,1.65-2.62,1.66C1092.25,1029.52,1091.52,1029.48,1090.78,1029.46Zm9.53,47.2c-.64.93-1.43,2-3.21,1.75-1.14-.17-2.6-.12-2.14-1.47.56-1.64,2.73-.44,3.89-1.22C1099.68,1075.71,1100.69,1076.11,1100.31,1076.66Zm5.7-8.69c-.21.47-1.87,1.86-3.2.41a6.17,6.17,0,0,0-1.48-.05,2.54,2.54,0,0,1-3.2-2.25c-.25-1.44,1.7-1.44,2.7-2.08s2.09.45,3.21.17c.75-.19,1.75-1.75,2.29-.19A5.81,5.81,0,0,1,1106,1068Zm2.4,4.21c-.1-.1-.19-.2-.29-.29a.82.82,0,0,1,.33-.07,6,6,0,0,1,.6.2Zm6.12,4.7c-.39.87-1.64.84-2.27.46-2.53-1.53-.23-3.18-.13-5C1115.21,1073.32,1115.38,1075,1114.53,1076.88ZM1117,1069c-1.43,1.64-4,1.2-5.46,2.39-1.07-.08-1.08-.63-.91-1.18.33-1.1,4.88-3,6.1-2.58S1117.54,1068.38,1117,1069Zm-1.43-5.09c-1-1.9-.36-3.7.75-3.41,3.11.81,2.57-5.42,6.53-2.14C1120.65,1060.35,1117.5,1061.25,1115.56,1063.92Zm10.91-22.44a16.62,16.62,0,0,0-2-3.7c.52.44,2.21.06,4,.31C1128.05,1039.49,1126.43,1040.1,1126.47,1041.48Zm4.16,246.87c-1.12-5.83-1.56-8.15-.57-9.55,2.5,2.34,2.08.4,3.72-1.09Zm15.95-235.81c-2.1,1.2-.93,2.27-.54,3.58a3,3,0,0,1-1.16,3.22c-1.12.84-1.68-.45-2.38-.93a2.3,2.3,0,0,0-2.4-.2c-.93.38-2.06.61-2.38-.63-.24-.9-.46-1.81,1.06-2.38,2.33-.89,3.92-2.43,3.73-4.9-.28-.58-.88-1.3.18-1.63a3.5,3.5,0,0,1,3.34.95C1146.82,1050.37,1147.45,1052.05,1146.58,1052.54Zm9.62-19.33c.91-1.59-1.33-2.16-1.23-3.49C1158.32,1029.71,1158.44,1030,1156.2,1033.21Zm-4.56,11.68c-1.15-.69-.11-1.56.72-2.05a1.83,1.83,0,0,0,.94-2c-.07-1.26.15-2.74,2-2.6a2.72,2.72,0,0,1,2.62,2.59c0,2.32-.74,3.8-2.45,4.74C1154,1046.36,1152.63,1045.49,1151.64,1044.89Zm4.14,24.5a1.26,1.26,0,0,1-1.46-1.19c-.27-1.78,1.83-.92,2.65-1.65,1-.86.86.59,1.49.69C1158.34,1068.85,1155.29,1067.4,1155.78,1069.39Zm30.91-50.8c-.41-.46-.19-1.38.32-1.36,1.67.06,1.16-2.26,2.78-1.85.85.22,2.18,0,2.49,1.06s-1.11.87-1.63,1.35a30.84,30.84,0,0,0-2.08,2.3A14.05,14.05,0,0,1,1186.69,1018.59Zm6.49,7.36c-.24.82-1.16.6-1.82.82s-1.51.6-2.47,1c-.25-1.43,1-1.7,1.56-2.33a2.19,2.19,0,0,1,2.39-.29A.85.85,0,0,1,1193.18,1026ZM1235,959c1.65-.16,1.84.68,1.72,1.79.13.1.25.21.37.32.57.05,1.67-.12,1.53.43-.29,1.14-1.61.61-2.48.63-1.59,0-2-1-2.17-2.15C1233.88,959.34,1234.22,959,1235,959Zm-5.58,10.31c.56-.19.51.25.68.6-.14.18-.32.39-.5.6-.26-.19-.62-.34-.76-.58C1228.6,969.45,1229.09,969.36,1229.41,969.26Zm.75,20c2.06.12-1,2.34,1.83,2.15-1.38,1-.51,2.8-2.29,2.7a3.93,3.93,0,0,1-3-1.64C1228.68,992.14,1227.57,989.15,1230.16,989.31Zm-9.24,16.89a29,29,0,0,1,3-1.66c1.74-.74,1.89-1.52.47-2.68-.57-.47-1.87-.72-1.33-1.68.26-.46,1.22-.63,1.86-.93.6,1,2.7.38,2.77,1.68s1.26,2.57,0,4.07a5.24,5.24,0,0,0-1,4.51c-2.71-.21-2.27-3.07-2.42-2.84C1222.85,1008.86,1222,1005.8,1220.92,1006.2Zm2,32c3-.49,6.2-2.3,10.38-.06C1229.22,1038.55,1226.23,1044.43,1222.9,1038.22Zm10.38-29.61c0,.49.6,1,.06,1.49-1.49,0-1.93-1.33-3-1.84-.69-.31-.81-1,.18-1,1.71,0,1.31-.52.85-1.52a1.39,1.39,0,0,1,1.21-1.76c.93-.1,2-.54,2.84.24.33.3.58.76,0,1.11C1233.24,1006.81,1233.09,1007,1233.28,1008.61Zm4.4,14.93c-.09.94-.5,1.55-1.58.78-.69-.49-1.11-1.35-.5-2,.88-1,2.39-.88,3.64-1.14.22,0,1.11,1,1.06,1.51C1240.13,1024.24,1238.56,1023.2,1237.68,1023.54Zm3.37-28.25c-1.17.93-2.46,3-4.58,1.06-.9-.81-1.87.07-3-.37.69-2.22,3.92-3,4.09-5.44.43-.56,0-1.72,1.28-1.67a2.37,2.37,0,0,1,2.46,2.33C1243.06,992.64,1242.42,994.19,1241.05,995.29Zm10.36,57.26c-1,1.7-2.41,1.53-4,.79-.67-.3-1.48-.44-1.34-1.3s.68-1.11,1.51-1.21a14.72,14.72,0,0,1,5.42.26A3.56,3.56,0,0,0,1251.41,1052.55Zm.2-77.8c-.43-3.57-3.61.9-4.77-1.58-.26-.55-.73.43-1,.84-.39.64-.76,1.72-1.78.92-.72-.56-.7-2.23,0-2.37,2.9-.6,5-3.4,8.48-2.38,1.08.31,1.85.49,1.79,1.65C1254.26,973.27,1252.88,973.7,1251.61,974.75Zm5.64,81.61c-1.81-.06-1-1.27-1-2.22a8.42,8.42,0,0,0,0-1.81,19.33,19.33,0,0,1,2,1.17c2.16,1.39,2.89,3,4.58,5.61C1260.42,1057.76,1259.26,1056.44,1257.25,1056.36Zm16.52,3.41c-1.81,1.72-3.61.09-5.87,0,1.79-2.3,3.75-1.69,5.62-1.18C1273.73,1058.7,1274,1059.59,1273.77,1059.77Zm28-32c1-.27,1.29.33,1.48,1-.65,0-1.32.89-1.93,0A.66.66,0,0,1,1301.72,1027.79Zm-.92,6.43c4.43-.58,3-3.13,2.45-5.37.24.22.5.43.72.67,1,1.07,3.16,2.07,2.48,3.28-.86,1.54-3.72,1.46-5.1,3,0,0-.81-.22-.82-.37C1300.5,1035,1300.64,1034.24,1300.8,1034.22Zm-17.53,25.53c-2.78.22-4-.29-3.31-2.88.14-.52-.12-1.19.17-1.6.58-.83-.29-2.46,1-2.51a4.4,4.4,0,0,1,3.33,1.8c.53.71.93,1.52,1.53,2.19,2.38,2.66,4.1,1,5.78-.74,1-1.24-3.06-2.59-.25-3.31,1.58-.41,2.09,1.93,2.56,3.32.06.19-.06.42-.09.64l0,0c1.17-.25,2.41-.1,3.54-.7.88-.47,2.48-1.35,2.85-.33s.72,3.08-1.81,3.43C1293.49,1059.28,1288.36,1059.34,1283.27,1059.75Zm18.07,248c-.79,1.14-.92,2.73-1.32,4.13-8.79-6.5,1.28-11.93-6.25-17-6.93-3.57-2-7.6-2.14-13.59a14.72,14.72,0,0,1,7.37,2.7C1297.06,1292.33,1308.49,1299.29,1301.34,1307.76Zm2.21-253.61q-.61-2.88-1.24-5.84c-4.11,1.74-4.11,1.74-4.6-3.42,1.6.41,2.29,3.78,4.18.62a.94.94,0,0,1,1.56.75c.22,2.48,2,4.42,4.07,6.35Zm22.71-4.82c-.36,1.16-1.41,2.12-1.52,3.48a1.49,1.49,0,0,1-2,1c-1.46-1.11-4,.43-4.86-1.62-.22-.5-.15-1.47.52-1.21,3.8,1.49,3.44-1.46,4.41-3l0,0c.32-.81-1.25-1.63-.1-2.38.87-.57,1.76,0,2.36.5A3.15,3.15,0,0,1,1326.26,1049.33Zm1.77-9c-.2.65.06,1.77-1.39,1.12-.88-.4-1.6-.87-.83-2s2.49-1.69,3.5-3C1328.89,1037.77,1328.44,1039.06,1328,1040.37Zm4,3c-1.55-.52-2.35-1.11-.43-2.06a1.51,1.51,0,0,0,1-1.58c0-1.22.43-2.5,2-2.23,1.71.3,1.83,1.86,1.86,2.93C1336.06,1042.93,1334.11,1044.09,1332,1043.38Zm6.24,246.72-1.47-4.23c1.46-.41,2.9-.86,4.35-1.26.12.49.23,1,.34,1.48Q1339.84,1288.09,1338.24,1290.1Zm4.46-5.56c-.07-.22-.13-.44-.2-.65.24-.87.23-1.78.91-.23Zm1.93-246.71c-3.15-.42-4.3,1.82-6,3.69-.89-1.87,1.4-3.06.41-4.61-.24-.38.48-.51,1-.22,1.75,1,3.36-1.93,5.1-.17C1345.53,1037,1345.14,1037.89,1344.63,1037.83Zm.71-11.82c-.09.43-5.71,3.11-5.86,2.82-.44-.84-2.76-.45-1.89-1.88,1.07-1.78,3.19-2.39,5.36-2.39.81,0,2.08,0,2.41,1.08C1345.35,1025.79,1345.36,1025.9,1345.34,1026Zm22.51,14.26c.48-1,1.79-1.34,1.49-2.91,1.91,2.15-.37,3.65.16,5.28C1367,1042.9,1367,1042,1367.85,1040.27Zm2,2.66-.22-.24a.58.58,0,0,1,.18.08S1369.79,1042.87,1369.8,1042.93Zm-15.08,248.5c-2.34-4.17-2.12-4.72-1-7.24l3.92,6A17.46,17.46,0,0,1,1354.72,1291.43Zm1.39-8.29c1.52-.49,2.24-2,4.31-1.84l.15.12c-1,2,.11,3.87-.81,5.71,2.14.4,2.58-2.08,4.33-2.58a22.58,22.58,0,0,1-4.54,4.41A15.74,15.74,0,0,1,1356.11,1283.14Zm12.79,7.38a64.55,64.55,0,0,0-4.15,7.35c-1.13-3.21-2.36-6.14-4.45-8.16,2-1,3.47-2.39,5.53-5.26,4.64.42-1.7,2.43,3.71,3.12a1.58,1.58,0,0,0,1.24.34C1370.13,1288.76,1369.49,1289.63,1368.9,1290.52Zm8.67-246.41a3.65,3.65,0,0,1-4.15,0c-1.52-1,0-1.6.79-2.19a1.45,1.45,0,0,0,.52-1.47c-.14-1.46.38-3,2.21-2.66,1.6.28,1.84,2.06,2.2,3C1378.54,1042.18,1378.68,1043.36,1377.57,1044.11Zm9.79-6.87c-2.61.19-4,1.37-4.58,3.57a1,1,0,0,1-1.38.73c-.64-.28-.49-.92-.27-1.82-.86-3.46,2.35-3.83,5.31-4.46.76-.16,1.48-.45,1.78.46C1388.45,1036.42,1388.27,1037.18,1387.36,1037.24Zm-7.1-10.22c-.62.29-1.3.37-1.54-.28a1.78,1.78,0,0,1,.22-1.52c1.84-2.37,6.1-3,10.12-1.22A46.54,46.54,0,0,0,1380.26,1027Zm39.28-19.36c1.38.39-1.27,2.21.18,3.32-1.26.95-2.11-.16-3.91-.55C1418,1009.86,1417.16,1007,1419.54,1007.66Zm-3.23-17.23c.07,0,.28.23.43.35l-.44.36-.57-.27A3.06,3.06,0,0,1,1416.31,990.43Zm-.24,36.08c-1.41-.24-.28-1.33-.42-1.9-.44-1.75-1.52-3.28.86-4.67.6-.35-.37-.82-.78-1.18-.6-.53-2.25-.7-1.19-1.87s2.44-.26,3.28.28a3.4,3.4,0,0,1,1.3,2.75c-.4,1.9-1.22,3.18-.89,4.8C1418.41,1025.61,1417.27,1026.71,1416.07,1026.51Zm.76,23.22c3.7-1.07,6.61-3.76,10.22-.87C1421.86,1052.54,1421.86,1052.54,1416.83,1049.73Zm12.43,223.67a1.47,1.47,0,0,1,.1-.13,1.92,1.92,0,0,1,.5.64ZM1427.47,1013c-1.28.91-2.79,0-3.7-.68-1.4-1.05.14-1.58,1-2.15.6-.4,1.22-.9.83-1.64-.66-1.27-.82-2.56,1-2.82s2.21,1.46,3,2.51c.24.32.13.84.27,2.07C1430.13,1011.25,1428.66,1012.19,1427.47,1013Zm2.32-19.2a1.3,1.3,0,0,1-1.25-1.39c-.07-1.08.84-1.17,1.75-1.21s1.12.38,1,1A1.79,1.79,0,0,1,1429.79,993.83Zm8.6,10.79c-3.35.28-4.62,2.35-5.64,4.85-.78-3.69.85-5.59,4.66-6.58.93-.24,1.49-.78,1.93.24A1,1,0,0,1,1438.39,1004.62Zm-3.49-12.17c-.91,0-2.18.7-2.7-.28a3.73,3.73,0,0,1,0-2.53c.4-1.47,1.57-.4,2.41-.44a12.59,12.59,0,0,1,5.37.95C1437.64,990.76,1436.73,992.37,1434.9,992.45Zm31.82,43.59c-.07.42-.39.94-.76.76-.7-.33-.22-.83.14-1.21a.84.84,0,0,1,.08-.32c.54-.88-.81-2.37,1-2.75,1.06-.22,1.47.67,1.76,1.38C1469.8,1035.86,1467.64,1035.46,1466.72,1036Zm.51-54.43c-.78-.08-.67-.78-.25-1.26s1.84-.78,1.66-1.9a16.31,16.31,0,0,1,2.9.2c.84.2,1.18.93.32,1.4-1,.56-2,.86-2.64,2C1468.78,982.94,1468,981.68,1467.23,981.61Zm6.51,5.78c-.32,1.51-2.63.59-3,1.84-1.1.15-1.67-.52-1.49-.85.6-1.11,2.1-1.2,3.23-1.7C1473.28,986.35,1473.87,986.81,1473.74,987.39Zm16.48,8.42c1.46-.83,3.17-.17,4.31-2.16-.26,2,.82,3.84-.92,4.39C1492.2,998.48,1491.44,996.69,1490.22,995.81Zm6.81,48.58c-1.07-.11-1.76-.54-1.7-1.23.09-1.19,1.71-.92,2.48-1.62.54-.49,1.23.58,1.29,1.14C1499.22,1044.06,1497.51,1043.73,1497,1044.39Zm.89-21.31c-1.69,1.14-3,0-4.47-.18-.09,0-.28-.67-.15-.79,1.44-1.33,4.27-1,4.71-3.72.69.72,1.16,1,1.26,1.34A2.71,2.71,0,0,1,1497.92,1023.08Zm9.62-18.2c-1.37,1.58-4.59.79-5.25,3.44-.93-1.08-2.57-.73-2.77-2-.14-.93.53-1.29,1.4-1.67,1.76-.76,3.06-2.67,5.53-1.42C1507.26,1003.64,1508.26,1004,1507.54,1004.88Zm8.58,44.28c.22,1.42-.82,2-2.07,2.32s-1.56-.32-1.73-1.17c-.85.11-2,.46-2.4-.28s0-1.7.64-2.39c1.29-1.39,3.07-.58,4.58-.55S1516,1048.37,1516.12,1049.16Zm5.51,11c-1.68-.34-.93-2-1.4-3.07-.35-.8.37-1.44,1.5-1.31,1.91.22,1.46,2,2.47,2.87A2.51,2.51,0,0,1,1521.63,1060.21Zm10.09-73.72a2.93,2.93,0,0,1,1.07-.29c.89,0,1.74.3,1.56.8-.37,1.06-1.57,1.45-2.63,1.87Zm3.12,42.62a10,10,0,0,1-2.7-1c-.81-.63-.3-1.43.51-1.91,2.49-1.44,5-2.64,8.72-.57C1538.54,1026.45,1535.45,1026.22,1534.84,1029.11Zm32.29-10.41c-.06,1-.85.84-1.6.53s-1.23-.69-.43-1.44.87-2.25,2.45-3.1C1568.31,1016.24,1567.21,1017.42,1567.13,1018.7Zm9.57,0c-.86-2.62.62-3.9,2.15-4.89.77-.5,2.53-1.37,3.11-.5,1,1.48-.84,1.68-2,1.85C1578,1015.44,1578.15,1017.27,1576.7,1018.68Zm13.09,31.6a3,3,0,0,0-3-1.34c-1.58,3-4.26,1.89-6.75,1.38a.82.82,0,0,1-.68-1,1.59,1.59,0,0,1,1.74-1c1.72.13,3.41.49,5.12,0,.24-1.63,1.57-2,3.16-2.16,1.77-.18,1.5,1.09,1.89,1.91.9,2,2.83,2,5,1.82C1594.29,1051.8,1591.2,1052,1589.79,1050.28Zm22.29,3.45c-1.66.11-3.08-.49-5.48-1.25a12.75,12.75,0,0,1,1.47-.25c1.4.28,3-.23,4.15,1C1612.31,1053.3,1612.15,1053.72,1612.08,1053.73Zm7-62.45c1.51-.43,2.06-2.54,4.3-1.84.75.24,1.86.65,1.42,1.12a54.35,54.35,0,0,1-4.81,4.12c-.4-.78-2.09-.43-2.43-1.56S1618,991.6,1619.11,991.28Zm-4.41,16a7.22,7.22,0,0,0,1.07-1.62c.35-.65-.5-2,1.11-1.86s2.16,1.28,2,2.83c.18,1.4-.5,2.57-2.28,3.07a2.58,2.58,0,0,1-2.41-.53C1613.34,1008.36,1614.13,1007.84,1614.7,1007.24Zm7.72,47.22c-.34,1.73-2.54.59-3.42,1-3.41.44-4.46-.93-4.22-3.36.07-.72-.36-1.68.56-2.1,1.2-.54,1.41.5,1.76,1.14a2.4,2.4,0,0,0,2.08,1.22C1621.13,1052.2,1622.78,1052.63,1622.42,1054.46Zm3.51-51.92c-1.91.45-3.38,1.27-3.58,3.19a.76.76,0,0,1-1,.66,1.07,1.07,0,0,1-.56-.72c-.47-2.19,2.1-5,4.65-5.07.66-.15,1.28-.08,1.53.54C1627.26,1001.92,1626.77,1002.34,1625.93,1002.54Zm9.58,52.29c-.42,1-1.65.73-2.61.69a16.78,16.78,0,0,0-3-.22c-2.66.33-3.23-.92-3.08-2.83a21.91,21.91,0,0,1,.24-2.57c.26-1.33,1-1.92,2.59-1.17,1.19.54,1.76,2.17,3.76,1.48.74-.25.55.71.38,1.18-.24.67-1.1,1.34.2,1.9C1634.76,1053.61,1635.87,1053.92,1635.51,1054.83Zm.14-20.2c-1.14-.59-3.71.58-3.49-1.82.16-1.79.91-3,3.42-2.07,3-1.47,2.22.88,2.49,2C1638.5,1034.52,1636.5,1035.06,1635.65,1034.63Zm13,19c-.19.3-.9.16-1.26-.22-1.18-1.29.53-2,.75-3.06A2.28,2.28,0,0,1,1648.66,1053.59Zm48.39,242.61c.48-1.8-1.63-3.34-.66-5.3l3.85,1.35C1699.35,1293.43,1698.29,1294.74,1697.05,1296.2Zm4.43-5.7c-2.22-2.57-1-2.92.64-5.11a4.4,4.4,0,0,0,1.44.85A14.72,14.72,0,0,1,1701.48,1290.5ZM1720,1050.26a1.06,1.06,0,0,1-1.71-.55c-.56-1.63.88-2.29,2-3.12a5,5,0,0,1,3.31-1.18c1.86.12-1,1.68,1.71,2.25A15.14,15.14,0,0,0,1720,1050.26Zm24-78.11c.54-.19.5.21.57.48-.09.16-.18.32-.28.48a6.34,6.34,0,0,1-.67-.58S1743.91,972.21,1744.08,972.15Zm2.45,13.78c-.89,6.91-.89,6.91-4.56,5.48Zm-3.25,62.16c-1.66-.73-3.08.62-4.58,0-.08.42-.1.9-.75.94-.13,0-.41-.27-.39-.39.1-.54.61-.58,1.12-.57,0-1.6,2.06-2,2.72-1.86,3.87,1.07,6.78.12,9.14-3.9C1750.54,1046.61,1746.25,1049.38,1743.28,1048.09Zm9.11-53.32c-1.36.76-2-.43-2.92-.78s-1.24-1.26-.56-1.47c2.82-.89.28-4.95,3.77-4.95,1.69,0,1.48,2.19,2.45,3A5.51,5.51,0,0,1,1752.39,994.77Zm15.21,26.4a2.39,2.39,0,0,1,.74-.1l1.73.42c.8.21,2.14-1.13,2.38.42s-1.25,1.3-2.35,1.26c-.63,0-1.45-.12-1.64.45a1.81,1.81,0,0,1-2.49,1.28c-1.32-.34.07-1.7-1-2.17A5.63,5.63,0,0,1,1767.6,1021.17Zm-9.71-34.11c-.19-.3.08-.83.45-.63,2.35,1.23,4-2.61,6.32-.65.75.65.32,1.38-.64,1.81-1.17.53-2.78.07-3.67,1.28-.64.88-1.39,1.69-2.41,2.91C1757.21,989.78,1758.76,988.46,1757.89,987.06Zm3.5,46.13c1.29-1.41,3.06-.9,5.36-.93-1.3,2.06-2.47,3-4.54,2.17C1761.56,1034.18,1761,1033.57,1761.39,1033.19ZM1756,975.9a1.36,1.36,0,0,1,.85-1.63c3-1.68,6.12-2.29,9.85-.39-3.2.92-6.09,1.74-9,2.58C1756.93,976.7,1756.2,976.81,1756,975.9Zm12.37,294c.16-.71,1-1,2.65-1.26C1770.13,1269.11,1769.24,1269.54,1768.36,1269.94ZM1779,1037.68c-2,.16-2.7,2.4-4.8,1.6-.15.87-.37,1.68-1.75,1.31l0,0c.11.42-.07.7-.54.83-.33,2-1.81,2.27-3.72,1.85-2.2,2.52-5.47,2.61-8.51.16a15.62,15.62,0,0,1-1.88-2.23c1.9-.68,3.75-.35,4.86-2.67,1.18-2.47,3.69.07,5.5.91l4.56-.13a1.06,1.06,0,0,1,1.26-.58c2.92-1.54,5-3.44,3.59-7,2.29,3.16,5,1.28,7.66.82C1785.25,1036.3,1782,1037.44,1779,1037.68Zm6.16-45.21c-.94-.15-1.06-.77-1.06-1.45v-3.45c2.79.15-.28,3.83,2.85,3.79C1786.73,992.25,1786.16,992.65,1785.11,992.47Zm10.08,39.75a2.91,2.91,0,0,1-2.68-.67.8.8,0,0,1,.07-.85,2,2,0,0,1,2.66,0c.85.5,1.91-.68,2.66.32C1797.47,1032.24,1796.23,1032.14,1795.19,1032.22Zm32.15-37-.11.25-.12-.25Zm.57,2.31c-.49.91.29,2.44-1.27,2.69-.74.12-2.57-.66-2.1-1.24.61-.75.53-2.31,1.83-2.29C1827.45,996.71,1828.24,996.92,1827.91,997.55Zm15.88-3.58c.82,0,1.52,0,1.66.84.11.61-.34.93-1,1.18-3.83,1.56-3.83,1.57-5.86,4C1838.38,996.53,1840.84,993.93,1843.79,994Zm-13.13,7.65c-1.54-1,0-1.43.93-2a1.87,1.87,0,0,0,.52-1.45,2.33,2.33,0,0,1,2.43-2.33c1.17.18,1.56,1.76,1.93,2.8-.63,1.16-.55,2.37-1.75,3.25C1833.13,1003.05,1831.65,1002.27,1830.66,1001.62Zm13.2,290.8c-2.15,2.27-3.22,5.57-4.46,7.82-1.6-2.69-3.73-6.21-5.79-9.75,1-1.13.53-3.2,2.16-3.92.73,1.46,2.3,2.33,2.88,4.75,1.78-3.28.56-5.86,5.15-5.06,2.5.44,2.67-2,4.22-3a5.15,5.15,0,0,0,.48.37A16.82,16.82,0,0,1,1843.86,1292.42Zm40-16a5.46,5.46,0,0,0,.43.55l-1-.38Zm-13.13-274.24c1,1.29,3,1.84,3.18,3.65.13,1.15-.84,1.34-1.65,1.21-2-.32-2.15-2.16-3.11-3.31C1868.86,1003.44,1869.74,1002.44,1870.69,1002.19Zm-3.62,271.3c2.22-2.81,6.62-9,9-2.71,3.48,5.55,2.77,1.47,5.73.13a7.12,7.12,0,0,1,.93,2.23C1877.37,1275.15,1873.18,1276.21,1867.07,1273.49Zm25.44,16.75c.54.66,1.46,1.75,1.25,2.17-2.49,4.78,1.83,8.82,1.15,13.27l-19-17.64.48-1.17,4.65,1c.06-.22.12-.43.17-.65l-7.69-1.9C1881.65,1282.81,1887.87,1284.54,1892.51,1290.24Z" fill="#696969"/></svg>
