<svg xmlns="http://www.w3.org/2000/svg" width="1920" height="1400" viewBox="0 0 1920 1400"><path d="M1920,871.08c-3.84.48-12.24-.33-9.42,5.51a21.69,21.69,0,0,1-4.09,1c-1.86.32-5.51,3-6.18-1.59-.17-1.15-2.27-2.93-3.26-2.51-2.14.93-6.13.39-6.25,2.65-.13,2.46-2,2.87-3.35,3-4.23,0-2.25-7.31-7.77-5.67-1.16.33-1.54-.31-1.88-1.07-2.37-5.23-2.35-5.15-8.55-3.52-2.68.7-3.68,1.69-2,3.84-8.07,3.33-4.42-8.85-11.88-5.72-1,.49-3.21,1-3.26-.84-.08-3.41-3.63-5.23-4.65-8.2-.34-1-2-2.44-3.44-1.8-1.68.76-4.19.69-4.94,2.59-3.34,8.52-7-1.89-11.37,1.32a7.8,7.8,0,0,1-2.77.84c-8.15,1.59-.86,5-5.44,5.33-2,1.4-6.4.55-5.47,4.53-2.54-.69-12.69.2-10.81,4.17,1.61,1.43.24,1.38-.88,1.58-1.63.3-2.4,2.25-4.48,1.73.06,2.42-2.06,4.08-3,6.16,5.5,4.12-5.88,3.22-7.75,8.87-.27.51-.43,1.45-1.39,1.23-6.21-1.41-8,4.36-12.62,5.56-1.24,3.41-3.19,5.66-7.57,5.93-6.12-.7-7.95,4.21-13.11,5.57-1.9.46-3.55,1.2-3.28,3.27-4.19.78-7.5,2.53-9.08,6.11-1.56,3.9-5.06,1.16-8.09,1.53-3.29,2-14.35.82-10.45,6.84a22.19,22.19,0,0,0-5.51,1.46c-1.22-1.75-5.65-3.51-6.35-2.52-3.71,5.26-9.61-.58-13.58,2.87-.11.1-.82-.2-.91-.43-1.37-3.87-5.5-5.9-6.43-10.16-3.14-7.86-8.52,0-11.39-3.24-6.78-6.86-9.53,11.83-16-10.41-.72-4.21-3.55-7.07-5.41-10.68-3.55-8.3-7.35,3-9.15-3.56-.18-5.46-3.81-9.37-6.34-13.87-3.53-5.79-4.46-1.71-9.52-.33-4.3,2,2.4,4.09-3.55,5.73-4.7,1.65-9.1,8.35-14.22,3.42-.71-.76-2-1.27-2.76-.59-2.58,2.22-6.76,2.94-6.89,7.57-.07,2.34-2.26,4.25-4.06,3.23-4-2.25-6,.65-8.45,2.38-1.14.81-2.45,1.25-2.75,0-1.13-4.52-5.84-6.32-7.43-10.52-1.08-2.84-4.18-3.26-6.77-1.7-7.82,6.19-4.3-2.13-13.14,4.13a1.83,1.83,0,0,0-1,2.8c1.62,1.8-.21,1.44-.9,2-2,1.54-5.66,1.57-5.82,4.61-.12,2.13-1,1.83-2.15,1.82-8.35-.87-16.08,3.87-16.79-8.08-6.38-1.91-5.28-13.36-10.82-11.89-5.08,1.91-7-8.39-8.5-12-4.53-8.64-1.31-15-13.91-11.27a2.37,2.37,0,0,0-2,2c-.68,3.33-4.65,5.57-7.29,3.6-3.72-4-8.64,4.86-10.21-1.93-1.07-3.77-6.71-2.45-9.3-8-4-13.69-11.45,2.51-12.53-5.2-.52-3-3.81-5.71-5.74-4.71-4,2.29-2.82-2.68-4.52-4.66-2.24-3.47-4.7-6.74-5.18-11.12-.33-3-4.75-6-6.71-4.82-4.09,2.13-10.94,1.4-7.47,8-2.72-1.3-3.87,2.11-6,1.71-3.9-.26-4.64,8.4-9.51,9.39-1.23.41-3.47,5.48-2.82,6.56.85,1.43.65,2.17-.9,2.87-3.44,1.82-2.1-5.1-5.79-3.75-1.82.74-4.92-.08-4.92,3.37-1.16.24-2.19-1-3.52-.07-11.58,7.16-19.7,9.63-26.58,23-1,1.41-1.81,2.32-3.19,0-.85-1.41-2.62-4.09-4.11-2.9-2.25,1.8-8.38-1.12-6.92,5.31,0,.12-.56.36-.86.55-6.65,4.32-4.84-2-8.71-2.2-3.33,1.39-2.37-1.56-3.27-3.32-1.07-1-2.08-3-3.55-2.23-1.94,1-5.41-.23-5.74,3.15-1.34,4.31-7.73,2.3-6.33,9.55a1,1,0,1,1-1.86.85c-.5-1.93-2.25-3.17-2.48-5.39-.2-1.92-1.94-4.1-4.1-3.06-2,1-5.87-.09-5.73,4.14,0,.78-1.52.93-1.86.48-2.54-3.42-5.14-.46-7.65-.12-3.3.46-4.17,2.31-2.17,5.4-2.75-.44-6.16,3.55-8.41,1.82-2.49-3.6-5.27-1.21-7.9-.88-3,.38-4.72,1.7-2.92,4.57-2,2.42-7.67-.8-7,5.24,0,.16-.26.48-.45.53-5.93,1.23,1.54,5.53-1.9,6.76-3.63.69.2-8.81-9-6.94-1.79.48-4.54,2.22-5.51-.79-1.2-3.73-4.77-5.31-6.58-8.44a3.23,3.23,0,0,0-4.6-1.12c-2.1,1.2-4.8,1-6.68,2.86a1.47,1.47,0,0,1-2.08.06c-4.86-5.62-9.6,4.18-13.45.22-2.12-2.28-9.09-.1-8.55,2.66.77,4-2,4.54-4.06,6.32-7.79-20.25-9.63-6-16.9-16.1-5-5.5-9,5.31-10.39,8.95-.52,1.35-1.69,3.47-2.74,1.28A105.63,105.63,0,0,0,1165,874c-4.56-2.12-6.88-11.41-12.45-9.15-2.28,1.2-2.33-.14-2.64-1.46-1.43-7.61-9.48-9.57-12.51-16-.74-1.54-2.52-2.73-4-1.93-1.76,1-5.28,1.41-4.79,3.48.69,2.92-1.47,3.47-2.56,4.1-2.16,1.26-3.14,3.9-5.78,4.49-.74.17-1.2,1.45-.74,1.89,3.29,2.93-5.27,3.31-3.46,7,.4,1.1-1.4,1.79-2.79,1.07-4.7-3.13-10-5-12.8,1.19,0,.79,2.31,1.64.23,2.15-1.84.46-3.26,3.27-5.67,1.17-.62-.54-1.74-1.19-2.33-1-6.62,2.76-6.69-9.9-12.86-5.2-.78.66-2.81,2.1-3,.31-.5-4.54-5-6.37-6.2-10.37-.56-1.84-3.6-3.56-4.64-2.48-1.84,1.92-7.71.95-5.27,6.35.06.13-.41.57-.7.76-2.24,1.49-4.29,2.7-4.74,6.07-.21,1.58-1.06,2.66.39,4,.54.49,1.23,1.43.34,1.85-2.91,1.86-5.48,8.29-9.5,4.29-2.61-3.06-5-.47-7.26.82-1.89,1.06-3.52,2.15-1.49,4.63.65.79-.8.59-1,1-.93,1.94-5.67,1.25-3.62,5.22-2.6,2-1.82,3.71.28,5.51.71,1.41-3,3.15-3.81,4.44-2.79-1.74-4.76-8.48-8.77-6.6-1.73,1.14-5.24,2.13-4.47,4.3,1.35,4.33-6.92,4.93-2.85,11.43.61.94.75,1.52-.26,2.13-.82.5-1.49.94-2-.39-.72-1.78-2.53-2.79-3.44-4.37-1-1.75-2.45-3.83-4.07-3.22-7.27,1.56-1.87,5.94-5.9,6.08-2.54-2-4.45.07-6.4.94-6.63,2.78-5.06-13.18-15.1-1.16-1.82-1.3-3.3-3.56-5.67-.89-.74.84-2.23.76-2.17-.68.18-4.3-3.37-6.81-4.75-10.35-.9-2.31-2.36-3.73-5.79-2.28-3,1.27-3.2,4.12-5.15,5.7-3.14,2.52-5,5.24-2.7,9.52-5.36-2-5.84-11.12-11.81-5.14-.86.7-1.55,2.15-2.66.76-3.15-3.8-6.18,5.37-10.76.27-7.65-6-17,16.7-21.78,3.68-.82-1.89-2.76-3.47-4.28-2.8-10,1.93-2,5.85-9.44,7.77-2.11.94-3-.35-3.86-2.26-2.49-7.2-6.38.66-7.61-3.34-.05-5.46-5.05-8.1-6.92-12.52-.76-1.78-3.27-3.54-4.51-3.05-2.9,1.16-3.15-.85-3.28-2.24-.36-3.91-3.23-6-5.41-8.72-2.64-3.28-4.31-7.32-8.14-9.67-.66-.4-.95-1.79-1-2.76-.2-4.55-5-6.22-6.33-10.08-2.34-6.59-9-2.94-12.05.68-.44,3.1,0,3.81-3.11,5.52-.59-6.79-4.66-12.11-7.54-17.74-.21-2.25-1.79-4.72-3.35-4.11-2,.78-6.39-.67-5.7,4.09.1.68-.63.59-1,.83-8.37,6.25-5.94-7.38-11.72-7.14-5,3.18-4.85-3.92-8.77-3.24-.64.23-1.27.33-1.3-.64-.09-2.77-2.13-4.75-2.88-7.22-1.89-10.94-8.8.15-11.49-6.47-2.89-6.21-3.83-9.25-10.4-4.82-12.53,8.07-4.48-12.78-16.33-8.85-4.34.6-8.22.6-6.12,6.1a19.29,19.29,0,0,1-4.09,1.2c-1.86.38-5.51,3.54-6.18-1.86-.17-1.36-2.27-3.45-3.26-2.95-2.14,1.09-6.13.46-6.25,3.11-.13,2.89-1.95,3.37-3.35,3.5-4.2.06-2.22-8.56-7.77-6.67-1.16.39-1.54-.36-1.88-1.25-2.37-6.15-2.35-6-8.55-4.14-2.68.82-3.68,2-2,4.51-8.1,3.89-4.42-10.4-11.88-6.73-1,.58-3.21,1.13-3.26-1-.08-4-3.63-6.14-4.65-9.63-.34-1.18-2-2.87-3.44-2.12-1.68.89-4.19.81-4.94,3-3.48,10.07-6.88-2.25-11.37,1.55-.84.72-1.84.69-2.77,1-8.24,2-.79,5.82-5.44,6.27-2,1.64-6.4.64-5.47,5.31-2.74-.91-12.89.55-10.81,4.91,1.61,1.67.24,1.61-.88,1.86-1.63.35-2.4,2.64-4.48,2,.06,2.84-2.06,4.78-3,7.23,5.47,4.86-5.79,3.7-7.75,10.42-.27.6-.43,1.71-1.39,1.45-6.21-1.66-8,5.12-12.62,6.54-2.19,9.78-9.88,4.63-15.05,9.56-1.89,4.34-9,2.68-8.91,7.79-4.19.91-7.5,3-9.08,7.17-1.84,4.76-4.87,1.29-8.09,1.8-3.75,2.42-14.37,1.16-10.45,8-2.59,0-4.57,2-7.16,1.88.33,2.91-1.66,4.55-3.39,6.36-.11.11,0,.53.08.7,2.53,3.45,1,3.42-1.93,2.29a10.46,10.46,0,0,0-5.58,4.77c-3,6.3-8.59,5.2-9.69,7.65.51,2.52-1.27,3.14-2.85,3.94-1.69,1.33-1.1,6.37-3.93,2.34-1-1.48-3.17-2.81-4.44-2-2,1.29-6,1.93-5.62,4.22.55,3.52-1.87,3.84-3.27,5.59s-2.52,5.33-1.67,6.32c4.53,4.81-5.54,9.24-4.37,17.07-3.33-1.71-5.63-9.06-9.33-8-1.55,1.94-5.59,1.58-5.08,5.34.07.53,1.81.84.29,1.53-2.55.32-3.05-5.74-6.06-4.29-2.59,1.15-7.65-.63-7.22,5,.05.66-.92.73-1.52.83-6,.34-5.56,7.68-10.66,8.93-4.31,2.32.15,4.89-8.11,7.25-1.37.76-1.31-2.32-1.74-3.77-3-9.21-13.54-1.42-17.45,2.83-4.08,4.58-3.72,5.08-8.68,1.13-1.45-1.15-2.76-1.22-3.53-.1-1.21,1.76-3.15,1.88-4.7,2.78-3.91,2.23-4.29,3.29-1.82,7.05-5.94,2.75-4.34-8.49-11-7.35-2.1,1.57-8.75,2.95-6.62,6.44,1.32,1.57.07,1.26-.66,2.08-1.49,1.69-5.07,1-4.91,4.32.14,2.83-3.56,5.86-6.15,4.92-2.12-.77-5.8,1.2-5.86,3.45,0,1.19-.15,1.57-1.23,1.57s-2.76,1.47-3.44,0c-1.33-2.86-4.65-4-5.52-7.33-.71-2.71-5.83-4.58-7.18-2.9-2.94,3.11-10.48,4.41-4.68,9.24-2.72-.2-3.23,2.77-5.07,3.21-5.26,1.19.15,3.38-1.59,5.07-.22.12-.92-.09-1-.27-1.32-4.81-6.91-6.84-7.67-12.13-.41-2.76-5.59-5.54-7.2-4.07-2.67,2.31-10.93,3.85-7.46,7.92-.86,4.33-8.6,1.56-6.48,8.52.31,1-1.32.9-1.91,1.48-5.52,4.55,7.92,4.48-2.68,10.11-2.89,6.16-3.8-8.44-11.42-1.26-3.72,2.48-3.72,2.48-5-1.73a4.94,4.94,0,0,0-6.91-2.91c-3.11,1.42-8.07,2.2-4.38,6.63-2.46-.54-3.44,1.41-5,2.26-2.57,1.4-1.67,5-3.89,6.81,8.85,8.55-19,8.89-19.81,1.61-4.88-10-5.25-1.81-9.21-3.72-10.84-10.92-12.13-26.77-19.09-39.74-2-2.87-5.64-4.48-6.43-8.35-.53-2.63-3.63-2.26-5.34-3.67-1-.79-2.31.85-3.21,2-.4.49-1.56.37-2,.86-1.07,1.21-3.43,1-3.65,2.91-.4,3.41-4.11,2.08-5.42,4.07-5.12-2.23-3.62-4.8-6.92-7.32-3-1.4-7.28.1-10.19,3.86-2.37-7.27-4.64-14.69-8-21.55-1.89-2.77-5.14-4.63-5.68-8.49-.27-1.91-5.85-4.34-6.65-3.21-3.71,5.26-9.61-.58-13.58,2.87-.11.1-.82-.2-.91-.43-1.37-3.87-5.5-5.9-6.43-10.16-3.11-7.84-8.54,0-11.39-3.24-4.95-5.63-7.35,4.71-11.75-.72-4.14-4.43-3.5-10.38-6.47-15.05-2.61-2.49-3.87-11.48-9-7.43-1.8,1.58-3,.64-3.39-1.45-.17-5.46-3.81-9.37-6.34-13.87-1.12-1.85-3.27-4.88-6.41-1.57-1.1,1.08-5.49,1.17-4.6,3.51,1.81,2.78-.9,2.78-2.06,3.46-1.6,1-3.28,1.74-4.88,2.74-8.57,6.21-7.26-.85-12.1.08-2.58,2.23-6.76,3-6.89,7.58-.07,2.34-2.26,4.25-4.06,3.23-5-3.74-8.83,5.54-11.2,2.42-1.13-4.52-5.84-6.32-7.43-10.52-1.08-2.84-4.18-3.26-6.77-1.7-1.77,1.06-4.64,3.94-5.6,2.31C19,881,13.41,888.22,11,889c-1.26.41-8.64-18-11-18v356H1920Zm-519.67-17.55c.17,0,.22.11.21.29Z" fill="#ebb44b"/></svg>