<svg id="Layer_1" data-name="Layer 1" xmlns="http://www.w3.org/2000/svg" viewBox="0 0 2048 1536"><defs><style>.cls-1{fill:#fefbd7;}</style></defs><g id="Layer_2" data-name="Layer 2"><path class="cls-1" d="M1451.86,982.5c-1.89,1.68-4.18.79-6.28.88-2.84.13-5.74-.23-8.4,1.08-8.67,4.27-15.48.36-21.93-5a49.26,49.26,0,0,1-4.29-4.26c-5.13-5.47-10.9-9.27-19-8a17.16,17.16,0,0,1-12.44-2.89c-8.11-5.29-17.54-5.11-26.59-6-7.44-.73-13.32-4-18.81-8.56-5.67-4.71-9.77-10.94-15.38-15.77-3.08-2.67-2.1-6.87-1.52-10.5,1.55-9.64,5.12-18.68,8.74-27.66,2.75-6.82,3-13.08-1.49-19.44-9.26-13-12.92-28-15.77-43.38-1.93-10.4-1.8-21-3.36-31.26-1.31-8.6-2.74-19.06-13.23-23-6.35-2.37-12.93-.59-19.28.65-8.09,1.58-16.06,0-23.9-1-5.26-.73-9.12-5.08-10.89-10.27-2.83-8.37-9.37-10.71-17.13-11.27-3.67-.27-7.41.14-11-.37-7.36-1-12.9-5.3-17.4-11-3.2-4-6-8.45-11.71-9.48a3.86,3.86,0,0,1-2.93-2.55c-3.53-9.82-12.73-14.27-19.76-20.77-6.74-6.21-15-8.53-23.84-10.57-11.52-2.66-18.46-10.9-20.76-22.68-1.89-9.67-6.66-18.52-8-28.37a11.59,11.59,0,0,0-4.43-7.59c-1.49,3.14-.36,6,.36,8.67,3.53,13.21,4.85,26.89,8.83,40,4.6,15.15,8.92,30.39,13.31,45.6.29,1,.46,2,1.4,2.53,4.28,2.37,6.37,6.4,7.73,10.74,2.34,7.44,8.6,12.72,10.74,20.29a115.52,115.52,0,0,1,4.29,26.09,263,263,0,0,0,7.49,49.84,29.15,29.15,0,0,1,.58,3.95c.43,4.44,1.65,8,5.74,11,6.11,4.41,7.31,12.13,10.28,18.61,6.86,15,8.49,31.07,10.23,47.17a97.78,97.78,0,0,0,2.91,16.23c.55,1.93,1.46,2.94,3.43,2.91,9.37-.13,13.88,6.27,16.63,13.63,7.78,20.81,15.37,41.7,24.9,61.77,4.46,9.39,7.48,19.21,10.82,29a1.69,1.69,0,0,1-.45,2.2c-2.4-4.81-5.35-9.3-6.94-14.23-3-9.2-8.28-17-13.14-25.16s-7.07-17.33-10.83-25.9a36,36,0,0,0-3.06-5.72,59.52,59.52,0,0,1-7.35-16.37c-2.54-8.45-5.06-13.5-14.75-12.12-4.46.64-6.61-2.42-8.59-5.67-5.66-9.31-7.11-19.79-7.6-30.29-.41-8.8-1.7-16.72-8.3-23.36a33.59,33.59,0,0,1-7.65-12.89,9.27,9.27,0,0,0-4.58-5.72c-7.07-3.19-9.3-9.57-10.61-16.11-2.74-13.7-4.84-27.54-7.13-41.33a26.27,26.27,0,0,1-.12-5,243.89,243.89,0,0,0-2.27-41.51c-1-7.12-4.27-13.93-6.6-20.85a3.43,3.43,0,0,0-1.68-1.76c-5.45-2.49-6.31-7.3-6.63-12.52a14.09,14.09,0,0,0-1.12-5.34c-5-10-4.68-21.1-6.66-31.68-1.07-5.73-3.43-11.16-3.55-17.11-.27-13.39-5.3-26.1-5.83-39.48a11.2,11.2,0,0,0-2-6.57c4.36-5.13,4.52-5.29,8.77-.69,15.38,16.63,33.44,30.38,49.54,46.26,12.32,12.16,22.35,26.15,33.51,39.23s23,25.56,41.51,27.62c6.3.7,12.63,1.18,19,1.38a116,116,0,0,1,54,15.12c5.33,3,8.28,8.06,10.35,13.75a236.67,236.67,0,0,1,7.61,27,75,75,0,0,0,11.32,25.52c8,11.73,12.79,25,17.42,38.24,7.26,20.71,19.29,38.38,32.43,55.55,7.43,9.71,16,18.45,23.86,27.72,11.3,13.25,27.11,19.2,42.57,25.67C1447.43,980.31,1449.91,980.83,1451.86,982.5Z"/><path class="cls-1" d="M468,1128.36c-7.31-.13-13.94-2.31-20.4-5.81-7.89-4.29-17.57-4.12-25.07-9.75a122.12,122.12,0,0,0-18.52-11,22.58,22.58,0,0,1-10.6-11.64c-4.18-9.73-10.39-18.65-11.4-29.63-.2-2.21-2.11-3.77-3.75-5.22-2.42-2.15-4.58-4.57-5.5-7.67-4-13.52-13.39-24.39-18.45-37.42a10.41,10.41,0,0,0-8.51-6.87c-6.17-.94-8.44-6.24-9.91-11.46-1.63-5.76-4.83-10.56-7.77-15.61-1.76-3-3.78-3.27-6.63-2.68-9,1.89-14.43-1.48-16.67-10.42-3.73-14.88-7.48-29.66-7.27-45.29.14-9.6-4.56-18.35-8.41-27.06-1.27-2.87-5.14-2.41-6.47-5.17,7.81-2.6,14.25-.32,19.19,7.35,5.7,8.84,10.58,18.25,16.71,26.78,8.94,12.45,19,24.1,28,36.52,12,16.54,22.36,33.95,29.09,53.53,9.75,28.38,21.86,55.81,38.83,80.7,5.9,8.66,13.31,16.93,22.57,21.81,7.57,4,15.82,7.07,23.61,10.91C463.36,1124.61,466.12,1125.87,468,1128.36Z"/><path class="cls-1" d="M1800.34,1037.84c-.52,3.74-3.82,4.54-6.47,5.61-11.09,4.44-22.45,4.06-29.74-8-3-5-6.76-9.55-9.92-14.46-3.35-5.18-6.57-10.38-8.51-16.4-2.39-7.4-5.62-14.46-11.85-19.74-3.1-2.62-3.94-6.49-4.07-10.45,4.28.51,6.67,3.68,8.91,6.75,6.88,9.41,13,19.44,20.49,28.32a283.31,283.31,0,0,0,25.65,26.1C1789,1039.33,1795.07,1037.55,1800.34,1037.84Z"/><path class="cls-1" d="M1586.81,1019.73c-7.36,5.81-18.75,5.36-26.08-1.61a100.79,100.79,0,0,0-20.28-15.33,12.87,12.87,0,0,1-4-3.82c-4.85-6.89-10.2-13.23-17.51-17.67-.44-.27-.48-1.2-.7-1.82,5.26.31,9.31,3.58,13.71,5.85,11.34,5.83,21.5,13.48,31.33,21.52,5.9,4.82,12.12,8.87,19.51,11C1584.19,1018.24,1585.86,1018.31,1586.81,1019.73Z"/><path class="cls-1" d="M576.72,1136.44c-1.47,5.17-5.4,6.3-10.09,6-1.31-.07-2.66-.91-3.88-.72-14.25,2.28-18.74-8.59-23.38-18.14-2.74-5.63-7.73-9.49-10-15.22,5.4-.44,9.53,2.59,12.62,6.13,7.66,8.75,17.78,14,27,20.54C571.37,1136.73,574.05,1136.51,576.72,1136.44Z"/><path class="cls-1" d="M1984.63,1040.86a5.16,5.16,0,0,1-4.68,4.59c-9.53,1.34-19.56,4-28-2.55s-18.14-11.23-25.06-19.33c-3.7-4.32-5.86-10-8.71-15,6.81.92,10.57,6.56,15.59,10.18,8.87,6.41,16.42,14.52,25.91,20.2a25,25,0,0,0,22,2.34A15.68,15.68,0,0,1,1984.63,1040.86Z"/><path class="cls-1" d="M91.31,1037.76c-.43,6.36-8.34,12.79-15.82,13.15-11.86.57-22.19-4-32.15-9.56-8-4.47-16.09-8.58-25.58-8.6-1.42,0-2.71-.14-3-1.88,12.81-.26,25.1,2.68,37.32,6.07,4.82,1.34,9.57,2.92,14.33,4.47a24.75,24.75,0,0,0,20.32-1.75A45.34,45.34,0,0,1,91.31,1037.76Z"/><path class="cls-1" d="M162.81,1013.59c-3.39,10.73-16.38,16.8-25.1,6.59-3.18-3.72-8-6.13-9.12-11.49,1.44-2,3.06-.57,4.46-.07,5.16,1.84,10.35,3.64,15.36,5.86S158.19,1016.89,162.81,1013.59Z"/><path class="cls-1" d="M1077.07,927.67a13.93,13.93,0,0,1,2.23,6.36c.49,4.15,1,8.33,4.59,11.29a4.2,4.2,0,0,1,1.31,2.09c2.9,11.33,9.42,21.21,13,32.31,1.71,5.32,6,8.54,11.31,11.07,11.42,5.45,19.79,14.3,24,26.35,3,8.43,7.17,16.17,11.66,23.81a75.39,75.39,0,0,1,7.38,17c1.94,6.66,6,12.36,8.2,18.86,1,2.8,3.33,3.45,6.11,3.28,6.55-.4,12.94.9,19.37,1.9a6.46,6.46,0,0,1,4.65,2.56c3.69,5.28,8.57,9.29,13.41,13.45a82.15,82.15,0,0,1,18.57,22.86c5,9.17,12.17,16.72,18.42,25a49.22,49.22,0,0,1,4.35,7.29c1.75,3.37-.07,5.76-2.26,8s-4.93,1.83-7.32.29a11.78,11.78,0,0,1-4-3.76c-2.26-4.08-4.85-7.15-10.14-6.2a2.61,2.61,0,0,1-2.17-1c-3.35-5.73-8.92-5-13.62-3.69-7.28,2-11.7-1.51-15.45-6.44-1.85-2.44-3.06-2-5.68-1.63-5.81.94-11.67.49-17.57,2.48-4.32,1.46-7.68-3.33-9.73-6.71-2.29-3.79-5.88-4.1-9.11-5.46-2.38-1-2.44,1.17-3,2.79-1.37,4-2.87,4.23-5.93,1.22-2-2-2.5-4.58-3.07-7.22-2.8-12.89-1.72-26.26-4.94-39.09-1.88-7.51-5.76-13.33-13.27-16.3-3.37-1.33-4.35-4.5-4.88-7.67-1.33-7.89-2.4-15.77-6.91-22.76a22.43,22.43,0,0,1-3-8.46c-.88-5.56-3-10.31-7.56-13.63-7.27-5.25-8.52-13.44-8.47-21,.09-13-2.06-25.62-3.63-38.32a38,38,0,0,0-4.53-12.92A25.38,25.38,0,0,1,1077.07,927.67Z"/><path class="cls-1" d="M892.28,1033.79c.21-21.1,11.61-34.39,26.83-45.26,3-2.12,4.92-4.92,6.9-7.8.64-.93,1.11-2.47,2.53-1.69,1.12.62.84,2.17.5,3.23a28.25,28.25,0,0,1-5.58,9.4c-8.17,9.66-16.46,19.21-22.29,30.59C899.05,1026.38,895.85,1029.73,892.28,1033.79Z"/></g></svg>