<svg xmlns="http://www.w3.org/2000/svg" width="1920" height="1400" viewBox="0 0 1920 1400"><path d="M1919.12,848.15C1888.32,838,1867.94,865.6,1856,856c-2.31-2.22-8.74-2.72-11-5-2.52-2.55-13-18-12.71-21.38-.36-2.6-11.49,4.74-12.54,4.31-10.25,3.92-5.58,6.43-11.75,9.07-9-1-12,3-29-20-17.9-20.63-25.15-19.38-34-41a21.77,21.77,0,0,0-6.17-8.16c-8.33-7.17-2.13-24.61-6-36.1-13.6-4.54-16.45,17.62-23.16,25.5-46.76,52.28-34.59,133.19-107.69,161.85v.15c-14.92,7.28-37.92-17.18-48.39-28.24-5-7-10.53-48.65-10.53-48.65-17.62-4.91-35.92-.83-52.71,5.3-.83,6.2-20.8,5.72-24.48,1.52-10.28-6.88-20.78-13.44-25.26-25.64-11.38,1.43-21.09,9.31-33.23,7.67-19,.68-36.41,10.52-54.91,14.19-2.3,5.1-7.3,5.16-11.7,5.89-6.44,1.06-11.4-1.55-15-7.07-5-7.73-11.24-14.75-14.24-23.65-1.92-10.72-11.85-13.91-11.91-22.55-36.93,5.12-68.93,32-107,33.85C1179.59,848,1169,830.62,1158,825.21c-5.69-5-9-12.36-16.07-16.05-.33-.2-.35-.9-.52-1.36-16.8,0-32.79,8.63-49.69,2.26-3.37,1.94-7.5-.45-11,1.46-14.8,7.25-19.67-15.51-33.79-12.84a12.88,12.88,0,0,1-9.31-2.15c-6.07-4-13.12-3.82-19.89-4.48-11.63-.93-18.29-10.93-25.79-18.5-4-8.4,3-19.9,5.61-28.21,2-5.1,2.23-9.76-1.14-14.51-6.8-9.58-9.69-20.62-11.75-32-3.23-17.59,1.57-49.28-26.88-40.36-35.3,3.95-17.7-15.07-38.84-16.88-20.26,1.67-17.24-10.07-30.36-15.83-1.47-.31-1.75-1.64-2.43-2.66-18.12-28.94-42.27-14.81-47.6-39.35-1.42-7.22-5-13.83-6-21.19a8.45,8.45,0,0,0-3.29-5.61c.75,22,9.91,43.81,15.53,65.31,1,3.44,1.48,7.17,5.13,9.46,1.83,1.15,2.51,3.71,3.15,5.84,1.66,5.47,6.32,9.28,7.87,14.82,4.63,19.78,4,40.31,9.26,60,.4,3.16,1.34,5.72,4.26,7.83,14.38,16.69,12.92,40.82,17.54,61.23,2.41,5.46,10-1.78,15,12.35,7.5,23.65,20.4,45.24,26.35,69.34-5.14-8.09-6.73-18-12.56-25.45-4.9-7.17-7-15.45-10.49-23.14-2.65-5.54-6.6-10.29-7.74-16.51-2.16-13.49-12.51-4.76-17.57-13.36-5.48-9.31-5-20.17-6.42-30.45-1.62-7.6-8.94-11.9-11.17-19.27-4.12-7.45-10-5.12-11.42-16.66-5.56-21.47-4.69-43.44-7.06-65.25-.76-5.32-1.82-11.79-5.27-15.23C828.63,612.25,831.39,580,823.51,552c-38.22,30.19-62.25,74-96.5,108a15.6,15.6,0,0,0-4.5,7.65c-2.49,10.9-7.77,20.47-13.86,29.73C690.9,721.81,710,739.55,683.73,752c-27.57,14.75-55.31,29.35-80.91,47.38-28.35,23.85-70,28.8-93.39,59.74A510.58,510.58,0,0,1,437,925c-2.09,6.47-8.58,4.07-13.83,3.81-11,.89-14.85-17.81-21.62-24.77-9.88,5.09-18.69,13-28,19.35-3,2.31-5.56,2.69-8.77.62-7.27-5.9-16.54-4.75-24.43-9.38-24.86-8.48-44.29-17.31-49.07-46.31-1-3.86-6.12-5.48-6.92-9.63-3-10.09-10-18.21-13.8-28a7.82,7.82,0,0,0-6.37-5.13c-9.75-.86-8-23.64-18.19-22.22-6.76,1.42-10.8-1.1-12.47-7.78-2.79-11.12-5.6-22.16-5.44-33.83.1-7.17-3.41-13.7-6.3-20.21-1-2.15-3.84-1.8-4.83-3.87-36.21,33.09-42.63,70.38-89.69,95.54-6.11,15.31-20.22,8.16-25.61-3.66-10.44,5.77-18.81,14.19-27.88,21.71-10.22,25.08-38.26-4-55-3.74-1.06,0-2-.1-2.27-1.4-5.71-.84-11,1.16-16.52,2.16v377.52H1602v.58c106.12,0,213,1.18,318-.57V848.35Zm-1218.5-38.5c-4.92,11.16-15.83,18.64-20.83,30-1.58,3.11-4,5.58-6.61,8.67-1.08-19.57,14.38-27.53,25.21-39.7C699.24,806.23,701.55,807.65,700.62,809.65Zm235.1,133.88c-4,3.49-8.25-2-10.16-5.2-1.95-3.84-6.7-.05-9.71-5-5.69-5.22-11.59,5.65-19.55-5.5-1.78-3-13.82,0-17.42.71-3.22,1-5.71-2.56-7.24-5.09-1.72-2.83-4.47-3-6.86-4-1.47-.67-1.71.72-2.1,1.84-1.19,3.43-2.35,3.59-4.8.83-5.22-10.61-2.37-23.46-5.75-34.7-2.18-11.88-12.34-9-13.51-17.54-.32-8.61-5.33-15.58-7.48-23.69-.7-3.86-2.16-7.21-5.38-9.51-5.6-4-6.58-10.2-6.53-16,.09-9.68-1.56-19.13-2.74-28.61-1.14-7.58-7.41-14.55-5.67-22.87l1.1-.21c1.33,5.26,1.24,10.6,5.44,14.58,15,48.54,23.78,23.12,36.27,52.45,6.58,14.87,14.4,29,20.21,44.23,2.82,6.1,19.23,0,23.44,7,7.63,8.89,18,15.33,23.22,26.24C923.05,921.45,944,936.82,935.72,943.53Z" fill="#BDBDBD"/></svg>
