<svg xmlns="http://www.w3.org/2000/svg" viewBox="0 0 2048 1536"><defs><style>.cls-1{fill:#e24234;}</style></defs><g id="Layer_3" data-name="Layer 3"><path class="cls-1" d="M2048,973a60.54,60.54,0,0,1-5.94,1.94c-3.26.81-4,2.66-2.7,5.41.52,1.06,1.22,1.31-.48,1.81-4.86,1.42-5.78,2.38-8.6,7.44-.27.48-1,.75-1.65,1-2.46.95-3.82,2.11-1.57,4.72,1.2,1.39.29,3-.58,4.12-1.33,1.69-2.17-.42-3.27-.69-1.92-.45-3.18-3.13-5.26-2.11a51,51,0,0,0-7.36,4.92,2,2,0,0,0-.58,1.8c2.53,4.59-2,4.85-4,6.61-.45.39-1.63.62-1.34,1.14,2,3.69-5.23,8.4,1.89,11.07-1.58,1.15-2.45.59-3.43.41-2.29-.42-8.74,3.51-8.14,5,1.54,3.9-1.41,4.65-3.52,6-.76.51-1.62,1.15-1.22,1.88,1.44,2.62-3.3,6.17,1.27,8.27a2.56,2.56,0,0,1-.28,1.26c-3.8,7.4-3.43,10,2.32,14.54-2.64,1.67-5.45,3.3-4,7.15-4.67,1.1-6.58,4.75-9.19,8.41-4,5.65-10,9.58-16.77,11.88-1,.36-2,1.66-3.14.65-5.62-4.84-9-.47-12.48,3.06-5.07,5.11-4.33,11.87,2,15.34,1.94,1.07,1.44,2,1.35,3.51-.31,5.05-4.38,8.64-5.15,13.32-1.09,6.6-6.59,9.18-10.57,13.22-2,2-6.27,1-6.3,5.29,0,3.81-2.43,4.81-5.9,5-3.74.16-7.39.3-8.6,5.5-.66,2.88-4.73,2.94-7.36,3.24-2.47.28-1.46-2.78-2.26-4.2a62.17,62.17,0,0,0-5.89-9c-1.08-1.31-2.77-2-5.18-.7-4.12,2.19-4.83,6.72-7.72,9.69-.71.74-2.81,2.91-.8,5.59,1.3,1.72-2,3.56-3,5.5-.72,1.41-2.11-.59-3.09-1.36-7-5.5-19.14-1.1-20.19,7.64-.71,5.89-3.7,9.77-8.35,13-1.58-5-6.06-7.7-8.51-11.91-.64-1.09-2.87-2.63-4.79-.8a1.68,1.68,0,0,1-2.6,0c-2.79-2.39-5.3-1.8-7.87.56-1.3,1.19-3,1.49-4.91,1.81a23.37,23.37,0,0,0-8.43,3.73c-1.72,1.1-1.57,3.14,0,4.76,0,0-.54,1-.76.93-2.33-.31-4,2-4.72,2.88-1.94,2.39-4.42,6.87-3.4,8.61,1.93,3.34,2.45,4.87-1.18,6.61a1.78,1.78,0,0,0-.94,2.52c1,2.08-.76,3.84-.46,6.08.39,3-3,2.76-5.45,3.54-6.15,2-9.52,8.35-15.58,10.77-1,.38-1,1.66-1,2.68,0,3.14-.67,5.53-2.29,7s-5.21,1.26-4.29,5.14c.18.76-1.56.6-2.06.22-5.27-4-7.81,2.23-11.75,3.15a2,2,0,0,0-.94,2.59c2.77,3.3-.56,4.06-2.15,5.45-1.91,1.66-5.93,2.18-3.07,6.23.09.13-.68,1-1.18,1.39-2.33,1.63-2,3.12.07,4.69,2.64,2,1.65,3.39-.66,4.81-4.3,2.66-3.84-1.77-4.7-3.39-2.06-3.89-8.92-7.62-11-5.16s-4.57,3.07-6.77,4.64c-4.61,3.28-5,5.28.81,10-6.35-1.93-6.29,5.34-11.29,4.67-.84-.11-1.43,2.16-.65,3,3.84,4.2-.59,4.9-2.8,6.88-1.29-4.64-5.59-7.17-7.1-11.64-.47-1.37-3.06-3.5-4.92-2.29-2.25,1.46-6.72,1.46-6.42,4.61.32,3.41-2.09,3.82-3.42,5.45a24.73,24.73,0,0,0-2.11,2.8,12,12,0,0,0-1-1.65c-1.61-2.2-4.67-3.55-5.07-6.43-.46-3.33-3.7-5-6.16-4.91a11.7,11.7,0,0,0-3.56.76c-3.34-3.41-7.14-.83-10.73,1.52-2.42,1.58-4,3.09-3.12,5-3.4-1-6.21,1.8-9.37,3.15-4.05,1.74-1.33,4-.3,6.68-5.31-1.79-4.8-5.77-6.1-8.71-2.5-5.68-8.67-8.85-11.67-14.17,0-.09-.36,0-.47-.1-4.37-3.39-7,.61-10.3,1.93-4.1,1.65-4.68,3.85-1.11,6.75-1.73.42-3.44,1.65-4.51-.26a36,36,0,0,0-12.76-13.5c-1.35-.82-.92-2.15-1.41-3.18-2-4.08-.4-8.82-4.4-12.8-2.75-2.74-5.86-6-6.47-10.57-.38-2.82-7.37-5.15-9.2-3.51s-3.83,1.7-5.68,2.56c-5,2.33-5.54,3.52-2.1,8.36-4.76-1.71-6.09,3.7-10.26,3.09-.17,0-1,1.53-.79,1.89,1.8,2.53,1,4-1.92,5.11-1.18.47-2,2-.91,3.08,1.73,1.74-1.51,3.77.59,5.39a1.83,1.83,0,0,1-.69,1,.54.54,0,0,1-.27,0c-.44-.43-.88-.86-1.3-1.3a9.26,9.26,0,0,0-1.53-2.06,5.27,5.27,0,0,1-.56-1.8,6.15,6.15,0,0,0-5.44-5.38c-1.22-2.26-4.06-3.31-6-2.49-2.68,1.17-7.9,1.88-7.09,5.2s-1.71,4.2-3.06,5a6,6,0,0,0-1,.76c-3.85-2.19-6.88,1.42-10.33,3-4,1.92-1.33,4.4-.3,7.39a9.48,9.48,0,0,1-1.53-.74,12.74,12.74,0,0,0-3.68-5.82h0a23.8,23.8,0,0,0-.87-3.07c-2.5-6.28-8.66-9.79-11.65-15.67,0-.1-.36,0-.47-.11-4.37-3.75-7,.68-10.29,2.14-4.1,1.82-4.68,4.25-1.11,7.46-1.72.46-3.43,1.83-4.51-.29a38.46,38.46,0,0,0-12.74-14.93c-1.35-.91-.91-2.38-1.4-3.52-2-4.51-.41-9.75-4.4-14.16-2.74-3-5.85-6.68-6.46-11.68-.39-3.13-7.36-5.7-9.19-3.89s-3.82,1.89-5.68,2.84c-5,2.58-5.53,3.88-2.09,9.24-4.76-1.88-6.09,4.09-10.25,3.42-.17,0-1,1.7-.79,2.1,1.8,2.8,1,4.37-1.91,5.65a2.16,2.16,0,0,0-.91,3.4c1.72,1.93-1.51,4.17.59,6a2.12,2.12,0,0,1-.7,1.11,1.2,1.2,0,0,1-1.12-.32c-1.38-4.37-6.22-6.22-7.64-10.59-1-3-4.2-4.45-6.26-3.46-2.68,1.29-7.9,2.07-7.08,5.75s-1.72,4.65-3.06,5.54a4.17,4.17,0,0,0-1.76,1.94c-.14-.15-.27-.3-.43-.45a41.74,41.74,0,0,1-5.57-7.14c-1.46-2.1-4.4-5.09-8-2.94a41.81,41.81,0,0,1-5.53,2.83,8.29,8.29,0,0,0-2.1,1.18c-.43-.35-1.11-.63-1.55-1-4.5-4-7.74.09-11.26,1.84a17.72,17.72,0,0,0-2.32,1.13c-2.68-3.2-3-7.28-3.77-11.14a6.31,6.31,0,0,0-1.49-3.7c-4-4-9-7.21-10.49-13-.92-3.4-9-6.51-11.18-4.49-1.84,1.71-4.23,2.19-6.07,3.51s-4.6,1-5.38,4.09,2.26,3.42,3.08,5.32c-2.77.9-5.7.58-6.78,3.91-.52,1.64-3.83-.22-5.7.76-1.52-4.32-7.72-5.17-8.76-10.13-.73-3.44-9-7.12-11.37-5.29-2.72,2.11-5.93,3.31-9,5.33,1.68-3.94-1.58-6.57-2.82-9.62-1.76-4.36-2.38-9.25-6.3-12.78-2.08-1.88-4.3-3.54-5.59-6.16-.81-1.65-4.28-3.1-5.31-2.44-2.62,1.67-6.22,2.39-7.73,5.3-.28.53.08,1.45.4,2.08.22.44,1.39.94.62,1.26-4.27,1.77-5.57,5.29-6.9,8.86-.48,2.2,2.11,2.4,3,3.72s.8,2.33-.54,3.07c-1.54.87-2.12.1-2.76-1.3-1-2.12-2-4.31-4.23-5.77-1-.63-.64-1.58.15-2.31l-.57-1.66a2.09,2.09,0,0,1-1.43-1.82c-3.46-2.13-11.35-.09-10.91,3,.34,2.36-1.17,2.58-2.33,3.53l-.33.24a7.11,7.11,0,0,0-1.47-4c-4-4.38-8.93-8-10.48-14.32-.92-3.77-9-7.2-11.17-5-1.83,1.9-4.22,2.43-6,3.89s-4.6,1.13-5.37,4.52,2.26,3.77,3.07,5.89c-2.77,1-5.69.65-6.77,4.32-.53,1.8-3.83-.24-5.7.83-1.52-4.78-7.71-5.72-8.75-11.2-.72-3.81-9-7.88-11.36-5.84-2.71,2.34-5.92,3.65-9.18,6.06,2.1-4.59-1.37-7.44-2.58-10.81-1.74-4.83-2.38-10.24-6.3-14.14-2.08-2.08-4.29-3.92-5.58-6.82-.82-1.82-4.27-3.42-5.31-2.69-2.61,1.85-6.21,2.65-7.71,5.86a3.29,3.29,0,0,0,.4,2.31c.22.48,1.39,1,.61,1.39-4.26,2-5.55,5.86-6.89,9.8-.47,2.43,2.12,2.65,3,4.11s.8,2.58-.54,3.4c-1.54.95-2.11.11-2.76-1.45-1-2.34-2-4.77-4.23-6.38-1-.69-.63-1.74.16-2.55l-.57-1.84a2.27,2.27,0,0,1-1.43-2c-3.46-2.37-11.34-.11-10.89,3.33.34,2.62-1.18,2.86-2.33,3.9-1.44,1.31-3.55,1.32-3.62,4.72,0,2-2.11,4,0,6.37.72.81-.26,1.5-1,1.81-2.55,1-2.68,3-2.42,5.27.31,2.82-1,4.49-3.64,5.31-2,.65-3.61,1.32-4.58,3.84-1.1,2.89,1.95,3.31,2.32,5.2-2,.59-4.06.25-5.36,1.77-.76.89-.61,3.07-2.53,2.17a3.41,3.41,0,0,1-1.94-3.76c1-4.06-2.49-6.24-4.11-8.88-1.37-2.23-3.15-4.25-3.65-6.85-.72-3.76-4.21-4.27-6.64-5.9-1.12-.75-10.81,5-11.18,6.2s-.7,2.24.55,3.14,1,1.32-.37,2c-4.51,2.15-4.84,2.63-7.59,8.47a1.38,1.38,0,0,1-.7.67c-4.72,1.82-3,4.11-.55,6.55,1.26,1.27,1.67,2.51-.51,3.4-3,1.24-5,3.23-4.34,7.23-.77-3.74-5.27-3.86-5.94-7.26a6.28,6.28,0,0,0-6.82-5.28c-3.13.45-6,3.1-8.82,5a2.42,2.42,0,0,0-.36,2.33c.91,1.66,2.49,2.75-.84,4-1.66.6-3,2.55-5.2,2.79-.78.09-1.52,0-1.67-.65-1.21-4.73-6.45-7-6.88-12.53-.29-3.77-8.18-7.39-10.45-5.17-2.06,2-4.63,2.43-6.88,3.64-5.12,2.74-5.82,4.73-1.76,9.57-4.57-1.55-5.46,3.92-9,3.77s-3.48,1.73-2.71,4.12c.42,1.28,2.29,2.54,0,3.69s-3.06-.45-4.1-2.18c-2.43-4-6.32-4.24-10.28-1.77-1.9,1.18-4.36,5.06-7.06,1.37-2-2.69-5.11-4.71-5.74-8.27s-3.67-5.76-6.06-5.54a15.69,15.69,0,0,0-9.4,4.81,2.14,2.14,0,0,0,.34,3.16c1.37,1,.45.89-.32,1.71-2.13,2.31-8.46,1-6.41,7.09a13.29,13.29,0,0,0-1.82.3h0c-.6-.76-.73-1.87-1.25-2.71-1.51-2.45-3.79-4.69-6.59-4.16-4.94.94-8.19,5.21-7.27,8.77.51,2-.93,1.28-1.58,1.55a10.17,10.17,0,0,0-3.82,3,9.89,9.89,0,0,0-2.85-4.51c-2.24-1.93-3.72-4.43-5.41-6.78-1.2-1.68-4-5.49-7.7-1.79-1.37,1.35-2.88.53-3.09-.64-.84-4.73-6.39-6.24-8.38-10.28-.55-1.12-3.38-4.22-6.36-1.11-1.75,1.84-3.36.65-3.37-1.07,0-2.61-1.31-4.32-2.88-6.31-2-2.57-4.35-5-5.38-8.29-.89-2.9-5.74-3.53-9-1.9a16.63,16.63,0,0,1-3.23,1.11c-4.41,1.16-4.28,3.42-1.89,6.25-4.64,1.25-6.52,2.83-7.53,6.35a37.14,37.14,0,0,0-5.14,3.3c-4.29,2.81-4.54,4.12-1.27,8.06a10.94,10.94,0,0,0-1.7.78c-8.1-7.09-9.27-16.78-11.35-26.07a13.88,13.88,0,0,0-2.29-5.06c-2.31-3.42-6.46-5.79-7-10.39-.31-2.76-7.2-5.82-9-4.34-2.19,1.84-4.84,2.48-7.39,3.37s-3.5,3.57-2.54,4.63c2.58,2.84-.13,2.5-1.63,3.31-1,.55-1.73,1.61-2.81,2.66-2.28-4.58-5.52-6-10.4-2.92-1.57,1-3.44,1.38-2.55,3.58.25.62.43,1.13-.47,1.36s-1.76.31-2.28-.41-.71-1.69-1.21-2.45c-1.36-2-3.92-4-5.92-3-2.66,1.36-7.81,1.34-7.46,4.94,0,.18,0,.35,0,.51a14.07,14.07,0,0,1-4-4.94c-.57-1.43-3.81-3.4-4.87-2.43-5.45,5-4.85.54-5.23-2.92a5.42,5.42,0,0,0-1.05-2.14c-2.28-3.48-5.47-6.24-6.7-10.56-1.05-3.67-5.58-4.56-9.22-2.55a15.91,15.91,0,0,1-3.23,1.22c-4.41,1.29-4.28,3.78-2.17,6.54-2.11,3.17-9.49,1.07-7.5,8.18-1.92-.5-4.26-.15-7.09.71-.56.17-1.4-.41-1.95-.23-2,.62-4.34.32-6.59.31,0-.08-.05-.17-.06-.24-.8-5.86-3.37-11.32-3.52-17.24,0-2-1.3-3.41-2.26-5.09-2.21-3.87-6.45-6.41-7-11.51-.31-3.05-7.2-6.43-9-4.78-2.19,2-4.84,2.73-7.39,3.71s-3.48,4-2.52,5.13c2.56,3.15-.16,2.77-1.64,3.66-1,.61-1.73,1.78-2.8,3-2.28-5.1-5.53-6.57-10.4-3.24-1.57,1.08-3.43,1.53-2.53,4,.25.68.42,1.24-.48,1.49s-1.76.35-2.27-.45-.71-1.87-1.22-2.72c-1.35-2.25-3.91-4.44-5.91-3.3-2.66,1.5-7.79,1.47-7.45,5.46.33,3.78-1.86,4.73-3.93,5.8-1.35.7-2.13.82-2,2.61.25,3.93-2,5.36-5.52,3.65-5.38-2.64-10.52-6.25-16.49-7-5.45-.73-9.67-4.69-10.62-8.07-2.19-7.75-6.1-8.31-12.34-6.21-.56.18-1.4-.45-1.95-.26-4.85,1.7-12.46-2.84-13.75,6.35-3.5-1.84-3.5-1.84-7.3-.74-9.25,2.69-12.52.88-14.79-8.11a8.48,8.48,0,0,0-1.1-1.88c-.62,1.83.13,3.58-.94,5-1.61-.49-1.47-3-3.72-2.94.08,2.63,3.1,6-2.11,7.11a12.11,12.11,0,0,1-4.88-.08c-3.09-.61-5-.3-5.87,3.64-1.39,6.38-7.25,8.36-13.5,6.28-5-1.66-10.39-3.37-15.17,1.21a9.41,9.41,0,0,1-4.67,2.74c-7.64,1.06-15.6,7.47-22.86-1-.32-.38-1.25-.39-1.88-.36a40.79,40.79,0,0,0-11.31,1.9c-2,.7-3.23,1.45-1.19,3.31,2.54,2.31.72,2.86-1.23,3.54-7.45,2.58-14.33,6.32-21.16,10.2a73.77,73.77,0,0,1-23.47,8.31c-2.1.37-4.69,1.12-5.9-1.27s-3.92-3.85-4.65-6.91c-.5-2.15-3.52-4.25-5.34-3.23-2.51,1.41-7.41,1.4-7,5.23.35,3.4-1.84,3.91-3.37,5.21-.75.64-2.41.35-2.44,1.89s-.61,2.08-2.07,2.09a2.71,2.71,0,0,1-2.88-2.29c-.49-7.09-5.89-11.49-9.08-17.08-1.46-2.56-3.74-4-6.58-3.1-4.66,1.46-6.34,4-5.89,7.42.3,2.3-2.89,1.72-3.46,3.67-.2.68-1.93,0-2-.64-.55-5.22-5.85-7.37-7.52-11.89-.91-2.47-4.72-4.37-5.61-3.31-2.09,2.48-8.31,1.52-6.57,7,.83,2.61-1.09,2-1.95,2-6.29.47-7.19,1-9.2,7.1a8,8,0,0,0-2.13.78c-5.67,3-6.49,2.61-8.62-3a15.78,15.78,0,0,1-1.24-5.48c-.05-4.45-4.12-7.54-6.82-10.13-2.93-2.8-5.33-5.35-6.5-9-.83-2.56-7.57-7.46-10.53-7.48-1,0-2.4,0-2.86.56-3.59,4.19-10.39,3.62-13.95,7.81-.86,1-1.71.26-2.43-.45-1.3-1.29-1.64-2.9-2.18-4.5-1.36-4-6.2-5.52-10.25-3.43a28.23,28.23,0,0,1-3.26,1.06c-5,1.81-5.49,3.12-2.78,7.54-1.6-.28-3.75,1.66-4.46-1.22-1.39-5.68-2.53-11.43-4.28-17-1.06-3.37,0-7-3.39-10.33-1.83-1.79-4.87-3.93-5.28-7.11-.69-5.26-5.55-7.63-9.72-9.78-5.87-3-10.42-7.12-11.28-12.78a74.65,74.65,0,0,0-4.88-17.43c-.84-2-2.9-4.34-4.91-3.64-2.54.89-7.39.11-7.32,3.3.07,3-1.8,2.86-3.29,3.29-5.28,1.54-7.8.22-9.28-4.57a3.83,3.83,0,0,0-2.24-2.83,4.77,4.77,0,0,1-3.25-4.24c-.29-3-3.09-5.36-5-5.41-1.29,0-38.9-1.58-83.51-3.34a15.26,15.26,0,0,1-1.47-4.44,103.15,103.15,0,0,0-4.78-19.3c-1-2.57-2.92-5.17-5.1-4.45-2.53.84-7.39.09-7.3,3.63.09,3.32-1.82,3.16-3.29,3.63-5.27,1.71-7.77.25-9.26-5.06-.38-1.36-.92-2.61-2.25-3.13a5.2,5.2,0,0,1-3.23-4.7c-.3-3.36-3.1-5.92-5-6-3.2-.08-6.47,2-9.65,3.26-.41.16-.42,1.2-.73,1.78-.53,1,2.29,2.49-.23,3-2.32.45-2.49-1.34-2.55-3.23-.23-6.59-3.12-12.36-6.07-18-.83-1.6-2.42-3.19-4.21-3a5.7,5.7,0,0,1-4.43-1.76c-2-1.81-3.54-2.11-6.1-.65-3.32,1.9-5.23.44-4.71-3.54.26-2-.43-3.64-1-5.53C5.52,988.4,1.74,986.12,2,982a13,13,0,0,0-2-7.16V1536H2048ZM16.38,1045.53c-1.9-2.91-6.37-1-6.44-5.66,0-1.84.36-2.64,2.05-3.14s2.88.21,2.78,1.74c-.16,2.33,1.66,1.43,2.56,2C17.07,1041.84,16.81,1043.25,16.38,1045.53Zm6.18,1.32c-.4,1.48-1.24.57-1.8.29-1.33-.68-1.92-1.44-.88-3.09,1.58-2.49,1-3.88-1.5-3.78.92-.66,1.7-2.18,3.19-.42C23.46,1042.09,23.25,1044.37,22.56,1046.85ZM997,1234.78c-1.49,1.93-3.13.23-5-1.37,4.47,1.17,3.82-2.15,4.1-5C998.89,1230.83,998.29,1233.14,997,1234.78Zm103.71-12.6c-.94,0-3.22-.11-3-1.84a5.54,5.54,0,0,1,4.06-4.44c.59-.18,1.69,1.31,3,2.41C1102,1218.58,1103,1222.06,1100.73,1222.18Zm4.31-.87s-.06-.18-.09-.28l.57.17A1.88,1.88,0,0,1,1105,1221.31Zm106.17-9.75a6.9,6.9,0,0,1-.39-1.19,4.53,4.53,0,0,0-1.3-2.37c.26-1-.64-2-1.19-3a3.31,3.31,0,0,1,4.43,1.79C1213.83,1208.72,1211.57,1209.86,1211.21,1211.56Zm1.5-10.85a1.37,1.37,0,0,1-1.71-1.2c0-.5.55-1,.75-1.35,1.1-.13,1.47.31,1.54,1S1213.48,1200.6,1212.71,1200.71Zm10.06-2.74c-1.86,1.84-3.42,4.07-6,4.54-1.46-.14-2.41-.66-1.63-1.9s-.32-4.36,2.21-3.52c2,.67,2.68,1.32,3.51-1.13.18-.54,3.1-2.34,4.23-.36C1226.14,1197.42,1223.59,1197.16,1222.77,1198Zm115.25,38.3c-1,1.08-1.68.6-2.52.17-1.1-.57-2.08-1.3-.46-2.26,2.2-1.3.69-2.5-.22-4.13C1340.15,1231.22,1340.87,1233.07,1338,1236.27Zm1.48-9.82a.88.88,0,0,1-.29,0c-.76,0-1.72-.29-1.54-1.22a1.83,1.83,0,0,1,1.2-1.13c.75-.16,1,.49,1.08,1.1C1339.88,1225.66,1340.08,1226.32,1339.5,1226.45Zm10-2.48c-1.93,1.58-3.44,3.66-6,4.15-1.78-.09-2.47-.74-1.6-2,.7-1-.28-4,2.4-2.76,2.29,1.1,2.34.81,3.1-1,.25-.62,3.1-2.1,4.29-.49S1350.36,1223.27,1349.52,1224Zm23.26,16.14c-.09-.21-.18-.42-.25-.64.17.22.34.44.51.69A2.38,2.38,0,0,0,1372.78,1240.11Zm115.92,32a1.78,1.78,0,0,0-1,2,4.16,4.16,0,0,1-4.71,1.33,2,2,0,0,1-1.28-2.85c.7-1.75,2.09-2.13,3.64-1.11,1.13.75,2.44-.75,3.71.45Z"/></g></svg>